<?xml version="1.0" encoding="utf-8"?>
<svg xmlns="http://www.w3.org/2000/svg" viewBox="-294.2067 365.1188 245.79 38.79" width="245.79px" height="38.79px">
  <defs>
    <style type="text/css">
	.st0{opacity:0.8;fill:#F0F0F0;}
	.st1{fill:#FFFFFF;}
	.st2{fill:none;stroke:#E51C52;stroke-width:1.5969;stroke-miterlimit:10;}
	.st3{fill:none;stroke:#000000;stroke-width:2;stroke-miterlimit:10;}
	.st4{fill:#E51C52;}
	.st5{opacity:0.05;fill:#E51C52;}
	.st6{fill:#FFE54D;}
	.st7{fill:#6ADBC6;}
	.st8{fill:#FF73C0;}
	.st9{fill:#D0D0D0;}
	.st10{fill:#ED4C5C;}
	.st11{fill:#0071B8;}
	.st12{fill:#616466;}
	.st13{fill:#FFCE31;}
	.st14{fill:#C79127;}
	.st15{fill:#94989B;}
	.st16{fill:#66CAF2;}
	.st17{fill:#B0BDC6;}
	.st18{fill:#CAD5DD;}
	.st19{fill:#DFE9EF;}
	.st20{clip-path:url(#SVGID_00000003788647492567396620000012193650055540771981_);}
	.st21{fill-rule:evenodd;clip-rule:evenodd;fill:#FFE1D2;}
	.st22{fill-rule:evenodd;clip-rule:evenodd;fill:#FFFFFF;}
	.st23{fill-rule:evenodd;clip-rule:evenodd;fill:#8DCCDD;}
	.st24{fill:#242424;}
	.st25{fill:#464646;}
	.st26{fill-rule:evenodd;clip-rule:evenodd;fill:#F6CB36;}
	.st27{fill-rule:evenodd;clip-rule:evenodd;}
	.st28{fill:#FF74AB;}
	.st29{clip-path:url(#SVGID_00000089567955497710894950000004564939106291094162_);}
	.st30{fill-rule:evenodd;clip-rule:evenodd;fill:#FFAFDB;}
	.st31{fill-rule:evenodd;clip-rule:evenodd;fill:#FFA5D1;}
	.st32{fill:#E4A374;}
	.st33{fill:#F2846B;}
	.st34{fill:#626262;}
	.st35{fill:#FF3D2B;}
	.st36{clip-path:url(#SVGID_00000072247754958669075860000003563604013372425393_);}
	.st37{fill-rule:evenodd;clip-rule:evenodd;fill:#FF8F71;}
	.st38{fill-rule:evenodd;clip-rule:evenodd;fill:#FF804E;}
	.st39{fill-rule:evenodd;clip-rule:evenodd;fill:#FFBCD3;}
	.st40{clip-path:url(#SVGID_00000044897576142351777560000005580061451103683720_);}
	.st41{fill-rule:evenodd;clip-rule:evenodd;fill:#FFC0DB;}
	.st42{fill:#FF5F49;}
	.st43{clip-path:url(#SVGID_00000037663531149197560620000016902674294341047205_);}
	.st44{fill-rule:evenodd;clip-rule:evenodd;fill:#EA6789;}
	.st45{fill-rule:evenodd;clip-rule:evenodd;fill:#FFDDD2;}
	.st46{fill-rule:evenodd;clip-rule:evenodd;fill:#463124;}
	.st47{clip-path:url(#SVGID_00000093876712289763696530000013491624063632452539_);}
	.st48{fill:#D9816D;}
	.st49{fill:#EEAC95;}
	.st50{fill-rule:evenodd;clip-rule:evenodd;fill:#ADECE4;}
	.st51{clip-path:url(#SVGID_00000060741536368871064450000000748190747862479003_);}
	.st52{fill-rule:evenodd;clip-rule:evenodd;fill:#FFE2D3;}
	.st53{fill:none;stroke:#000000;stroke-width:3.9615;stroke-linecap:round;stroke-linejoin:round;stroke-miterlimit:22.9256;}
	.st54{fill-rule:evenodd;clip-rule:evenodd;fill:#FFDECA;}
	.st55{fill:none;stroke:#985C3B;stroke-width:3.786;stroke-linecap:round;stroke-linejoin:round;stroke-miterlimit:22.9256;}
	.st56{fill-rule:evenodd;clip-rule:evenodd;fill:#454544;}

		.st57{clip-path:url(#SVGID_00000135690378772157544680000008592861349934607804_);fill-rule:evenodd;clip-rule:evenodd;fill:#212121;}
	.st58{fill-rule:evenodd;clip-rule:evenodd;fill:#676155;}
	.st59{fill:none;stroke:#000000;stroke-width:3.9615;stroke-miterlimit:22.9256;}

		.st60{clip-path:url(#SVGID_00000007392077890153935540000011798188029761511558_);fill-rule:evenodd;clip-rule:evenodd;fill:#212121;}
	.st61{fill-rule:evenodd;clip-rule:evenodd;fill:#ABABAB;}
	.st62{fill-rule:evenodd;clip-rule:evenodd;fill:#232323;}
	.st63{fill:none;stroke:#676155;stroke-width:3.9615;stroke-linecap:round;stroke-linejoin:round;stroke-miterlimit:22.9256;}
	.st64{fill:none;stroke:#000000;stroke-width:3.9615;stroke-linecap:round;stroke-miterlimit:22.9256;}
	.st65{fill:none;stroke:#49443B;stroke-width:3.4954;stroke-linecap:round;stroke-linejoin:round;stroke-miterlimit:22.9256;}
	.st66{fill-rule:evenodd;clip-rule:evenodd;fill:#A7F9FD;}
	.st67{fill:none;stroke:#000000;stroke-width:3.786;stroke-linecap:round;stroke-linejoin:round;stroke-miterlimit:22.9256;}
	.st68{fill:none;stroke:#49443B;stroke-width:2.3303;stroke-linecap:round;stroke-linejoin:round;stroke-miterlimit:22.9256;}
	.st69{fill:none;stroke:#25231E;stroke-width:5.126;stroke-linecap:round;stroke-linejoin:round;stroke-miterlimit:22.9256;}
	.st70{fill-rule:evenodd;clip-rule:evenodd;fill:#F9DDCB;}
	.st71{fill:none;stroke:#25231E;stroke-width:3.9376;stroke-linecap:round;stroke-miterlimit:22.9256;}
	.st72{fill:none;stroke:#25231E;stroke-width:3.9394;stroke-linecap:round;stroke-miterlimit:22.9256;}
	.st73{fill:none;stroke:#25231E;stroke-width:3.1379;stroke-linecap:round;stroke-linejoin:round;stroke-miterlimit:22.9256;}
	.st74{fill:none;stroke:#25231E;stroke-width:3.1391;stroke-linecap:round;stroke-linejoin:round;stroke-miterlimit:22.9256;}
	.st75{fill:none;stroke:#25231E;stroke-width:3.9365;stroke-linecap:round;stroke-miterlimit:22.9256;}
	.st76{fill:none;stroke:#25231E;stroke-width:3.9277;stroke-linecap:round;stroke-linejoin:round;stroke-miterlimit:22.9256;}
	.st77{fill:none;stroke:#25231E;stroke-width:3.9273;stroke-linecap:round;stroke-linejoin:round;stroke-miterlimit:22.9256;}
	.st78{fill:none;stroke:#000000;stroke-width:3.9502;stroke-linecap:round;stroke-linejoin:round;stroke-miterlimit:22.9256;}
	.st79{fill:none;stroke:#25231E;stroke-width:4.7033;stroke-linecap:round;stroke-linejoin:round;stroke-miterlimit:22.9256;}
	.st80{fill:none;stroke:#25231E;stroke-width:4.7034;stroke-linecap:round;stroke-linejoin:round;stroke-miterlimit:22.9256;}
	.st81{fill:none;stroke:#25231E;stroke-width:3.9205;stroke-linecap:round;stroke-linejoin:round;stroke-miterlimit:22.9256;}
	.st82{fill:none;stroke:#C77246;stroke-width:4.7435;stroke-linecap:round;stroke-linejoin:round;stroke-miterlimit:22.9256;}
	.st83{clip-path:url(#SVGID_00000016775293371546092900000002987567014225728181_);}

		.st84{clip-path:url(#SVGID_00000151530495823522347790000001813150801217652912_);fill-rule:evenodd;clip-rule:evenodd;fill:#212121;}

		.st85{clip-path:url(#SVGID_00000159471713327028222550000011061486234049569179_);fill-rule:evenodd;clip-rule:evenodd;fill:#212121;}
	.st86{clip-path:url(#SVGID_00000108992935789586809350000010601311867958218941_);}

		.st87{clip-path:url(#SVGID_00000143586364811497997400000014987830311737532333_);fill-rule:evenodd;clip-rule:evenodd;fill:#212121;}

		.st88{clip-path:url(#SVGID_00000070824730279333431960000001740627053997239684_);fill-rule:evenodd;clip-rule:evenodd;fill:#212121;}
	.st89{clip-path:url(#SVGID_00000074430970795564153050000002217589742953714849_);}

		.st90{clip-path:url(#SVGID_00000109741731289495235600000017975313795970905239_);fill-rule:evenodd;clip-rule:evenodd;fill:#212121;}

		.st91{clip-path:url(#SVGID_00000021090089985969369580000015298764592402587041_);fill-rule:evenodd;clip-rule:evenodd;fill:#212121;}
	.st92{clip-path:url(#SVGID_00000004526927032962449650000012296599214677944767_);}

		.st93{clip-path:url(#SVGID_00000181793784863840742230000000963403634937846207_);fill-rule:evenodd;clip-rule:evenodd;fill:#212121;}

		.st94{clip-path:url(#SVGID_00000088128435907882526810000008452392843776641214_);fill-rule:evenodd;clip-rule:evenodd;fill:#212121;}
	.st95{clip-path:url(#SVGID_00000070113327048708011590000008444599769837744828_);}

		.st96{clip-path:url(#SVGID_00000127043297344388553280000005896812187696379547_);fill-rule:evenodd;clip-rule:evenodd;fill:#212121;}

		.st97{clip-path:url(#SVGID_00000067205833948816596680000004138472364054595004_);fill-rule:evenodd;clip-rule:evenodd;fill:#212121;}
	.st98{opacity:0.3;fill:none;stroke:#000000;stroke-miterlimit:10;}
	.st99{fill:none;stroke:#707070;stroke-miterlimit:10;}
	.st100{clip-path:url(#SVGID_00000172441502015638981160000003839626173466597013_);}
	.st101{clip-path:url(#SVGID_00000103951293729007100510000007477648581370459803_);}
	.st102{clip-path:url(#SVGID_00000050657637020267698730000007794497233976850566_);}
	.st103{clip-path:url(#SVGID_00000174591829408416664060000005413568335083643807_);}
	.st104{clip-path:url(#SVGID_00000180338214505715203030000011210933480113110971_);}
	.st105{fill:#FDFEFF;}
	.st106{fill:#F3F3F3;}
	.st107{fill:none;stroke:#000000;stroke-width:5;stroke-miterlimit:10;}
	.st108{clip-path:url(#SVGID_00000093174670025935718900000004200262371505239719_);}
	.st109{clip-path:url(#SVGID_00000131345553559926493210000012372558883472805050_);}
	.st110{opacity:0.2;}
	.st111{fill:#C6C6C6;}
	.st112{fill:#7F7F7F;}
	.st113{opacity:0.8;fill:#939292;}
	.st114{clip-path:url(#SVGID_00000170275066756171548760000003794827903270323860_);}

		.st115{fill-rule:evenodd;clip-rule:evenodd;fill:none;stroke:#242424;stroke-width:5.5337;stroke-linecap:round;stroke-linejoin:round;stroke-miterlimit:10;}
	.st116{opacity:0.4;}
	.st117{fill:#FFFFFF;stroke:#3F3F3F;stroke-miterlimit:10;}
	.st118{fill:#FFFFFF;stroke:#3F3F3F;stroke-width:2;stroke-miterlimit:10;}
	.st119{fill:#FFFFFF;stroke:#3F3F3F;stroke-width:0.8;stroke-miterlimit:10;}
	.st120{fill:#D13655;}
	.st121{clip-path:url(#SVGID_00000001645614145499293370000011963422717575814543_);}
	.st122{fill:none;stroke:#A8A8A8;stroke-miterlimit:10;}
	.st123{fill:none;stroke:#000000;stroke-width:1.3778;stroke-miterlimit:10;}
	.st124{fill:none;stroke:#000000;stroke-width:1.439;stroke-miterlimit:10;}
	.st125{clip-path:url(#SVGID_00000072965451409974378020000000868710327948758701_);}
	.st126{opacity:0.7;}
	.st127{clip-path:url(#SVGID_00000085954280213685244220000014527844347993614238_);}
	.st128{clip-path:url(#SVGID_00000028309771471314923460000003696619814257554623_);}
	.st129{opacity:0.3;}
	.st130{clip-path:url(#SVGID_00000160170320589839325040000012754120665731856814_);}
	.st131{clip-path:url(#SVGID_00000145755904753650518990000005116092505799524540_);}
	.st132{clip-path:url(#SVGID_00000131331958205791536760000002127501862531401127_);}
	.st133{clip-path:url(#SVGID_00000065065577504918169420000013169645494663246519_);}
	.st134{clip-path:url(#SVGID_00000068647798024654570140000009357037845125757585_);}
	.st135{clip-path:url(#SVGID_00000069369026445231178910000016023766511731348900_);}
	.st136{fill:none;stroke:#EFEFEF;stroke-width:0.9914;stroke-miterlimit:10;}
	.st137{fill:none;stroke:#E51C52;stroke-miterlimit:10;}
	.st138{fill:none;stroke:#020202;stroke-miterlimit:10;}
	.st139{opacity:0.9;}
	.st140{fill:#DBDBDB;}
	.st141{opacity:0.6;fill:#FFFFFF;}
	.st142{fill:#FFFFFF;stroke:#646464;stroke-miterlimit:10;}
	.st143{fill:none;stroke:#1E1E1E;stroke-width:0.8107;stroke-miterlimit:10;}
	.st144{fill:none;stroke:#000000;stroke-width:0.8107;stroke-miterlimit:10;}
	.st145{clip-path:url(#SVGID_00000065779454238800097010000012198490344685555355_);}
	.st146{clip-path:url(#SVGID_00000106829392083777699210000004120409257141701305_);}
	.st147{fill:none;stroke:#000000;stroke-width:2.4522;stroke-linejoin:round;stroke-miterlimit:22.9256;}
	.st148{fill:none;stroke:#000000;stroke-width:2.4522;stroke-linecap:round;stroke-linejoin:round;stroke-miterlimit:22.9256;}
	.st149{fill-rule:evenodd;clip-rule:evenodd;fill:#8ECDDE;}
	.st150{fill:none;stroke:#25231E;stroke-width:2.4522;stroke-linecap:round;stroke-linejoin:round;stroke-miterlimit:22.9256;}
	.st151{fill:none;stroke:#000000;stroke-width:1.803;stroke-linejoin:round;stroke-miterlimit:22.9256;}
	.st152{fill:none;stroke:#25231E;stroke-width:2.0551;stroke-linecap:round;stroke-linejoin:round;stroke-miterlimit:22.9256;}
	.st153{fill:none;stroke:#49443B;stroke-width:2.4522;stroke-linecap:round;stroke-linejoin:round;stroke-miterlimit:22.9256;}
	.st154{fill:none;stroke:#25231E;stroke-width:1.803;stroke-linecap:round;stroke-linejoin:round;stroke-miterlimit:22.9256;}
	.st155{fill:none;stroke:#000000;stroke-width:2.1636;stroke-linecap:round;stroke-linejoin:round;stroke-miterlimit:22.9256;}
	.st156{fill-rule:evenodd;clip-rule:evenodd;fill:#F7CC36;}
	.st157{fill-rule:evenodd;clip-rule:evenodd;fill:#FFFBDE;}
	.st158{fill:none;stroke:#000000;stroke-width:1.6945;stroke-linecap:round;stroke-linejoin:round;stroke-miterlimit:22.9256;}
	.st159{fill:none;stroke:#000000;stroke-width:1.803;stroke-linecap:round;stroke-linejoin:round;stroke-miterlimit:22.9256;}
	.st160{fill:none;stroke:#FF74AC;stroke-width:2.5239;stroke-linecap:round;stroke-linejoin:round;stroke-miterlimit:22.9256;}
	.st161{fill:none;stroke:#000000;stroke-width:2.4522;stroke-linecap:round;stroke-miterlimit:22.9256;}
	.st162{fill-rule:evenodd;clip-rule:evenodd;fill:#FFB0DC;}
	.st163{fill:none;stroke:#000000;stroke-width:2.4522;stroke-miterlimit:22.9256;}
	.st164{fill-rule:evenodd;clip-rule:evenodd;fill:#FFA6D2;}
	.st165{fill:none;stroke:#E5A474;stroke-width:1.3151;stroke-linecap:round;stroke-linejoin:round;stroke-miterlimit:22.9256;}
	.st166{fill:none;stroke:#000000;stroke-width:2.7402;stroke-linecap:round;stroke-linejoin:round;stroke-miterlimit:22.9256;}
	.st167{fill:none;stroke:#F3846B;stroke-width:3.1729;stroke-linecap:round;stroke-linejoin:round;stroke-miterlimit:22.9256;}
	.st168{fill:none;stroke:#000000;stroke-width:0.5482;stroke-miterlimit:22.9256;}
	.st169{fill:none;stroke:#676155;stroke-width:1.803;stroke-linecap:round;stroke-linejoin:round;stroke-miterlimit:22.9256;}
	.st170{fill:none;stroke:#000000;stroke-width:5.4091;stroke-miterlimit:22.9256;}
	.st171{fill-rule:evenodd;clip-rule:evenodd;fill:#EB678A;}
	.st172{fill-rule:evenodd;clip-rule:evenodd;fill:#FFDED3;}
	.st173{fill:none;stroke:#000000;stroke-width:1.7309;stroke-linecap:round;stroke-linejoin:round;stroke-miterlimit:22.9256;}
	.st174{fill-rule:evenodd;clip-rule:evenodd;fill:#472F1D;}

		.st175{clip-path:url(#SVGID_00000087408993735930648840000006729897317083606933_);fill-rule:evenodd;clip-rule:evenodd;fill:#FFFBDE;}
	.st176{fill:none;stroke:#DB816D;stroke-width:1.803;stroke-linecap:round;stroke-linejoin:round;stroke-miterlimit:22.9256;}
	.st177{fill:none;stroke:#000000;stroke-width:3.1729;stroke-linecap:round;stroke-linejoin:round;stroke-miterlimit:22.9256;}
	.st178{fill:none;stroke:#EFAD96;stroke-width:1.803;stroke-linecap:round;stroke-linejoin:round;stroke-miterlimit:22.9256;}
	.st179{fill-rule:evenodd;clip-rule:evenodd;fill:#AEEDE5;}
	.st180{fill-rule:evenodd;clip-rule:evenodd;fill:#FF9071;}
	.st181{fill:none;stroke:#49443B;stroke-width:2.1636;stroke-linecap:round;stroke-linejoin:round;stroke-miterlimit:22.9256;}
	.st182{fill:none;stroke:#25231E;stroke-width:3.1729;stroke-linecap:round;stroke-linejoin:round;stroke-miterlimit:22.9256;}
	.st183{fill-rule:evenodd;clip-rule:evenodd;fill:#FFBCD4;}
	.st184{fill:none;stroke:#25231E;stroke-width:2.3435;stroke-linecap:round;stroke-linejoin:round;stroke-miterlimit:22.9256;}

		.st185{clip-path:url(#SVGID_00000078007515909940658280000001915293939782399913_);fill-rule:evenodd;clip-rule:evenodd;fill:#FFC1DC;}
	.st186{fill:none;stroke:#000000;stroke-width:2.8848;stroke-linecap:round;stroke-linejoin:round;stroke-miterlimit:22.9256;}
	.st187{fill:none;stroke:#FF5F49;stroke-width:3.606;stroke-linecap:round;stroke-miterlimit:22.9256;}
	.st188{fill:none;stroke:#985C3B;stroke-width:2.3435;stroke-linecap:round;stroke-linejoin:round;stroke-miterlimit:22.9256;}

		.st189{clip-path:url(#SVGID_00000085936699385710682180000004427463841377896081_);fill-rule:evenodd;clip-rule:evenodd;fill:#212121;}

		.st190{clip-path:url(#SVGID_00000023248465632559320100000013734132225464717230_);fill-rule:evenodd;clip-rule:evenodd;fill:#212121;}
	.st191{fill:none;stroke:#676155;stroke-width:2.4522;stroke-linecap:round;stroke-linejoin:round;stroke-miterlimit:22.9256;}
	.st192{fill:none;stroke:#000000;stroke-width:2.3435;stroke-linecap:round;stroke-linejoin:round;stroke-miterlimit:22.9256;}
	.st193{fill:none;stroke:#49443B;stroke-width:1.4425;stroke-linecap:round;stroke-linejoin:round;stroke-miterlimit:22.9256;}
	.st194{fill:none;stroke:#25231E;stroke-width:2.4374;stroke-linecap:round;stroke-miterlimit:22.9256;}
	.st195{fill:none;stroke:#25231E;stroke-width:2.4385;stroke-linecap:round;stroke-miterlimit:22.9256;}
	.st196{fill:none;stroke:#25231E;stroke-width:1.9423;stroke-linecap:round;stroke-linejoin:round;stroke-miterlimit:22.9256;}
	.st197{fill:none;stroke:#25231E;stroke-width:1.9431;stroke-linecap:round;stroke-linejoin:round;stroke-miterlimit:22.9256;}
	.st198{fill:none;stroke:#25231E;stroke-width:2.4367;stroke-linecap:round;stroke-miterlimit:22.9256;}
	.st199{fill:none;stroke:#25231E;stroke-width:2.4312;stroke-linecap:round;stroke-linejoin:round;stroke-miterlimit:22.9256;}
	.st200{fill:none;stroke:#25231E;stroke-width:2.431;stroke-linecap:round;stroke-linejoin:round;stroke-miterlimit:22.9256;}
	.st201{fill:none;stroke:#000000;stroke-width:2.4452;stroke-linecap:round;stroke-linejoin:round;stroke-miterlimit:22.9256;}
	.st202{fill:none;stroke:#25231E;stroke-width:2.9113;stroke-linecap:round;stroke-linejoin:round;stroke-miterlimit:22.9256;}
	.st203{fill:none;stroke:#25231E;stroke-width:2.4268;stroke-linecap:round;stroke-linejoin:round;stroke-miterlimit:22.9256;}
	.st204{fill:none;stroke:#C77246;stroke-width:2.9362;stroke-linecap:round;stroke-linejoin:round;stroke-miterlimit:22.9256;}
	.st205{opacity:0.3;fill:none;stroke:#000000;stroke-width:0.9807;stroke-miterlimit:10;}
	.st206{fill:none;stroke:#000000;stroke-width:0.9293;stroke-miterlimit:10;}
	.st207{fill:#C8C8C8;}
	.st208{fill:none;stroke:#E51C52;stroke-width:1.0718;stroke-miterlimit:10;}
	.st209{fill:none;stroke:#E51C52;stroke-width:6.6768;stroke-linecap:round;stroke-miterlimit:10;}
	.st210{clip-path:url(#SVGID_00000176738432661664411420000017872582413361927861_);}

		.st211{clip-path:url(#SVGID_00000075878649049108699950000012602750618253841328_);fill-rule:evenodd;clip-rule:evenodd;fill:#212121;}

		.st212{clip-path:url(#SVGID_00000001639441816106894070000017217587151309172115_);fill-rule:evenodd;clip-rule:evenodd;fill:#212121;}
	.st213{clip-path:url(#SVGID_00000147902277218530063270000009912045633415782530_);}
	.st214{clip-path:url(#SVGID_00000139258901773741113860000002812604289060177843_);}
	.st215{fill:none;stroke:#646464;stroke-miterlimit:10;}
	.st216{clip-path:url(#SVGID_00000057112469538511238290000003823846996822189465_);}
	.st217{font-family:'Roboto-Light';}
	.st218{font-size:25.7955px;}
	.st219{fill:none;stroke:#1E1E1E;stroke-width:0.7803;stroke-miterlimit:10;}
	.st220{fill:none;stroke:#FFFFFF;stroke-miterlimit:10;}
	.st221{clip-path:url(#SVGID_00000173147583925092145390000006073812267182479269_);}
	.st222{clip-path:url(#SVGID_00000125592778046165089470000002499948703258167462_);}
	.st223{clip-path:url(#SVGID_00000141432408200947437870000009064541348052305590_);}
	.st224{font-family:'Roboto-Medium';}
	.st225{font-size:27.4203px;}
	.st226{fill:#EBFF2C;}
	.st227{fill-rule:evenodd;clip-rule:evenodd;fill:#F9E2D3;}
	.st228{fill:#322C2B;}
	.st229{fill-rule:evenodd;clip-rule:evenodd;fill:#FDFDFD;}
	.st230{opacity:0.29;}
	.st231{fill-rule:evenodd;clip-rule:evenodd;fill:#322C2B;}
	.st232{fill-rule:evenodd;clip-rule:evenodd;fill:#F2AFDB;}
	.st233{fill-rule:evenodd;clip-rule:evenodd;fill:#F1A5D2;}
	.st234{fill:#E6A573;}
	.st235{fill:#ED836A;}
	.st236{fill:#757475;}
	.st237{fill-rule:evenodd;clip-rule:evenodd;fill:#E93323;}
	.st238{fill-rule:evenodd;clip-rule:evenodd;fill:#F6CD46;}
	.st239{fill-rule:evenodd;clip-rule:evenodd;fill:#AAABAB;}
	.st240{fill-rule:evenodd;clip-rule:evenodd;fill:#8ECEDF;}
	.st241{fill-rule:evenodd;clip-rule:evenodd;fill:#464443;}
	.st242{fill-rule:evenodd;clip-rule:evenodd;fill:#F8DDCB;}
	.st243{fill:#A1664E;}
	.st244{fill-rule:evenodd;clip-rule:evenodd;fill:#5F5D5D;}
	.st245{clip-path:url(#SVGID_00000049179723481740907140000011744995289819190691_);}
	.st246{fill:#8A8A8B;}
	.st247{fill-rule:evenodd;clip-rule:evenodd;fill:#757475;}
	.st248{clip-path:url(#SVGID_00000122708806388054160990000010699471242135169683_);}
	.st249{fill:#A0A0A0;}
	.st250{fill-rule:evenodd;clip-rule:evenodd;fill:#B5B5B6;}
	.st251{fill:#5F5D5D;}
	.st252{fill-rule:evenodd;clip-rule:evenodd;fill:#A8FAFD;}
	.st253{fill:#464443;}
	.st254{fill-rule:evenodd;clip-rule:evenodd;fill:#5878C4;}
	.st255{fill-rule:evenodd;clip-rule:evenodd;fill:#F9E0D1;}
	.st256{fill:#C77347;}
	.st257{fill-rule:evenodd;clip-rule:evenodd;fill:#ED7D4B;}
	.st258{fill-rule:evenodd;clip-rule:evenodd;fill:#EE8D6F;}
	.st259{fill-rule:evenodd;clip-rule:evenodd;fill:#F4BCD4;}
	.st260{fill-rule:evenodd;clip-rule:evenodd;fill:#F4C1DC;}
	.st261{fill:#EB5A45;}
	.st262{fill-rule:evenodd;clip-rule:evenodd;fill:#F2C68B;}
	.st263{fill-rule:evenodd;clip-rule:evenodd;fill:#FBEBCA;}
	.st264{fill-rule:evenodd;clip-rule:evenodd;fill:#EEE45D;}
	.st265{fill-rule:evenodd;clip-rule:evenodd;fill:#FDF9A6;}
	.st266{fill:#EC72AC;}
	.st267{fill-rule:evenodd;clip-rule:evenodd;fill:#EF9670;}
	.st268{fill-rule:evenodd;clip-rule:evenodd;fill:#F8DDD3;}
	.st269{fill-rule:evenodd;clip-rule:evenodd;fill:#583F33;}
	.st270{clip-path:url(#SVGID_00000005951215805644146780000001177475302150972544_);}
	.st271{fill:#DB816D;}
	.st272{fill:#F0AE96;}
	.st273{fill-rule:evenodd;clip-rule:evenodd;fill:#AEEEE6;}
	.st274{fill:none;stroke:#E51C52;stroke-width:7.7112;stroke-linecap:round;stroke-miterlimit:10;}
	.st275{clip-path:url(#SVGID_00000054950551246531324940000003710823615002347181_);}
	.st276{clip-path:url(#SVGID_00000093148265540407866360000012033833716041609620_);}
	.st277{clip-path:url(#SVGID_00000117668532859298909870000013058671757576250038_);}
	.st278{clip-path:url(#SVGID_00000007423921953304727460000012125114555699330481_);}
	.st279{clip-path:url(#SVGID_00000118376168651265113420000011280988601062696603_);}
	.st280{clip-path:url(#SVGID_00000039113208727272009860000018320019637984095410_);}
	.st281{clip-path:url(#SVGID_00000031165033760197733750000005611723197208037820_);}
	.st282{clip-path:url(#SVGID_00000109026055774964319360000000870413803839614628_);}
	.st283{fill:none;stroke:#E52C52;stroke-miterlimit:10;}
	.st284{fill:#2C88C6;}
</style>
  </defs>
  <g transform="matrix(1, 0, 0, 1, -433.4267272949219, 298.83880615234375)">
    <path class="st4" d="M312.71,82.45h2.41c0.2,0,0.36-0.16,0.36-0.36v-5.16c0.03,0.01,0.07,0.02,0.11,0.02h5.84 c0.05,0,0.09-0.01,0.13-0.03v5.17c0,0.2,0.16,0.36,0.36,0.36h2.39c0.2,0,0.36-0.16,0.36-0.36V69.4c0-0.2-0.16-0.36-0.36-0.36 h-2.39c-0.2,0-0.36,0.16-0.36,0.36v4.96c-0.04-0.02-0.08-0.03-0.13-0.03h-5.84c-0.04,0-0.07,0.01-0.11,0.02V69.4 c0-0.2-0.16-0.36-0.36-0.36h-2.41c-0.2,0-0.36,0.16-0.36,0.36v12.69C312.36,82.29,312.52,82.45,312.71,82.45z"/>
    <path class="st4" d="M338.32,79.96h-6.58c-0.2,0-0.36-0.16-0.36-0.36v-2.77c0.04,0.02,0.08,0.03,0.13,0.03h5.74 c0.2,0,0.36-0.16,0.36-0.36v-1.72c0-0.2-0.16-0.36-0.36-0.36h-5.74c-0.05,0-0.09,0.01-0.13,0.03v-2.56 c0-0.2,0.16-0.36,0.36-0.36h6.33c0.2,0,0.36-0.16,0.36-0.36V69.4c0-0.2-0.16-0.36-0.36-0.36h-9.42c-0.2,0-0.36,0.16-0.36,0.36 v12.69c0,0.2,0.16,0.36,0.36,0.36h9.67c0.2,0,0.36-0.16,0.36-0.36v-1.77C338.68,80.12,338.52,79.96,338.32,79.96z"/>
    <path class="st4" d="M352.95,82.55c0.06,0.13,0.19,0.22,0.33,0.22l2.21-1.15c0.26,0,0.44-0.27,0.33-0.51l-5.21-10.75 c-0.38-0.86-1.24-1.41-2.18-1.41c-0.94,0-1.8,0.56-2.18,1.42l-5.16,10.74c-0.11,0.24,0.07,0.51,0.33,0.51l2.14,1.15 c0.15,0,0.28-0.09,0.33-0.22l1.39-2.96h6.27L352.95,82.55z M346.28,77.22l2.15-4.88l2.15,4.88H346.28z"/>
    <path class="st4" d="M372.41,71.57h3.86c0.2,0,0.36,0.16,0.36,0.36v10.16c0,0.2,0.16,0.36,0.36,0.36h2.39 c0.2,0,0.36-0.16,0.36-0.36V71.92c0-0.2,0.16-0.36,0.36-0.36h3.86c0.2,0,0.36-0.16,0.36-0.36V69.4c0-0.2-0.16-0.36-0.36-0.36 h-11.54c-0.2,0-0.36,0.16-0.36,0.36v1.81C372.05,71.41,372.21,71.57,372.41,71.57z"/>
    <path class="st4" d="M325.09,97.63l-1.95-0.52c-0.21-0.06-0.42,0.06-0.48,0.27c-0.16,0.53-0.39,1.01-0.7,1.42 c-0.37,0.5-0.85,0.91-1.43,1.21c-0.55,0.29-1.11,0.46-1.66,0.51c-0.55,0.06-1.09,0-1.6-0.16c-0.51-0.16-0.98-0.42-1.4-0.79 c-0.42-0.36-0.78-0.83-1.08-1.39c-0.29-0.56-0.47-1.12-0.52-1.68c-0.05-0.55,0-1.09,0.16-1.6c0.16-0.51,0.42-0.98,0.79-1.4 c0.36-0.42,0.82-0.78,1.37-1.07c0.58-0.3,1.19-0.47,1.81-0.49c0.51-0.02,1.04,0.06,1.56,0.23c0.2,0.06,0.42-0.04,0.5-0.24 l0.69-1.9c0.04-0.1,0.03-0.21-0.01-0.3c-0.04-0.1-0.12-0.17-0.22-0.21c-0.83-0.3-1.71-0.42-2.62-0.35 c-1.03,0.08-2.07,0.39-3.1,0.93c-0.92,0.48-1.7,1.08-2.33,1.79c-0.63,0.71-1.1,1.51-1.39,2.37c-0.29,0.86-0.41,1.76-0.34,2.68 c0.07,0.92,0.34,1.84,0.81,2.73c0.47,0.9,1.07,1.64,1.78,2.22c0.71,0.58,1.52,1,2.38,1.26c0.61,0.18,1.24,0.27,1.88,0.27 c0.28,0,0.56-0.02,0.85-0.05c0.94-0.11,1.89-0.41,2.81-0.89c1.04-0.54,1.9-1.23,2.55-2.03c0.57-0.71,0.98-1.5,1.21-2.35 C325.43,97.9,325.3,97.68,325.09,97.63z"/>
    <path class="st4" d="M384.95,97.05c-0.05-0.09-0.14-0.16-0.25-0.19l-1.95-0.52c-0.21-0.05-0.42,0.06-0.48,0.27 c-0.16,0.53-0.39,1.01-0.7,1.42c-0.37,0.5-0.85,0.91-1.43,1.21c-0.55,0.29-1.11,0.46-1.66,0.51c-0.56,0.05-1.09,0-1.6-0.16 c-0.51-0.16-0.98-0.42-1.4-0.79c-0.42-0.36-0.78-0.83-1.08-1.39c-0.29-0.56-0.47-1.12-0.52-1.68c-0.05-0.55,0-1.09,0.16-1.6 c0.16-0.51,0.42-0.98,0.79-1.4c0.36-0.42,0.82-0.78,1.37-1.07c0.58-0.3,1.19-0.47,1.81-0.49c0.52-0.02,1.04,0.06,1.56,0.23 c0.2,0.07,0.42-0.04,0.49-0.24l0.69-1.9c0.04-0.1,0.03-0.21-0.01-0.31c-0.04-0.09-0.12-0.17-0.22-0.2 c-0.83-0.3-1.71-0.42-2.62-0.35c-1.03,0.08-2.07,0.39-3.1,0.93c-0.92,0.48-1.7,1.08-2.33,1.79c-0.63,0.71-1.1,1.51-1.39,2.37 c-0.29,0.86-0.41,1.76-0.34,2.68c0.07,0.92,0.34,1.84,0.81,2.73c0.47,0.89,1.07,1.64,1.78,2.22c0.71,0.58,1.52,1,2.38,1.26 c0.61,0.18,1.24,0.27,1.88,0.27c0.28,0,0.56-0.02,0.85-0.05c0.95-0.11,1.89-0.41,2.81-0.89c1.04-0.54,1.9-1.23,2.55-2.03 c0.57-0.71,0.98-1.5,1.21-2.35C385.01,97.25,385,97.14,384.95,97.05z"/>
    <path class="st4" d="M343.68,89.23h-2.41c-0.2,0-0.36,0.16-0.36,0.36v12.69c0,0.2,0.16,0.36,0.36,0.36h2.41 c0.2,0,0.36-0.16,0.36-0.36V89.58C344.04,89.39,343.88,89.23,343.68,89.23z"/>
    <path class="st4" d="M337.38,100.11h-5.97c-0.2,0-0.36-0.16-0.36-0.36V89.58c0-0.2-0.16-0.36-0.36-0.36h-2.41 c-0.2,0-0.36,0.16-0.36,0.36v12.69c0,0.2,0.16,0.36,0.36,0.36h9.09c0.2,0,0.36-0.16,0.36-0.36v-1.81 C337.74,100.27,337.58,100.11,337.38,100.11z"/>
    <path class="st4" d="M359.67,89.23h-2.35c-0.2,0-0.36,0.16-0.36,0.36v7.78l-6.56-8c-0.07-0.08-0.17-0.13-0.28-0.13h-2.04 c-0.2,0-0.36,0.16-0.36,0.36v12.69c0,0.2,0.16,0.36,0.36,0.36h2.35c0.2,0,0.36-0.16,0.36-0.36V94.5l6.56,8.01 c0.07,0.08,0.17,0.13,0.28,0.13h2.04c0.2,0,0.36-0.16,0.36-0.36V89.58C360.03,89.39,359.87,89.23,359.67,89.23z"/>
    <path class="st4" d="M366.75,89.23h-2.41c-0.2,0-0.36,0.16-0.36,0.36v12.69c0,0.2,0.16,0.36,0.36,0.36h2.41 c0.2,0,0.36-0.16,0.36-0.36V89.58C367.11,89.39,366.95,89.23,366.75,89.23z"/>
    <path class="st4" d="M368.9,76.45c0.47-0.71,0.7-1.57,0.7-2.57c0-0.99-0.23-1.84-0.7-2.56c-0.47-0.72-1.13-1.28-1.99-1.66 c-0.86-0.39-1.89-0.58-3.08-0.58h-2.69h-0.14h-2.57c-0.2,0-0.36,0.16-0.36,0.36v1.9c0,0.14,0.11,0.25,0.25,0.25h2.83h0.36h2.14 c0.94,0,1.65,0.2,2.13,0.6c0.48,0.4,0.72,0.97,0.72,1.7c0,0.73-0.24,1.3-0.72,1.71c-0.48,0.41-1.19,0.61-2.13,0.61h-2.49 l-0.01-2.88c0-0.14-0.11-0.25-0.25-0.25h-2.58c-0.14,0-0.25,0.11-0.25,0.25v8.69c0,0.2,0.16,0.36,0.36,0.36h2.38 c0.2,0,0.36-0.16,0.36-0.36v-3.37h2.66c0.05,0,0.09,0,0.13,0l2.47,3.57c0.07,0.1,0.18,0.15,0.29,0.15h2.44 c0.29,0,0.46-0.32,0.29-0.56l-2.58-3.72c0.01,0,0.01,0,0.02-0.01C367.77,77.71,368.44,77.17,368.9,76.45z"/>
    <path class="st4" d="M147.75,73.01h-3.72c-2.65,0-4.81,2.16-4.81,4.81v16.51c0,2.65,2.16,4.81,4.81,4.81h3.72 c2.65,0,4.81-2.16,4.81-4.81V77.82C152.56,75.17,150.4,73.01,147.75,73.01z M148.29,94.33c0,0.3-0.24,0.55-0.55,0.55h-3.72 c-0.3,0-0.55-0.24-0.55-0.55V77.82c0-0.3,0.24-0.55,0.55-0.55h3.72c0.3,0,0.55,0.24,0.55,0.55V94.33z"/>
    <path class="st4" d="M171.55,85.36H159.8h-0.53h-2.73c-0.28,0-0.5,0.22-0.5,0.5v3.5c0,0.28,0.23,0.51,0.51,0.51h3.75h2.25h4.99 c0.28,0,0.5,0.22,0.5,0.5v6.41c0,1.73-1.4,3.13-3.13,3.13h-1.48c-1.73,0-3.13-1.4-3.13-3.13v-4.57c0-0.28-0.23-0.51-0.51-0.51 h-3.25c-0.28,0-0.51,0.23-0.51,0.51v4.57c0,4.08,3.31,7.39,7.39,7.39h1.48c4.08,0,7.39-3.31,7.39-7.39V86.11 C172.3,85.69,171.96,85.36,171.55,85.36z"/>
    <path class="st4" d="M171.28,82.83c0.27,0,0.5-0.22,0.5-0.5v-3.27c0-0.27-0.22-0.5-0.5-0.5H156.7c-0.27,0-0.5,0.22-0.5,0.5v3.27 c0,0.27,0.22,0.5,0.5,0.5H171.28z"/>
    <path class="st4" d="M166.89,67.59c-0.07-0.06-0.15-0.12-0.22-0.18c-1.61-1.16-3.78-1.16-5.39,0c-0.08,0.05-0.15,0.12-0.22,0.18 l-7.38,6.52c-0.21,0.18-0.22,0.49-0.04,0.7l2.17,2.45c0.18,0.21,0.49,0.22,0.7,0.04l7.31-6.45c0.1-0.06,0.23-0.06,0.33,0 l7.31,6.45c0.21,0.18,0.52,0.16,0.7-0.04l2.17-2.45c0.18-0.21,0.16-0.52-0.04-0.7L166.89,67.59z"/>
    <path class="st4" d="M192.41,85.13h17.7c2.71,0,4.91-2.2,4.91-4.91v-1.5c0-2.71-2.19-4.9-4.9-4.91l-4.37,0 c-0.27,0-0.49-0.22-0.49-0.49v-0.69c0-0.27,0.22-0.49,0.49-0.49h7.92c0.27,0,0.49-0.22,0.49-0.49V68.7 c0-0.27-0.22-0.49-0.49-0.49h-7.92c-0.27,0-0.49-0.22-0.49-0.49v-0.94c0-0.27-0.22-0.49-0.49-0.49h-3.26 c-0.27,0-0.49,0.22-0.49,0.49v0.94c0,0.27-0.22,0.49-0.49,0.49h-8.1c-0.44,0-0.79,0.35-0.79,0.79v2.35 c0,0.44,0.35,0.79,0.79,0.79h8.1c0.27,0,0.49,0.22,0.49,0.49v0.68c0,0.27-0.22,0.49-0.49,0.49l-8.1-0.01 c-0.44,0-0.79,0.35-0.79,0.79v2.51c0,0.44,0.35,0.79,0.79,0.79l4.89,0.01c0.27,0,0.49,0.22,0.49,0.49v2.19 c0,0.26-0.21,0.47-0.47,0.47h-0.81c-0.26,0-0.47-0.21-0.47-0.47V80.2c0-0.27-0.22-0.49-0.49-0.49h-3.13 c-0.44,0-0.79,0.35-0.79,0.79v3.84C191.62,84.77,191.98,85.13,192.41,85.13z M208.13,78.37c0-0.26,0.21-0.47,0.47-0.47l1.5,0 c0.37,0,0.66,0.3,0.66,0.66v1.81c0,0.37-0.3,0.66-0.66,0.66h-1.5c-0.26,0-0.47-0.21-0.47-0.47V78.37z M202.04,78.37 c0-0.26,0.21-0.47,0.47-0.47l0.91,0c0.26,0,0.47,0.21,0.47,0.47v2.2c0,0.26-0.21,0.47-0.47,0.47h-0.91 c-0.26,0-0.47-0.21-0.47-0.47V78.37z"/>
    <path class="st4" d="M181.46,77.17h1.75c3.61,0,6.54-2.99,6.54-6.67v-3.72c0-0.27-0.22-0.5-0.5-0.5h-3.27 c-0.27,0-0.5,0.22-0.5,0.5v3.72c0,1.32-1.02,2.4-2.28,2.4h-1.75c-0.27,0-0.5,0.22-0.5,0.5v3.27 C180.96,76.95,181.19,77.17,181.46,77.17z"/>
    <path class="st4" d="M202.43,92.3c-0.44,0-0.8,0.36-0.8,0.8v1.78c0,0.6-0.45,1.08-1,1.08h-1.46c-0.44,0-0.8,0.36-0.8,0.8v2.13 c0,0.44,0.36,0.8,0.8,0.8h1.46c2.61,0,4.73-2.16,4.73-4.81v-1.78c0-0.44-0.36-0.8-0.8-0.8H202.43z"/>
    <path class="st4" d="M207.83,100.38c-1.07,0.42-2.34,0.72-3.7,0.85c-3.01,0.27-6.88-0.36-8.7-2.85 c0.36-0.82,0.57-1.73,0.57-2.69v-2.77c0-0.27-0.22-0.5-0.5-0.5h-3.27c-0.27,0-0.5,0.22-0.5,0.5v2.77c0,1.32-1.02,2.4-2.28,2.4 h-1.32l0-0.05c-0.03-0.12-0.02-1.66-0.02-1.8c0-1.31,0-2.62,0-3.93c0-2.35,0-4.69,0-7.04c0-0.05-0.03-0.25,0-0.29 c1.02-1.18,1.64-2.72,1.64-4.41v-2.3c0-0.27-0.22-0.5-0.5-0.5h-3.27c-0.27,0-0.5,0.22-0.5,0.5v2.3c0,1.32-1.02,2.4-2.28,2.4 h-1.75c-0.27,0-0.5,0.22-0.5,0.5v3.27c0,0.27,0.22,0.5,0.5,0.5h1.75c0.22,0,0.43-0.01,0.64-0.03v17.2h4.26v-1.88l0-0.17h1.34 c1.14,0,2.2-0.33,3.13-0.85c2.36,2.26,6.18,3.56,10.17,3.56c0.56,0,1.13-0.02,1.72-0.08c2.47-0.22,4.64-0.88,6.36-1.85 C209.62,102.4,208.59,101.48,207.83,100.38z"/>
    <path class="st4" d="M213.9,90.18v-2.96c0-0.27-0.22-0.5-0.5-0.5h-21.14c-0.27,0-0.5,0.22-0.5,0.5v2.96c0,0.27,0.22,0.5,0.5,0.5 h21.14C213.68,90.67,213.9,90.45,213.9,90.18z"/>
    <path class="st4" d="M214.3,95.33c-1.01-0.26-2.04,0.36-2.29,1.37c-0.03,0.12-0.08,0.24-0.13,0.36c-0.12-0.2-0.24-0.4-0.33-0.62 c-0.43-0.95-1.55-1.37-2.5-0.94c-0.95,0.43-1.37,1.55-0.94,2.5c0.21,0.47,0.47,0.92,0.76,1.34c0.76,1.1,1.78,2.03,3,2.76 c1.29-0.73,2.32-1.64,3.01-2.68c0.37-0.57,0.65-1.17,0.81-1.81C215.93,96.61,215.31,95.58,214.3,95.33z"/>
    <path class="st4" d="M278.03,81.52c0-2.8-2.27-5.06-5.06-5.06h-2.6c-0.27,0-0.5,0.22-0.5,0.5v3.27c0,0.27,0.22,0.5,0.5,0.5h2.6 c0.44,0,0.8,0.36,0.8,0.8v8.23c0,0.44-0.36,0.8-0.8,0.8h-4.34c-0.27,0-0.5-0.22-0.5,0.14V74.98c0-0.91,0.22-1.13,0.5-1.13h1.92 c4.16,0,7.57-3.08,7.86-6.98c0.02-0.29-0.21-0.53-0.5-0.53h-3.29c-0.24,0-0.45,0.18-0.49,0.42c-0.23,1.59-1.75,2.83-3.59,2.83 h-6.19c-0.54,0.06-0.5,0.58-0.5,0.58v2.47v25.26c0-0.39-1.23,1.77-2.83,2c-0.24,0.03-0.42,0.25-0.42,0.49v3.29 c0,0.29,0.25,0.52,0.53,0.5c3.89-0.29,6.98-3.7,6.98-7.86v-0.98c0-0.27,0.22-0.5,0.5-0.5h4.34c2.8,0,5.06-2.27,5.06-5.06V81.52z "/>
    <path class="st4" d="M295.05,76.46h-9.63c-0.27,0-0.5-0.22-0.5-0.5v-1.61c0-0.27,0.22-0.5,0.5-0.5h1.92 c4.16,0,7.57-3.08,7.86-6.98c0.02-0.29-0.21-0.53-0.5-0.53h-3.29c-0.24,0-0.45,0.18-0.49,0.42c-0.23,1.59-1.75,2.83-3.59,2.83 h-6.19c-0.27,0-0.5,0.22-0.5,1.29v26.21c0,1.04-1.23,2.56-2.83,2.79c-0.24,0.03-0.42,0.25-0.42,0.49v3.29 c0,0.29,0.25,0.52,0.53,0.5c3.89-0.29,6.98-3.7,6.98-7.86V81.22c0-0.27,0.22-0.5,0.5-0.5h1.7c0.27,0,0.5,0.22,0.5,0.5l0,22.69 c0,0.27,0.22,0.5,0.5,0.5l3.27,0c0.27,0,0.5-0.22,0.5-0.5l0-22.69c0-0.27,0.22-0.5,0.5-0.5h2.68c0.27,0,0.5-0.22,0.5-0.5v-3.27 C295.55,76.68,295.33,76.46,295.05,76.46z"/>
    <path class="st4" d="M229.22,89.89h-6.4c-0.27,0-0.49,0.22-0.49,0.49v3.22c0,0.27,0.22,0.49,0.49,0.49h6.4 c0.3,0,0.54,0.24,0.54,0.54v5.02c0,0.3-0.24,0.54-0.54,0.54h-2.19c-0.3,0-0.54-0.24-0.54-0.54v-3.82c0-0.27-0.22-0.49-0.49-0.49 h-3.19c-0.27,0-0.49,0.22-0.49,0.49l-0.03,3.82c0,2.61,2.12,4.73,4.73,4.73h2.19c2.61,0,4.73-2.12,4.73-4.73v-5.02 C233.94,92.01,231.83,89.89,229.22,89.89z"/>
    <path class="st4" d="M235.43,72.6v-3.22c0-0.27-0.22-0.49-0.49-0.49h-3.91c-0.27,0-0.49-0.22-0.49-0.49v-0.93 c0-0.27-0.22-0.49-0.49-0.49h-3.22c-0.27,0-0.49,0.22-0.49,0.49v0.93c0,0.27-0.22,0.49-0.49,0.49h-3.91 c-0.27,0-0.49,0.22-0.49,0.49v3.22c0,0.27,0.22,0.49,0.49,0.49h12.99C235.21,73.08,235.43,72.87,235.43,72.6z"/>
    <path class="st4" d="M222.89,80.23h10.5c0.27,0,0.49-0.22,0.49-0.49v-3.22c0-0.27-0.22-0.49-0.49-0.49h-10.5 c-0.27,0-0.49,0.22-0.49,0.49v3.22C222.4,80.02,222.62,80.23,222.89,80.23z"/>
    <path class="st4" d="M222.4,86.55c0,0.27,0.22,0.49,0.49,0.49h10.5c0.27,0,0.49-0.22,0.49-0.49v-3.22 c0-0.27-0.22-0.49-0.49-0.49h-10.5c-0.27,0-0.49,0.22-0.49,0.49V86.55z"/>
    <path class="st4" d="M249.03,67.67l-0.07-0.06c-1.69-1.25-3.99-1.25-5.68,0l-0.07,0.06l-8.03,7.13 c-0.21,0.19-0.23,0.51-0.04,0.72l2.24,2.53c0.19,0.21,0.51,0.23,0.72,0.04l7.86-6.98c0.11-0.06,0.23-0.06,0.34,0l7.86,6.98 c0.21,0.19,0.54,0.17,0.72-0.04l2.24-2.53c0.19-0.21,0.17-0.54-0.04-0.72L249.03,67.67z"/>
    <path class="st4" d="M249.8,80.18l-2.1-1.81c-0.25-0.19-0.61-0.12-0.79,0.14c-0.77,1.2-3.52,4.06-9.09,4.22 c-0.27,0.01-0.49,0.24-0.49,0.51v3.38c0,0.29,0.23,0.52,0.52,0.51c8.44-0.2,11.27-4.6,12.19-6.25 C250.19,80.64,250.08,80.3,249.8,80.18z"/>
    <path class="st4" d="M245.57,89.3c-1.91,0.76-4.66,1.01-7.68,1.07c-0.28,0.01-0.51,0.23-0.51,0.51v3.38 c0,0.28,0.23,0.52,0.52,0.51c3.89-0.06,7.29-0.5,9.69-1.51c4.3-1.82,5.77-4.48,6.44-5.62c0.15-0.26,0.05-0.6-0.23-0.72 l-2.29-1.8c-0.3-0.23-0.73-0.17-0.95,0.14C249.94,86.14,248.56,88.11,245.57,89.3z"/>
    <path class="st4" d="M256.61,93.76l-2.24-1.78c-0.38-0.22-0.86-0.1-1.1,0.26c-0.55,0.81-1.63,2.23-3.22,3.34 c-3.11,2.18-7.21,3.33-12.19,3.4c-0.28,0-0.51,0.22-0.51,0.49v3.22c0,0.27,0.24,0.49,0.53,0.49c5.41-0.07,9.55-1.05,12.63-2.67 c4.38-2.31,5.66-4.96,6.33-6.06C257,94.2,256.89,93.88,256.61,93.76z"/>
  </g>
</svg>
