<?xml version="1.0" encoding="utf-8"?>
<svg xmlns="http://www.w3.org/2000/svg" viewBox="491.9368 980.1345 266.08 349.1155" width="266.08px" height="349.115px">
  <defs>
    <style type="text/css">
	.st0{opacity:0.8;fill:#F0F0F0;}
	.st1{fill:#FFFFFF;}
	.st2{fill:none;stroke:#E51C52;stroke-width:1.5969;stroke-miterlimit:10;}
	.st3{fill:none;stroke:#000000;stroke-width:2;stroke-miterlimit:10;}
	.st4{fill:#E51C52;}
	.st5{opacity:0.05;fill:#E51C52;}
	.st6{fill:#FFE54D;}
	.st7{fill:#6ADBC6;}
	.st8{fill:#FF73C0;}
	.st9{fill:#D0D0D0;}
	.st10{fill:#ED4C5C;}
	.st11{fill:#0071B8;}
	.st12{fill:#616466;}
	.st13{fill:#FFCE31;}
	.st14{fill:#C79127;}
	.st15{fill:#94989B;}
	.st16{fill:#66CAF2;}
	.st17{fill:#B0BDC6;}
	.st18{fill:#CAD5DD;}
	.st19{fill:#DFE9EF;}
	.st20{clip-path:url(#SVGID_00000058585047766283463360000003547252718438659723_);}
	.st21{fill-rule:evenodd;clip-rule:evenodd;fill:#FFE1D2;}
	.st22{fill-rule:evenodd;clip-rule:evenodd;fill:#FFFFFF;}
	.st23{fill-rule:evenodd;clip-rule:evenodd;fill:#8DCCDD;}
	.st24{fill:#242424;}
	.st25{fill:#464646;}
	.st26{fill-rule:evenodd;clip-rule:evenodd;fill:#F6CB36;}
	.st27{fill-rule:evenodd;clip-rule:evenodd;}
	.st28{fill:#FF74AB;}
	.st29{clip-path:url(#SVGID_00000090993464838738894940000009452749772694506684_);}
	.st30{fill-rule:evenodd;clip-rule:evenodd;fill:#FFAFDB;}
	.st31{fill-rule:evenodd;clip-rule:evenodd;fill:#FFA5D1;}
	.st32{fill:#E4A374;}
	.st33{fill:#F2846B;}
	.st34{fill:#626262;}
	.st35{fill:#FF3D2B;}
	.st36{clip-path:url(#SVGID_00000098925580365449761400000001446519801000124075_);}
	.st37{fill-rule:evenodd;clip-rule:evenodd;fill:#FF8F71;}
	.st38{fill-rule:evenodd;clip-rule:evenodd;fill:#FF804E;}
	.st39{fill-rule:evenodd;clip-rule:evenodd;fill:#FFBCD3;}
	.st40{clip-path:url(#SVGID_00000132080102754241921520000015117421955413741487_);}
	.st41{fill-rule:evenodd;clip-rule:evenodd;fill:#FFC0DB;}
	.st42{fill:#FF5F49;}
	.st43{clip-path:url(#SVGID_00000036239739621086554310000007377499848258032772_);}
	.st44{fill-rule:evenodd;clip-rule:evenodd;fill:#EA6789;}
	.st45{fill-rule:evenodd;clip-rule:evenodd;fill:#FFDDD2;}
	.st46{fill-rule:evenodd;clip-rule:evenodd;fill:#463124;}
	.st47{clip-path:url(#SVGID_00000163050498913380904020000006385172626292601527_);}
	.st48{fill:#D9816D;}
	.st49{fill:#EEAC95;}
	.st50{fill-rule:evenodd;clip-rule:evenodd;fill:#ADECE4;}
	.st51{clip-path:url(#SVGID_00000161633962999666282720000010331630375705505701_);}
	.st52{fill-rule:evenodd;clip-rule:evenodd;fill:#FFE2D3;}
	.st53{fill:none;stroke:#000000;stroke-width:3.9615;stroke-linecap:round;stroke-linejoin:round;stroke-miterlimit:22.9256;}
	.st54{fill-rule:evenodd;clip-rule:evenodd;fill:#FFDECA;}
	.st55{fill:none;stroke:#985C3B;stroke-width:3.786;stroke-linecap:round;stroke-linejoin:round;stroke-miterlimit:22.9256;}
	.st56{fill-rule:evenodd;clip-rule:evenodd;fill:#454544;}

		.st57{clip-path:url(#SVGID_00000106120453563589852630000018306102162839795604_);fill-rule:evenodd;clip-rule:evenodd;fill:#212121;}
	.st58{fill-rule:evenodd;clip-rule:evenodd;fill:#676155;}
	.st59{fill:none;stroke:#000000;stroke-width:3.9615;stroke-miterlimit:22.9256;}

		.st60{clip-path:url(#SVGID_00000107552435939074542820000013227113695644691608_);fill-rule:evenodd;clip-rule:evenodd;fill:#212121;}
	.st61{fill-rule:evenodd;clip-rule:evenodd;fill:#ABABAB;}
	.st62{fill-rule:evenodd;clip-rule:evenodd;fill:#232323;}
	.st63{fill:none;stroke:#676155;stroke-width:3.9615;stroke-linecap:round;stroke-linejoin:round;stroke-miterlimit:22.9256;}
	.st64{fill:none;stroke:#000000;stroke-width:3.9615;stroke-linecap:round;stroke-miterlimit:22.9256;}
	.st65{fill:none;stroke:#49443B;stroke-width:3.4954;stroke-linecap:round;stroke-linejoin:round;stroke-miterlimit:22.9256;}
	.st66{fill-rule:evenodd;clip-rule:evenodd;fill:#A7F9FD;}
	.st67{fill:none;stroke:#000000;stroke-width:3.786;stroke-linecap:round;stroke-linejoin:round;stroke-miterlimit:22.9256;}
	.st68{fill:none;stroke:#49443B;stroke-width:2.3303;stroke-linecap:round;stroke-linejoin:round;stroke-miterlimit:22.9256;}
	.st69{fill:none;stroke:#25231E;stroke-width:5.126;stroke-linecap:round;stroke-linejoin:round;stroke-miterlimit:22.9256;}
	.st70{fill-rule:evenodd;clip-rule:evenodd;fill:#F9DDCB;}
	.st71{fill:none;stroke:#25231E;stroke-width:3.9376;stroke-linecap:round;stroke-miterlimit:22.9256;}
	.st72{fill:none;stroke:#25231E;stroke-width:3.9394;stroke-linecap:round;stroke-miterlimit:22.9256;}
	.st73{fill:none;stroke:#25231E;stroke-width:3.1379;stroke-linecap:round;stroke-linejoin:round;stroke-miterlimit:22.9256;}
	.st74{fill:none;stroke:#25231E;stroke-width:3.1391;stroke-linecap:round;stroke-linejoin:round;stroke-miterlimit:22.9256;}
	.st75{fill:none;stroke:#25231E;stroke-width:3.9365;stroke-linecap:round;stroke-miterlimit:22.9256;}
	.st76{fill:none;stroke:#25231E;stroke-width:3.9277;stroke-linecap:round;stroke-linejoin:round;stroke-miterlimit:22.9256;}
	.st77{fill:none;stroke:#25231E;stroke-width:3.9273;stroke-linecap:round;stroke-linejoin:round;stroke-miterlimit:22.9256;}
	.st78{fill:none;stroke:#000000;stroke-width:3.9502;stroke-linecap:round;stroke-linejoin:round;stroke-miterlimit:22.9256;}
	.st79{fill:none;stroke:#25231E;stroke-width:4.7033;stroke-linecap:round;stroke-linejoin:round;stroke-miterlimit:22.9256;}
	.st80{fill:none;stroke:#25231E;stroke-width:4.7034;stroke-linecap:round;stroke-linejoin:round;stroke-miterlimit:22.9256;}
	.st81{fill:none;stroke:#25231E;stroke-width:3.9205;stroke-linecap:round;stroke-linejoin:round;stroke-miterlimit:22.9256;}
	.st82{fill:none;stroke:#C77246;stroke-width:4.7435;stroke-linecap:round;stroke-linejoin:round;stroke-miterlimit:22.9256;}
	.st83{clip-path:url(#SVGID_00000094588200683511400610000011262185637915360930_);}

		.st84{clip-path:url(#SVGID_00000075878440700050682780000015850212531959958685_);fill-rule:evenodd;clip-rule:evenodd;fill:#212121;}

		.st85{clip-path:url(#SVGID_00000083776152216446725240000017809989114239426741_);fill-rule:evenodd;clip-rule:evenodd;fill:#212121;}
	.st86{clip-path:url(#SVGID_00000177484856097925926460000000266235016684660896_);}

		.st87{clip-path:url(#SVGID_00000062173753171582352820000009818421717273141431_);fill-rule:evenodd;clip-rule:evenodd;fill:#212121;}

		.st88{clip-path:url(#SVGID_00000137106529255000784640000003914488310520326555_);fill-rule:evenodd;clip-rule:evenodd;fill:#212121;}
	.st89{clip-path:url(#SVGID_00000080922860574454563680000012448618426944801981_);}

		.st90{clip-path:url(#SVGID_00000114767263912262369740000004317140265630983328_);fill-rule:evenodd;clip-rule:evenodd;fill:#212121;}

		.st91{clip-path:url(#SVGID_00000096763602119904023290000017593250777893535404_);fill-rule:evenodd;clip-rule:evenodd;fill:#212121;}
	.st92{clip-path:url(#SVGID_00000097474755799825783140000009173888106726789515_);}

		.st93{clip-path:url(#SVGID_00000106132499622719040800000002261324731451728049_);fill-rule:evenodd;clip-rule:evenodd;fill:#212121;}

		.st94{clip-path:url(#SVGID_00000162313329485461728430000006589879568163049907_);fill-rule:evenodd;clip-rule:evenodd;fill:#212121;}
	.st95{clip-path:url(#SVGID_00000005968376516292809950000001104766038718053009_);}

		.st96{clip-path:url(#SVGID_00000012453046139094541360000002004498604987848326_);fill-rule:evenodd;clip-rule:evenodd;fill:#212121;}

		.st97{clip-path:url(#SVGID_00000008112747738223940580000005423683375101557124_);fill-rule:evenodd;clip-rule:evenodd;fill:#212121;}
	.st98{opacity:0.3;fill:none;stroke:#000000;stroke-miterlimit:10;}
	.st99{fill:none;stroke:#707070;stroke-miterlimit:10;}
	.st100{clip-path:url(#SVGID_00000016795521958453452040000011494436300053212587_);}
	.st101{clip-path:url(#SVGID_00000011007607401686406180000015797244403209671061_);}
	.st102{clip-path:url(#SVGID_00000081617916653609790480000003556847390269907084_);}
	.st103{clip-path:url(#SVGID_00000082327326935400908770000012077966809836774795_);}
	.st104{clip-path:url(#SVGID_00000039819391000467408100000004968348884316544656_);}
	.st105{fill:#FDFEFF;}
	.st106{fill:#F3F3F3;}
	.st107{fill:none;stroke:#000000;stroke-width:5;stroke-miterlimit:10;}
	.st108{clip-path:url(#SVGID_00000106108999053069242870000000768143653620148627_);}
	.st109{clip-path:url(#SVGID_00000101103677966976369600000007079186555806472084_);}
	.st110{opacity:0.2;}
	.st111{fill:#C6C6C6;}
	.st112{fill:#7F7F7F;}
	.st113{opacity:0.8;fill:#939292;}
	.st114{clip-path:url(#SVGID_00000022553884698233620990000001585979444186917534_);}

		.st115{fill-rule:evenodd;clip-rule:evenodd;fill:none;stroke:#242424;stroke-width:5.5337;stroke-linecap:round;stroke-linejoin:round;stroke-miterlimit:10;}
	.st116{opacity:0.4;}
	.st117{fill:#FFFFFF;stroke:#3F3F3F;stroke-miterlimit:10;}
	.st118{fill:#FFFFFF;stroke:#3F3F3F;stroke-width:2;stroke-miterlimit:10;}
	.st119{fill:#FFFFFF;stroke:#3F3F3F;stroke-width:0.8;stroke-miterlimit:10;}
	.st120{fill:#D13655;}
	.st121{font-family:'Roboto-Regular';}
	.st122{font-size:34.7061px;}
	.st123{clip-path:url(#SVGID_00000083089987602443604390000000023268467610779323_);}
	.st124{font-family:'Roboto-Bold';}
	.st125{font-size:127.3867px;}
	.st126{fill:none;stroke:#A8A8A8;stroke-miterlimit:10;}
	.st127{font-family:'Roboto-Light';}
	.st128{font-size:25.7955px;}
	.st129{fill:none;stroke:#000000;stroke-width:1.3778;stroke-miterlimit:10;}
	.st130{fill:none;stroke:#000000;stroke-width:1.439;stroke-miterlimit:10;}
	.st131{clip-path:url(#SVGID_00000041974196742093160400000001873828233768870826_);}
	.st132{opacity:0.7;}
	.st133{clip-path:url(#SVGID_00000089556033711183020700000000861930534863499654_);}
	.st134{clip-path:url(#SVGID_00000181079625373157583420000012302637884110742668_);}
	.st135{opacity:0.3;}
	.st136{clip-path:url(#SVGID_00000147924485562692342480000011159808998793623691_);}
	.st137{clip-path:url(#SVGID_00000141419527406970778560000013964104653128342915_);}
	.st138{clip-path:url(#SVGID_00000114759195372121936830000007261702767022570634_);}
	.st139{clip-path:url(#SVGID_00000010305610438313656560000010397437672338129563_);}
	.st140{clip-path:url(#SVGID_00000102546931794317584590000007483557265381157259_);}
	.st141{clip-path:url(#SVGID_00000090295306179863257700000016874172949033438109_);}
	.st142{fill:none;stroke:#EFEFEF;stroke-width:0.9914;stroke-miterlimit:10;}
	.st143{fill:none;stroke:#E51C52;stroke-miterlimit:10;}
	.st144{fill:none;stroke:#020202;stroke-miterlimit:10;}
	.st145{opacity:0.9;}
	.st146{fill:#DBDBDB;}
	.st147{opacity:0.6;fill:#FFFFFF;}
	.st148{fill:#FFFFFF;stroke:#646464;stroke-miterlimit:10;}
	.st149{fill:none;stroke:#1E1E1E;stroke-width:0.8107;stroke-miterlimit:10;}
	.st150{fill:none;stroke:#000000;stroke-width:0.8107;stroke-miterlimit:10;}
	.st151{clip-path:url(#SVGID_00000087389256380312670620000004384923144429895089_);}
	.st152{clip-path:url(#SVGID_00000145780572749676256540000002429934804669128101_);}
	.st153{fill:none;stroke:#000000;stroke-width:2.4522;stroke-linejoin:round;stroke-miterlimit:22.9256;}
	.st154{fill:none;stroke:#000000;stroke-width:2.4522;stroke-linecap:round;stroke-linejoin:round;stroke-miterlimit:22.9256;}
	.st155{fill-rule:evenodd;clip-rule:evenodd;fill:#8ECDDE;}
	.st156{fill:none;stroke:#25231E;stroke-width:2.4522;stroke-linecap:round;stroke-linejoin:round;stroke-miterlimit:22.9256;}
	.st157{fill:none;stroke:#000000;stroke-width:1.803;stroke-linejoin:round;stroke-miterlimit:22.9256;}
	.st158{fill:none;stroke:#25231E;stroke-width:2.0551;stroke-linecap:round;stroke-linejoin:round;stroke-miterlimit:22.9256;}
	.st159{fill:none;stroke:#49443B;stroke-width:2.4522;stroke-linecap:round;stroke-linejoin:round;stroke-miterlimit:22.9256;}
	.st160{fill:none;stroke:#25231E;stroke-width:1.803;stroke-linecap:round;stroke-linejoin:round;stroke-miterlimit:22.9256;}
	.st161{fill:none;stroke:#000000;stroke-width:2.1636;stroke-linecap:round;stroke-linejoin:round;stroke-miterlimit:22.9256;}
	.st162{fill-rule:evenodd;clip-rule:evenodd;fill:#F7CC36;}
	.st163{fill-rule:evenodd;clip-rule:evenodd;fill:#FFFBDE;}
	.st164{fill:none;stroke:#000000;stroke-width:1.6945;stroke-linecap:round;stroke-linejoin:round;stroke-miterlimit:22.9256;}
	.st165{fill:none;stroke:#000000;stroke-width:1.803;stroke-linecap:round;stroke-linejoin:round;stroke-miterlimit:22.9256;}
	.st166{fill:none;stroke:#FF74AC;stroke-width:2.5239;stroke-linecap:round;stroke-linejoin:round;stroke-miterlimit:22.9256;}
	.st167{fill:none;stroke:#000000;stroke-width:2.4522;stroke-linecap:round;stroke-miterlimit:22.9256;}
	.st168{fill-rule:evenodd;clip-rule:evenodd;fill:#FFB0DC;}
	.st169{fill:none;stroke:#000000;stroke-width:2.4522;stroke-miterlimit:22.9256;}
	.st170{fill-rule:evenodd;clip-rule:evenodd;fill:#FFA6D2;}
	.st171{fill:none;stroke:#E5A474;stroke-width:1.3151;stroke-linecap:round;stroke-linejoin:round;stroke-miterlimit:22.9256;}
	.st172{fill:none;stroke:#000000;stroke-width:2.7402;stroke-linecap:round;stroke-linejoin:round;stroke-miterlimit:22.9256;}
	.st173{fill:none;stroke:#F3846B;stroke-width:3.1729;stroke-linecap:round;stroke-linejoin:round;stroke-miterlimit:22.9256;}
	.st174{fill:none;stroke:#000000;stroke-width:0.5482;stroke-miterlimit:22.9256;}
	.st175{fill:none;stroke:#676155;stroke-width:1.803;stroke-linecap:round;stroke-linejoin:round;stroke-miterlimit:22.9256;}
	.st176{fill:none;stroke:#000000;stroke-width:5.4091;stroke-miterlimit:22.9256;}
	.st177{fill-rule:evenodd;clip-rule:evenodd;fill:#EB678A;}
	.st178{fill-rule:evenodd;clip-rule:evenodd;fill:#FFDED3;}
	.st179{fill:none;stroke:#000000;stroke-width:1.7309;stroke-linecap:round;stroke-linejoin:round;stroke-miterlimit:22.9256;}
	.st180{fill-rule:evenodd;clip-rule:evenodd;fill:#472F1D;}

		.st181{clip-path:url(#SVGID_00000081640707818408841500000017884151861889738422_);fill-rule:evenodd;clip-rule:evenodd;fill:#FFFBDE;}
	.st182{fill:none;stroke:#DB816D;stroke-width:1.803;stroke-linecap:round;stroke-linejoin:round;stroke-miterlimit:22.9256;}
	.st183{fill:none;stroke:#000000;stroke-width:3.1729;stroke-linecap:round;stroke-linejoin:round;stroke-miterlimit:22.9256;}
	.st184{fill:none;stroke:#EFAD96;stroke-width:1.803;stroke-linecap:round;stroke-linejoin:round;stroke-miterlimit:22.9256;}
	.st185{fill-rule:evenodd;clip-rule:evenodd;fill:#AEEDE5;}
	.st186{fill-rule:evenodd;clip-rule:evenodd;fill:#FF9071;}
	.st187{fill:none;stroke:#49443B;stroke-width:2.1636;stroke-linecap:round;stroke-linejoin:round;stroke-miterlimit:22.9256;}
	.st188{fill:none;stroke:#25231E;stroke-width:3.1729;stroke-linecap:round;stroke-linejoin:round;stroke-miterlimit:22.9256;}
	.st189{fill-rule:evenodd;clip-rule:evenodd;fill:#FFBCD4;}
	.st190{fill:none;stroke:#25231E;stroke-width:2.3435;stroke-linecap:round;stroke-linejoin:round;stroke-miterlimit:22.9256;}

		.st191{clip-path:url(#SVGID_00000000931156702304314870000008276688063823596962_);fill-rule:evenodd;clip-rule:evenodd;fill:#FFC1DC;}
	.st192{fill:none;stroke:#000000;stroke-width:2.8848;stroke-linecap:round;stroke-linejoin:round;stroke-miterlimit:22.9256;}
	.st193{fill:none;stroke:#FF5F49;stroke-width:3.606;stroke-linecap:round;stroke-miterlimit:22.9256;}
	.st194{fill:none;stroke:#985C3B;stroke-width:2.3435;stroke-linecap:round;stroke-linejoin:round;stroke-miterlimit:22.9256;}

		.st195{clip-path:url(#SVGID_00000142144987664869498520000007635441114708308893_);fill-rule:evenodd;clip-rule:evenodd;fill:#212121;}

		.st196{clip-path:url(#SVGID_00000012454542140465785750000002602394724137559690_);fill-rule:evenodd;clip-rule:evenodd;fill:#212121;}
	.st197{fill:none;stroke:#676155;stroke-width:2.4522;stroke-linecap:round;stroke-linejoin:round;stroke-miterlimit:22.9256;}
	.st198{fill:none;stroke:#000000;stroke-width:2.3435;stroke-linecap:round;stroke-linejoin:round;stroke-miterlimit:22.9256;}
	.st199{fill:none;stroke:#49443B;stroke-width:1.4425;stroke-linecap:round;stroke-linejoin:round;stroke-miterlimit:22.9256;}
	.st200{fill:none;stroke:#25231E;stroke-width:2.4374;stroke-linecap:round;stroke-miterlimit:22.9256;}
	.st201{fill:none;stroke:#25231E;stroke-width:2.4385;stroke-linecap:round;stroke-miterlimit:22.9256;}
	.st202{fill:none;stroke:#25231E;stroke-width:1.9423;stroke-linecap:round;stroke-linejoin:round;stroke-miterlimit:22.9256;}
	.st203{fill:none;stroke:#25231E;stroke-width:1.9431;stroke-linecap:round;stroke-linejoin:round;stroke-miterlimit:22.9256;}
	.st204{fill:none;stroke:#25231E;stroke-width:2.4367;stroke-linecap:round;stroke-miterlimit:22.9256;}
	.st205{fill:none;stroke:#25231E;stroke-width:2.4312;stroke-linecap:round;stroke-linejoin:round;stroke-miterlimit:22.9256;}
	.st206{fill:none;stroke:#25231E;stroke-width:2.431;stroke-linecap:round;stroke-linejoin:round;stroke-miterlimit:22.9256;}
	.st207{fill:none;stroke:#000000;stroke-width:2.4452;stroke-linecap:round;stroke-linejoin:round;stroke-miterlimit:22.9256;}
	.st208{fill:none;stroke:#25231E;stroke-width:2.9113;stroke-linecap:round;stroke-linejoin:round;stroke-miterlimit:22.9256;}
	.st209{fill:none;stroke:#25231E;stroke-width:2.4268;stroke-linecap:round;stroke-linejoin:round;stroke-miterlimit:22.9256;}
	.st210{fill:none;stroke:#C77246;stroke-width:2.9362;stroke-linecap:round;stroke-linejoin:round;stroke-miterlimit:22.9256;}
	.st211{opacity:0.3;fill:none;stroke:#000000;stroke-width:0.9807;stroke-miterlimit:10;}
	.st212{fill:none;stroke:#000000;stroke-width:0.9293;stroke-miterlimit:10;}
	.st213{fill:#C8C8C8;}
	.st214{fill:none;stroke:#E51C52;stroke-width:1.0718;stroke-miterlimit:10;}
	.st215{fill:none;stroke:#E51C52;stroke-width:6.6768;stroke-linecap:round;stroke-miterlimit:10;}
	.st216{clip-path:url(#SVGID_00000056429932765957768730000012993465747158369427_);}

		.st217{clip-path:url(#SVGID_00000052089871139958420560000011479193122847637646_);fill-rule:evenodd;clip-rule:evenodd;fill:#212121;}

		.st218{clip-path:url(#SVGID_00000140001825577142121090000007062974119134152634_);fill-rule:evenodd;clip-rule:evenodd;fill:#212121;}
	.st219{clip-path:url(#SVGID_00000075878969829523626610000001499220472871488670_);}
	.st220{clip-path:url(#SVGID_00000108303753246771855350000016234028771409805246_);}
	.st221{fill:none;stroke:#646464;stroke-miterlimit:10;}
	.st222{clip-path:url(#SVGID_00000119111378825761625630000003549444165465699754_);}
	.st223{fill:none;stroke:#1E1E1E;stroke-width:0.7803;stroke-miterlimit:10;}
	.st224{fill:none;stroke:#FFFFFF;stroke-miterlimit:10;}
	.st225{clip-path:url(#SVGID_00000154412843703830619880000010920049099808273066_);}
	.st226{clip-path:url(#SVGID_00000181057326426372782200000010056571671521046202_);}
	.st227{clip-path:url(#SVGID_00000116218553002325855180000011302819606797836454_);}
	.st228{fill:#EBFF2C;}
	.st229{fill-rule:evenodd;clip-rule:evenodd;fill:#F9E2D3;}
	.st230{fill:#322C2B;}
	.st231{fill-rule:evenodd;clip-rule:evenodd;fill:#FDFDFD;}
	.st232{opacity:0.29;}
	.st233{fill-rule:evenodd;clip-rule:evenodd;fill:#322C2B;}
	.st234{fill-rule:evenodd;clip-rule:evenodd;fill:#F2AFDB;}
	.st235{fill-rule:evenodd;clip-rule:evenodd;fill:#F1A5D2;}
	.st236{fill:#E6A573;}
	.st237{fill:#ED836A;}
	.st238{fill:#757475;}
	.st239{fill-rule:evenodd;clip-rule:evenodd;fill:#E93323;}
	.st240{fill-rule:evenodd;clip-rule:evenodd;fill:#F6CD46;}
	.st241{fill-rule:evenodd;clip-rule:evenodd;fill:#AAABAB;}
	.st242{fill-rule:evenodd;clip-rule:evenodd;fill:#8ECEDF;}
	.st243{fill-rule:evenodd;clip-rule:evenodd;fill:#464443;}
	.st244{fill-rule:evenodd;clip-rule:evenodd;fill:#F8DDCB;}
	.st245{fill:#A1664E;}
	.st246{fill-rule:evenodd;clip-rule:evenodd;fill:#5F5D5D;}
	.st247{clip-path:url(#SVGID_00000029760811593157655780000015238694396768244099_);}
	.st248{fill:#8A8A8B;}
	.st249{fill-rule:evenodd;clip-rule:evenodd;fill:#757475;}
	.st250{clip-path:url(#SVGID_00000079475643054127735860000012456347012606394303_);}
	.st251{fill:#A0A0A0;}
	.st252{fill-rule:evenodd;clip-rule:evenodd;fill:#B5B5B6;}
	.st253{fill:#5F5D5D;}
	.st254{fill-rule:evenodd;clip-rule:evenodd;fill:#A8FAFD;}
	.st255{fill:#464443;}
	.st256{fill-rule:evenodd;clip-rule:evenodd;fill:#5878C4;}
	.st257{fill-rule:evenodd;clip-rule:evenodd;fill:#F9E0D1;}
	.st258{fill:#C77347;}
	.st259{fill-rule:evenodd;clip-rule:evenodd;fill:#ED7D4B;}
	.st260{fill-rule:evenodd;clip-rule:evenodd;fill:#EE8D6F;}
	.st261{fill-rule:evenodd;clip-rule:evenodd;fill:#F4BCD4;}
	.st262{fill-rule:evenodd;clip-rule:evenodd;fill:#F4C1DC;}
	.st263{fill:#EB5A45;}
	.st264{fill-rule:evenodd;clip-rule:evenodd;fill:#F2C68B;}
	.st265{fill-rule:evenodd;clip-rule:evenodd;fill:#FBEBCA;}
	.st266{fill-rule:evenodd;clip-rule:evenodd;fill:#EEE45D;}
	.st267{fill-rule:evenodd;clip-rule:evenodd;fill:#FDF9A6;}
	.st268{fill:#EC72AC;}
	.st269{fill-rule:evenodd;clip-rule:evenodd;fill:#EF9670;}
	.st270{fill-rule:evenodd;clip-rule:evenodd;fill:#F8DDD3;}
	.st271{fill-rule:evenodd;clip-rule:evenodd;fill:#583F33;}
	.st272{clip-path:url(#SVGID_00000050649838634279983980000006927403565071483301_);}
	.st273{fill:#DB816D;}
	.st274{fill:#F0AE96;}
	.st275{fill-rule:evenodd;clip-rule:evenodd;fill:#AEEEE6;}
	.st276{fill:none;stroke:#E51C52;stroke-width:7.7112;stroke-linecap:round;stroke-miterlimit:10;}
	.st277{clip-path:url(#SVGID_00000091703119451951149160000014149050406419633548_);}
	.st278{clip-path:url(#SVGID_00000169525603669280516230000011202997785169484189_);}
	.st279{clip-path:url(#SVGID_00000023267395411856295390000013957299912826487703_);}
	.st280{clip-path:url(#SVGID_00000023241332576630995570000002791458253586751136_);}
	.st281{clip-path:url(#SVGID_00000028308482637270629830000009028028843138869923_);}
	.st282{clip-path:url(#SVGID_00000120533463642655064940000010003764657830965669_);}
	.st283{clip-path:url(#SVGID_00000023962437919481231710000011097036831744834971_);}
	.st284{clip-path:url(#SVGID_00000009584000201114316060000001823297020703676589_);}
	.st285{fill:none;stroke:#E52C52;stroke-miterlimit:10;}
	.st286{fill:#2C88C6;}
</style>
  </defs>
  <clipPath id="SVGID_00000058579649144048068560000015771796666640968116_">
    <rect x="341" y="947.57" width="1015" height="381.68" style="overflow: visible;"/>
  </clipPath>
  <g style="clip-path:url(#SVGID_00000058579649144048068560000015771796666640968116_);">
    <path class="st21" d="M683.32,1256.11c6.26,3.06,9.08,17.23,11.56,23.06c7.81-7.82,15.63-15.64,23.44-23.46 c0.62-0.62,1.25-1.27,1.5-2.11c0.96-3.32-2.99-5.59-0.36-8.83c6.45-7.93,8.92,2.86,12.25,5.1c0.67,0.45,1.53,0.47,2.33,0.42 c3.8-0.23,10.24-1.57,14.04-1.79c10.54-0.61,13.62,9.23,4.71,14.67c-5.13,3.13-13.75,4.93-19.66,6.04 c-3.67,0.68-28.42,34.35-27.22,33.05c-4.94,5.38-19.78,4.27-23.08-2.09c0,0-20.13-38.79-20.13-38.79 c5.44-1.86,10.85-4.01,16.38-5.6C680.65,1255.33,682.05,1255.5,683.32,1256.11z"/>
    <path class="st115" d="M683.32,1256.11c6.26,3.06,9.08,17.23,11.56,23.06c7.81-7.82,15.63-15.64,23.44-23.46 c0.62-0.62,1.25-1.27,1.5-2.11c0.96-3.32-2.99-5.59-0.36-8.83c6.45-7.93,8.92,2.86,12.25,5.1c0.67,0.45,1.53,0.47,2.33,0.42 c3.8-0.23,10.24-1.57,14.04-1.79c10.54-0.61,13.62,9.23,4.71,14.67c-5.13,3.13-13.75,4.93-19.66,6.04 c-3.67,0.68-28.42,34.35-27.22,33.05c-4.94,5.38-19.78,4.27-23.08-2.09c0,0-20.13-38.79-20.13-38.79 c5.44-1.86,10.85-4.01,16.38-5.6C680.65,1255.33,682.05,1255.5,683.32,1256.11z"/>
    <g>
      <path class="st21" d="M566.24,1340.28c0.03,7.54,2.05,52.52,2.87,58.55c-0.29,2.23-10.03,13.38-6.81,17.68 c2.99,10.24,32.12,8.73,40.21,2.16c0.69-7.66-5.07-12.16-4.3-18.4c1.74-9.44,3.41-45.98,4.54-63.82 c0.6-9.43,5.97-15.23-6.88-18.84C583.8,1312.89,568.21,1308.47,566.24,1340.28z"/>
    </g>
    <g>
      <path d="M568.77,1425.35c-6.04-1.88-8.38-5.02-9.27-7.49c-2.88-4.7,1.52-11.58,4.76-16.64c0.62-0.97,1.44-2.25,1.71-2.67 c-0.87-8.25-2.79-50.92-2.82-58.26c0-0.07,0-0.13,0.01-0.2c0.86-13.82,4.3-22.47,10.53-26.44c7.77-4.97,17.87-1.02,23.01,1 c12.57,3.52,11.2,10.31,9.99,16.31c-0.36,1.8-0.74,3.67-0.87,5.69c-0.27,4.32-0.58,9.74-0.91,15.6 c-1.04,18.37-2.32,41.24-3.65,48.41c-0.27,2.17,0.62,4.19,1.75,6.75c1.4,3.18,2.99,6.79,2.56,11.55 c-0.08,0.83-0.48,1.59-1.13,2.11c-4.58,3.72-14.26,5.93-23.41,5.93C576.61,1426.98,572.31,1426.46,568.77,1425.35z M597.37,1409.87c-1.33-3.02-2.7-6.14-2.2-10.17c1.29-6.96,2.56-29.61,3.59-47.82c0.33-5.88,0.64-11.31,0.91-15.64 c0.16-2.44,0.59-4.6,0.98-6.52c1.17-5.8,1.45-7.18-5.9-9.26c-6.1-2.38-13-4.68-17.74-1.64c-4.38,2.8-6.96,10.04-7.69,21.53 c0.05,7.56,2.07,52.29,2.84,58.05c0.04,0.27,0.04,0.55,0,0.82c-0.17,1.3-0.95,2.57-2.71,5.31c-3.62,5.66-5.2,9.07-4.69,10.12 c0.22,0.3,0.39,0.63,0.49,0.99c0.6,2.07,3.61,3.29,5.34,3.84c8.88,2.77,23.14,0.95,28.88-2.46 C599.39,1414.45,598.41,1412.21,597.37,1409.87z"/>
    </g>
    <g>
      <path class="st21" d="M654.53,1340.28c0.19,7.54-0.52,52.52-1.15,58.55c0.36,2.23,10.42,13.38,7.33,17.68 c-2.68,10.24-31.86,8.73-40.15,2.16c-0.91-7.66,4.72-12.16,3.76-18.4c-3.41-10.25-7.17-45.98-8.83-63.82 c-0.87-9.43-6.69-15.23,6.06-18.84C633.49,1312.89,651.63,1308.47,654.53,1340.28z"/>
    </g>
    <g>
      <path d="M618.64,1421.07c-0.64-0.51-1.04-1.24-1.14-2.05c-0.56-4.76,0.92-8.38,2.23-11.57c1.01-2.46,1.82-4.43,1.58-6.51 c-3.82-11.95-7.76-52.12-8.88-64.23c-0.19-2.08-0.66-3.99-1.11-5.84c-1.45-5.96-3.1-12.71,9.1-16.14 c7.56-2.98,17.27-5.78,25.32-0.82c6.76,4.16,10.63,12.69,11.86,26.08c0.01,0.07,0.01,0.13,0.01,0.2 c0.18,7.3-0.47,49.7-1.1,58.17c0.36,0.64,1.14,1.82,1.8,2.79c3.38,5.05,7.97,11.91,5.23,16.63c-0.8,2.43-2.98,5.52-8.71,7.43 c-3.54,1.18-7.96,1.72-12.55,1.72C633.11,1426.95,623.3,1424.77,618.64,1421.07z M642.51,1319.16 c-5.72-3.53-13.6-1.15-20.12,1.4c-6.78,1.92-6.49,3.11-5.08,8.86c0.48,1.97,1.02,4.2,1.26,6.73 c2.3,24.8,5.79,54.41,8.68,63.13c0.05,0.17,0.09,0.33,0.12,0.51c0.59,3.86-0.75,7.12-1.94,10c-0.97,2.35-1.89,4.59-1.89,7.17 c5.88,3.46,20.68,5.3,29.34,2.41c1.59-0.53,4.34-1.71,4.85-3.66c0.1-0.37,0.24-0.68,0.46-0.99c0.66-1.69-3.6-8.05-5-10.15 c-1.82-2.73-2.64-3.98-2.85-5.27c-0.04-0.27-0.05-0.54-0.02-0.82c0.61-5.78,1.31-50.5,1.14-58.05 C650.42,1329.34,647.42,1322.18,642.51,1319.16z"/>
    </g>
    <g>
      <path class="st22" d="M595.92,1414.25c-4.15,3.09-24.91,2.44-32.24-1.75c-2.36-1.35-1.81-3.18-1.44-4.59 c-7.87,3.8-12.22,12.9-7.17,18.51c2.82,3.13,8.21,4.21,18.42,5.01c3.72,0.29,20.23,0.16,25.66-2.36 c6.98-3.25,4.65-17.17,2.69-21.4C601.46,1406.86,596.58,1413.75,595.92,1414.25z"/>
    </g>
    <g>
      <path d="M573.25,1434.49c-10.74-0.83-16.85-1.99-20.47-6.02c-2.5-2.78-3.46-6.42-2.7-10.27c1.05-5.34,5.2-10.35,10.82-13.07 c1.08-0.52,2.35-0.31,3.28,0.45c0.93,0.76,1.31,2.05,1.01,3.21c-0.08,0.32-0.28,0.87-0.28,0.81c0,0,0.07,0.09,0.3,0.22 c6.89,3.93,25.68,3.87,28.73,2.04c0.3-0.34,0.8-0.99,1.37-1.72c3.34-4.26,4.58-5.9,6.79-5.61c1.06,0.12,2.07,0.85,2.52,1.83 c2.47,5.33,4.93,21.23-4.19,25.48c-4.84,2.25-16.21,2.74-22.77,2.74C575.59,1434.6,574,1434.55,573.25,1434.49z M600.16,1413.95c-1.43,1.82-1.87,2.37-2.4,2.77l0,0c-5.34,3.98-27.63,3.01-35.6-1.54c-1.04-0.59-1.77-1.28-2.27-2 c-1.96,1.79-3.33,4-3.77,6.21c-0.38,1.95,0.03,3.62,1.24,4.96c2.2,2.45,7.67,3.32,16.37,4c4.33,0.34,19.7-0.02,24.12-2.08 c3.09-1.44,3.32-7.68,2.51-12.57C600.28,1413.79,600.22,1413.87,600.16,1413.95z"/>
    </g>
    <g>
      <path class="st22" d="M627.01,1414.25c4.24,3.09,24.99,2.44,32.19-1.75c2.32-1.35,1.72-3.18,1.31-4.59 c7.98,3.8,12.6,12.9,7.72,18.51c-2.73,3.13-8.09,4.21-18.27,5.01c-3.71,0.29-20.23,0.16-25.72-2.36 c-7.08-3.25-5.16-17.17-3.32-21.4C621.26,1406.86,626.34,1413.75,627.01,1414.25z"/>
    </g>
    <g>
      <path d="M622.95,1431.86c-9.18-4.22-7.17-20.1-4.86-25.42c0.43-0.99,1.42-1.74,2.49-1.89c2.19-0.3,3.4,1.19,6.97,5.58 c0.6,0.74,1.12,1.39,1.42,1.72c3.38,2.07,22.32,1.68,28.69-2.02c0.07-0.04,0.12-0.07,0.15-0.09 c-0.04-0.24-0.15-0.65-0.25-0.99c-0.34-1.16,0.04-2.42,0.96-3.2c0.92-0.79,2.22-0.95,3.32-0.43 c5.69,2.71,10.09,7.9,11.19,13.23c0.78,3.77-0.1,7.34-2.48,10.08c-3.52,4.06-9.62,5.22-20.35,6.06 c-0.75,0.06-2.35,0.11-4.44,0.11C639.2,1434.6,627.84,1434.11,622.95,1431.86z M660.75,1415.16 c-7.85,4.56-30.1,5.54-35.55,1.57c0,0,0,0-0.01-0.01c-0.52-0.38-0.97-0.92-2.43-2.72c-0.06-0.08-0.13-0.17-0.21-0.26 c-0.63,4.88-0.18,11.06,2.96,12.51c4.49,2.06,19.89,2.43,24.2,2.09c8.44-0.66,14.09-1.55,16.19-3.96 c1.12-1.29,1.49-2.89,1.1-4.78c-0.47-2.25-1.97-4.55-4.04-6.41C662.47,1413.9,661.76,1414.58,660.75,1415.16z M626.98,1414.25 h0.03H626.98z M626.98,1414.25h0.03H626.98z"/>
    </g>
    <g>
      <path class="st23" d="M658.51,1338.12c0.03,2.69,2.68,61.59,1.48,62.23c-7.57,4.07-34.81,5.23-41.2-1.29 c-0.45-0.45-1.01-10.96-1.92-24.21c-1.26-18.39-2.93-37.16-0.57-37.27C620.25,1337.39,653.19,1336.6,658.51,1338.12z"/>
    </g>
    <g>
      <path class="st24" d="M616.6,1401.21c-1.12-1.14-1.14-1.17-2.22-17.65l-1.06-15.51c-1.68-23.63-1.81-29.9,0.33-32.32 c0.66-0.75,1.55-1.18,2.51-1.23c0.35-0.02,36.78-1.19,43.19,0.65c1.31,0.37,2.22,1.57,2.23,2.93 c0.01,0.54,0.12,3.36,0.28,7.51c2.23,56.05,1.92,56.2-0.42,57.47c-4.06,2.18-13.23,3.7-22.39,3.7 C629.77,1406.76,620.5,1405.2,616.6,1401.21z M655.72,1345.84c-0.08-2.05-0.15-3.79-0.2-5.1c-7.55-0.74-29.12-0.43-37.21-0.16 c-0.46,4.34,0.42,16.8,1.15,27.03l1.06,15.54c0.39,5.96,0.8,12.1,1.07,14.26c5.92,4.44,27.58,3.86,35.6,0.83 C657.51,1390.77,656.18,1357.36,655.72,1345.84z M657.05,1399.47h0.03H657.05z"/>
    </g>
    <g>
      <path class="st23" d="M607.35,1338.12c-0.22,2.69-2.92,61.59-4.17,62.23c-7.94,4.07-35.28,5.23-41.08-1.29 c-0.4-0.45-0.02-10.96,0.28-24.21c0.42-18.39,0.44-37.16,2.82-37.27C569.15,1337.39,602.16,1336.6,607.35,1338.12z"/>
    </g>
    <g>
      <path class="st24" d="M559.81,1401.11c-1.13-1.26-1.13-1.26-0.71-17.88l0.35-15.46c0.57-28.46,1-33.05,5.61-33.27 c0.35-0.02,36.89-1.18,43.16,0.66c1.4,0.41,2.32,1.75,2.2,3.2c-0.04,0.53-0.18,3.32-0.4,7.44 c-2.86,55.97-3.2,56.15-5.44,57.29c-4.22,2.17-13.42,3.65-22.53,3.65C572.68,1406.74,563.41,1405.16,559.81,1401.11z M603.88,1345.49c0.1-1.9,0.18-3.52,0.25-4.77c-7.78-0.71-29.32-0.4-37.15-0.12c-0.9,4.1-1.15,16.86-1.36,27.31l-0.35,15.49 c-0.15,5.87-0.3,11.92-0.23,14.18c5.38,4,27.13,3.8,35.53,0.58C601.55,1391.05,603.28,1357.13,603.88,1345.49z"/>
    </g>
    <g>
      <path class="st21" d="M641.31,1203.12c12.28,1.61-20.54,72.1-27.5,72.45c-6.4,0.33-30.32-55.81-27.56-66.21 C589.3,1197.87,626.02,1202.27,641.31,1203.12z"/>
    </g>
    <g>
      <path d="M608.78,1274.51c-8.97-11.06-27.44-55.46-24.72-65.73c2.9-10.92,25.57-10.2,50.54-8.38c2.55,0.19,4.87,0.35,6.83,0.46 c0.06,0,0.11,0.01,0.17,0.02c1.86,0.24,4.94,1.64,4.68,8.28c-0.63,15.88-23.87,68.25-32.35,68.68c-0.06,0-0.12,0-0.18,0 C612.18,1277.84,610.64,1276.8,608.78,1274.51z M614.03,1273.35L614.03,1273.35L614.03,1273.35z M634.28,1204.92 c-14.17-1.03-43.67-3.17-45.84,5.03c-2.56,9.66,19.25,59.41,25.3,63.26c6.23-4,29.79-53.12,27.94-66.33 c-0.06-0.42-0.24-1.38-0.62-1.49C639.1,1205.27,636.8,1205.1,634.28,1204.92z"/>
    </g>
    <g>
      <path class="st21" d="M549.46,1238.51c-7.74,9.3-15.26,50.22-11.64,76.86c1.78,13.08,8.25,22.52,16.99,24.91 c23.34,6.4,21.8-27.74,14.2-46.17c-2.81-6.8,7.09-25.21,12.54-36.2c2.27-5.1,6.35-28.48,1.12-34.82 C570.21,1213.5,556.65,1229.7,549.46,1238.51z"/>
    </g>
    <g>
      <path d="M553.99,1343.25c-9.92-2.72-17.29-13.24-19.22-27.46c-3.74-27.47,4.01-69.23,12.31-79.23 c6.72-8.23,22.42-27.47,37.47-15.9c0.18,0.14,0.35,0.3,0.5,0.48c6.47,7.85,1.56,32.99-0.74,38.15l-1.64,3.28 c-4.48,8.92-12.82,25.51-10.81,30.38c5.19,12.59,8.65,36.01-0.42,46.29c-2.15,2.43-5.71,4.91-11.27,4.91 C558.33,1344.14,556.28,1343.88,553.99,1343.25z M551.84,1240.46c-0.01,0.01-0.02,0.02-0.02,0.03 c-6.66,7.99-14.58,47.81-10.95,74.47c1.6,11.74,7.25,20.3,14.75,22.35c5.03,1.38,8.69,0.67,11.19-2.16 c6.34-7.18,4.74-26.77-0.65-39.86c-2.85-6.9,3.29-20.16,11-35.49l1.58-3.14c2.38-5.35,5.36-26.16,1.75-31.36 C571.51,1218.79,561.42,1228.72,551.84,1240.46z"/>
    </g>
    <g>
      <path class="st23" d="M571.72,1219.11c-13.28,6.41-29.87,28.05-34.97,43.65c4.48,3.63,29.35,11.72,30.76,10.94 c15.05-8.25,19.92-47.45,15.36-55.2C581.86,1216.78,571.97,1218.98,571.72,1219.11z"/>
    </g>
    <g>
      <path class="st24" d="M534.81,1265.14c-0.99-0.8-1.39-2.14-0.99-3.35c5.11-15.6,21.83-38.35,36.56-45.46h0 c0.11-0.05,12.46-3.93,15.14,0.6c3.56,6.05,2.18,22.39-1.21,34.7c-2.42,8.79-7.04,20.23-15.33,24.77 c-0.34,0.18-0.86,0.27-1.53,0.27C560.58,1276.67,538.04,1267.76,534.81,1265.14z M567.2,1270.67L567.2,1270.67L567.2,1270.67z M572.82,1222c-11.43,5.67-26.53,24.23-32.35,39.47c6.03,3.16,22.15,8.54,26.2,9.16c4.66-2.99,8.9-10.44,11.7-20.62 c3.5-12.71,3.62-24.92,2.21-29.08C578.76,1220.83,574.47,1221.57,572.82,1222z"/>
    </g>
    <g>
      <path class="st23" d="M692.26,1262.2c-4.39,3.75-30.32,9.79-31.75,9.05c-15.26-7.85-18.49-54.16-9.69-53.93 c4.75-0.5,18.15,7.34,28.65,18.73C686.76,1243.95,689.62,1253.55,692.26,1262.2z"/>
    </g>
    <g>
      <path class="st24" d="M659.1,1273.99c-13.83-7.11-18.57-39.14-15.15-52.49c1.56-6.11,4.72-7.2,6.65-7.25 c0.15-0.01,0.27-0.01,0.41-0.02c6.67-0.18,20.52,8.67,30.72,19.73c7.66,8.3,10.69,18.21,13.36,26.95l0.12,0.39 c0.36,1.17-0.01,2.44-0.94,3.24c-3.49,2.98-25.17,9.54-32.88,9.74C660.34,1274.31,659.55,1274.22,659.1,1273.99z M660.97,1268.23L660.97,1268.23L660.97,1268.23z M677.2,1238.14c-10.35-11.22-22.63-17.85-25.91-17.76 c-0.1,0-0.19,0.02-0.29,0.02c-1.06,1.1-2.54,6.91-1.67,17.09c1.03,12.07,5.23,26.62,12.06,30.74 c3.89-0.28,21.23-4.51,27.23-7.38C686.18,1252.92,683.42,1244.87,677.2,1238.14z"/>
    </g>
    <g>
      <path class="st23" d="M555.03,1344.7c8.17,6.36,106.45,5.65,114.36,0.17c5.3-26.63-11.77-125.29-14.84-127.52 c-0.52-0.38-7.65-4.33-10.78-3.37c-8.12,12.83-25.83,30.79-29.72,33.02c-5.16-1.95-21.85-22.7-29.23-34.58 c-2.46,0.8-10.41,4.68-10.82,5.55C562,1243.53,554.77,1313.96,555.03,1344.7z"/>
    </g>
    <g>
      <path class="st24" d="M553.14,1347.13c-0.74-0.58-1.18-1.46-1.19-2.4c-0.27-30.13,6.85-101.64,19.27-128.07 c1.32-2.8,12.53-7.13,12.64-7.17c1.34-0.44,2.83,0.09,3.57,1.3c7.12,11.46,21.1,28.54,26.42,32.54 c5.13-4.21,19.97-19.41,27.31-31.01c0.39-0.62,1-1.08,1.7-1.3c4.91-1.5,13.41,3.77,13.49,3.83 c6.19,4.5,20.65,107.52,16.05,130.62c-0.16,0.78-0.61,1.47-1.27,1.93c-4.35,3.02-34.57,5.01-63.44,5.01 C582.31,1352.42,557.95,1350.87,553.14,1347.13z M652.28,1219.57c-1.75-0.99-5.01-2.37-6.76-2.64 c-8.47,12.75-25.54,30.22-29.94,32.73c-0.8,0.45-1.75,0.53-2.61,0.21c-6.12-2.31-21.75-22.04-29.36-33.65 c-2.48,1.1-5.87,2.82-7.07,3.61c-11.46,25.18-18.39,93.27-18.43,122.99c12.7,4.45,96,4.47,108.53-0.02 C670.98,1315.05,655.5,1227.96,652.28,1219.57z M555,1344.7h0.03H555z"/>
    </g>
    <g>
      <path class="st24" d="M619.1,1287.22c0.77,0,1.53-0.35,2.02-1.03c0.96-1.31,12.84-26.18,13.25-35.21 c0.07-1.43-1.04-2.63-2.46-2.69c-1.39-0.11-2.63,1.03-2.69,2.46c-0.33,7.36-11.04,30.42-12.31,32.47 c-0.73,1.18-0.43,2.77,0.72,3.54C618.08,1287.07,618.6,1287.22,619.1,1287.22z"/>
    </g>
    <g>
      <path class="st24" d="M607.08,1288.91c0.41,0,0.82-0.1,1.21-0.3c1.26-0.67,1.74-2.23,1.07-3.49 c-4-7.53-10.58-27.02-12.39-35.54c-0.3-1.39-1.67-2.27-3.06-1.99c-1.39,0.3-2.28,1.67-1.99,3.06 c1.92,9.01,8.64,28.89,12.88,36.89C605.26,1288.41,606.16,1288.91,607.08,1288.91z"/>
    </g>
    <g>
      <path class="st22" d="M631.56,1285.36c-10.41-0.43-26.16-1.62-37.12-0.99c-2.4,0.14-1.29,18.15-1.29,27.39 c5.78,0,37.84,4.51,38.94,0.46C632.72,1309.86,634.19,1285.47,631.56,1285.36z"/>
    </g>
    <g>
      <path class="st24" d="M601.95,1315.53c-3.98-0.37-7.41-0.7-8.8-0.7c-1.7,0-3.08-1.38-3.08-3.08c0-2.08-0.06-4.6-0.12-7.27 c-0.39-17.41-0.29-22.93,4.31-23.2c8.57-0.49,19.63,0.09,29.39,0.6c2.89,0.15,5.61,0.29,8.04,0.39l0,0 c1.11,0.05,2.1,0.59,2.8,1.54c3.16,4.31,1.01,27.58,0.57,29.2c-0.74,2.72-3.33,3.95-11.09,3.95 C619.02,1316.98,611.96,1316.47,601.95,1315.53z M629.66,1288.36c-1.97-0.09-4.11-0.2-6.33-0.32 c-8.95-0.46-19.02-1-27.02-0.68c-0.51,3.3-0.32,11.71-0.21,16.99c0.03,1.56,0.07,3.08,0.09,4.49 c1.72,0.13,3.87,0.33,6.33,0.56c6.92,0.65,22.57,2.11,26.74,1.08C629.85,1306.15,630.37,1292.81,629.66,1288.36z M631.53,1285.36h0.03H631.53z"/>
    </g>
    <g>
      <path class="st25" d="M592.45,1276.3c1.28,0,2.42-0.84,2.85-2.14c0.53-1.62-0.45-3.38-2.07-3.91 c-0.94-0.31-2.1-0.31-4.41-0.32c-3.79-0.01-10.13-0.02-15.95-1.75c-1.64-0.49-3.35,0.45-3.83,2.07 c-0.48,1.63,0.44,3.34,2.07,3.83c6.67,1.98,13.57,2,17.69,2c1.05,0,2.35,0,2.7,0.06 C591.82,1276.25,592.14,1276.3,592.45,1276.3z"/>
    </g>
    <g>
      <path class="st24" d="M614.12,1270.5c0.36,0,0.74-0.04,1.16-0.15c8.67-2.13,38.13-42.22,41.44-48.55 c0.79-1.51,0.21-3.37-1.3-4.16c-1.5-0.8-3.37-0.21-4.16,1.3c-3.83,7.31-30.06,41.36-36.85,45.16 c-11.71-8.5-25.01-25.25-36.63-46.17c-0.83-1.49-2.69-2.02-4.19-1.2c-1.49,0.83-2.02,2.7-1.2,4.19 c12.54,22.58,26.54,39.94,39.4,48.87C612.22,1270.09,613.01,1270.5,614.12,1270.5z"/>
    </g>
    <g>
      <path class="st24" d="M620.89,1296.61c1.25,0,2.26-1.01,2.26-2.26s-1.01-2.26-2.26-2.26c-1.97,0-3.82-0.18-5.77-0.37 c-2.04-0.2-4.14-0.41-6.46-0.41c-1.25,0-2.26,1.01-2.26,2.26c0,1.25,1.01,2.26,2.26,2.26c2.1,0,4.01,0.18,6.02,0.38 C616.65,1296.41,618.69,1296.61,620.89,1296.61z"/>
    </g>
    <g>
      <path class="st24" d="M619.68,1305.9c0.97,0,1.87-0.63,2.17-1.6c0.36-1.19-0.31-2.46-1.5-2.83c-1.45-0.44-3.67-0.48-6.25-0.52 c-2.01-0.03-5.75-0.09-6.58-0.58c-1.05-0.63-2.46-0.32-3.11,0.74c-0.65,1.05-0.37,2.41,0.67,3.07 c1.72,1.11,4.66,1.23,8.95,1.3c1.95,0.03,4.16,0.06,5,0.32C619.24,1305.87,619.46,1305.9,619.68,1305.9z"/>
    </g>
    <g>
      <path class="st21" d="M615.73,1025.01c-31.05-1.14-54.47,12.57-71.17,36.71c-10.05,14.52-15.04,52.96-13.92,73.76 c0.43,18.44,3.26,36.52,16.32,52.72c30.38,37.71,84.58,39.51,119.99,18.49c22.25-13.2,37.4-35.86,37.47-66.82 c0.04-17.55,0.3-58.29-8.5-72.73C680.07,1041.08,647.06,1025.08,615.73,1025.01"/>
    </g>
    <g>
      <defs>
        <path id="SVGID_00000107550484411528680700000000958394493821916843_" d="M615.73,1025.01 c-31.05-1.14-54.47,12.57-71.17,36.71c-10.05,14.52-15.04,52.96-13.92,73.76c0.43,18.44,3.26,36.52,16.32,52.72 c30.38,37.71,84.58,39.51,119.99,18.49c22.25-13.2,37.4-35.86,37.47-66.82c0.04-17.55,0.3-58.29-8.5-72.73 C680.07,1041.08,647.06,1025.08,615.73,1025.01"/>
      </defs>
    </g>
    <g>
      <path d="M544.57,1190.14c-14.27-17.71-16.6-37.53-17-54.49c-1.14-21.22,3.8-60.28,14.46-75.68 c18.23-26.35,42.99-39.18,73.76-38.04c33.68,0.09,66.94,17.61,82.77,43.6c9.09,14.93,9,54.43,8.95,73.41l0,0.93 c-0.07,29.92-13.91,54.59-38.98,69.47c-14.92,8.85-33.29,13.82-51.94,13.82C590.15,1223.16,563.13,1213.17,544.57,1190.14z M547.1,1063.48c-9.77,14.12-14.45,51.98-13.37,71.94c0.37,16.02,2.52,34.59,15.64,50.86c29.55,36.68,82.2,37.85,116.02,17.77 c23.13-13.73,35.9-36.52,35.96-64.18l0-0.93c0.04-16.98,0.14-56.74-8.05-70.2c-14.76-24.24-45.94-40.58-77.58-40.64 c-0.04,0-0.07,0-0.11,0c-1.16-0.04-2.3-0.06-3.43-0.06C585.26,1028.03,563.38,1039.94,547.1,1063.48z"/>
    </g>
    <g>
      <path d="M615.86,1139.02c0.02,0,0.05,0,0.07,0c6.43-0.17,10.76-2.12,12.88-5.81c2.33-4.06,1.59-9.65-2.22-16.61 c-0.72-1.31-2.36-1.81-3.69-1.08c-1.32,0.72-1.8,2.37-1.08,3.69c2.76,5.04,3.57,9.05,2.28,11.29 c-1.38,2.41-5.28,3.01-8.31,3.09c-1.5,0.04-2.68,1.29-2.65,2.79C613.18,1137.85,614.39,1139.02,615.86,1139.02z"/>
    </g>
    <g>
      <path class="st26" d="M697.33,1173.91c8.34-17.01,5.91-55.89-0.73-79.13c-15.05-15.43-139.71-13.37-158.85-0.84 c-0.2,3.11-12.07,38.02-1.03,74.36c-5.5,4.04-32.58-2.01-37.78-17.41c-15.13-44.78,14.27-113.1,59.02-135.84 c45-22.86,113.76-21.46,145.5,20.48c36.06,47.65,39.27,98.18,30.06,119.46C727.2,1169.57,702.42,1176.09,697.33,1173.91z"/>
    </g>
    <g>
      <path d="M696.12,1176.74c-0.78-0.33-1.38-0.97-1.68-1.76c-0.29-0.79-0.25-1.67,0.12-2.43c7.52-15.34,5.83-52.54-0.69-76.11 c-7.08-5.86-36.98-9.69-75.15-9.5c-36.25,0.16-68.46,3.88-78.2,8.94c-0.12,0.52-0.27,1.16-0.48,1.99 c-2.37,9.69-9.58,39.19-0.37,69.52c0.38,1.25-0.07,2.6-1.12,3.38c-4.17,3.07-13.29,1.76-19.83-0.31 c-5.52-1.74-18.78-7.04-22.69-18.6c-15.54-46,15.01-116.44,60.54-139.57c46.26-23.51,116.52-22.02,149.34,21.37 c38.68,51.12,39.19,102.29,30.43,122.54c-5.93,13.69-26.03,21.18-36.1,21.18C698.54,1177.39,697.13,1177.17,696.12,1176.74z M559.35,1017.79c-43.18,21.94-72.19,88.61-57.49,132.11c2.08,6.16,9.08,11.66,18.7,14.7c5.58,1.76,9.95,2.03,12.39,1.75 c-8.44-30.9-1.29-60.13,1.1-69.93c0.33-1.35,0.57-2.28,0.62-2.68c0.06-0.97,0.58-1.85,1.39-2.38 c20.6-13.48,146.24-15.65,162.74,1.27c0.36,0.37,0.62,0.81,0.76,1.3c6.53,22.87,8.67,58.5,2.19,77.28 c7.52-0.78,24.25-6.65,28.93-17.45c8.82-20.38,5.43-69.96-29.69-116.38c-18.04-23.85-48.27-34.16-79.08-34.16 C599.95,1003.22,577.69,1008.47,559.35,1017.79z"/>
    </g>
    <g>
      <path class="st23" d="M645.92,1015.93c2.57,0.59,6.32-21.61,5.99-29.17c-20.16-5.11-54.4-4.85-64.5,1.52 c-2.43,1.53,0.15,13.44,3.77,27.65C603.76,1013.45,634.43,1013.28,645.92,1015.93z"/>
    </g>
    <g>
      <path class="st24" d="M645.22,1018.93L645.22,1018.93c-10.78-2.49-40.76-2.47-53.46,0.02c-1.59,0.32-3.17-0.68-3.58-2.26 c-5.62-22.01-6.14-28.67-2.43-31.01c11.29-7.11,46.82-6.98,66.9-1.9c1.32,0.33,2.26,1.49,2.32,2.85 c0.26,5.97-2.43,28.05-6.57,31.5c-0.7,0.59-1.54,0.89-2.4,0.89C645.75,1019.02,645.48,1018.99,645.22,1018.93z M589.56,990.58 c-0.45,2.33,0.86,9.66,3.9,21.85c13.18-1.9,38.86-2.15,51.33,0.13c1.55-3.98,3.78-16.27,4.04-23.36 C628.98,984.8,598.82,985.45,589.56,990.58z"/>
    </g>
    <g>
      <path d="M643.26,1064.77c1.4,0,2.67-0.96,3-2.39c1.11-4.86-0.4-13.08-1.77-17.1c-0.55-1.61-2.3-2.46-3.91-1.92 c-1.61,0.55-2.47,2.3-1.92,3.91c1.31,3.85,2.3,10.68,1.6,13.73c-0.38,1.66,0.66,3.31,2.31,3.69 C642.8,1064.75,643.03,1064.77,643.26,1064.77z"/>
    </g>
    <g>
      <path d="M617.1,1061.18c1.7,0,3.08-1.38,3.08-3.08v-10c0-1.7-1.38-3.08-3.08-3.08c-1.7,0-3.08,1.38-3.08,3.08v10 C614.02,1059.8,615.4,1061.18,617.1,1061.18z"/>
    </g>
    <g>
      <path d="M591.55,1063.42c1.65,0,3.02-1.31,3.07-2.97l0.02-0.5c0.17-4.83,0.25-7.26,1.55-11.65c0.48-1.63-0.45-3.34-2.08-3.82 c-1.64-0.48-3.34,0.45-3.82,2.08c-1.52,5.14-1.62,8.17-1.79,13.18l-0.02,0.5c-0.06,1.7,1.27,3.12,2.97,3.18 C591.47,1063.42,591.51,1063.42,591.55,1063.42z"/>
    </g>
    <g>
      <path class="st22" d="M562.32,1108.39c-0.13,2.06,0.71,3.87,2.24,5.3c4.47,4.15,14.68,5.51,23.67,4.51 c14.96-1.66,16.78-11.1,12.08-15.25c-2.78-2.46-10.51-1.98-17.51-2.02c-10.4-0.06-16.05,1.11-18.54,2.6 C561.98,1104.9,562.44,1106.54,562.32,1108.39"/>
    </g>
    <g>
      <defs>
        <path id="SVGID_00000124133333863848899290000002926167093958855348_" d="M562.32,1108.39c-0.13,2.06,0.71,3.87,2.24,5.3 c4.47,4.15,14.68,5.51,23.67,4.51c14.96-1.66,16.78-11.1,12.08-15.25c-2.78-2.46-10.51-1.98-17.51-2.02 c-10.4-0.06-16.05,1.11-18.54,2.6C561.98,1104.9,562.44,1106.54,562.32,1108.39"/>
      </defs>
    </g>
    <g>
      <path d="M563.12,1115.24c-2.04-1.89-3.08-4.37-2.92-6.98c0.02-0.28,0.02-0.56,0.02-0.82c0.01-1.58,0.03-3.98,2.96-5.74 c3.3-1.98,9.97-2.99,19.65-2.9c1.04,0.01,2.1,0,3.15-0.01c6.57-0.03,12.77-0.07,15.75,2.56c2.67,2.36,3.66,5.95,2.58,9.35 c-0.77,2.45-3.87,8.29-15.84,9.61c-1.87,0.21-3.85,0.32-5.85,0.32C575.14,1120.63,567.26,1119.08,563.12,1115.24z M586.01,1103.04c-1.07,0-2.13,0-3.2,0.01c-12.11-0.09-16.25,1.58-17.44,2.3c-0.88,0.53-0.88,0.77-0.89,2.13 c0,0.34-0.01,0.69-0.03,1.04c0,0,0,0,0,0c-0.08,1.35,0.44,2.56,1.57,3.6c3.63,3.36,12.67,4.99,21.99,3.95 c6.58-0.73,11.16-3.23,12.25-6.67c0.57-1.8,0.07-3.62-1.34-4.88c-1.52-1.34-6.33-1.5-10.81-1.5 C587.39,1103.03,586.69,1103.04,586.01,1103.04z"/>
    </g>
    <g>
      <path class="st27" d="M586.6,1102.57c-3.72-0.01-6.74,3-6.74,6.72c0,3.72,3.02,6.75,6.74,6.77c3.72,0.01,6.74-3,6.74-6.72 S590.32,1102.58,586.6,1102.57"/>
    </g>
    <g>
      <path d="M589.99,1101.62c0.07,0,0.15,0,0.22-0.01c1.24-0.12,2.16-1.23,2.03-2.47l-0.58-6.05c-0.12-1.24-1.19-2.21-2.47-2.03 c-1.24,0.12-2.16,1.23-2.03,2.47l0.58,6.05C587.86,1100.74,588.84,1101.62,589.99,1101.62z"/>
    </g>
    <g>
      <path d="M579.31,1102.52c0.27,0,0.54-0.05,0.8-0.15c1.17-0.45,1.76-1.75,1.31-2.92l-2.15-5.66c-0.44-1.17-1.76-1.76-2.92-1.32 c-1.17,0.45-1.76,1.75-1.31,2.92l2.15,5.66C577.53,1101.96,578.39,1102.52,579.31,1102.52z"/>
    </g>
    <g>
      <path d="M567.5,1104.43c0.48,0,0.97-0.15,1.38-0.47c0.99-0.76,1.17-2.18,0.41-3.18l-3.91-5.07c-0.76-0.99-2.18-1.18-3.18-0.41 c-0.99,0.76-1.17,2.18-0.41,3.18l3.91,5.07C566.15,1104.12,566.82,1104.43,567.5,1104.43z"/>
    </g>
    <g>
      <path class="st22" d="M674.88,1108.39c0.13,2.06-0.71,3.87-2.24,5.3c-4.47,4.15-14.68,5.51-23.67,4.51 c-14.96-1.66-16.78-11.1-12.08-15.25c2.78-2.46,10.51-1.98,17.51-2.02c10.4-0.06,16.05,1.11,18.54,2.6 C675.23,1104.9,674.77,1106.54,674.88,1108.39"/>
    </g>
    <g>
      <defs>
        <path id="SVGID_00000165197375489828228880000011998930741849503887_" d="M674.88,1108.39c0.13,2.06-0.71,3.87-2.24,5.3 c-4.47,4.15-14.68,5.51-23.67,4.51c-14.96-1.66-16.78-11.1-12.08-15.25c2.78-2.46,10.51-1.98,17.51-2.02 c10.4-0.06,16.05,1.11,18.54,2.6C675.23,1104.9,674.77,1106.54,674.88,1108.39"/>
      </defs>
    </g>
    <g>
      <path d="M648.73,1120.31c-11.97-1.33-15.07-7.17-15.84-9.61c-1.08-3.4-0.09-6.98,2.58-9.35c2.98-2.63,9.2-2.58,15.75-2.56 c1.06,0.01,2.12,0.02,3.15,0.01c9.81,0.07,16.35,0.93,19.65,2.9c2.92,1.76,2.94,4.15,2.96,5.74c0,0.27,0,0.55,0.02,0.83 c0,0,0,0,0,0c0.16,2.61-0.88,5.09-2.92,6.98c-4.14,3.84-12.02,5.38-19.5,5.38C652.58,1120.63,650.6,1120.52,648.73,1120.31z M672.73,1107.47c-0.01-1.36-0.02-1.6-0.9-2.13c-1.19-0.71-5.38-2.37-17.43-2.3c-1.06,0-2.13,0-3.2-0.01 c-5-0.02-11.15-0.06-12.91,1.49c-1.42,1.25-1.92,3.07-1.35,4.88c1.09,3.44,5.67,5.94,12.25,6.67 c9.33,1.04,18.36-0.59,21.99-3.95c1.12-1.04,1.65-2.25,1.57-3.6C672.74,1108.17,672.74,1107.82,672.73,1107.47z"/>
    </g>
    <g>
      <path class="st27" d="M650.61,1102.57c3.72-0.01,6.74,3,6.74,6.72c0,3.72-3.02,6.75-6.74,6.77c-3.72,0.01-6.74-3-6.74-6.72 S646.89,1102.58,650.61,1102.57"/>
    </g>
    <g>
      <path d="M647.21,1101.62c1.15,0,2.14-0.88,2.25-2.05l0.59-6.05c0.12-1.24-0.79-2.35-2.03-2.47c-1.22-0.15-2.35,0.79-2.47,2.03 l-0.59,6.05c-0.12,1.24,0.79,2.35,2.03,2.47C647.07,1101.62,647.14,1101.62,647.21,1101.62z"/>
    </g>
    <g>
      <path d="M657.9,1102.52c0.91,0,1.77-0.56,2.12-1.46l2.15-5.66c0.45-1.17-0.14-2.48-1.31-2.92c-1.17-0.46-2.47,0.14-2.92,1.31 l-2.15,5.66c-0.45,1.17,0.14,2.48,1.31,2.92C657.36,1102.47,657.63,1102.52,657.9,1102.52z"/>
    </g>
    <g>
      <path d="M669.71,1104.43c0.68,0,1.35-0.31,1.8-0.89l3.9-5.07c0.76-0.99,0.58-2.41-0.41-3.17c-0.99-0.76-2.41-0.57-3.17,0.41 l-3.9,5.07c-0.76,0.99-0.58,2.41,0.41,3.17C668.75,1104.27,669.23,1104.43,669.71,1104.43z"/>
    </g>
    <g>
      <path class="st22" d="M649.02,1173.44c0.63-5.93-5.59-8.93-18.25-3.39c-12.02,5.27-22.55,0.92-31.45-1.7 c-5.36-1.57-14.03-4.72-13.86,4.24c0.16,8.14,14.39,15.07,29.21,15.75C630.45,1189.07,648.83,1182.39,649.02,1173.44z"/>
    </g>
    <g>
      <path class="st28" d="M614.53,1191.51c-15.34-0.71-32.02-8.12-32.23-18.86c-0.07-3.5,0.97-6.09,3.09-7.7 c3.87-2.93,9.67-1.19,13.9,0.08l0.93,0.28c0.98,0.29,1.98,0.6,3,0.91c8.18,2.52,16.65,5.14,26.28,0.92 c10.94-4.79,16.61-3.33,19.44-1.26c2.4,1.76,3.55,4.51,3.24,7.76c-0.1,2.95-1.57,5.83-4.25,8.34 c-6.11,5.71-18.78,9.59-30.88,9.59C616.21,1191.57,615.36,1191.55,614.53,1191.51z M632.04,1172.95 c-11.79,5.17-22.27,1.93-30.69-0.67c-0.99-0.31-1.97-0.61-2.92-0.89l-0.96-0.29c-2.26-0.68-6.95-2.08-8.25-1.1 c-0.39,0.3-0.61,1.24-0.58,2.53c0.1,5.29,11.56,11.97,26.18,12.65c11.09,0.51,23.46-2.85,28.78-7.83 c1.46-1.37,2.22-2.71,2.25-3.98c0-0.09,0.01-0.18,0.02-0.27c0.16-1.49-0.45-1.94-0.67-2.1c-0.58-0.43-1.59-0.71-3.04-0.71 C639.87,1170.29,636.51,1170.99,632.04,1172.95z"/>
    </g>
  </g>
</svg>
