<?xml version="1.0" encoding="utf-8"?>
<svg xmlns="http://www.w3.org/2000/svg" viewBox="663.23 548.3309 602.7678 255.6507" width="602.768px" height="255.651px">
  <defs>
    <style type="text/css">
	.st0{opacity:0.8;fill:#F0F0F0;}
	.st1{fill:#FFFFFF;}
	.st2{fill:none;stroke:#E51C52;stroke-width:1.5969;stroke-miterlimit:10;}
	.st3{fill:none;stroke:#000000;stroke-width:2;stroke-miterlimit:10;}
	.st4{fill:#E51C52;}
	.st5{opacity:0.05;fill:#E51C52;}
	.st6{fill:#FFE54D;}
	.st7{fill:#6ADBC6;}
	.st8{fill:#FF73C0;}
	.st9{fill:#D0D0D0;}
	.st10{fill:#ED4C5C;}
	.st11{fill:#0071B8;}
	.st12{fill:#616466;}
	.st13{fill:#FFCE31;}
	.st14{fill:#C79127;}
	.st15{fill:#94989B;}
	.st16{fill:#66CAF2;}
	.st17{fill:#B0BDC6;}
	.st18{fill:#CAD5DD;}
	.st19{fill:#DFE9EF;}
	.st20{clip-path:url(#SVGID_00000013178585587000752140000003498132747159241407_);}
	.st21{fill-rule:evenodd;clip-rule:evenodd;fill:#FFE1D2;}
	.st22{fill-rule:evenodd;clip-rule:evenodd;fill:#FFFFFF;}
	.st23{fill-rule:evenodd;clip-rule:evenodd;fill:#8DCCDD;}
	.st24{fill:#242424;}
	.st25{fill:#464646;}
	.st26{fill-rule:evenodd;clip-rule:evenodd;fill:#F6CB36;}
	.st27{fill-rule:evenodd;clip-rule:evenodd;}
	.st28{fill:#FF74AB;}
	.st29{clip-path:url(#SVGID_00000074440955570384467310000009084029478415659920_);}
	.st30{fill-rule:evenodd;clip-rule:evenodd;fill:#FFAFDB;}
	.st31{fill-rule:evenodd;clip-rule:evenodd;fill:#FFA5D1;}
	.st32{fill:#E4A374;}
	.st33{fill:#F2846B;}
	.st34{fill:#626262;}
	.st35{fill:#FF3D2B;}
	.st36{clip-path:url(#SVGID_00000023998367630363492800000008452779105381224378_);}
	.st37{fill-rule:evenodd;clip-rule:evenodd;fill:#FF8F71;}
	.st38{fill-rule:evenodd;clip-rule:evenodd;fill:#FF804E;}
	.st39{fill-rule:evenodd;clip-rule:evenodd;fill:#FFBCD3;}
	.st40{clip-path:url(#SVGID_00000139977179130036928030000008463145319124148867_);}
	.st41{fill-rule:evenodd;clip-rule:evenodd;fill:#FFC0DB;}
	.st42{fill:#FF5F49;}
	.st43{clip-path:url(#SVGID_00000090277121576679405010000009102970494092730270_);}
	.st44{fill-rule:evenodd;clip-rule:evenodd;fill:#EA6789;}
	.st45{fill-rule:evenodd;clip-rule:evenodd;fill:#FFDDD2;}
	.st46{fill-rule:evenodd;clip-rule:evenodd;fill:#463124;}
	.st47{clip-path:url(#SVGID_00000053527086189435385380000015787371667683211193_);}
	.st48{fill:#D9816D;}
	.st49{fill:#EEAC95;}
	.st50{fill-rule:evenodd;clip-rule:evenodd;fill:#ADECE4;}
	.st51{clip-path:url(#SVGID_00000021818470455621201990000004123230229671174021_);}
	.st52{fill-rule:evenodd;clip-rule:evenodd;fill:#FFE2D3;}
	.st53{fill:none;stroke:#000000;stroke-width:3.9615;stroke-linecap:round;stroke-linejoin:round;stroke-miterlimit:22.9256;}
	.st54{fill-rule:evenodd;clip-rule:evenodd;fill:#FFDECA;}
	.st55{fill:none;stroke:#985C3B;stroke-width:3.786;stroke-linecap:round;stroke-linejoin:round;stroke-miterlimit:22.9256;}
	.st56{fill-rule:evenodd;clip-rule:evenodd;fill:#454544;}

		.st57{clip-path:url(#SVGID_00000121970834979864166070000014848186480905539230_);fill-rule:evenodd;clip-rule:evenodd;fill:#212121;}
	.st58{fill-rule:evenodd;clip-rule:evenodd;fill:#676155;}
	.st59{fill:none;stroke:#000000;stroke-width:3.9615;stroke-miterlimit:22.9256;}

		.st60{clip-path:url(#SVGID_00000018932981048409932480000010724367381426397068_);fill-rule:evenodd;clip-rule:evenodd;fill:#212121;}
	.st61{fill-rule:evenodd;clip-rule:evenodd;fill:#ABABAB;}
	.st62{fill-rule:evenodd;clip-rule:evenodd;fill:#232323;}
	.st63{fill:none;stroke:#676155;stroke-width:3.9615;stroke-linecap:round;stroke-linejoin:round;stroke-miterlimit:22.9256;}
	.st64{fill:none;stroke:#000000;stroke-width:3.9615;stroke-linecap:round;stroke-miterlimit:22.9256;}
	.st65{fill:none;stroke:#49443B;stroke-width:3.4954;stroke-linecap:round;stroke-linejoin:round;stroke-miterlimit:22.9256;}
	.st66{fill-rule:evenodd;clip-rule:evenodd;fill:#A7F9FD;}
	.st67{fill:none;stroke:#000000;stroke-width:3.786;stroke-linecap:round;stroke-linejoin:round;stroke-miterlimit:22.9256;}
	.st68{fill:none;stroke:#49443B;stroke-width:2.3303;stroke-linecap:round;stroke-linejoin:round;stroke-miterlimit:22.9256;}
	.st69{fill:none;stroke:#25231E;stroke-width:5.126;stroke-linecap:round;stroke-linejoin:round;stroke-miterlimit:22.9256;}
	.st70{fill-rule:evenodd;clip-rule:evenodd;fill:#F9DDCB;}
	.st71{fill:none;stroke:#25231E;stroke-width:3.9376;stroke-linecap:round;stroke-miterlimit:22.9256;}
	.st72{fill:none;stroke:#25231E;stroke-width:3.9394;stroke-linecap:round;stroke-miterlimit:22.9256;}
	.st73{fill:none;stroke:#25231E;stroke-width:3.1379;stroke-linecap:round;stroke-linejoin:round;stroke-miterlimit:22.9256;}
	.st74{fill:none;stroke:#25231E;stroke-width:3.1391;stroke-linecap:round;stroke-linejoin:round;stroke-miterlimit:22.9256;}
	.st75{fill:none;stroke:#25231E;stroke-width:3.9365;stroke-linecap:round;stroke-miterlimit:22.9256;}
	.st76{fill:none;stroke:#25231E;stroke-width:3.9277;stroke-linecap:round;stroke-linejoin:round;stroke-miterlimit:22.9256;}
	.st77{fill:none;stroke:#25231E;stroke-width:3.9273;stroke-linecap:round;stroke-linejoin:round;stroke-miterlimit:22.9256;}
	.st78{fill:none;stroke:#000000;stroke-width:3.9502;stroke-linecap:round;stroke-linejoin:round;stroke-miterlimit:22.9256;}
	.st79{fill:none;stroke:#25231E;stroke-width:4.7033;stroke-linecap:round;stroke-linejoin:round;stroke-miterlimit:22.9256;}
	.st80{fill:none;stroke:#25231E;stroke-width:4.7034;stroke-linecap:round;stroke-linejoin:round;stroke-miterlimit:22.9256;}
	.st81{fill:none;stroke:#25231E;stroke-width:3.9205;stroke-linecap:round;stroke-linejoin:round;stroke-miterlimit:22.9256;}
	.st82{fill:none;stroke:#C77246;stroke-width:4.7435;stroke-linecap:round;stroke-linejoin:round;stroke-miterlimit:22.9256;}
	.st83{clip-path:url(#SVGID_00000090292234418595834530000004761699065748717463_);}

		.st84{clip-path:url(#SVGID_00000103953313327189350820000001784089863404568983_);fill-rule:evenodd;clip-rule:evenodd;fill:#212121;}

		.st85{clip-path:url(#SVGID_00000044173846488866793890000007311952827291442591_);fill-rule:evenodd;clip-rule:evenodd;fill:#212121;}
	.st86{clip-path:url(#SVGID_00000053526344067250495830000016995937755860260484_);}

		.st87{clip-path:url(#SVGID_00000076588539841176023360000007034439958298746811_);fill-rule:evenodd;clip-rule:evenodd;fill:#212121;}

		.st88{clip-path:url(#SVGID_00000130623483219914668500000004883188897247764392_);fill-rule:evenodd;clip-rule:evenodd;fill:#212121;}
	.st89{clip-path:url(#SVGID_00000108280416118572830400000003607208878681542576_);}

		.st90{clip-path:url(#SVGID_00000147221727386445702570000005102400762158031491_);fill-rule:evenodd;clip-rule:evenodd;fill:#212121;}

		.st91{clip-path:url(#SVGID_00000076575831271371045430000014636345553667133062_);fill-rule:evenodd;clip-rule:evenodd;fill:#212121;}
	.st92{clip-path:url(#SVGID_00000156568206478583519810000011567434866727378865_);}

		.st93{clip-path:url(#SVGID_00000133503211089316536720000002269769569606034614_);fill-rule:evenodd;clip-rule:evenodd;fill:#212121;}

		.st94{clip-path:url(#SVGID_00000029759236934590884710000011909464107715762339_);fill-rule:evenodd;clip-rule:evenodd;fill:#212121;}
	.st95{clip-path:url(#SVGID_00000083795934489365238520000004329127501541188791_);}

		.st96{clip-path:url(#SVGID_00000120560255169901185480000003731507166486282660_);fill-rule:evenodd;clip-rule:evenodd;fill:#212121;}

		.st97{clip-path:url(#SVGID_00000109725636140286653390000010003426740460263574_);fill-rule:evenodd;clip-rule:evenodd;fill:#212121;}
	.st98{opacity:0.3;fill:none;stroke:#000000;stroke-miterlimit:10;}
	.st99{fill:none;stroke:#707070;stroke-miterlimit:10;}
	.st100{clip-path:url(#SVGID_00000027569305500817761860000002311700025236184227_);}
	.st101{clip-path:url(#SVGID_00000142135942120013468650000008614928435610490031_);}
	.st102{clip-path:url(#SVGID_00000172406072888072430870000002537195688550791347_);}
	.st103{clip-path:url(#SVGID_00000127739013571331097570000001385535801977250463_);}
	.st104{clip-path:url(#SVGID_00000168078131128970140180000001334950826563073438_);}
	.st105{fill:#FDFEFF;}
	.st106{fill:#F3F3F3;}
	.st107{fill:none;stroke:#000000;stroke-width:5;stroke-miterlimit:10;}
	.st108{clip-path:url(#SVGID_00000104699974136196620940000011869980045195027369_);}
	.st109{clip-path:url(#SVGID_00000070083974249918691220000015963547911853843593_);}
	.st110{opacity:0.2;}
	.st111{fill:#C6C6C6;}
	.st112{fill:#7F7F7F;}
	.st113{opacity:0.8;fill:#939292;}
	.st114{clip-path:url(#SVGID_00000082342352249857924420000009542733345353008292_);}

		.st115{fill-rule:evenodd;clip-rule:evenodd;fill:none;stroke:#242424;stroke-width:5.5337;stroke-linecap:round;stroke-linejoin:round;stroke-miterlimit:10;}
	.st116{opacity:0.4;}
	.st117{fill:#FFFFFF;stroke:#3F3F3F;stroke-miterlimit:10;}
	.st118{fill:#FFFFFF;stroke:#3F3F3F;stroke-width:2;stroke-miterlimit:10;}
	.st119{fill:#FFFFFF;stroke:#3F3F3F;stroke-width:0.8;stroke-miterlimit:10;}
	.st120{fill:#D13655;}
	.st121{clip-path:url(#SVGID_00000140702935780814388870000012379225485301020035_);}
	.st122{fill:none;stroke:#A8A8A8;stroke-miterlimit:10;}
	.st123{fill:none;stroke:#000000;stroke-width:1.3778;stroke-miterlimit:10;}
	.st124{fill:none;stroke:#000000;stroke-width:1.439;stroke-miterlimit:10;}
	.st125{clip-path:url(#SVGID_00000104687028319227613570000001347038776833325443_);}
	.st126{opacity:0.7;}
	.st127{clip-path:url(#SVGID_00000115510868324381413570000006011973051698061186_);}
	.st128{clip-path:url(#SVGID_00000121981105833683752150000011364965782053767595_);}
	.st129{opacity:0.3;}
	.st130{clip-path:url(#SVGID_00000062911831631901290530000014535470087547804862_);}
	.st131{clip-path:url(#SVGID_00000016065665782499948530000017989301147496913303_);}
	.st132{clip-path:url(#SVGID_00000017483887449035895830000010749024400301953171_);}
	.st133{clip-path:url(#SVGID_00000080884711421914046550000018321661224158524549_);}
	.st134{clip-path:url(#SVGID_00000068645440983336592770000002484325337497209755_);}
	.st135{clip-path:url(#SVGID_00000098193375516042166880000000432359293268427431_);}
	.st136{fill:none;stroke:#EFEFEF;stroke-width:0.9914;stroke-miterlimit:10;}
	.st137{fill:none;stroke:#E51C52;stroke-miterlimit:10;}
	.st138{fill:none;stroke:#020202;stroke-miterlimit:10;}
	.st139{opacity:0.9;}
	.st140{fill:#DBDBDB;}
	.st141{opacity:0.6;fill:#FFFFFF;}
	.st142{font-family:'Roboto-Light';}
	.st143{font-size:25.7955px;}
	.st144{fill:#FFFFFF;stroke:#646464;stroke-miterlimit:10;}
	.st145{fill:none;stroke:#1E1E1E;stroke-width:0.8107;stroke-miterlimit:10;}
	.st146{fill:none;stroke:#000000;stroke-width:0.8107;stroke-miterlimit:10;}
	.st147{clip-path:url(#SVGID_00000080914250601952623090000016463224850416959895_);}
	.st148{clip-path:url(#SVGID_00000104670325272160969550000001244067257975427207_);}
	.st149{fill:none;stroke:#000000;stroke-width:2.4522;stroke-linejoin:round;stroke-miterlimit:22.9256;}
	.st150{fill:none;stroke:#000000;stroke-width:2.4522;stroke-linecap:round;stroke-linejoin:round;stroke-miterlimit:22.9256;}
	.st151{fill-rule:evenodd;clip-rule:evenodd;fill:#8ECDDE;}
	.st152{fill:none;stroke:#25231E;stroke-width:2.4522;stroke-linecap:round;stroke-linejoin:round;stroke-miterlimit:22.9256;}
	.st153{fill:none;stroke:#000000;stroke-width:1.803;stroke-linejoin:round;stroke-miterlimit:22.9256;}
	.st154{fill:none;stroke:#25231E;stroke-width:2.0551;stroke-linecap:round;stroke-linejoin:round;stroke-miterlimit:22.9256;}
	.st155{fill:none;stroke:#49443B;stroke-width:2.4522;stroke-linecap:round;stroke-linejoin:round;stroke-miterlimit:22.9256;}
	.st156{fill:none;stroke:#25231E;stroke-width:1.803;stroke-linecap:round;stroke-linejoin:round;stroke-miterlimit:22.9256;}
	.st157{fill:none;stroke:#000000;stroke-width:2.1636;stroke-linecap:round;stroke-linejoin:round;stroke-miterlimit:22.9256;}
	.st158{fill-rule:evenodd;clip-rule:evenodd;fill:#F7CC36;}
	.st159{fill-rule:evenodd;clip-rule:evenodd;fill:#FFFBDE;}
	.st160{fill:none;stroke:#000000;stroke-width:1.6945;stroke-linecap:round;stroke-linejoin:round;stroke-miterlimit:22.9256;}
	.st161{fill:none;stroke:#000000;stroke-width:1.803;stroke-linecap:round;stroke-linejoin:round;stroke-miterlimit:22.9256;}
	.st162{fill:none;stroke:#FF74AC;stroke-width:2.5239;stroke-linecap:round;stroke-linejoin:round;stroke-miterlimit:22.9256;}
	.st163{fill:none;stroke:#000000;stroke-width:2.4522;stroke-linecap:round;stroke-miterlimit:22.9256;}
	.st164{fill-rule:evenodd;clip-rule:evenodd;fill:#FFB0DC;}
	.st165{fill:none;stroke:#000000;stroke-width:2.4522;stroke-miterlimit:22.9256;}
	.st166{fill-rule:evenodd;clip-rule:evenodd;fill:#FFA6D2;}
	.st167{fill:none;stroke:#E5A474;stroke-width:1.3151;stroke-linecap:round;stroke-linejoin:round;stroke-miterlimit:22.9256;}
	.st168{fill:none;stroke:#000000;stroke-width:2.7402;stroke-linecap:round;stroke-linejoin:round;stroke-miterlimit:22.9256;}
	.st169{fill:none;stroke:#F3846B;stroke-width:3.1729;stroke-linecap:round;stroke-linejoin:round;stroke-miterlimit:22.9256;}
	.st170{fill:none;stroke:#000000;stroke-width:0.5482;stroke-miterlimit:22.9256;}
	.st171{fill:none;stroke:#676155;stroke-width:1.803;stroke-linecap:round;stroke-linejoin:round;stroke-miterlimit:22.9256;}
	.st172{fill:none;stroke:#000000;stroke-width:5.4091;stroke-miterlimit:22.9256;}
	.st173{fill-rule:evenodd;clip-rule:evenodd;fill:#EB678A;}
	.st174{fill-rule:evenodd;clip-rule:evenodd;fill:#FFDED3;}
	.st175{fill:none;stroke:#000000;stroke-width:1.7309;stroke-linecap:round;stroke-linejoin:round;stroke-miterlimit:22.9256;}
	.st176{fill-rule:evenodd;clip-rule:evenodd;fill:#472F1D;}

		.st177{clip-path:url(#SVGID_00000090266202703215877930000002901501271466380676_);fill-rule:evenodd;clip-rule:evenodd;fill:#FFFBDE;}
	.st178{fill:none;stroke:#DB816D;stroke-width:1.803;stroke-linecap:round;stroke-linejoin:round;stroke-miterlimit:22.9256;}
	.st179{fill:none;stroke:#000000;stroke-width:3.1729;stroke-linecap:round;stroke-linejoin:round;stroke-miterlimit:22.9256;}
	.st180{fill:none;stroke:#EFAD96;stroke-width:1.803;stroke-linecap:round;stroke-linejoin:round;stroke-miterlimit:22.9256;}
	.st181{fill-rule:evenodd;clip-rule:evenodd;fill:#AEEDE5;}
	.st182{fill-rule:evenodd;clip-rule:evenodd;fill:#FF9071;}
	.st183{fill:none;stroke:#49443B;stroke-width:2.1636;stroke-linecap:round;stroke-linejoin:round;stroke-miterlimit:22.9256;}
	.st184{fill:none;stroke:#25231E;stroke-width:3.1729;stroke-linecap:round;stroke-linejoin:round;stroke-miterlimit:22.9256;}
	.st185{fill-rule:evenodd;clip-rule:evenodd;fill:#FFBCD4;}
	.st186{fill:none;stroke:#25231E;stroke-width:2.3435;stroke-linecap:round;stroke-linejoin:round;stroke-miterlimit:22.9256;}

		.st187{clip-path:url(#SVGID_00000038402184584779766340000008416101182569644422_);fill-rule:evenodd;clip-rule:evenodd;fill:#FFC1DC;}
	.st188{fill:none;stroke:#000000;stroke-width:2.8848;stroke-linecap:round;stroke-linejoin:round;stroke-miterlimit:22.9256;}
	.st189{fill:none;stroke:#FF5F49;stroke-width:3.606;stroke-linecap:round;stroke-miterlimit:22.9256;}
	.st190{fill:none;stroke:#985C3B;stroke-width:2.3435;stroke-linecap:round;stroke-linejoin:round;stroke-miterlimit:22.9256;}

		.st191{clip-path:url(#SVGID_00000169538888532337076330000017313435337716180134_);fill-rule:evenodd;clip-rule:evenodd;fill:#212121;}

		.st192{clip-path:url(#SVGID_00000096737638515570995930000014735603506556756896_);fill-rule:evenodd;clip-rule:evenodd;fill:#212121;}
	.st193{fill:none;stroke:#676155;stroke-width:2.4522;stroke-linecap:round;stroke-linejoin:round;stroke-miterlimit:22.9256;}
	.st194{fill:none;stroke:#000000;stroke-width:2.3435;stroke-linecap:round;stroke-linejoin:round;stroke-miterlimit:22.9256;}
	.st195{fill:none;stroke:#49443B;stroke-width:1.4425;stroke-linecap:round;stroke-linejoin:round;stroke-miterlimit:22.9256;}
	.st196{fill:none;stroke:#25231E;stroke-width:2.4374;stroke-linecap:round;stroke-miterlimit:22.9256;}
	.st197{fill:none;stroke:#25231E;stroke-width:2.4385;stroke-linecap:round;stroke-miterlimit:22.9256;}
	.st198{fill:none;stroke:#25231E;stroke-width:1.9423;stroke-linecap:round;stroke-linejoin:round;stroke-miterlimit:22.9256;}
	.st199{fill:none;stroke:#25231E;stroke-width:1.9431;stroke-linecap:round;stroke-linejoin:round;stroke-miterlimit:22.9256;}
	.st200{fill:none;stroke:#25231E;stroke-width:2.4367;stroke-linecap:round;stroke-miterlimit:22.9256;}
	.st201{fill:none;stroke:#25231E;stroke-width:2.4312;stroke-linecap:round;stroke-linejoin:round;stroke-miterlimit:22.9256;}
	.st202{fill:none;stroke:#25231E;stroke-width:2.431;stroke-linecap:round;stroke-linejoin:round;stroke-miterlimit:22.9256;}
	.st203{fill:none;stroke:#000000;stroke-width:2.4452;stroke-linecap:round;stroke-linejoin:round;stroke-miterlimit:22.9256;}
	.st204{fill:none;stroke:#25231E;stroke-width:2.9113;stroke-linecap:round;stroke-linejoin:round;stroke-miterlimit:22.9256;}
	.st205{fill:none;stroke:#25231E;stroke-width:2.4268;stroke-linecap:round;stroke-linejoin:round;stroke-miterlimit:22.9256;}
	.st206{fill:none;stroke:#C77246;stroke-width:2.9362;stroke-linecap:round;stroke-linejoin:round;stroke-miterlimit:22.9256;}
	.st207{opacity:0.3;fill:none;stroke:#000000;stroke-width:0.9807;stroke-miterlimit:10;}
	.st208{fill:none;stroke:#000000;stroke-width:0.9293;stroke-miterlimit:10;}
	.st209{fill:#C8C8C8;}
	.st210{fill:none;stroke:#E51C52;stroke-width:1.0718;stroke-miterlimit:10;}
	.st211{fill:none;stroke:#E51C52;stroke-width:6.6768;stroke-linecap:round;stroke-miterlimit:10;}
	.st212{font-family:'Roboto-Medium';}
	.st213{font-size:29.4756px;}
	.st214{letter-spacing:1;}
	.st215{clip-path:url(#SVGID_00000109709647743401681470000009458361967430792579_);}

		.st216{clip-path:url(#SVGID_00000091733357893085020960000013496396185298862504_);fill-rule:evenodd;clip-rule:evenodd;fill:#212121;}

		.st217{clip-path:url(#SVGID_00000142143634167167777670000016799560808405934498_);fill-rule:evenodd;clip-rule:evenodd;fill:#212121;}
	.st218{clip-path:url(#SVGID_00000087413211882509636910000012356888629477873332_);}
	.st219{clip-path:url(#SVGID_00000045585821114172307150000014288201429751533961_);}
	.st220{fill:none;stroke:#646464;stroke-miterlimit:10;}
	.st221{clip-path:url(#SVGID_00000123405656566191299300000001346578103436258218_);}
	.st222{fill:none;stroke:#1E1E1E;stroke-width:0.7803;stroke-miterlimit:10;}
	.st223{fill:none;stroke:#FFFFFF;stroke-miterlimit:10;}
	.st224{clip-path:url(#SVGID_00000060031018770122742930000000826499960476764605_);}
	.st225{clip-path:url(#SVGID_00000153682489230808552910000004920518615902823810_);}
	.st226{clip-path:url(#SVGID_00000053508296109111140040000013304576369681275315_);}
	.st227{fill:#EBFF2C;}
	.st228{fill-rule:evenodd;clip-rule:evenodd;fill:#F9E2D3;}
	.st229{fill:#322C2B;}
	.st230{fill-rule:evenodd;clip-rule:evenodd;fill:#FDFDFD;}
	.st231{opacity:0.29;}
	.st232{fill-rule:evenodd;clip-rule:evenodd;fill:#322C2B;}
	.st233{fill-rule:evenodd;clip-rule:evenodd;fill:#F2AFDB;}
	.st234{fill-rule:evenodd;clip-rule:evenodd;fill:#F1A5D2;}
	.st235{fill:#E6A573;}
	.st236{fill:#ED836A;}
	.st237{fill:#757475;}
	.st238{fill-rule:evenodd;clip-rule:evenodd;fill:#E93323;}
	.st239{fill-rule:evenodd;clip-rule:evenodd;fill:#F6CD46;}
	.st240{fill-rule:evenodd;clip-rule:evenodd;fill:#AAABAB;}
	.st241{fill-rule:evenodd;clip-rule:evenodd;fill:#8ECEDF;}
	.st242{fill-rule:evenodd;clip-rule:evenodd;fill:#464443;}
	.st243{fill-rule:evenodd;clip-rule:evenodd;fill:#F8DDCB;}
	.st244{fill:#A1664E;}
	.st245{fill-rule:evenodd;clip-rule:evenodd;fill:#5F5D5D;}
	.st246{clip-path:url(#SVGID_00000109709692128110290310000005912177586085954719_);}
	.st247{fill:#8A8A8B;}
	.st248{fill-rule:evenodd;clip-rule:evenodd;fill:#757475;}
	.st249{clip-path:url(#SVGID_00000032638129742187931950000009243582209173132183_);}
	.st250{fill:#A0A0A0;}
	.st251{fill-rule:evenodd;clip-rule:evenodd;fill:#B5B5B6;}
	.st252{fill:#5F5D5D;}
	.st253{fill-rule:evenodd;clip-rule:evenodd;fill:#A8FAFD;}
	.st254{fill:#464443;}
	.st255{fill-rule:evenodd;clip-rule:evenodd;fill:#5878C4;}
	.st256{fill-rule:evenodd;clip-rule:evenodd;fill:#F9E0D1;}
	.st257{fill:#C77347;}
	.st258{fill-rule:evenodd;clip-rule:evenodd;fill:#ED7D4B;}
	.st259{fill-rule:evenodd;clip-rule:evenodd;fill:#EE8D6F;}
	.st260{fill-rule:evenodd;clip-rule:evenodd;fill:#F4BCD4;}
	.st261{fill-rule:evenodd;clip-rule:evenodd;fill:#F4C1DC;}
	.st262{fill:#EB5A45;}
	.st263{fill-rule:evenodd;clip-rule:evenodd;fill:#F2C68B;}
	.st264{fill-rule:evenodd;clip-rule:evenodd;fill:#FBEBCA;}
	.st265{fill-rule:evenodd;clip-rule:evenodd;fill:#EEE45D;}
	.st266{fill-rule:evenodd;clip-rule:evenodd;fill:#FDF9A6;}
	.st267{fill:#EC72AC;}
	.st268{fill-rule:evenodd;clip-rule:evenodd;fill:#EF9670;}
	.st269{fill-rule:evenodd;clip-rule:evenodd;fill:#F8DDD3;}
	.st270{fill-rule:evenodd;clip-rule:evenodd;fill:#583F33;}
	.st271{clip-path:url(#SVGID_00000018209911621360772150000016700615847049208193_);}
	.st272{fill:#DB816D;}
	.st273{fill:#F0AE96;}
	.st274{fill-rule:evenodd;clip-rule:evenodd;fill:#AEEEE6;}
	.st275{fill:none;stroke:#E51C52;stroke-width:7.7112;stroke-linecap:round;stroke-miterlimit:10;}
	.st276{clip-path:url(#SVGID_00000021802022201786861920000006988123288162447745_);}
	.st277{clip-path:url(#SVGID_00000095305319257865283000000002183460326417739691_);}
	.st278{clip-path:url(#SVGID_00000157306100167888438940000009756554744308069296_);}
	.st279{clip-path:url(#SVGID_00000087402782809065559250000013368346166810442913_);}
	.st280{clip-path:url(#SVGID_00000129896349107885785450000012809807403496328633_);}
	.st281{clip-path:url(#SVGID_00000044873048564647225640000005807859582346170009_);}
	.st282{clip-path:url(#SVGID_00000041979708919938205640000008367034981676662719_);}
	.st283{clip-path:url(#SVGID_00000154423636997261129870000011388600006879610791_);}
	.st284{fill:none;stroke:#E52C52;stroke-miterlimit:10;}
	.st285{fill:#2C88C6;}
</style>
  </defs>
  <g>
    <g>
      <path class="st52" d="M1102.64,759.8c-0.01,3-0.82,20.92-1.14,23.32c0.12,0.89,3.99,5.33,2.71,7.04 c-1.19,4.08-12.79,3.48-16.01,0.86c-0.27-3.05,2.02-4.84,1.71-7.33c-0.69-3.76-1.36-18.31-1.81-25.42 c-0.24-3.76-2.38-6.07,2.74-7.5C1095.65,748.9,1101.85,747.14,1102.64,759.8z"/>
      <path class="st149" d="M1102.64,759.8c-0.01,3-0.82,20.92-1.14,23.32c0.12,0.89,3.99,5.33,2.71,7.04 c-1.19,4.08-12.79,3.48-16.01,0.86c-0.27-3.05,2.02-4.84,1.71-7.33c-0.69-3.76-1.36-18.31-1.81-25.42 c-0.24-3.76-2.38-6.07,2.74-7.5C1095.65,748.9,1101.85,747.14,1102.64,759.8z"/>
      <path class="st52" d="M1067.48,759.8c-0.08,3,0.21,20.92,0.46,23.32c-0.14,0.89-4.15,5.33-2.92,7.04 c1.07,4.08,12.69,3.48,15.99,0.86c0.36-3.05-1.88-4.84-1.5-7.33c1.36-4.08,2.86-18.31,3.52-25.42c0.35-3.76,2.66-6.07-2.41-7.5 C1075.86,748.9,1068.64,747.14,1067.48,759.8z"/>
      <path class="st149" d="M1067.48,759.8c-0.08,3,0.21,20.92,0.46,23.32c-0.14,0.89-4.15,5.33-2.92,7.04 c1.07,4.08,12.69,3.48,15.99,0.86c0.36-3.05-1.88-4.84-1.5-7.33c1.36-4.08,2.86-18.31,3.52-25.42c0.35-3.76,2.66-6.07-2.41-7.5 C1075.86,748.9,1068.64,747.14,1067.48,759.8z"/>
      <path class="st22" d="M1090.82,789.26c1.65,1.23,9.92,0.97,12.84-0.7c0.94-0.54,0.72-1.27,0.57-1.83 c3.13,1.51,4.87,5.14,2.86,7.37c-1.12,1.25-3.27,1.68-7.33,1.99c-1.48,0.11-8.06,0.07-10.22-0.94 c-2.78-1.29-1.85-6.84-1.07-8.52C1088.61,786.32,1090.56,789.07,1090.82,789.26z"/>
      <path class="st150" d="M1090.82,789.26c1.65,1.23,9.92,0.97,12.84-0.7c0.94-0.54,0.72-1.27,0.57-1.83 c3.13,1.51,4.87,5.14,2.86,7.37c-1.12,1.25-3.27,1.68-7.33,1.99c-1.48,0.11-8.06,0.07-10.22-0.94 c-2.78-1.29-1.85-6.84-1.07-8.52C1088.61,786.32,1090.56,789.07,1090.82,789.26z"/>
      <path class="st22" d="M1078.44,789.26c-1.69,1.23-9.95,0.97-12.82-0.7c-0.92-0.54-0.68-1.27-0.52-1.83 c-3.18,1.51-5.02,5.14-3.07,7.37c1.09,1.25,3.22,1.68,7.28,1.99c1.48,0.11,8.06,0.07,10.24-0.94c2.82-1.29,2.05-6.84,1.32-8.52 C1080.73,786.32,1078.71,789.07,1078.44,789.26z"/>
      <path class="st150" d="M1078.44,789.26c-1.69,1.23-9.95,0.97-12.82-0.7c-0.92-0.54-0.68-1.27-0.52-1.83 c-3.18,1.51-5.02,5.14-3.07,7.37c1.09,1.25,3.22,1.68,7.28,1.99c1.48,0.11,8.06,0.07,10.24-0.94c2.82-1.29,2.05-6.84,1.32-8.52 C1080.73,786.32,1078.71,789.07,1078.44,789.26z"/>
      <path class="st151" d="M1065.89,758.94c-0.01,1.07-1.07,24.53-0.59,24.78c3.02,1.62,13.86,2.08,16.41-0.52 c0.18-0.18,0.4-4.36,0.76-9.64c0.5-7.33,1.17-14.8,0.23-14.84C1081.13,758.66,1068.01,758.34,1065.89,758.94z"/>
      <path class="st152" d="M1065.89,758.94c-0.01,1.07-1.07,24.53-0.59,24.78c3.02,1.62,13.86,2.08,16.41-0.52 c0.18-0.18,0.4-4.36,0.76-9.64c0.5-7.33,1.17-14.8,0.23-14.84C1081.13,758.66,1068.01,758.34,1065.89,758.94z"/>
      <path class="st151" d="M1086.27,758.94c0.09,1.07,1.16,24.53,1.66,24.78c3.16,1.62,14.05,2.08,16.36-0.52 c0.16-0.18,0.01-4.36-0.11-9.64c-0.17-7.33-0.18-14.8-1.12-14.84C1101.48,758.66,1088.33,758.34,1086.27,758.94z"/>
      <path class="st152" d="M1086.27,758.94c0.09,1.07,1.16,24.53,1.66,24.78c3.16,1.62,14.05,2.08,16.36-0.52 c0.16-0.18,0.01-4.36-0.11-9.64c-0.17-7.33-0.18-14.8-1.12-14.84C1101.48,758.66,1088.33,758.34,1086.27,758.94z"/>
      <path class="st52" d="M1072.75,705.18c-4.89,0.64,8.18,28.71,10.95,28.85c2.55,0.13,12.07-22.22,10.98-26.37 C1093.46,703.09,1078.83,704.84,1072.75,705.18z"/>
      <path class="st153" d="M1072.75,705.18c-4.89,0.64,8.18,28.71,10.95,28.85c2.55,0.13,12.07-22.22,10.98-26.37 C1093.46,703.09,1078.83,704.84,1072.75,705.18z"/>
      <path class="st52" d="M1109.32,719.28c3.08,3.7,6.08,20,4.63,30.61c-0.71,5.21-3.29,8.97-6.76,9.92 c-9.29,2.55-8.68-11.05-5.66-18.38c1.12-2.71-2.82-10.04-4.99-14.42c-0.91-2.03-2.53-11.34-0.45-13.87 C1101.06,709.32,1106.46,715.77,1109.32,719.28z"/>
      <path class="st149" d="M1109.32,719.28c3.08,3.7,6.08,20,4.63,30.61c-0.71,5.21-3.29,8.97-6.76,9.92 c-9.29,2.55-8.68-11.05-5.66-18.38c1.12-2.71-2.82-10.04-4.99-14.42c-0.91-2.03-2.53-11.34-0.45-13.87 C1101.06,709.32,1106.46,715.77,1109.32,719.28z"/>
      <path class="st52" d="M1057.35,721.35c-3.2,3.84-5.97,17.11-4.47,26.96c0.81,5.34,3.09,9.88,6.75,10.89 c9.29,2.55,8.53-10.44,5.5-17.78c-1.12-2.71,2.82-10.04,4.99-14.42c0.91-2.03,2.53-11.34,0.45-13.87 C1065.61,709.32,1060.21,717.84,1057.35,721.35z"/>
      <path class="st149" d="M1057.35,721.35c-3.2,3.84-5.97,17.11-4.47,26.96c0.81,5.34,3.09,9.88,6.75,10.89 c9.29,2.55,8.53-10.44,5.5-17.78c-1.12-2.71,2.82-10.04,4.99-14.42c0.91-2.03,2.53-11.34,0.45-13.87 C1065.61,709.32,1060.21,717.84,1057.35,721.35z"/>
      <path class="st151" d="M1100.46,711.55c5.29,2.55,11.89,11.17,13.93,17.38c-1.78,1.45-11.69,4.67-12.25,4.36 c-5.99-3.29-7.93-18.9-6.12-21.98C1096.42,710.62,1100.36,711.5,1100.46,711.55z"/>
      <path class="st152" d="M1100.46,711.55c5.29,2.55,11.89,11.17,13.93,17.38c-1.78,1.45-11.69,4.67-12.25,4.36 c-5.99-3.29-7.93-18.9-6.12-21.98C1096.42,710.62,1100.36,711.5,1100.46,711.55z"/>
      <path class="st151" d="M1053.02,728.95c1.79,1.45,12.17,3.58,12.74,3.27c5.99-3.29,6.79-21.76,3.29-21.57 c-1.9-0.15-7.15,3.11-11.21,7.76C1055.02,721.62,1053.98,725.48,1053.02,728.95z"/>
      <path class="st152" d="M1053.02,728.95c1.79,1.45,12.17,3.58,12.74,3.27c5.99-3.29,6.79-21.76,3.29-21.57 c-1.9-0.15-7.15,3.11-11.21,7.76C1055.02,721.62,1053.98,725.48,1053.02,728.95z"/>
      <path class="st151" d="M1107.1,761.57c-3.25,2.53-42.39,2.25-45.54,0.07c-2.11-10.61,4.69-49.89,5.91-50.78 c0.21-0.15,3.05-1.72,4.29-1.34c3.23,5.11,10.29,12.26,11.83,13.15c2.06-0.77,8.7-9.04,11.64-13.77 c0.98,0.32,4.14,1.87,4.31,2.21C1104.33,721.28,1107.21,749.32,1107.1,761.57z"/>
      <path class="st152" d="M1107.1,761.57c-3.25,2.53-42.39,2.25-45.54,0.07c-2.11-10.61,4.69-49.89,5.91-50.78 c0.21-0.15,3.05-1.72,4.29-1.34c3.23,5.11,10.29,12.26,11.83,13.15c2.06-0.77,8.7-9.04,11.64-13.77 c0.98,0.32,4.14,1.87,4.31,2.21C1104.33,721.28,1107.21,749.32,1107.1,761.57z"/>
      <path class="st154" d="M1076.53,724.2c0.15,3.32,4.74,13,5.08,13.46"/>
      <path class="st154" d="M1091.41,723.9c-0.78,3.65-3.43,11.41-5.03,14.42"/>
      <path class="st22" d="M1076.63,737.93c4.15-0.17,10.42-0.64,14.78-0.39c0.96,0.05,0.51,7.23,0.51,10.91 c-2.3,0-15.07,1.79-15.51,0.18C1076.17,747.69,1075.58,737.98,1076.63,737.93z"/>
      <path class="st152" d="M1076.63,737.93c4.15-0.17,10.42-0.64,14.78-0.39c0.96,0.05,0.51,7.23,0.51,10.91 c-2.3,0-15.07,1.79-15.51,0.18C1076.17,747.69,1075.58,737.98,1076.63,737.93z"/>
      <path class="st155" d="M1092.27,733.08c0.62-0.21,4.49,0.25,8.07-0.81"/>
      <path class="st152" d="M1067.69,712.05c1.53,2.93,14.35,19.89,16.1,18.67c5.18-3.6,10.69-10.73,15.32-19.05"/>
      <path class="st156" d="M1080.88,741.51c1.68,0,3.13-0.31,4.87-0.31"/>
      <path class="st156" d="M1081.36,745.21c1.07-0.33,4.43,0.04,5.33-0.54"/>
      <path class="st52" d="M1082.93,634.25c12.37-0.45,21.69,5.01,28.34,14.62c4,5.78,5.99,21.09,5.54,29.37 c-0.17,7.34-1.3,14.54-6.5,20.99c-12.1,15.02-33.68,15.73-47.79,7.36c-8.86-5.26-14.89-14.28-14.92-26.61 c-0.02-6.99-0.12-23.21,3.38-28.97C1057.31,640.65,1070.45,634.28,1082.93,634.25"/>
      <g>
        <defs>
          <path id="SVGID_00000136378991137756045870000017413820433742291384_" d="M1082.93,634.25c12.37-0.45,21.69,5.01,28.34,14.62 c4,5.78,5.99,21.09,5.54,29.37c-0.17,7.34-1.3,14.54-6.5,20.99c-12.1,15.02-33.68,15.73-47.79,7.36 c-8.86-5.26-14.89-14.28-14.92-26.61c-0.02-6.99-0.12-23.21,3.38-28.97C1057.31,640.65,1070.45,634.28,1082.93,634.25"/>
        </defs>
      </g>
      <path class="st149" d="M1082.93,634.25c12.37-0.45,21.69,5.01,28.34,14.62c4,5.78,5.99,21.09,5.54,29.37 c-0.17,7.34-1.3,14.54-6.5,20.99c-12.1,15.02-33.68,15.73-47.79,7.36c-8.86-5.26-14.89-14.28-14.92-26.61 c-0.02-6.99-0.12-23.21,3.38-28.97C1057.31,640.65,1070.45,634.28,1082.93,634.25z"/>
      <path class="st157" d="M1082.88,678.57c-4.55-0.12-5.87-2.67-3.32-7.33"/>
      <path class="st158" d="M1050.44,693.55c-3.32-6.78-2.35-22.26,0.29-31.51c6-6.14,55.64-5.32,63.26-0.33 c0.08,1.24,4.81,15.14,0.41,29.61c2.19,1.61,12.97-0.8,15.05-6.94c6.03-17.84-5.68-45.04-23.5-54.1 c-17.92-9.11-45.3-8.55-57.94,8.16c-14.36,18.98-15.64,39.1-11.97,47.57C1038.54,691.82,1048.41,694.42,1050.44,693.55z"/>
      <path class="st150" d="M1050.44,693.55c-3.32-6.78-2.35-22.26,0.29-31.51c6-6.14,55.64-5.32,63.26-0.33 c0.08,1.24,4.81,15.14,0.41,29.61c2.19,1.61,12.97-0.8,15.05-6.94c6.03-17.84-5.68-45.04-23.5-54.1 c-17.92-9.11-45.3-8.55-57.94,8.16c-14.36,18.98-15.64,39.1-11.97,47.57C1038.54,691.82,1048.41,694.42,1050.44,693.55z"/>
      <path class="st151" d="M1070.91,630.64c-1.02,0.24-2.52-8.6-2.38-11.62c8.03-2.03,21.66-1.93,25.69,0.6 c0.97,0.61-0.06,5.35-1.5,11.01C1087.7,629.65,1075.48,629.58,1070.91,630.64z"/>
      <path class="st152" d="M1070.91,630.64c-1.02,0.24-2.52-8.6-2.38-11.62c8.03-2.03,21.66-1.93,25.69,0.6 c0.97,0.61-0.06,5.35-1.5,11.01C1087.7,629.65,1075.48,629.58,1070.91,630.64z"/>
      <path class="st150" d="M1072.64,642.72c-0.53,1.55-1.03,4.56-0.67,6.14"/>
      <path class="st150" d="M1082.39,643.45c0,1.33,0,2.65,0,3.98"/>
      <path class="st150" d="M1091.89,643.18c0.58,1.96,0.6,3.08,0.67,5.14"/>
      <path class="st159" d="M1104.2,667.46c0.05,0.82-0.28,1.54-0.89,2.11c-1.78,1.65-5.85,2.19-9.43,1.8 c-5.96-0.66-6.68-4.42-4.81-6.07c1.11-0.98,4.18-0.79,6.97-0.8c4.14-0.02,6.39,0.44,7.38,1.04 C1104.34,666.07,1104.15,666.72,1104.2,667.46"/>
      <g>
        <defs>
          <path id="SVGID_00000132794562560082227870000001518479001297071513_" d="M1104.2,667.46c0.05,0.82-0.28,1.54-0.89,2.11 c-1.78,1.65-5.85,2.19-9.43,1.8c-5.96-0.66-6.68-4.42-4.81-6.07c1.11-0.98,4.18-0.79,6.97-0.8c4.14-0.02,6.39,0.44,7.38,1.04 C1104.34,666.07,1104.15,666.72,1104.2,667.46"/>
        </defs>
      </g>
      <path class="st160" d="M1104.2,667.46c0.05,0.82-0.28,1.54-0.89,2.11c-1.78,1.65-5.85,2.19-9.43,1.8 c-5.96-0.66-6.68-4.42-4.81-6.07c1.11-0.98,4.18-0.79,6.97-0.8c4.14-0.02,6.39,0.44,7.38,1.04 C1104.34,666.07,1104.15,666.72,1104.2,667.46z"/>
      <path class="st27" d="M1094.53,665.14c1.48-0.01,2.69,1.19,2.69,2.68c0,1.48-1.2,2.69-2.69,2.69 c-1.48,0.01-2.69-1.19-2.69-2.68S1093.05,665.15,1094.53,665.14"/>
      <line class="st161" x1="1093.41" y1="661.45" x2="1093.18" y2="663.86"/>
      <line class="st161" x1="1098.29" y1="661.96" x2="1097.44" y2="664.22"/>
      <line class="st161" x1="1102.14" y1="664.98" x2="1103.7" y2="662.96"/>
      <path class="st159" d="M1059.37,667.46c-0.05,0.82,0.28,1.54,0.89,2.11c1.78,1.65,5.85,2.19,9.43,1.8 c5.96-0.66,6.68-4.42,4.81-6.07c-1.11-0.98-4.18-0.79-6.97-0.8c-4.14-0.02-6.39,0.44-7.38,1.04 C1059.24,666.07,1059.42,666.72,1059.37,667.46"/>
      <g>
        <defs>
          <path id="SVGID_00000147192167028275129430000011005706268529073810_" d="M1059.37,667.46c-0.05,0.82,0.28,1.54,0.89,2.11 c1.78,1.65,5.85,2.19,9.43,1.8c5.96-0.66,6.68-4.42,4.81-6.07c-1.11-0.98-4.18-0.79-6.97-0.8c-4.14-0.02-6.39,0.44-7.38,1.04 C1059.24,666.07,1059.42,666.72,1059.37,667.46"/>
        </defs>
      </g>
      <path class="st160" d="M1059.37,667.46c-0.05,0.82,0.28,1.54,0.89,2.11c1.78,1.65,5.85,2.19,9.43,1.8 c5.96-0.66,6.68-4.42,4.81-6.07c-1.11-0.98-4.18-0.79-6.97-0.8c-4.14-0.02-6.39,0.44-7.38,1.04 C1059.24,666.07,1059.42,666.72,1059.37,667.46z"/>
      <path class="st27" d="M1069.04,665.14c-1.48-0.01-2.68,1.19-2.68,2.68c0,1.48,1.2,2.69,2.68,2.69 c1.48,0.01,2.69-1.19,2.69-2.68S1070.52,665.15,1069.04,665.14"/>
      <line class="st161" x1="1070.16" y1="661.45" x2="1070.39" y2="663.86"/>
      <line class="st161" x1="1065.28" y1="661.96" x2="1066.14" y2="664.22"/>
      <line class="st161" x1="1061.43" y1="664.98" x2="1059.88" y2="662.96"/>
      <path class="st159" d="M1069.67,693.36c-0.25-2.36,2.23-3.56,7.27-1.35c4.79,2.1,8.98,0.37,12.52-0.67 c2.13-0.63,5.59-1.88,5.52,1.69c-0.06,3.24-5.73,6-11.63,6.27C1077.07,699.59,1069.75,696.93,1069.67,693.36z"/>
      <path class="st162" d="M1069.67,693.36c-0.25-2.36,2.23-3.56,7.27-1.35c4.79,2.1,8.98,0.37,12.52-0.67 c2.13-0.63,5.59-1.88,5.52,1.69c-0.06,3.24-5.73,6-11.63,6.27C1077.07,699.59,1069.75,696.93,1069.67,693.36z"/>
    </g>
    <g>
      <path class="st52" d="M1160.09,707.22c-3.14,5.74-4.55,22.57-0.57,30.96c2.06,4.36,8.12,12.43,10.5,9.2 c2.61-3.56,8.02-12.03,2.99-15.67c-6.3-4.56,0.16-12.72-0.8-17.21C1171.72,712.27,1160.37,706.7,1160.09,707.22z"/>
      <path class="st163" d="M1160.09,707.22c-3.14,5.74-4.55,22.57-0.57,30.96c2.06,4.36,8.12,12.43,10.5,9.2 c2.61-3.56,8.02-12.03,2.99-15.67c-6.3-4.56,0.16-12.72-0.8-17.21C1171.72,712.27,1160.37,706.7,1160.09,707.22z"/>
      <path class="st52" d="M1211.57,757.89c0.49,3.29,3.27,20.75,4.24,23.99c0.31,1.05,6.42,6.71,4.67,8.87 c-0.27,4.83-11.75,3.85-15.52,0.75c-0.58-1.88-0.64-5.69-0.79-9.53c-2.13-4.83-7.03-17.16-9.5-26.09 c-1.22-4.43,0.26-5.96,5.02-7.65C1205.26,748.03,1209.82,748.86,1211.57,757.89z"/>
      <path class="st149" d="M1211.57,757.89c0.49,3.29,3.27,20.75,4.24,23.99c0.31,1.05,6.42,6.71,4.67,8.87 c-0.27,4.83-11.75,3.85-15.52,0.75c-0.58-1.88-0.64-5.69-0.79-9.53c-2.13-4.83-7.03-17.16-9.5-26.09 c-1.22-4.43,0.26-5.96,5.02-7.65C1205.26,748.03,1209.82,748.86,1211.57,757.89z"/>
      <path class="st164" d="M1204.63,786.71c4.2,6.32,18.92,5.98,14.43-0.6c-1-1.47,0.51-0.03,1.86,1.4 c6.48,6.88,6.77,8.62-0.27,9.56c-1.43,0.19-10.36,0.53-12.83-1.16c-3.18-2.18-4.06-6.14-3.84-8.98 C1204.02,786.38,1204.36,786.31,1204.63,786.71z"/>
      <path class="st150" d="M1204.63,786.71c4.2,6.32,18.92,5.98,14.43-0.6c-1-1.47,0.51-0.03,1.86,1.4 c6.48,6.88,6.77,8.62-0.27,9.56c-1.43,0.19-10.36,0.53-12.83-1.16c-3.18-2.18-4.06-6.14-3.84-8.98 C1204.02,786.38,1204.36,786.31,1204.63,786.71z"/>
      <path class="st52" d="M1192.67,782.56c-0.03,0.92,1.02,4.79-1.45,6.68c-3.68,2.21-15.32,4.61-17.23,2.84 c-2.05-1.9,2.92-3.43,5.51-5.01c1.99-2.1-3.29-31.4-2.08-38.43c0-0.01,14.19-1.52,15.05-0.05 C1194.72,752.39,1192.65,775.87,1192.67,782.56z"/>
      <path class="st149" d="M1192.67,782.56c-0.03,0.92,1.02,4.79-1.45,6.68c-3.68,2.21-15.32,4.61-17.23,2.84 c-2.05-1.9,2.92-3.43,5.51-5.01c1.99-2.1-3.29-31.4-2.08-38.43c0-0.01,14.19-1.52,15.05-0.05 C1194.72,752.39,1192.65,775.87,1192.67,782.56z"/>
      <path class="st164" d="M1193.2,783.28c0.96,0.48,1.39,0.74,1.57,2.06c0.42,3.12-0.81,7.15-1.08,8.9 c-0.31,0.48-1.26,0.64-1.8,0.33c-0.26-0.15-0.21-1.81-0.38-1.7c-1.77,1.16-4.37,2.44-6.37,2.84 c-6.6,1.35-18.77,1.47-17.33-2.19c0.42-0.9,6.79-4.62,7.71-4.63c1.16,2.84,7.71,2.13,10.22,1.2 C1189.38,788.73,1193.7,783.94,1193.2,783.28z"/>
      <path class="st150" d="M1193.2,783.28c0.96,0.48,1.39,0.74,1.57,2.06c0.42,3.12-0.81,7.15-1.08,8.9 c-0.31,0.48-1.26,0.64-1.8,0.33c-0.26-0.15-0.21-1.81-0.38-1.7c-1.77,1.16-4.37,2.44-6.37,2.84 c-6.6,1.35-18.77,1.47-17.33-2.19c0.42-0.9,6.79-4.62,7.71-4.63c1.16,2.84,7.71,2.13,10.22,1.2 C1189.38,788.73,1193.7,783.94,1193.2,783.28z"/>
      <path class="st52" d="M1183.12,687.74c0.54-0.04-0.88,4.3-1.97,6.72c-1.33,2.95-8.55,2.71-7.99,3.41 c2.02,2.88,19.64,11.31,22.84,10.58c8.59-1.98,14.53-3.26,19.79-11.06c-0.77-1.73-6.92-3.06-6.21-12.3 C1193.97,689.12,1193.79,687.04,1183.12,687.74z"/>
      <path class="st165" d="M1183.12,687.74c0.54-0.04-0.88,4.3-1.97,6.72c-1.33,2.95-8.55,2.71-7.99,3.41 c2.02,2.88,19.64,11.31,22.84,10.58c8.59-1.98,14.53-3.26,19.79-11.06c-0.77-1.73-6.92-3.06-6.21-12.3 C1193.97,689.12,1193.79,687.04,1183.12,687.74z"/>
      <path class="st166" d="M1180.8,689.62c7.49,9.86,11.9,14.12,13.31,14.64c2.35-1.58,6.83-6.02,12.89-14.65 c6.02,1.13,20.74,8.76,22.67,13.75c-2,2.51-10.63,9.92-12.73,9.83c1.05,2.95,0.44,11.38,1.46,14.51 c3.7,11.26,7.96,27.74,8.85,35.11c-13.7,9.28-59.4,7.35-60.71,2.98c-0.32-8.61,0.85-20.37,4.01-34.93 c-0.58-4.18-0.69-7.89-0.45-11.11c-3.79-0.21-10.98-0.24-12.75-1.1c-1.06-0.51,4.5-15.7,10.47-22.33 C1171.75,691.96,1175.8,691.48,1180.8,689.62"/>
      <g>
        <defs>
          <path id="SVGID_00000000217118184292048690000001648443640900900518_" d="M1180.8,689.62c7.49,9.86,11.9,14.12,13.31,14.64 c2.35-1.58,6.83-6.02,12.89-14.65c6.02,1.13,20.74,8.76,22.67,13.75c-2,2.51-10.63,9.92-12.73,9.83 c1.05,2.95,0.44,11.38,1.46,14.51c3.7,11.26,7.96,27.74,8.85,35.11c-13.7,9.28-59.4,7.35-60.71,2.98 c-0.32-8.61,0.85-20.37,4.01-34.93c-0.58-4.18-0.69-7.89-0.45-11.11c-3.79-0.21-10.98-0.24-12.75-1.1 c-1.06-0.51,4.5-15.7,10.47-22.33C1171.75,691.96,1175.8,691.48,1180.8,689.62"/>
        </defs>
      </g>
      <path class="st150" d="M1180.8,689.62c7.49,9.86,11.9,14.12,13.31,14.64c2.35-1.58,6.83-6.02,12.89-14.65 c6.02,1.13,20.74,8.76,22.67,13.75c-2,2.51-10.63,9.92-12.73,9.83c1.05,2.95,0.44,11.38,1.46,14.51 c3.7,11.26,7.96,27.74,8.85,35.11c-13.7,9.28-59.4,7.35-60.71,2.98c-0.32-8.61,0.85-20.37,4.01-34.93 c-0.58-4.18-0.69-7.89-0.45-11.11c-3.79-0.21-10.98-0.24-12.75-1.1c-1.06-0.51,4.5-15.7,10.47-22.33 C1171.75,691.96,1175.8,691.48,1180.8,689.62z"/>
      <path class="st150" d="M1212.61,691.92c-4.64,6.33-8.88,12.11-13.76,17.5l-6.97,0.24c-5.01-2.49-12.22-11.82-16.5-17.49"/>
      <path class="st167" d="M1187.15,680.08c2.34,1.69,6.14,2.86,9.6,2.03"/>
      <path class="st52" d="M1226.79,662.84c6.48-28.53-10.36-64.17-44.9-46.62c-14.25,7.24-21.8,22.26-23.69,37.64 c-0.36,9.92,3.69,22.68,12.57,30.22c12.41,11.92,22.7,12.25,37.43,5.01C1222.31,682.23,1223.99,675.17,1226.79,662.84"/>
      <g>
        <defs>
          <path id="SVGID_00000028295518864752497650000006621300379254288565_" d="M1226.79,662.84c6.48-28.53-10.36-64.17-44.9-46.62 c-14.25,7.24-21.8,22.26-23.69,37.64c-0.36,9.92,3.69,22.68,12.57,30.22c12.41,11.92,22.7,12.25,37.43,5.01 C1222.31,682.23,1223.99,675.17,1226.79,662.84"/>
        </defs>
      </g>
      <path class="st165" d="M1226.79,662.84c6.48-28.53-10.36-64.17-44.9-46.62c-14.25,7.24-21.8,22.26-23.69,37.64 c-0.36,9.92,3.69,22.68,12.57,30.22c12.41,11.92,22.7,12.25,37.43,5.01C1222.31,682.23,1223.99,675.17,1226.79,662.84z"/>
      <path class="st168" d="M1186.77,640.17c-2.86-1.55-10.86-2.1-14.39,0.27"/>
      <path class="st168" d="M1217.52,648.27c-4.79-4.64-10.68-5.56-14.25-5.52"/>
      <path class="st169" d="M1201.6,672.77c-6.95,8.04-18.67,3.9-21.95-2.57"/>
      <path class="st157" d="M1193.7,664.27c-1.54,0.11-3.27-0.26-4.6-1.31c-1.15-0.91-1.72-2.29-1.76-3.14"/>
      <path class="st27" d="M1182.58,598.77c-5.6,1.82-10.07,4.72-14.59,8.08c-5.84,4.35-13.51,13.65-14.51,23.48 c-0.11,1.04,1.76-1.79,2.84-3.46c-1.34,3.2-2.4,6.59-3.26,10.18c-1.02,6.2-1.17,15.11,0.54,19.94 c0.76,2.15,3.27,5.93,3.76,7.87c0.99,3.95,1.97,6.66,4.07,9.97c2.35,3.72,0.43-0.51-0.08-6.41 c-0.67-7.69,0.32-17.35,2.28-24.73c10.86-21.54,38.4-19.07,51.87-21.97c8.17,8.55,10.05,13.89,9.5,23.91 c-0.64,11.71-0.85,29.97-6.97,38.32c-0.91,0.82-0.14,0.6,3.25-1.93c2.34-1.75,4.59-3.86,6.66-6.18c0.38,1.65,0.9,2.91,1.6,3.62 c0.32,0.32,0.47-5.9,1.66-7.57c6.32-8.91,9.04-15.56,10.07-21.63c0.76-2.81,1.15-5.61,0.91-8.56 c-0.18-2.25-0.46-4.54-0.84-6.84c-0.06-0.64-0.21-1.5-0.46-2.53c-1.17-5.83-3.04-11.58-5.8-16.52 c-2.7-3.95-5.56-6.63-8.75-8.46c-0.09-0.06-0.17-0.13-0.26-0.19c-0.05-0.01-0.1-0.02-0.15-0.04c-1.61-0.88-3.31-1.56-5.1-2.07 c-3.55-6.12-11.75-8.69-19.74-8.85C1196.79,596.12,1186.7,597.43,1182.58,598.77z"/>
      <path class="st170" d="M1182.58,598.77c-5.6,1.82-10.07,4.72-14.59,8.08c-5.84,4.35-13.51,13.65-14.51,23.48 c-0.11,1.04,1.76-1.79,2.84-3.46c-1.34,3.2-2.4,6.59-3.26,10.18c-1.02,6.2-1.17,15.11,0.54,19.94 c0.76,2.15,3.27,5.93,3.76,7.87c0.99,3.95,1.97,6.66,4.07,9.97c2.35,3.72,0.43-0.51-0.08-6.41 c-0.67-7.69,0.32-17.35,2.28-24.73c10.86-21.54,38.4-19.07,51.87-21.97c8.17,8.55,10.05,13.89,9.5,23.91 c-0.64,11.71-0.85,29.97-6.97,38.32c-0.91,0.82-0.14,0.6,3.25-1.93c2.34-1.75,4.59-3.86,6.66-6.18c0.38,1.65,0.9,2.91,1.6,3.62 c0.32,0.32,0.47-5.9,1.66-7.57c6.32-8.91,9.04-15.56,10.07-21.63c0.76-2.81,1.15-5.61,0.91-8.56 c-0.18-2.25-0.46-4.54-0.84-6.84c-0.06-0.64-0.21-1.5-0.46-2.53c-1.17-5.83-3.04-11.58-5.8-16.52 c-2.7-3.95-5.56-6.63-8.75-8.46c-0.09-0.06-0.17-0.13-0.26-0.19c-0.05-0.01-0.1-0.02-0.15-0.04c-1.61-0.88-3.31-1.56-5.1-2.07 c-3.55-6.12-11.75-8.69-19.74-8.85C1196.79,596.12,1186.7,597.43,1182.58,598.77z"/>
      <path class="st27" d="M1182.87,645.36c-1.81-0.21-3.42,0.98-3.6,2.66c-0.18,1.68,1.15,3.22,2.96,3.43 c1.81,0.21,3.42-0.98,3.6-2.67C1186,647.11,1184.68,645.58,1182.87,645.36"/>
      <path class="st27" d="M1205.97,649.02c-1.84-0.22-3.47,0.96-3.64,2.64c-0.17,1.68,1.18,3.23,3.02,3.44 c1.84,0.22,3.47-0.96,3.64-2.64C1209.17,650.78,1207.81,649.24,1205.97,649.02"/>
      <path class="st171" d="M1220.06,608.13c0.04,4.38-1.16,8.28-2.59,10.56"/>
      <path class="st150" d="M1193.09,703.58c2.52,2.72,3.57,3.58,5.38,5.58"/>
      <path class="st163" d="M1171.15,712.35c-0.61,2.13-1.37,7.21-1.13,9.14"/>
      <path class="st166" d="M1168.15,735.06c3.84,2,14.96,2.2,17.37,1.57c0.06,0.13-0.63,17.43-1.6,18.65 c-1.7,2.15-17.35,0.86-17.46-1.25C1166.3,751.02,1167.2,735.03,1168.15,735.06z"/>
      <path class="st150" d="M1168.15,735.06c3.84,2,14.96,2.2,17.37,1.57c0.06,0.13-0.63,17.43-1.6,18.65 c-1.7,2.15-17.35,0.86-17.46-1.25C1166.3,751.02,1167.2,735.03,1168.15,735.06z"/>
      <path class="st166" d="M1222.03,733.83c-2.62,1.67-12.73,3.32-16.65,3.06c-0.06,0.13,1.22,16.98,2.27,18.13 c1.84,2.03,18.11-0.85,18.16-3.3C1225.88,748.71,1222.97,733.73,1222.03,733.83z"/>
      <path class="st150" d="M1222.03,733.83c-2.62,1.67-12.73,3.32-16.65,3.06c-0.06,0.13,1.22,16.98,2.27,18.13 c1.84,2.03,18.11-0.85,18.16-3.3C1225.88,748.71,1222.97,733.73,1222.03,733.83z"/>
      <path class="st22" d="M1168.29,694.17c-4.2,1.03-9.7,6.65-13.46,25.14c-0.24-0.05-1.13,2.73-1.31,2.82 c-3.06,1.49-1.42,9.74,0.18,10.88c3.75,2.67,15.41-0.56,14.95-1.68c-0.44-1.07-0.23-3.32-0.13-5.31 c4.7-5.11,3.44-24.87,1.06-27.97C1169.04,697.36,1168.39,694.14,1168.29,694.17z"/>
      <path class="st150" d="M1168.29,694.17c-4.2,1.03-9.7,6.65-13.46,25.14c-0.24-0.05-1.13,2.73-1.31,2.82 c-3.06,1.49-1.42,9.74,0.18,10.88c3.75,2.67,15.41-0.56,14.95-1.68c-0.44-1.07-0.23-3.32-0.13-5.31 c4.7-5.11,3.44-24.87,1.06-27.97C1169.04,697.36,1168.39,694.14,1168.29,694.17z"/>
      <path class="st22" d="M1168.33,710.94c-0.64,5.83-4.6,31.04-2.9,35.76c3.8,1.46,17.02,2.54,22.78,2.04 c0.14-0.01,0.43-25.92,0.28-26.78c-1.28-7.27-8.96-28.78-11.69-29.76c-3.27-1.17-9.52,0.53-9.36,2.08 C1167.79,697.7,1168.69,707.64,1168.33,710.94z"/>
      <path class="st150" d="M1168.33,710.94c-0.64,5.83-4.6,31.04-2.9,35.76c3.8,1.46,17.02,2.54,22.78,2.04 c0.14-0.01,0.43-25.92,0.28-26.78c-1.28-7.27-8.96-28.78-11.69-29.76c-3.27-1.17-9.52,0.53-9.36,2.08 C1167.79,697.7,1168.69,707.64,1168.33,710.94z"/>
      <path class="st22" d="M1177.37,690.3c-2.44,0.09-10.81,3.25-10.52,3.66c0.23,0.32,6.76,7.06,8.49,8.23 c-0.08,0.65-4.4,4.56-3.79,4.96c2.99,1.99,15.71,15.5,16.28,15.81C1189.29,718.2,1181.78,694.69,1177.37,690.3z"/>
      <path class="st150" d="M1177.37,690.3c-2.44,0.09-10.81,3.25-10.52,3.66c0.23,0.32,6.76,7.06,8.49,8.23 c-0.08,0.65-4.4,4.56-3.79,4.96c2.99,1.99,15.71,15.5,16.28,15.81C1189.29,718.2,1181.78,694.69,1177.37,690.3z"/>
      <path class="st22" d="M1220.8,706.27c1.52,4.27,4.68,35,5.42,39.88c-3.34,1.68-18.03,2.62-23.86,2.46 c-2.11-2.6-2.13-24.3-1.61-25.87c0.59-1.77,3.14-8.65,5.68-14.59c0.89-2.09,7.93-16.35,10.48-14.52 c0.92,0.66,3.95,1.64,6.11,5.66C1223.4,699.99,1220.71,705.82,1220.8,706.27z"/>
      <path class="st150" d="M1220.8,706.27c1.52,4.27,4.68,35,5.42,39.88c-3.34,1.68-18.03,2.62-23.86,2.46 c-2.11-2.6-2.13-24.3-1.61-25.87c0.59-1.77,3.14-8.65,5.68-14.59c0.89-2.09,7.93-16.35,10.48-14.52 c0.92,0.66,3.95,1.64,6.11,5.66C1223.4,699.99,1220.71,705.82,1220.8,706.27z"/>
      <path class="st22" d="M1211.53,689.75c1.81,0.11,12.25,4.76,11.94,5.15c-0.25,0.31-7.64,4.8-9.45,5.88 c0.07,0.66,4,4.72,3.37,5.09c-3.13,1.85-16.1,16.96-16.7,17.24C1199.85,718.31,1208.4,693.22,1211.53,689.75z"/>
      <path class="st150" d="M1211.53,689.75c1.81,0.11,12.25,4.76,11.94,5.15c-0.25,0.31-7.64,4.8-9.45,5.88 c0.07,0.66,4,4.72,3.37,5.09c-3.13,1.85-16.1,16.96-16.7,17.24C1199.85,718.31,1208.4,693.22,1211.53,689.75z"/>
      <path class="st150" d="M1171.14,736.12c3.65,1.05,5.94,1.14,10.84,1.14"/>
      <path class="st150" d="M1207.47,737.08c0.83,0.17,6.28,0.29,11.14-1.04"/>
      <path class="st161" d="M1158.41,719.88c1.37,0.55,3.18,0.85,5.49-0.06"/>
      <path class="st161" d="M1156.28,725.82c1.71,0.35,3.95,0.39,6.82-0.87"/>
      <path class="st172" d="M1263.91,672.44l-25.78,45.67c-3.52,6.24-9.31,8.25-14.81,7.45c-2.12-0.31-4.2-1.04-6.09-2.1 c-1.89-1.07-3.59-2.47-4.95-4.13c-3.53-4.3-4.8-10.29-1.28-16.53l25.78-45.67c3.52-6.24,9.31-8.25,14.81-7.45 c2.12,0.31,4.2,1.04,6.09,2.1c1.89,1.07,3.59,2.47,4.94,4.13C1266.16,660.21,1267.43,666.2,1263.91,672.44z"/>
      <path class="st1" d="M1263.91,672.44l-25.78,45.67c-3.52,6.24-9.31,8.25-14.81,7.45c-2.12-0.31-4.2-1.04-6.09-2.1 c-1.89-1.07-3.59-2.47-4.95-4.13c-3.53-4.3-4.8-10.29-1.28-16.53l25.78-45.67c3.52-6.24,9.31-8.25,14.81-7.45 c2.12,0.31,4.2,1.04,6.09,2.1c1.89,1.07,3.59,2.47,4.94,4.13C1266.16,660.21,1267.43,666.2,1263.91,672.44"/>
      <g>
        <defs>
          <path id="SVGID_00000085932022237004175540000015360587564934645693_" d="M1263.91,672.44l-25.78,45.67 c-3.52,6.24-9.31,8.25-14.81,7.45c-2.12-0.31-4.2-1.04-6.09-2.1c-1.89-1.07-3.59-2.47-4.95-4.13 c-3.53-4.3-4.8-10.29-1.28-16.53l25.78-45.67c3.52-6.24,9.31-8.25,14.81-7.45c2.12,0.31,4.2,1.04,6.09,2.1 c1.89,1.07,3.59,2.47,4.94,4.13C1266.16,660.21,1267.43,666.2,1263.91,672.44"/>
        </defs>
      </g>
      <path class="st35" d="M1263.91,672.44c-4.3,7.61-7.53,13.24-11.82,20.85c-8.88,3.17-24.79-7.42-27.2-14.96l11.9-21.21 c1.76-3.12,4.09-5.18,6.66-6.36c2.57-1.18,5.4-1.48,8.15-1.08c1.06,0.15,2.11,0.41,3.13,0.77c1.02,0.35,2.01,0.8,2.96,1.34 c0.94,0.53,1.84,1.15,2.67,1.84c0.83,0.69,1.59,1.46,2.27,2.28c1.76,2.15,2.96,4.72,3.28,7.54 C1266.23,666.26,1265.67,669.32,1263.91,672.44"/>
      <path class="st22" d="M1257.22,667.37c-0.7,2.88-0.55,3.81-4.16,8.79c-0.63,0.87-0.52,2.47,0.93,3.11 c0.97,0.43,1.95-0.15,2.7-1.12c1.57-2.06,3.51-5.69,3.87-7.25c0.37-1.62,0.87-3.26,0.03-4.53 C1260.12,665.63,1257.78,665.09,1257.22,667.37"/>
      <path class="st22" d="M1259.61,660.13c-0.77,0.43-1.4,1.52-0.78,2.69c0.71,1.33,2.64,1.38,3.39,0.42 C1263.61,661.5,1261.35,659.15,1259.61,660.13"/>
      <path class="st52" d="M1242.24,708.63c5.1,2.76,4.03,10.87-0.45,14.16c-8.89,6.54-19.41-5.47-24.31-8.97 c-4.81-1.4-6.93-0.47-9.68-3.21c-0.46-0.46-1.85-3.82,0.88-4.12c0.57-0.06-3.52-3.41-0.14-3.84c1.3-0.17-2.28-3.04,2.11-4.02 c-0.37-3.18,2.65-2.91,4.32-2.04c1.59,0.83,2.29,2.64,2.66,2.21c1.59-1.85,3.13-6,7.66-0.28c0.41,0.51,0.78,3.17,0.42,4.81 C1227.28,704.01,1239.41,706.05,1242.24,708.63z"/>
      <path class="st150" d="M1242.24,708.63c5.1,2.76,4.03,10.87-0.45,14.16c-8.89,6.54-19.41-5.47-24.31-8.97 c-4.81-1.4-6.93-0.47-9.68-3.21c-0.46-0.46-1.85-3.82,0.88-4.12c0.57-0.06-3.52-3.41-0.14-3.84c1.3-0.17-2.28-3.04,2.11-4.02 c-0.37-3.18,2.65-2.91,4.32-2.04c1.59,0.83,2.29,2.64,2.66,2.21c1.59-1.85,3.13-6,7.66-0.28c0.41,0.51,0.78,3.17,0.42,4.81 C1227.28,704.01,1239.41,706.05,1242.24,708.63z"/>
      <path class="st22" d="M1235.41,704.66c0.92,4.92-7.13,14.72-8.61,17.1c-0.66,1.07,5.99,4.52,9.87,5.13 c5.16,0.8,9.26-1.55,10.99-5.9c0.74-1.85,1.59-4.25,1.02-6.62c-1.11-4.65-5.64-6.53-9.06-8.08 C1237.28,705.22,1235.38,704.5,1235.41,704.66z"/>
      <path class="st150" d="M1235.41,704.66c0.92,4.92-7.13,14.72-8.61,17.1c-0.66,1.07,5.99,4.52,9.87,5.13 c5.16,0.8,9.26-1.55,10.99-5.9c0.74-1.85,1.59-4.25,1.02-6.62c-1.11-4.65-5.64-6.53-9.06-8.08 C1237.28,705.22,1235.38,704.5,1235.41,704.66z"/>
    </g>
    <g>
      <path class="st52" d="M725.96,758.8c1.15,4.17,3.28,21.81,3.9,26.2c0.2,1.43-2.29,8.09,0.65,9.66 c4.29,1.38,17.22,3.19,18.91-0.67c1.81-4.14-2.93-5.79-5.23-9.36c-0.86-0.29-0.61-1.83-0.49-5.06 c0.86-22.03,4.6-44.47-8.75-42.92C729.25,736.49,722.16,738.98,725.96,758.8z"/>
      <path class="st163" d="M725.96,758.8c1.15,4.17,3.28,21.81,3.9,26.2c0.2,1.43-2.29,8.09,0.65,9.66 c4.29,1.38,17.22,3.19,18.91-0.67c1.81-4.14-2.93-5.79-5.23-9.36c-0.86-0.29-0.61-1.83-0.49-5.06 c0.86-22.03,4.6-44.47-8.75-42.92C729.25,736.49,722.16,738.98,725.96,758.8z"/>
      <path class="st22" d="M729.19,785.46c-0.94,1.25-1.02,6.22,0.02,7.79c2.11,3.21,26.99,6.81,23.37-0.23 c-0.62-1.2-4.95-6.85-5.88-5.67c-2.74,3.5-8.86,2.07-11.7,1.9C730.88,789.01,730.19,785.59,729.19,785.46z"/>
      <path class="st163" d="M729.19,785.46c-0.94,1.25-1.02,6.22,0.02,7.79c2.11,3.21,26.99,6.81,23.37-0.23 c-0.62-1.2-4.95-6.85-5.88-5.67c-2.74,3.5-8.86,2.07-11.7,1.9C730.88,789.01,730.19,785.59,729.19,785.46z"/>
      <path class="st52" d="M725.39,758.8c-1.15,4.17-3.28,21.81-3.9,26.2c-0.2,1.43,2.29,8.09-0.65,9.66 c-4.29,1.38-17.22,3.19-18.91-0.67c-1.81-4.14,2.93-5.79,5.23-9.36c0.86-0.29,0.61-1.83,0.49-5.06 c-0.86-22.03-4.6-44.47,8.75-42.92C722.1,736.49,729.19,738.98,725.39,758.8z"/>
      <path class="st163" d="M725.39,758.8c-1.15,4.17-3.28,21.81-3.9,26.2c-0.2,1.43,2.29,8.09-0.65,9.66 c-4.29,1.38-17.22,3.19-18.91-0.67c-1.81-4.14,2.93-5.79,5.23-9.36c0.86-0.29,0.61-1.83,0.49-5.06 c-0.86-22.03-4.6-44.47,8.75-42.92C722.1,736.49,729.19,738.98,725.39,758.8z"/>
      <path class="st22" d="M722.16,785.46c0.94,1.25,1.02,6.22-0.02,7.79c-2.12,3.21-26.99,6.81-23.37-0.23 c0.62-1.2,4.95-6.85,5.88-5.67c2.74,3.5,8.86,2.07,11.7,1.9C720.47,789.01,721.16,785.59,722.16,785.46z"/>
      <path class="st163" d="M722.16,785.46c0.94,1.25,1.02,6.22-0.02,7.79c-2.12,3.21-26.99,6.81-23.37-0.23 c0.62-1.2,4.95-6.85,5.88-5.67c2.74,3.5,8.86,2.07,11.7,1.9C720.47,789.01,721.16,785.59,722.16,785.46z"/>
      <path class="st173" d="M703.4,757.04c-0.01,1.07-0.56,25.75-0.14,26.17c3.19,3.17,17.55,2.43,20.39-0.17 c0.2-0.18,0.28-3.5,0.33-8.95c0.08-7.35,0.5-16.04,0.08-16.05C722.39,758,705.77,756.44,703.4,757.04z"/>
      <path class="st150" d="M703.4,757.04c-0.01,1.07-0.56,25.75-0.14,26.17c3.19,3.17,17.55,2.43,20.39-0.17 c0.2-0.18,0.28-3.5,0.33-8.95c0.08-7.35,0.5-16.04,0.08-16.05C722.39,758,705.77,756.44,703.4,757.04z"/>
      <path class="st173" d="M726.66,757.39c0.1,1.07,0.83,26.17,1.34,26.51c2.67,1.79,16.55,2.43,19.13-1.03 c0,0,0.05-26.69-0.86-26.73C744.51,756.07,728.97,756.78,726.66,757.39z"/>
      <path class="st150" d="M726.66,757.39c0.1,1.07,0.83,26.17,1.34,26.51c2.67,1.79,16.55,2.43,19.13-1.03 c0,0,0.05-26.69-0.86-26.73C744.51,756.07,728.97,756.78,726.66,757.39z"/>
      <path class="st52" d="M764.07,703.15c3.73,2.64,9.56,14.21,6.01,20.14c-3.49,5.83-14.68,12.61-17.58,11.04 c-3.19-1.72-6.26-7.73-2.2-11.93c1.7-1.76,1.95-3.08,1.99-3.74c0.1-1.5-1.43-8.29-1.13-10.28c0.21-1.4,3.65-0.61,6.58-2.17 C759,705.54,763.29,702.59,764.07,703.15z"/>
      <path class="st163" d="M764.07,703.15c3.73,2.64,9.56,14.21,6.01,20.14c-3.49,5.83-14.68,12.61-17.58,11.04 c-3.19-1.72-6.26-7.73-2.2-11.93c1.7-1.76,1.95-3.08,1.99-3.74c0.1-1.5-1.43-8.29-1.13-10.28c0.21-1.4,3.65-0.61,6.58-2.17 C759,705.54,763.29,702.59,764.07,703.15z"/>
      <path class="st174" d="M712.18,686.39c0.53-0.04-2.78,4.22-4.42,7.16c-2.26,4.06-6.7,8-6.15,8.7c2,2.88,7.21,6.03,10.37,5.29 c8.48-1.98,26.34-4.32,31.53-12.11c-0.29-0.65-1.06-4.63-2.78-7.92c-1.02-1.94-2.58-3.7-4.02-4.21 C721.31,687.33,729.69,685.25,712.18,686.39"/>
      <path class="st173" d="M712.1,688.35c7.59,9.78,13.22,14.04,14.17,14.72c2.41-1.67,8.09-5.99,14.72-13.83 c7.68,0.18,22.15,8.25,24.24,13.25c-2.18,2.51-10.98,7.9-13.83,9.83c5.98,12.03,8.43,32.15,8.65,42.2 c-14.9,9.28-65.55,5.73-66.97,1.36c-2.46-22.88,6.87-38.38,6.37-39.94c-2.02-13.59-1.75-18.48,3.91-22.49 C706.11,691.48,709.93,689.51,712.1,688.35"/>
      <g>
        <defs>
          <path id="SVGID_00000046323133005306707840000018127721781666788028_" d="M712.1,688.35c7.59,9.78,13.22,14.04,14.17,14.72 c2.41-1.67,8.09-5.99,14.72-13.83c7.68,0.18,22.15,8.25,24.24,13.25c-2.18,2.51-10.98,7.9-13.83,9.83 c5.98,12.03,8.43,32.15,8.65,42.2c-14.9,9.28-65.55,5.73-66.97,1.36c-2.46-22.88,6.87-38.38,6.37-39.94 c-2.02-13.59-1.75-18.48,3.91-22.49C706.11,691.48,709.93,689.51,712.1,688.35"/>
        </defs>
      </g>
      <path class="st150" d="M712.1,688.35c7.59,9.78,13.22,14.04,14.17,14.72c2.41-1.67,8.09-5.99,14.72-13.83 c7.68,0.18,22.15,8.25,24.24,13.25c-2.18,2.51-10.98,7.9-13.83,9.83c5.98,12.03,8.43,32.15,8.65,42.2 c-14.9,9.28-65.55,5.73-66.97,1.36c-2.46-22.88,6.87-38.38,6.37-39.94c-2.02-13.59-1.75-18.48,3.91-22.49 C706.11,691.48,709.93,689.51,712.1,688.35z"/>
      <path class="st52" d="M691.57,662.52c-2.87-11.71-3.24-27.03,1.86-37.41c6.78-13.8,28-20.24,46.67-11.03 c14.28,7.04,20.19,22.2,22.61,37.72c1.88,12.02-2.81,23.06-11.29,30.94c-8.56,9.36-23.17,12.59-36.79,7.3 C701.05,686.5,694.68,675.21,691.57,662.52"/>
      <g>
        <defs>
          <path id="SVGID_00000111154362123977035660000006449965695528128169_" d="M691.57,662.52c-2.87-11.71-3.24-27.03,1.86-37.41 c6.78-13.8,28-20.24,46.67-11.03c14.28,7.04,20.19,22.2,22.61,37.72c1.88,12.02-2.81,23.06-11.29,30.94 c-8.56,9.36-23.17,12.59-36.79,7.3C701.05,686.5,694.68,675.21,691.57,662.52"/>
        </defs>
      </g>
      <path class="st163" d="M691.57,662.52c-2.87-11.71-3.24-27.03,1.86-37.41c6.78-13.8,28-20.24,46.67-11.03 c14.28,7.04,20.19,22.2,22.61,37.72c1.88,12.02-2.81,23.06-11.29,30.94c-8.56,9.36-23.17,12.59-36.79,7.3 C701.05,686.5,694.68,675.21,691.57,662.52z"/>
      <path class="st27" d="M735.44,637.54c1.79-0.27,3.42,0.86,3.64,2.53c0.23,1.67-1.04,3.24-2.82,3.51 c-1.79,0.27-3.42-0.86-3.64-2.53C732.39,639.38,733.66,637.81,735.44,637.54"/>
      <path class="st27" d="M711.75,642.07c1.79-0.27,3.42,0.86,3.64,2.53c0.23,1.67-1.04,3.24-2.82,3.51 c-1.79,0.27-3.42-0.86-3.64-2.53C708.7,643.91,709.96,642.34,711.75,642.07"/>
      <path class="st175" d="M727.13,685.68c3.48,0.83,8.46,0.37,12.19-2.24"/>
      <path class="st176" d="M711.9,668.13c1.49-2.54,12.95,4.79,34.84-7.5c0.57,1.06,0.61,5.34-2,9.49 c-2.23,3.55-6.5,7.01-12.7,8.14C720.39,680.43,711.99,672.73,711.9,668.13"/>
      <g>
        <defs>
          <path id="SVGID_00000121987147749712850690000005594619684793679013_" d="M711.9,668.13c1.49-2.54,12.95,4.79,34.84-7.5 c0.57,1.06,0.61,5.34-2,9.49c-2.23,3.55-6.5,7.01-12.7,8.14C720.39,680.43,711.99,672.73,711.9,668.13"/>
        </defs>
        <clipPath id="SVGID_00000032621404897736876540000005165823837438695045_">
          <path d="M711.9,668.13c1.49-2.54,12.95,4.79,34.84-7.5 c0.57,1.06,0.61,5.34-2,9.49c-2.23,3.55-6.5,7.01-12.7,8.14C720.39,680.43,711.99,672.73,711.9,668.13" style="overflow: visible;"/>
        </clipPath>
        <path style="clip-path:url(#SVGID_00000032621404897736876540000005165823837438695045_);fill-rule:evenodd;clip-rule:evenodd;fill:#FFFBDE;" d=" M719.77,677.37c-0.02-0.38,0.14-1.15,0.18-1.6c0.03-0.05,0.07-0.17,0.21-0.19c1-0.09,1.99,0.08,2.98,0.05 c0.33,0.03,0.33,0.28,0.48,0.58c0.03-0.1,0.07-0.29,0.09-0.36c0.03-0.11,0.05-0.19,0.12-0.24c0.1-0.08,0.18-0.09,0.28-0.12 c0.91-0.14,1.91,0.17,2.84,0.05c0.26,0.01,0.4,0.11,0.47,0.23c0.08,0.12,0.12,0.26,0.17,0.36c0.03-0.1,0.04-0.37,0.05-0.44 c0.02-0.1,0.04-0.19,0.11-0.24c0.03-0.02,0.06-0.05,0.1-0.06c1.03-0.18,2.11-0.39,3.2-0.61c0.01,0,0.03,0,0.05-0.01 c0.27,0,0.43,0.09,0.54,0.21c0.1,0.12,0.16,0.26,0.23,0.35c0.02-0.1-0.04-0.38-0.03-0.44c0.01-0.1,0.03-0.18,0.08-0.23 c0.05-0.04,0.1-0.07,0.16-0.09c1.2-0.29,2.39-0.59,3.52-0.9c0.21,0,0.34,0.1,0.43,0.22c0.09,0.12,0.15,0.26,0.22,0.33 c0.01-0.1,0-0.42,0.01-0.49c0.02-0.18,0.17-0.25,0.24-0.3c0.98-0.35,2.07-1.1,3.06-1.39c0.31-0.03,0.36,0.32,0.59,0.52 c0-0.09-0.01-0.37-0.01-0.43c0-0.09,0-0.16,0.05-0.22c0.04-0.04,0.1-0.08,0.16-0.11c0.68-0.26,2.01-0.85,2.73-1.11 c0.17-0.06,0.32-0.06,0.44,0.04c0.11,0.09,0.19,0.26,0.28,0.5c0.08,0.21,0.43,1.04,0.42,1.05c-2.12,3.36-9.04,5.74-12.1,6.32 C726.31,679.73,719.99,677.91,719.77,677.37"/>
      </g>
      <path class="st178" d="M711.9,668.13c1.49-2.54,12.95,4.79,34.84-7.5c0.57,1.06,0.61,5.34-2,9.49 c-2.23,3.55-6.5,7.01-12.7,8.14C720.39,680.43,711.99,672.73,711.9,668.13z"/>
      <path d="M726.19,653.2c-0.48,0.04-0.91-0.32-0.95-0.8c-0.04-0.48,0.32-0.91,0.8-0.95c0.74-0.06,1.51-0.15,2.19-0.36 c0.63-0.19,1.2-0.49,1.64-0.99c0.51-0.58,0.28-1.65,0.12-2.4c-0.05-0.23-0.1-0.45-0.12-0.58c-0.07-0.48,0.26-0.93,0.74-1 c0.48-0.07,0.93,0.26,1,0.74c0.03,0.17,0.06,0.32,0.09,0.47c0.23,1.1,0.57,2.68-0.52,3.92c-0.68,0.78-1.53,1.24-2.44,1.52 C727.89,653.03,727.01,653.13,726.19,653.2"/>
      <path class="st179" d="M696.23,634.21c2.89-5.26,9.65-5.93,13.65-4.35"/>
      <path class="st179" d="M730.26,625.77c2.99-3.33,9.51-3.77,13.66-1.64"/>
      <path class="st180" d="M739.94,657.07c3.12,2.34,7.78,3.48,12.02,2.77"/>
      <path class="st180" d="M716.43,661.77c-2.8,5.24-3.55,5.77-9.72,7.65"/>
      <path class="st150" d="M748.24,691.49c-6.79,8.11-15.42,15.39-21.79,19.71c-9.02-5.7-14.06-11.95-20.58-19.37"/>
      <path class="st173" d="M694.57,727.52c3.84,2.25,15.74,2.64,18.15,2.05c0.06,0.14-0.67,18.53-1.64,19.8 c-1.71,2.23-18.46,0.54-18.56-1.71C692.37,744.44,693.63,727.45,694.57,727.52z"/>
      <path class="st150" d="M694.57,727.52c3.84,2.25,15.74,2.64,18.15,2.05c0.06,0.14-0.67,18.53-1.64,19.8 c-1.71,2.23-18.46,0.54-18.56-1.71C692.37,744.44,693.63,727.45,694.57,727.52z"/>
      <path class="st173" d="M755.6,725.99c-2.64,2.03-13.1,3.77-18,3.14c-0.06,0.14,1.71,18.46,2.75,19.67 c1.83,2.12,18.51-1.22,18.57-3.83C758.98,741.74,756.53,725.86,755.6,725.99z"/>
      <path class="st150" d="M755.6,725.99c-2.64,2.03-13.1,3.77-18,3.14c-0.06,0.14,1.71,18.46,2.75,19.67 c1.83,2.12,18.51-1.22,18.57-3.83C758.98,741.74,756.53,725.86,755.6,725.99z"/>
      <path class="st22" d="M698.03,707.51c-0.93,2.55-6.32,24.4-6.57,34.17c4.38,2.34,21.35,4.44,27.93,3.81 c0.25-1.16,3.09-17.66,2.81-18.68c-2.42-8.8-3.8-24.36-12.39-33.44c-2.81-2.97-9.22-0.59-10.05,1.09 C698.35,697.29,699.4,703.74,698.03,707.51z"/>
      <path class="st150" d="M698.03,707.51c-0.93,2.55-6.32,24.4-6.57,34.17c4.38,2.34,21.35,4.44,27.93,3.81 c0.25-1.16,3.09-17.66,2.81-18.68c-2.42-8.8-3.8-24.36-12.39-33.44c-2.81-2.97-9.22-0.59-10.05,1.09 C698.35,697.29,699.4,703.74,698.03,707.51z"/>
      <path class="st22" d="M709.64,689.18c-2.9,0.1-12.12,4.06-11.75,4.53c0.29,0.38,9.09,7.93,11.21,9.31 c-0.07,0.77-5.05,5.35-4.32,5.83c3.65,2.34,16.94,17.96,17.52,19.13C722.86,722.66,716.08,693.93,709.64,689.18z"/>
      <path class="st150" d="M709.64,689.18c-2.9,0.1-12.12,4.06-11.75,4.53c0.29,0.38,9.09,7.93,11.21,9.31 c-0.07,0.77-5.05,5.35-4.32,5.83c3.65,2.34,16.94,17.96,17.52,19.13C722.86,722.66,716.08,693.93,709.64,689.18z"/>
      <path class="st22" d="M755.88,711.76c1.7,7.28,5.07,23.92,5.25,28.95c-4.24,2.88-23.22,4.67-28.6,4.56 c-0.7-1.19-1.53-16.88-1.47-18.38c0.87-3.92,1.15-7.73,4.03-14.9c1.01-2.52,9-21.53,11.93-19.32c0.57,0.43,1.83,0.96,3.27,2.11 c0.43-0.81,0.86-1.58,0.93-1.57c4.87,0.21,16.44,9.3,14.87,10.6C765.22,704.53,759.24,709.37,755.88,711.76z"/>
      <path class="st150" d="M755.88,711.76c1.7,7.28,5.07,23.92,5.25,28.95c-4.24,2.88-23.22,4.67-28.6,4.56 c-0.7-1.19-1.53-16.88-1.47-18.38c0.87-3.92,1.15-7.73,4.03-14.9c1.01-2.52,9-21.53,11.93-19.32c0.57,0.43,1.83,0.96,3.27,2.11 c0.43-0.81,0.86-1.58,0.93-1.57c4.87,0.21,16.44,9.3,14.87,10.6C765.22,704.53,759.24,709.37,755.88,711.76z"/>
      <path class="st22" d="M742.99,689.96c2.08,0.12,12.63,4.18,12.28,4.65c-0.28,0.37-9.6,5.48-11.69,6.76 c0.08,0.77,4.56,5.55,3.83,5.99c-3.61,2.17-15.41,20.09-16.1,20.42C730.7,722.69,739.38,694.05,742.99,689.96z"/>
      <path class="st150" d="M742.99,689.96c2.08,0.12,12.63,4.18,12.28,4.65c-0.28,0.37-9.6,5.48-11.69,6.76 c0.08,0.77,4.56,5.55,3.83,5.99c-3.61,2.17-15.41,20.09-16.1,20.42C730.7,722.69,739.38,694.05,742.99,689.96z"/>
      <path class="st150" d="M753.78,708.95c1.46,1.74,2.09,3.33,2.91,5.26"/>
      <path class="st181" d="M689.93,677.41c-2.68,1.36-24.92,14.92-26.7,16.61c3.77,5.08,28.9,41.19,29.63,41.25 c0.06,0.01,25.74-14.35,25.49-15C715.73,713.45,691.39,676.67,689.93,677.41z"/>
      <path class="st150" d="M689.93,677.41c-2.68,1.36-24.92,14.92-26.7,16.61c3.77,5.08,28.9,41.19,29.63,41.25 c0.06,0.01,25.74-14.35,25.49-15C715.73,713.45,691.39,676.67,689.93,677.41z"/>
      <path class="st150" d="M688.67,690.72c-3.47,2.09-6.36,3.2-9.5,5.04"/>
      <path class="st150" d="M690.79,698.56c-2.33,1.03-4.73,2.74-6.56,3.46"/>
      <path class="st52" d="M678.05,712.6c-5.16,2.53-3.93,10.81,0.34,14.3c8.48,6.92,18.7-4.63,25.38-8.24 c4.93-0.39,6.5-1.22,10.05-2.81c0.72-0.32,3.04-3.37,0.37-3.83c-0.23-0.04,0.66-0.46,0.91-1.23c0.31-0.94-0.16-2.62-2-2.93 c-1.27-0.22,2.39-2.94-1.9-4.1c0.5-3.16-2.49-3.03-4.17-2.23c-1.6,0.76-2.38,2.54-2.72,2.09c-1.24-1.6-3.38-5.36-6.05-3.01 c-1.86,1.63-1.44,5.62-1.05,7.22C696.51,707.93,680.95,710.15,678.05,712.6z"/>
      <path class="st150" d="M678.05,712.6c-5.16,2.53-3.93,10.81,0.34,14.3c8.48,6.92,18.7-4.63,25.38-8.24 c4.93-0.39,6.5-1.22,10.05-2.81c0.72-0.32,3.04-3.37,0.37-3.83c-0.23-0.04,0.66-0.46,0.91-1.23c0.31-0.94-0.16-2.62-2-2.93 c-1.27-0.22,2.39-2.94-1.9-4.1c0.5-3.16-2.49-3.03-4.17-2.23c-1.6,0.76-2.38,2.54-2.72,2.09c-1.24-1.6-3.38-5.36-6.05-3.01 c-1.86,1.63-1.44,5.62-1.05,7.22C696.51,707.93,680.95,710.15,678.05,712.6z"/>
      <path class="st27" d="M758.94,671.88c22.87-11.58,15.13-38.96,2.73-53.53c-6.23-7.32-16.14-18.87-30.88-23.19 c-9.5-2.32-23.73-1.43-29.7,6.48c-19.34,4.05-30.84,47.12-22.83,62.37c8.91,16.97,22.66,17.04,22.42,16.8 c-7.05-8.45-11.32-33.52-7.74-49.4c15.18-11.79,53.42-12.2,54.78-11.1C760.1,630.59,765.34,654.07,758.94,671.88"/>
      <path d="M743.9,633.05c-1.05,0.15-6.53,1.06-10.37,2.25c-1.98,0.61-3.41,1.32-3.82,1.99c-0.31,0.48-0.5,1.1-0.58,1.79 c-0.08,0.75-0.03,1.59,0.12,2.46c0.49,2.7,1.97,5.45,3.66,6.55c1.03,0.67,4.76,0.38,8.59-0.31c7.37-1.34,10.51-1.45,10.38-9.22 c-0.04-2.36-0.54-4.59-1.56-5.47l-0.11-0.09C749.47,632.47,746.9,632.61,743.9,633.05 M702.26,641.86 c-2.95,0.82-5.37,1.74-5.8,2.52l-0.04,0.08c-0.59,1.22-0.14,3.48,0.78,5.67c3.01,7.11,6.18,5.92,13.22,4.23 c3.78-0.91,7.31-2.16,7.98-3.2c1.1-1.69,1.34-4.81,0.69-7.48c-0.21-0.85-0.5-1.64-0.88-2.3c-0.35-0.6-0.77-1.09-1.25-1.4 C714.96,638.69,703.78,641.43,702.26,641.86z M743.49,630.26c3.69-0.53,7.03-0.56,8.43,0.5l0.02,0.02l0,0l0.18,0.15 c1.7,1.46,2.52,4.51,2.57,7.59c0.16,9.08-4.09,10.47-12.69,12.04c-4.41,0.8-8.94,0.99-10.63-0.11c-2.31-1.5-4.29-5.03-4.9-8.4 c-0.13-0.73-0.2-1.47-0.2-2.19c-1.61,0.07-3.6,0.55-5.14,1.09c0.29,0.65,0.52,1.35,0.7,2.08c0.81,3.33,0.43,7.36-1.07,9.66 c-1.1,1.68-5.31,3.35-9.68,4.4c-8.59,2.07-12.86,2.7-16.48-5.87c-1.21-2.87-1.7-6.02-0.69-8.04l0.08-0.16 c0.85-1.54,3.92-2.87,7.51-3.87c3.45-0.97,13.68-3.66,16.99-1.51l0.15,0.1c2.96-0.59,5.78-1.32,8.67-1.92 C729.48,632.43,739.9,630.78,743.49,630.26z"/>
    </g>
    <g>
      <path class="st52" d="M870.73,755.65c0.25,3.16,1.93,21.4,2.73,24.52c0.26,1.01,7.31,7.47,5.1,9.55 c-0.77,4.65-13.86,3.71-17.9,0.72c-0.49-1.81,0.54-7.31-0.16-10.15c-1.31-4.65-6.69-18.74-8.58-27.15 c-0.96-4.27-0.83-6.91,4.8-8.55C861.91,742.46,868.03,741.22,870.73,755.65z"/>
      <path class="st150" d="M870.73,755.65c0.25,3.16,1.93,21.4,2.73,24.52c0.26,1.01,7.31,7.47,5.1,9.55 c-0.77,4.65-13.86,3.71-17.9,0.72c-0.49-1.81,0.54-7.31-0.16-10.15c-1.31-4.65-6.69-18.74-8.58-27.15 c-0.96-4.27-0.83-6.91,4.8-8.55C861.91,742.46,868.03,741.22,870.73,755.65z"/>
      <path class="st182" d="M860.73,785.83c4.23,6.09,18.37,4.6,16.92-0.58c-0.45-1.61,0.96-0.24,2,1.34 c4.61,6.28,6.94,10.11-1.23,11.01c-1.66,0.18-12.38-0.82-14.91-2.92c-3.11-2.58-4.08-5.92-3.55-8.65 C860.06,785.51,860.46,785.44,860.73,785.83z"/>
      <path class="st150" d="M860.73,785.83c4.23,6.09,18.37,4.6,16.92-0.58c-0.45-1.61,0.96-0.24,2,1.34 c4.61,6.28,6.94,10.11-1.23,11.01c-1.66,0.18-12.38-0.82-14.91-2.92c-3.11-2.58-4.08-5.92-3.55-8.65 C860.06,785.51,860.46,785.44,860.73,785.83z"/>
      <path class="st52" d="M852.27,782.07c0.03,0.89,1.15,4.79-1.54,6.61c-4.07,2.13-17.27,4.44-19.59,2.74 c-2.48-1.83,1.96-3.01,4.82-4.54c3.56-2.93-4.51-29.36-3.62-36.13c0,0,15.48-1.3,16.57,0.11 C851.75,754.53,850.21,774.98,852.27,782.07z"/>
      <path class="st150" d="M852.27,782.07c0.03,0.89,1.15,4.79-1.54,6.61c-4.07,2.13-17.27,4.44-19.59,2.74 c-2.48-1.83,1.96-3.01,4.82-4.54c3.56-2.93-4.51-29.36-3.62-36.13c0,0,15.48-1.3,16.57,0.11 C851.75,754.53,850.21,774.98,852.27,782.07z"/>
      <path class="st182" d="M852.58,782.94c1.14,0.46,1.65,0.72,1.95,1.98c0.7,3.01-0.08,6.97-0.28,8.66 c-0.32,0.46-1.74,0.53-2.38,0.24c-0.31-0.14-0.37-1.74-0.56-1.63c-4.08,2.34-8.63,4.38-17.17,3.68 c-6.45-0.53-7.13-3.12-5.48-5.04c1.31-1.53,4.02-2.71,4.5-2.72c4.3,2.4,9.66,1.46,12.48,0.56 C849.73,787.35,853.19,783.58,852.58,782.94z"/>
      <path class="st150" d="M852.58,782.94c1.14,0.46,1.65,0.72,1.95,1.98c0.7,3.01-0.08,6.97-0.28,8.66 c-0.32,0.46-1.74,0.53-2.38,0.24c-0.31-0.14-0.37-1.74-0.56-1.63c-4.08,2.34-8.63,4.38-17.17,3.68 c-6.45-0.53-7.13-3.12-5.48-5.04c1.31-1.53,4.02-2.71,4.5-2.72c4.3,2.4,9.66,1.46,12.48,0.56 C849.73,787.35,853.19,783.58,852.58,782.94z"/>
      <path class="st38" d="M862.18,592.33c4.17-0.59,7.12-1.47,10.74,0c6.62-3.46,18.97,3.11,17.32,9.17 c5.56,1.23,8.85,5.7,6.21,10.94c4.02,1.16,6.14,9.99,4.1,13.58c4.36,1.86,4.84,8.56,2.42,11.28c3.84,2.6,4.56,8.55,1.23,11.17 c3.81,2.61,3.46,11.2,0.17,13.69c3.67,2.99,2.2,7.38-0.83,10.75c3.26,2.67-1.67,9.31-5.82,9.4c2.46,3.33,0.91,6.37-2.74,6.59 c0.45,4.83-4.5,6.24-7.52,4.32c-4.88,4.15-4.3,2.86-6.19-0.15c-4.29,2.99-8.28-0.68-8.7-3.93c-2.22-1.27-3.48-4.06-4.15-7.94 c-0.67-3.88-0.75-8.85-0.6-14.5c0.15-5.64,0.52-11.96,0.76-18.53c0.24-6.57,0.33-13.39-0.07-20.05 c-0.24-3.93-0.65-7.83-1.13-11.47c-0.48-3.64-1.04-7.03-1.56-9.93c-0.52-2.9-1.02-5.32-1.38-7.02 c-0.36-1.71-0.59-2.7-0.59-2.75c0-0.36-0.16-0.82-0.38-1.31c-0.22-0.49-0.51-1.01-0.77-1.49c-0.26-0.48-0.49-0.92-0.61-1.24 C861.97,592.57,861.97,592.36,862.18,592.33z"/>
      <path class="st150" d="M862.18,592.33c4.17-0.59,7.12-1.47,10.74,0c6.62-3.46,18.97,3.11,17.32,9.17 c5.56,1.23,8.85,5.7,6.21,10.94c4.02,1.16,6.14,9.99,4.1,13.58c4.36,1.86,4.84,8.56,2.42,11.28c3.84,2.6,4.56,8.55,1.23,11.17 c3.81,2.61,3.46,11.2,0.17,13.69c3.67,2.99,2.2,7.38-0.83,10.75c3.26,2.67-1.67,9.31-5.82,9.4c2.46,3.33,0.91,6.37-2.74,6.59 c0.45,4.83-4.5,6.24-7.52,4.32c-4.88,4.15-4.3,2.86-6.19-0.15c-4.29,2.99-8.28-0.68-8.7-3.93c-2.22-1.27-3.48-4.06-4.15-7.94 c-0.67-3.88-0.75-8.85-0.6-14.5c0.15-5.64,0.52-11.96,0.76-18.53c0.24-6.57,0.33-13.39-0.07-20.05 c-0.24-3.93-0.65-7.83-1.13-11.47c-0.48-3.64-1.04-7.03-1.56-9.93c-0.52-2.9-1.02-5.32-1.38-7.02 c-0.36-1.71-0.59-2.7-0.59-2.75c0-0.36-0.16-0.82-0.38-1.31c-0.22-0.49-0.51-1.01-0.77-1.49c-0.26-0.48-0.49-0.92-0.61-1.24 C861.97,592.57,861.97,592.36,862.18,592.33z"/>
      <path class="st22" d="M835.12,674.55c-13.88,5.07-15.71,79.2-15.16,81.14c7.42,5.14,59.53,4.11,65.29-0.46 c0.18-7.64-1.1-57.31-14.48-77.12C862.93,666.49,842.1,667.27,835.12,674.55"/>
      <g>
        <defs>
          <path id="SVGID_00000042723782898012825590000003054169260710969990_" d="M835.12,674.55c-13.88,5.07-15.71,79.2-15.16,81.14 c7.42,5.14,59.53,4.11,65.29-0.46c0.18-7.64-1.1-57.31-14.48-77.12C862.93,666.49,842.1,667.27,835.12,674.55"/>
        </defs>
      </g>
      <path class="st150" d="M835.12,674.55c-13.88,5.07-15.71,79.2-15.16,81.14c7.42,5.14,59.53,4.11,65.29-0.46 c0.18-7.64-1.1-57.31-14.48-77.12C862.93,666.49,842.1,667.27,835.12,674.55z"/>
      <path class="st183" d="M868.24,705.86c-0.24-2.57-0.02-10.05-0.43-19.06"/>
      <path class="st183" d="M833.69,702.95c-0.13-3.06-0.45-6.91-0.01-17.39"/>
      <path class="st150" d="M851.06,705.03c0,15.29,0.84,39.76,1.19,53.76"/>
      <path class="st150" d="M867.67,736.27c5.26-0.18,10.85-0.19,16.17-1.05"/>
      <path class="st150" d="M835.54,736.26c-6.32-0.08-8.63-0.34-14.65-0.71"/>
      <path class="st184" d="M860.3,720.18c-0.96-0.24-1.55-0.36-1.81-0.64c-0.56-0.61-0.05-5.08,1.29-8.49 c0.98-2.49,2.32-4.12,4.49-4.68c3.26-0.84,6.87,0.15,8.45,2.08c2.77,3.41,1.32,9.17,0.56,12.53c-0.28,1.25-0.15,0.94-2.52,0.57 "/>
      <path class="st185" d="M834.3,703.53c-11.57-0.01-6.13,18.01,4.95,10.85c3.81-2.47,3.07-11.14-4.48-10.85 C834.45,703.55,834.73,703.53,834.3,703.53z"/>
      <path class="st186" d="M834.3,703.53c-11.57-0.01-6.13,18.01,4.95,10.85c3.81-2.47,3.07-11.14-4.48-10.85 C834.45,703.55,834.73,703.53,834.3,703.53z"/>
      <path class="st155" d="M834.55,707.24c-4.07,0-2.16,6.34,1.74,3.82c1.34-0.87,1.08-3.92-1.57-3.82 C834.6,707.24,834.7,707.24,834.55,707.24z"/>
      <path class="st22" d="M833.65,676.86c-0.59-0.18-2.16-3.37-3.23-2.3c-7.12,7.16-16.18,23.18-18.8,33.96 c-3.02,12.44,3.67,20.4,8.87,26.86c0.18,0.22,11.54,0.92,13.45,0.58c-1.37-3.06-8.31-18.22-8.45-22.44 c-0.1-3.19,0.67-8.76,2.45-16.3C830.15,687.91,834.2,677.17,833.65,676.86"/>
      <path class="st150" d="M829.11,675.58c-6.94,7.51-14.97,22.57-17.49,32.94c-3.02,12.44,3.67,20.4,8.87,26.86 c0.18,0.22,11.54,0.92,13.45,0.58c-1.37-3.06-8.31-18.22-8.45-22.44c-0.1-3.19,0.6-6,1.85-10.19"/>
      <path class="st22" d="M868.47,678.82c0.59-0.18,4.22-5.17,5.28-4.1c7.09,7.16,15.62,23.01,18.2,33.8 c2.98,12.44-3.74,20.4-8.95,26.86c-0.18,0.22-11.54,0.92-13.45,0.58c1.38-3.06,8.37-18.22,8.52-22.44 c0.11-3.19-0.76-8.74-2.4-16.3C873.66,687.91,867.92,679.13,868.47,678.82"/>
      <path class="st150" d="M873.79,674.41c6.92,7.51,15.69,23.74,18.17,34.11c2.98,12.44-3.01,20.35-8.22,26.81 c-0.18,0.22-12.27,0.97-14.18,0.64c1.38-3.06,8.37-18.22,8.52-22.44c0.11-3.19,0.3-4.11-2.11-11.65"/>
      <path class="st52" d="M837.02,675.53c-6.15,1.53,3.98,11.73,6.56,18.22c2.41,6.05,4.54,10.73,7.58,9.78 c3.85-1.2,8.56-9.37,10.44-12.25C873.83,672.58,846.87,680.16,837.02,675.53z"/>
      <path class="st161" d="M837.02,675.53c-6.15,1.53,3.98,11.73,6.56,18.22c2.41,6.05,4.54,10.73,7.58,9.78 c3.85-1.2,8.56-9.37,10.44-12.25C873.83,672.58,846.87,680.16,837.02,675.53z"/>
      <path class="st22" d="M832.25,672.35c-3.36,1.56-6.99,6.54-6.88,7.13c2.75,1.93,11.98,9.12,14.78,11.58 c-0.59,1.89-2.68,3.89-2.72,5.13c3.04,2.12,10.33,7.2,13.35,8.31C851.19,701.9,833.54,672.13,832.25,672.35z"/>
      <path class="st150" d="M832.25,672.35c-3.36,1.56-6.99,6.54-6.88,7.13c2.75,1.93,11.98,9.12,14.78,11.58 c-0.59,1.89-2.68,3.89-2.72,5.13c3.04,2.12,10.33,7.2,13.35,8.31C851.19,701.9,833.54,672.13,832.25,672.35z"/>
      <path class="st22" d="M871.34,670.5c1.6-0.5,5.79,7.32,5.96,7.91c-2.33,2.74-13.45,9.7-15.97,11.79 c1.06,1.22,1.77,2.72,2.68,4.04c-2.9,3.25-9.24,8.11-12.7,10.41c0.26-2.01,3.31-10.03,8.48-19.09 C864.41,677.47,870.92,670.8,871.34,670.5z"/>
      <path class="st150" d="M871.34,670.5c1.6-0.5,5.79,7.32,5.96,7.91c-2.33,2.74-13.45,9.7-15.97,11.79 c1.06,1.22,1.77,2.72,2.68,4.04c-2.9,3.25-9.24,8.11-12.7,10.41c0.26-2.01,3.31-10.03,8.48-19.09 C864.41,677.47,870.92,670.8,871.34,670.5z"/>
      <path class="st52" d="M849.43,683.55c14.01,1.22,28.32-8.72,33.83-19.36c4.53,0.42,7.31-1.11,9.28-3.14 c5.33-5.49,1.96-16-4.98-15.52c-0.45-9.43-0.89-13.52-6.22-25.11c-5.26-11.43-13.38-20.58-26.32-24.02 c-35.85-1.77-45.33,38.19-35.46,65.23C823.66,672.89,836.47,682.85,849.43,683.55"/>
      <g>
        <defs>
          <path id="SVGID_00000129912170189181374810000006815038429071954358_" d="M849.43,683.55c14.01,1.22,28.32-8.72,33.83-19.36 c4.53,0.42,7.31-1.11,9.28-3.14c5.33-5.49,1.96-16-4.98-15.52c-0.45-9.43-0.89-13.52-6.22-25.11 c-5.26-11.43-13.38-20.58-26.32-24.02c-35.85-1.77-45.33,38.19-35.46,65.23C823.66,672.89,836.47,682.85,849.43,683.55"/>
        </defs>
        <clipPath id="SVGID_00000096764783305581160940000008849493330773633447_">
          <path d="M849.43,683.55c14.01,1.22,28.32-8.72,33.83-19.36 c4.53,0.42,7.31-1.11,9.28-3.14c5.33-5.49,1.96-16-4.98-15.52c-0.45-9.43-0.89-13.52-6.22-25.11 c-5.26-11.43-13.38-20.58-26.32-24.02c-35.85-1.77-45.33,38.19-35.46,65.23C823.66,672.89,836.47,682.85,849.43,683.55" style="overflow: visible;"/>
        </clipPath>
        <path style="clip-path:url(#SVGID_00000096764783305581160940000008849493330773633447_);fill-rule:evenodd;clip-rule:evenodd;fill:#FFC1DC;" d=" M869.7,644.05c3.54,0.42,6.24,2.31,6.05,4.23c-0.2,1.91-3.22,3.13-6.76,2.71c-3.54-0.42-6.24-2.31-6.05-4.23 C863.14,644.85,866.17,643.63,869.7,644.05"/>
        <path style="clip-path:url(#SVGID_00000096764783305581160940000008849493330773633447_);fill-rule:evenodd;clip-rule:evenodd;fill:#FFC1DC;" d=" M834.22,640.86c3.54,0.42,6.24,2.31,6.05,4.23c-0.2,1.91-3.22,3.13-6.76,2.71c-3.54-0.42-6.24-2.31-6.05-4.23 C827.66,641.65,830.69,640.44,834.22,640.86"/>
      </g>
      <path class="st149" d="M849.43,683.55c14.01,1.22,28.32-8.72,33.83-19.36c4.53,0.42,7.31-1.11,9.28-3.14 c5.33-5.49,1.96-16-4.98-15.52c-0.45-9.43-0.89-13.52-6.22-25.11c-5.26-11.43-13.38-20.58-26.32-24.02 c-35.85-1.77-45.33,38.19-35.46,65.23C823.66,672.89,836.47,682.85,849.43,683.55z"/>
      <path class="st188" d="M862.46,627.55c3.65,0.14,7.11,0.46,10.57,1.77"/>
      <path class="st188" d="M844.62,625.07c-5.01-1.76-8.9-1.89-10.85-1.06"/>
      <path class="st27" d="M840.88,632.65c-1.75-0.13-3.25,1.13-3.35,2.81c-0.1,1.68,1.23,3.14,2.99,3.27 c1.75,0.12,3.25-1.14,3.36-2.82C843.96,634.24,842.63,632.78,840.88,632.65"/>
      <path class="st27" d="M863.89,635.15c-1.78-0.13-3.31,1.12-3.4,2.8c-0.1,1.68,1.26,3.15,3.05,3.28 c1.78,0.13,3.31-1.12,3.41-2.8C867.03,636.74,865.67,635.28,863.89,635.15"/>
      <path class="st38" d="M801.58,625.04c-3.81,1.52-7.45,4.41-5.03,9.58c-3.74,1.48-7.06,4.28-3.95,10.6 c-3.8,3.07-4.59,8.5-1.56,13.71c-3.93,3.99-0.59,12.51,3.88,12.62c-3.45,2.59-1.49,8.46,3.93,9.41 c-2.72,4.62-0.77,8.35,2.63,8.17c0.8,3.56,3.27,6.43,7.35,3.96c1.48,2.12,4.31,2.35,5.84,0.06c4.86,1.4,8.99-2.31,8.03-6.41 c2.96-1.5,7.25-8.58,1.87-10.46c3.44-3.26,3.13-6.19-0.53-9.48c3.19-2.46,4.03-5.74,0.37-10.27c2.76-0.82,5.53-5.57,2.8-10.08 c3.31-0.58,5.84-5.53,3.61-9.09c3.23-1.48,6.09-6.53,4.87-10.55c3.23,1.02,8-3.21,7.94-6.42c4.29,0.4,7.23-3.69,5.13-7.63 c4.39,1.02,8.76-2.57,8.36-6.19c3.81,1.2,7.59-1.6,8.29-4.86c4-1.84,7.41-8.09,6.04-10.33c-0.41-3.78-6.56-5.92-9.35-3.98 c-1.05-3.57-7.94-4.35-11.39-2.06c-0.92-3.21-9.23-3.75-11.24,1.32c-1.9-1.97-14.01-2-15,5.64c-1.96-1.74-8.4-2.14-9.91,5.11 c-6.13,1.54-4.82,7.28-4.41,8.74c-1.27,0.3-6.85,1.21-5.37,8.12C798.81,616.43,798.48,623.6,801.58,625.04z"/>
      <path class="st150" d="M801.58,625.04c-3.81,1.52-7.45,4.41-5.03,9.58c-3.74,1.48-7.06,4.28-3.95,10.6 c-3.8,3.07-4.59,8.5-1.56,13.71c-3.93,3.99-0.59,12.51,3.88,12.62c-3.45,2.59-1.49,8.46,3.93,9.41 c-2.72,4.62-0.77,8.35,2.63,8.17c0.8,3.56,3.27,6.43,7.35,3.96c1.48,2.12,4.31,2.35,5.84,0.06c4.86,1.4,8.99-2.31,8.03-6.41 c2.96-1.5,7.25-8.58,1.87-10.46c3.44-3.26,3.13-6.19-0.53-9.48c3.19-2.46,4.03-5.74,0.37-10.27c2.76-0.82,5.53-5.57,2.8-10.08 c3.31-0.58,5.84-5.53,3.61-9.09c3.23-1.48,6.09-6.53,4.87-10.55c3.23,1.02,8-3.21,7.94-6.42c4.29,0.4,7.23-3.69,5.13-7.63 c4.39,1.02,8.76-2.57,8.36-6.19c3.81,1.2,7.59-1.6,8.29-4.86c4-1.84,7.41-8.09,6.04-10.33c-0.41-3.78-6.56-5.92-9.35-3.98 c-1.05-3.57-7.94-4.35-11.39-2.06c-0.92-3.21-9.23-3.75-11.24,1.32c-1.9-1.97-14.01-2-15,5.64c-1.96-1.74-8.4-2.14-9.91,5.11 c-6.13,1.54-4.82,7.28-4.41,8.74c-1.27,0.3-6.85,1.21-5.37,8.12C798.81,616.43,798.48,623.6,801.58,625.04z"/>
      <path class="st157" d="M849.04,640.56c-2.02,2.31-2.51,6.99,3.63,7.26"/>
      <path class="st161" d="M888.1,651.16c3.04,0.03,2.95,5.46-0.38,6.56"/>
      <path class="st150" d="M814.31,614.92c-1.55,0.83-2.49,1.61-2.79,3.4"/>
      <path class="st150" d="M821.92,618.09c-0.56,0.77-1.4,1.8-2.09,2.47"/>
      <path class="st150" d="M830.32,621.56c-1.6,1.56-1.14,1.41-1.96,2.96"/>
      <path class="st150" d="M799.54,652.25c-0.39,1.07-1.03,2.54-1.04,3.67"/>
      <path class="st150" d="M804.74,653.88c-0.66,1.94-0.57,1.37-0.69,3.21"/>
      <path class="st150" d="M811.9,654.99c-0.12,0.58-0.92,3.09-0.86,3.36"/>
      <path class="st150" d="M819.02,656.26c-0.48,2.05-0.4,2.25-0.53,4.35"/>
      <path class="st189" d="M841,663.14c1.35,5.41,15.54,7.19,18.76,0.06"/>
    </g>
    <g>
      <path class="st52" d="M995.17,767.52c-0.02,0.5,0.7,14.34,6.21,19.37c2.07,1.89-1.03,3.68-2.99,3.86 c-2.97,0.28-18.22,2.18-19.64-1.63c-0.73-1.95,0.79-4.37,0.92-8.06c0.13-3.47,1.96-10.94,1.92-15.33 C981.56,763.02,995.18,767.15,995.17,767.52z"/>
      <path class="st150" d="M995.17,767.52c-0.02,0.5,0.7,14.34,6.21,19.37c2.07,1.89-1.03,3.68-2.99,3.86 c-2.97,0.28-18.22,2.18-19.64-1.63c-0.73-1.95,0.79-4.37,0.92-8.06c0.13-3.47,1.96-10.94,1.92-15.33 C981.56,763.02,995.18,767.15,995.17,767.52z"/>
      <path class="st52" d="M949.72,766.02c-0.02,0.5-1.41,13.54-7.36,18.04c-2.23,1.69,0.68,3.76,2.62,4.12 c2.93,0.55,17.95,3.84,19.71,0.19c0.91-1.88,0-4.57,0.2-8.26c0.19-3.47,0.6-8.01,1.05-12.37 C966.22,765.04,949.74,765.66,949.72,766.02z"/>
      <path class="st150" d="M949.72,766.02c-0.02,0.5-1.41,13.54-7.36,18.04c-2.23,1.69,0.68,3.76,2.62,4.12 c2.93,0.55,17.95,3.84,19.71,0.19c0.91-1.88,0-4.57,0.2-8.26c0.19-3.47,0.6-8.01,1.05-12.37 C966.22,765.04,949.74,765.66,949.72,766.02z"/>
      <path class="st54" d="M961.37,648.16c-6.68,0.31,1.57,8.18,4.19,12.23c2.44,3.78,7.61,6.91,10.68,6.32 c3.9-0.75,7.22-3.99,9.12-5.79c3.95-3.73,7.79-11.25,5.82-12.91C986.97,644.46,970.37,646.24,961.37,648.16z"/>
      <path class="st190" d="M961.37,648.16c-6.68,0.31,1.57,8.18,4.19,12.23c2.44,3.78,7.61,6.91,10.68,6.32 c3.9-0.75,7.22-3.99,9.12-5.79c3.95-3.73,7.79-11.25,5.82-12.91C986.97,644.46,970.37,646.24,961.37,648.16z"/>
      <path class="st56" d="M1002.36,787.73c1.33,1.83,3.02,2.75,4.31,3.58c3.44,2.22,5.92,4.74,2.67,7.74 c-2.21,2.04-14.52,3.19-20.71,1.27c-5.41-1.68-10.61-3.56-11.06-4.86c-0.77-2.27-0.7-13.35,0.61-11.85 c1.08,1.24,1.75,2.64,6.03,2.03c1.83-0.26,3.65-1.69,8.77-2.26C1000.33,782.58,1001.13,785.03,1002.36,787.73"/>
      <g>
        <defs>
          <path id="SVGID_00000141439613661698513410000000906365114147052458_" d="M1002.36,787.73c1.33,1.83,3.02,2.75,4.31,3.58 c3.44,2.22,5.92,4.74,2.67,7.74c-2.21,2.04-14.52,3.19-20.71,1.27c-5.41-1.68-10.61-3.56-11.06-4.86 c-0.77-2.27-0.7-13.35,0.61-11.85c1.08,1.24,1.75,2.64,6.03,2.03c1.83-0.26,3.65-1.69,8.77-2.26 C1000.33,782.58,1001.13,785.03,1002.36,787.73"/>
        </defs>
        <clipPath id="SVGID_00000078738492705857456920000012652490827306800302_">
          <path d="M1002.36,787.73c1.33,1.83,3.02,2.75,4.31,3.58 c3.44,2.22,5.92,4.74,2.67,7.74c-2.21,2.04-14.52,3.19-20.71,1.27c-5.41-1.68-10.61-3.56-11.06-4.86 c-0.77-2.27-0.7-13.35,0.61-11.85c1.08,1.24,1.75,2.64,6.03,2.03c1.83-0.26,3.65-1.69,8.77-2.26 C1000.33,782.58,1001.13,785.03,1002.36,787.73" style="overflow: visible;"/>
        </clipPath>
        <path style="clip-path:url(#SVGID_00000078738492705857456920000012652490827306800302_);fill-rule:evenodd;clip-rule:evenodd;fill:#212121;" d=" M977.56,790.51c2.44-0.61,6.91,3.51,8.69,4.53c4.93,2.84,19.69,0.75,21.82-1.18c5.34-4.85,14.27,5.73-13.62,9.03 c-2.97,0.35-12.24-0.27-13.7-2.5c-1.39-2.11-1.38-3.42-3.96-5.24c-0.94-0.67-1.58-3.43,0.58-4.46 C977.48,790.65,977.49,790.53,977.56,790.51"/>
      </g>
      <path class="st150" d="M1002.36,787.73c1.33,1.83,3.02,2.75,4.31,3.58c3.44,2.22,5.92,4.74,2.67,7.74 c-2.21,2.04-14.52,3.19-20.71,1.27c-5.41-1.68-10.61-3.56-11.06-4.86c-0.77-2.27-0.7-13.35,0.61-11.85 c1.08,1.24,1.75,2.64,6.03,2.03c1.83-0.26,3.65-1.69,8.77-2.26C1000.33,782.58,1001.13,785.03,1002.36,787.73z"/>
      <path class="st58" d="M946.03,794.9c1.48,0.06,20.03,1.07,20.08-1.42c0.11-5.67,4.37-7.37-8.62-5.98 c-1.88,0.2-6.65-0.57-11.55,0.54C937.38,790.01,929.75,794.29,946.03,794.9z"/>
      <path class="st165" d="M946.03,794.9c1.48,0.06,20.03,1.07,20.08-1.42c0.11-5.67,4.37-7.37-8.62-5.98 c-1.88,0.2-6.65-0.57-11.55,0.54C937.38,790.01,929.75,794.29,946.03,794.9z"/>
      <path class="st56" d="M942.97,781.83c-2.37,1.64-5.1,4.34-7.58,5.56c-2.38,1.17-4.62,2.04-6.62,3.29 c-2.8,1.77-2.8,5.61,0.69,6.83c9.51,2.32,20.98-0.85,27.1-1.24c3.38-0.06,7.4-0.23,9.55-1.39c2.12-1.12,0.36-11.78-0.11-11.8 c-2.38,1.46-14.31,4.09-15.23,2.07C949.63,782.62,946.23,781.85,942.97,781.83"/>
      <g>
        <defs>
          <path id="SVGID_00000096781089923716979770000007726773868517576832_" d="M942.97,781.83c-2.37,1.64-5.1,4.34-7.58,5.56 c-2.38,1.17-4.62,2.04-6.62,3.29c-2.8,1.77-2.8,5.61,0.69,6.83c9.51,2.32,20.98-0.85,27.1-1.24c3.38-0.06,7.4-0.23,9.55-1.39 c2.12-1.12,0.36-11.78-0.11-11.8c-2.38,1.46-14.31,4.09-15.23,2.07C949.63,782.62,946.23,781.85,942.97,781.83"/>
        </defs>
        <clipPath id="SVGID_00000099643670529347673010000005288832664913643448_">
          <path d="M942.97,781.83c-2.37,1.64-5.1,4.34-7.58,5.56 c-2.38,1.17-4.62,2.04-6.62,3.29c-2.8,1.77-2.8,5.61,0.69,6.83c9.51,2.32,20.98-0.85,27.1-1.24c3.38-0.06,7.4-0.23,9.55-1.39 c2.12-1.12,0.36-11.78-0.11-11.8c-2.38,1.46-14.31,4.09-15.23,2.07C949.63,782.62,946.23,781.85,942.97,781.83" style="overflow: visible;"/>
        </clipPath>
        <path style="clip-path:url(#SVGID_00000099643670529347673010000005288832664913643448_);fill-rule:evenodd;clip-rule:evenodd;fill:#212121;" d=" M927.42,791.57c1.07-0.29,1.22-0.7,1.51-0.34c6.3,7.93,27.05,0.05,31.71-0.4c2.67-0.26,5.42-0.69,7.05-2.53 c2.75-3.11,4.23,5.51,2.78,8.88c-1.65,3.8-0.4,2.6-7.16,4.53c-3.61,1.03-20.81,3.18-24.11,1.85 c-10.76-4.34-13.44-1.34-12.05-11.84C927.17,791.6,927.28,791.6,927.42,791.57"/>
      </g>
      <path class="st150" d="M942.97,781.83c-2.37,1.64-5.1,4.34-7.58,5.56c-2.38,1.17-4.62,2.04-6.62,3.29 c-2.8,1.77-2.8,5.61,0.69,6.83c9.51,2.32,20.98-0.85,27.1-1.24c3.38-0.06,7.4-0.23,9.55-1.39c2.12-1.12,0.36-11.78-0.11-11.8 c-2.38,1.46-14.31,4.09-15.23,2.07C949.63,782.62,946.23,781.85,942.97,781.83z"/>
      <path class="st61" d="M960.39,653.93c0-3.89-13.65,45.57-7.72,57.85c1.29,2.67,49.27,1.32,49.76-0.77 c2.2-9.32-5.36-40.8-5.96-47.37c-0.01-0.16-3.1-16.57-7.43-8.28C977.84,676.84,963,658.84,960.39,653.93z"/>
      <path class="st165" d="M960.39,653.93c0-3.89-13.65,45.57-7.72,57.85c1.29,2.67,49.27,1.32,49.76-0.77 c2.2-9.32-5.36-40.8-5.96-47.37c-0.01-0.16-3.1-16.57-7.43-8.28C977.84,676.84,963,658.84,960.39,653.93z"/>
      <path class="st62" d="M1004.95,787.08c-1.63,1.08-6.64-4.39-15.69-3.06c-10.37,1.52-11.89,10.29-13.63,8 c-0.17-3.88,2.16-46.76,2.22-61.21c-0.78-6.73-3.76-3.24-4.53-1.99c-1.86,7.66-5.72,56.59-5.41,61.86 c-3.03,2.15-11.11-2.51-18.58-4.37c-7.77-1.94-12.88,0.15-12.79-1.39c0.98-2.28,3.52-3.07,4.11-5.49 c3.7-15.06,9.64-51.32,11.56-69.1c3.88,0.28,19.6,2.94,30.97,2.11c7.2-0.52,13.41-2.92,19.81-4.4 c0.39-0.11-2.01,44.62-0.95,66.23C1002.35,780.56,1005.08,786.64,1004.95,787.08z"/>
      <path class="st150" d="M1004.95,787.08c-1.63,1.08-6.64-4.39-15.69-3.06c-10.37,1.52-11.89,10.29-13.63,8 c-0.17-3.88,2.16-46.76,2.22-61.21c-0.78-6.73-3.76-3.24-4.53-1.99c-1.86,7.66-5.72,56.59-5.41,61.86 c-3.03,2.15-11.11-2.51-18.58-4.37c-7.77-1.94-12.88,0.15-12.79-1.39c0.98-2.28,3.52-3.07,4.11-5.49 c3.7-15.06,9.64-51.32,11.56-69.1c3.88,0.28,19.6,2.94,30.97,2.11c7.2-0.52,13.41-2.92,19.81-4.4 c0.39-0.11-2.01,44.62-0.95,66.23C1002.35,780.56,1005.08,786.64,1004.95,787.08z"/>
      <path class="st22" d="M983.19,755.13c0.03-19.9-3.8-56.4-2.63-77.53c0.52-8.81,7.85-16.81,10.84-26.68 c0.72-0.99,0.9-2.57,3.27-0.61c4.91,4.06,7.57,14.64,9.89,22.74c6.21,21.74,7.74,72.37,7.32,80.46 C1009.59,754.75,999.41,754.86,983.19,755.13 M962.02,656.95c4.72,7.27,7.46,12.35,8.33,20.37c-0.02,0.83-0.11,1.48-0.19,2.19 l-7.96,75.65c-16.2,0.26-24.9-1.37-27.55-3.13c0.39-1.86,2.37-33.17,7.59-55.47c3.83-16.36,6.03-35.26,10.75-41.86 C956.32,650.05,959.91,652.47,962.02,656.95z"/>
      <g>
        <defs>
          <path id="SVGID_00000018933606875117540540000004657242254875935389_" d="M983.19,755.13c0.03-19.9-3.8-56.4-2.63-77.53 c0.52-8.81,7.85-16.81,10.84-26.68c0.72-0.99,0.9-2.57,3.27-0.61c4.91,4.06,7.57,14.64,9.89,22.74 c6.21,21.74,7.74,72.37,7.32,80.46C1009.59,754.75,999.41,754.86,983.19,755.13 M962.02,656.95 c4.72,7.27,7.46,12.35,8.33,20.37c-0.02,0.83-0.11,1.48-0.19,2.19l-7.96,75.65c-16.2,0.26-24.9-1.37-27.55-3.13 c0.39-1.86,2.37-33.17,7.59-55.47c3.83-16.36,6.03-35.26,10.75-41.86C956.32,650.05,959.91,652.47,962.02,656.95z"/>
        </defs>
      </g>
      <path class="st150" d="M983.19,755.13c0.03-19.9-3.8-56.4-2.63-77.53c0.52-8.81,7.85-16.81,10.84-26.68 c0.72-0.99,0.9-2.57,3.27-0.61c4.91,4.06,7.57,14.64,9.89,22.74c6.21,21.74,7.74,72.37,7.32,80.46 C1009.59,754.75,999.41,754.86,983.19,755.13z M962.02,656.95c4.72,7.27,7.46,12.35,8.33,20.37c-0.02,0.83-0.11,1.48-0.19,2.19 l-7.96,75.65c-16.2,0.26-24.9-1.37-27.55-3.13c0.39-1.86,2.37-33.17,7.59-55.47c3.83-16.36,6.03-35.26,10.75-41.86 C956.32,650.05,959.91,652.47,962.02,656.95z"/>
      <line class="st193" x1="995.7" y1="720.03" x2="1007.74" y2="718.1"/>
      <line class="st193" x1="954.42" y1="720.05" x2="941.45" y2="717.3"/>
      <path class="st54" d="M983.79,708.16c7.9,1.23,27.27-3.15,12.38-13.4c-4.45-3.07-12.38,1.24-12.38,3.84 C983.79,700,982.79,708,983.79,708.16z"/>
      <path class="st163" d="M983.79,708.16c7.9,1.23,27.27-3.15,12.38-13.4c-4.45-3.07-12.38,1.24-12.38,3.84 C983.79,700,982.79,708,983.79,708.16z"/>
      <path class="st54" d="M964.43,683.64c-7.9-1.23-27.27,3.15-12.38,13.4c4.45,3.07,12.38-1.24,12.38-3.84 C964.43,691.79,965.42,683.79,964.43,683.64z"/>
      <path class="st163" d="M964.43,683.64c-7.9-1.23-27.27,3.15-12.38,13.4c4.45,3.07,12.38-1.24,12.38-3.84 C964.43,691.79,965.42,683.79,964.43,683.64z"/>
      <path class="st22" d="M962.58,700.51c-0.56,1.15-0.32-18.72,1.96-18.55c7.05,0.51,36.4,3.71,37.01,2.03 c1.1-3.07,0.88-12.24-2.47-20.63c-2.16-5.43-4.26-9.62-3.78-10.23c7.29-3.87,19.91,18.77,22.53,34.36 c1.16,6.87-0.37,11.87-6.9,14.7C1000,706.92,973.14,701.6,962.58,700.51"/>
      <path class="st22" d="M985.27,708.22c0.56,1.15,3.78-5.13,1.5-5.16c-7.45-0.1-38.03-13.43-38.95-14.96 c-1.85-3.07,1.13-15.98,4.48-24.37c2.16-5.43,4.69-9.31,4.21-9.91c-0.67-0.57-4.44-0.29-4.94-0.61 c-7.97,2.77-15.45,21-17.69,34.28c-1.16,6.87,0.37,11.87,6.9,14.7C951.7,706.92,974.7,709.32,985.27,708.22"/>
      <path class="st150" d="M1002.35,655.16c6.32,6.58,13.77,21.95,15.58,32.66c1.16,6.87-0.46,11.59-7,14.38 c-5.22,2.22-13.89,2.23-22.71,1.5 M962.35,695.06c0.13-5.52,0.76-13.13,2.18-13.11c7.47,0.08,34.9,1.82,37.29,1.77 c0.49-2.13,0.01-3.66-0.87-10.66"/>
      <path class="st150" d="M952.27,652.77c-6.23,2.77-16.16,21.44-18.4,34.72c-1.16,6.87,0.37,11.87,6.9,14.7 c10.92,4.73,34.23,7.67,44.72,6.96c0.64-1.22,2.13-5.67,1.59-5.76c-3.95-0.63-13.73-3.24-21.91-6.49 c-9.19-3.65-16.89-7.98-17.37-8.8c-1.04-1.8-0.08-7.68,1.73-15.61"/>
      <path class="st183" d="M956.05,678.9c0.19-3.61-0.31-7.02,0.66-17.14"/>
      <path class="st66" d="M951.91,679.17c-4.68,3.42-0.03,13.47,8.01,8.27c2.41-1.56,2.71-5.99,0.14-8.15 C958.16,677.7,954,677.64,951.91,679.17z"/>
      <path class="st194" d="M951.91,679.17c-4.68,3.42-0.03,13.47,8.01,8.27c2.41-1.56,2.71-5.99,0.14-8.15 C958.16,677.7,954,677.64,951.91,679.17z"/>
      <path class="st195" d="M955.86,681.28c-3.51,0-1.86,5.46,1.5,3.29c1.16-0.75,0.93-3.38-1.36-3.29 C955.9,681.28,955.99,681.28,955.86,681.28z"/>
      <path class="st22" d="M958.69,649.33c-4.62,1.79-10.51,5.99-10.76,7.29c2.36,1.5,12.08,7.83,15.64,9.42 c-1.33,1.38-3.72,3.75-3.77,4.86c3.05,2.23,7.57,5.19,10.42,7.18c0.19-0.77,0.15-3.36-0.27-5.44 C968.04,663.28,959.73,652.03,958.69,649.33z"/>
      <path class="st150" d="M958.69,649.33c-4.62,1.79-10.51,5.99-10.76,7.29c2.36,1.5,12.08,7.83,15.64,9.42 c-1.33,1.38-3.72,3.75-3.77,4.86c3.05,2.23,7.57,5.19,10.42,7.18c0.19-0.77,0.15-3.36-0.27-5.44 C968.04,663.28,959.73,652.03,958.69,649.33z"/>
      <path class="st183" d="M995.64,678.05c-0.26-2.96,0.59-6.48,0.14-16.83"/>
      <path class="st184" d="M989.02,695.24c-1.07-0.05-1.73-0.06-2.06-0.31c-0.72-0.54-1.11-5.4-0.39-9.3 c0.53-2.85,1.61-4.87,3.81-5.92c3.29-1.57,7.35-1.27,9.42,0.47c3.65,3.05,3.3,9.49,3.19,13.23c-0.04,1.39,0.04,1.03-2.56,1.13"/>
      <path class="st22" d="M991.39,648.85c2.28,0.14,11.42,5.74,11.25,6.37c-2.76,2.46-12.5,7.87-15.48,9.75 c1.25,1.09,2.47,2.44,3.55,3.62c-1.22,1-6.07,6.18-10.09,8.54c-0.06-0.78,0.2-2.32,0.71-4.2 C983.56,664.78,990.55,649.3,991.39,648.85z"/>
      <path class="st150" d="M991.39,648.85c2.28,0.14,11.42,5.74,11.25,6.37c-2.76,2.46-12.5,7.87-15.48,9.75 c1.25,1.09,2.47,2.44,3.55,3.62c-1.22,1-6.07,6.18-10.09,8.54c-0.06-0.78,0.2-2.32,0.71-4.2 C983.56,664.78,990.55,649.3,991.39,648.85z"/>
      <path class="st70" d="M1008.64,598.67c2.34-0.82,4.12-0.46,5.43,0.68c2.41,2.08,2.76,6.8,3.19,11.65 c0.82,9.35-5.52,15.01-11.89,11.02C1000.62,618.89,1002.34,600.62,1008.64,598.67z"/>
      <path class="st196" d="M1008.64,598.67c2.34-0.82,4.12-0.46,5.43,0.68c2.41,2.08,2.76,6.8,3.19,11.65 c0.82,9.35-5.52,15.01-11.89,11.02C1000.62,618.89,1002.34,600.62,1008.64,598.67z"/>
      <path class="st70" d="M937.34,604.61c-2.45-0.39-4.15,0.22-5.27,1.48c-2.14,2.42-2.17,7.26-1.16,12.11 c0.64,3.08,1.08,7.49,3.4,9.54c2.6,2.29,7.21,1.92,10.17-0.64C948.63,623.22,943.88,605.48,937.34,604.61z"/>
      <path class="st197" d="M937.34,604.61c-2.45-0.39-4.15,0.22-5.27,1.48c-2.14,2.42-2.17,7.26-1.16,12.11 c0.64,3.08,1.08,7.49,3.4,9.54c2.6,2.29,7.21,1.92,10.17-0.64C948.63,623.22,943.88,605.48,937.34,604.61z"/>
      <path class="st198" d="M1011.53,606.33c1.18,0.97,1.8,6.03-0.3,7.45"/>
      <path class="st199" d="M935.08,611.96c-1.02,1.13-0.87,6.23,1.43,7.33"/>
      <path class="st70" d="M945.51,639.2c-4.87-6.76-4.86-13.5-6.3-22.44c-2.27-14.43-8-33.56,0.66-41.48 c7.77-7.1,21.56-5.91,30.33-6.54c8.76-0.83,24.34-6.88,32.8-0.73c9.41,6.84,5.39,28.52,5.74,42.95 c0.08,9.06,1.11,15.89-2.45,23.41C994.83,658.58,960.99,660.7,945.51,639.2"/>
      <g>
        <defs>
          <path id="SVGID_00000068636862050195522990000006067892051180119211_" d="M945.51,639.2c-4.87-6.76-4.86-13.5-6.3-22.44 c-2.27-14.43-8-33.56,0.66-41.48c7.77-7.1,21.56-5.91,30.33-6.54c8.76-0.83,24.34-6.88,32.8-0.73 c9.41,6.84,5.39,28.52,5.74,42.95c0.08,9.06,1.11,15.89-2.45,23.41C994.83,658.58,960.99,660.7,945.51,639.2"/>
        </defs>
      </g>
      <path class="st200" d="M945.51,639.2c-4.87-6.76-4.86-13.5-6.3-22.44c-2.27-14.43-8-33.56,0.67-41.48 c7.77-7.1,21.55-5.91,30.33-6.54c8.76-0.83,24.34-6.87,32.8-0.73c9.42,6.84,5.39,28.52,5.74,42.95 c0.08,9.06,1.11,15.89-2.45,23.41C994.83,658.58,960.99,660.7,945.51,639.2z"/>
      <path class="st27" d="M937.7,606.85c-2.06-1.26-2.94-1.37-4.02-2.1c-2.69-3.44-5.88-14.95-4.41-22.73 c0.63-3.31,2.66-5.8,5.01-6.93c-2.41-0.31-5.07,1.73-6.1,3.26c-0.17-4.08,1.16-6.89,2.56-9.41c1.65-2.98,4.08-4.92,6.47-6.71 c1.89-1.41,4.03-2.2,5.2-2.44c1.87-0.39,1.39-2.03-5.11-1c4.13-5.04,9.59-4.5,11.48-4.43c1.19,0.05-2.35-0.35-3.53-4.78 c-0.82-3.08,3.19,3.61,14.47,0.34c5.36-1.55,20.04-3.34,27.22,1.96c3.05,2.25,3.37,2.39,3.87,5.17 c5.59,0.44,9.36,1.87,12.52,3.75c13.36,7.97,10.89,25.1,8.72,37.68c-0.29,0.49-2.91,0.75-3.44,2.51 c0.1-1.03,1.18-12.51-7.03-12.74c-1.44-3.99-3.62-16.91-5.92-20.13c-2.07,3.91-17.66,7.52-27.6,8.71 c-10.04,1.2-11.65-0.63-14.17-0.21c-8.06,1.34-8.87,14.62-4.55,17.07c-4.78,2.46-9.91-2.65-12.18-4.52 C934.25,589.57,937.4,604.9,937.7,606.85z"/>
      <path class="st201" d="M937.7,606.85c-2.06-1.26-2.94-1.37-4.02-2.1c-2.69-3.44-5.88-14.95-4.41-22.73 c0.63-3.31,2.66-5.8,5.01-6.93c-2.41-0.31-5.07,1.73-6.1,3.26c-0.17-4.08,1.16-6.89,2.56-9.41c1.65-2.98,4.08-4.92,6.47-6.71 c1.89-1.41,4.03-2.2,5.2-2.44c1.87-0.39,1.39-2.03-5.11-1c4.13-5.04,9.59-4.5,11.48-4.43c1.19,0.05-2.35-0.35-3.53-4.78 c-0.82-3.08,3.19,3.61,14.47,0.34c5.36-1.55,20.04-3.34,27.22,1.96c3.05,2.25,3.37,2.39,3.87,5.17 c5.59,0.44,9.36,1.87,12.52,3.75c13.36,7.97,10.89,25.1,8.72,37.68c-0.29,0.49-2.91,0.75-3.44,2.51 c0.1-1.03,1.18-12.51-7.03-12.74c-1.44-3.99-3.62-16.91-5.92-20.13c-2.07,3.91-17.66,7.52-27.6,8.71 c-10.04,1.2-11.65-0.63-14.17-0.21c-8.06,1.34-8.87,14.62-4.55,17.07c-4.78,2.46-9.91-2.65-12.18-4.52 C934.25,589.57,937.4,604.9,937.7,606.85z"/>
      <path class="st202" d="M956.64,599.02c5.91-0.41,11.01,3.68,11.38,9.13c0.37,5.46-4.11,10.22-10.03,10.63 c-5.91,0.41-11.01-3.68-11.38-9.13C946.24,604.19,950.73,599.43,956.64,599.02z"/>
      <path class="st202" d="M988.28,596.81c5.91-0.41,11.01,3.68,11.38,9.13c0.37,5.46-4.11,10.22-10.03,10.63 c-5.91,0.41-11.01-3.68-11.38-9.13C977.88,601.98,982.37,597.22,988.28,596.81z"/>
      <line class="st203" x1="968.33" y1="605.15" x2="977.97" y2="604.47"/>
      <path class="st204" d="M946.6,598.15c2.95-3.71,9.92-4.67,13.92-4.04"/>
      <path class="st204" d="M997.54,594.66c-3.42-3.26-8.39-2.97-13.33-1.99"/>
      <path class="st27" d="M956.89,605.58c-0.34,0.62-0.27,1.36-0.08,2.15c0.37,1.51,2.22,2.43,3.89,2 c1.66-0.44,2.76-2.03,2.39-3.55c-0.13-0.53-0.28-1.18-0.66-1.49C960.79,603.34,958.04,603.46,956.89,605.58"/>
      <path class="st27" d="M982.78,603.79c-0.34,0.62-0.27,1.36-0.08,2.15c0.37,1.51,2.22,2.43,3.89,2 c1.66-0.44,2.76-2.03,2.39-3.55c-0.13-0.53-0.28-1.18-0.66-1.49C986.68,601.55,983.93,601.67,982.78,603.79"/>
      <path class="st205" d="M969.75,624.96c1.49,1.65,6.48,3.4,9.77-0.93"/>
      <path class="st206" d="M961.84,636.05c6.12,7.68,23.68,5.57,27.6-3.1"/>
    </g>
  </g>
</svg>
