<?xml version="1.0" encoding="utf-8"?>
<svg xmlns="http://www.w3.org/2000/svg" viewBox="440.0473 3323.4189 191.0701 231.1111" width="191.07px" height="231.111px">
  <defs>
    <style type="text/css">
	.st0{opacity:0.8;fill:#F0F0F0;}
	.st1{fill:#FFFFFF;}
	.st2{fill:none;stroke:#E51C52;stroke-width:1.5969;stroke-miterlimit:10;}
	.st3{fill:none;stroke:#000000;stroke-width:2;stroke-miterlimit:10;}
	.st4{fill:#E51C52;}
	.st5{opacity:0.05;fill:#E51C52;}
	.st6{fill:#FFE54D;}
	.st7{fill:#6ADBC6;}
	.st8{fill:#FF73C0;}
	.st9{fill:#D0D0D0;}
	.st10{fill:#ED4C5C;}
	.st11{fill:#0071B8;}
	.st12{fill:#616466;}
	.st13{fill:#FFCE31;}
	.st14{fill:#C79127;}
	.st15{fill:#94989B;}
	.st16{fill:#66CAF2;}
	.st17{fill:#B0BDC6;}
	.st18{fill:#CAD5DD;}
	.st19{fill:#DFE9EF;}
	.st20{clip-path:url(#SVGID_00000003788647492567396620000012193650055540771981_);}
	.st21{fill-rule:evenodd;clip-rule:evenodd;fill:#FFE1D2;}
	.st22{fill-rule:evenodd;clip-rule:evenodd;fill:#FFFFFF;}
	.st23{fill-rule:evenodd;clip-rule:evenodd;fill:#8DCCDD;}
	.st24{fill:#242424;}
	.st25{fill:#464646;}
	.st26{fill-rule:evenodd;clip-rule:evenodd;fill:#F6CB36;}
	.st27{fill-rule:evenodd;clip-rule:evenodd;}
	.st28{fill:#FF74AB;}
	.st29{clip-path:url(#SVGID_00000089567955497710894950000004564939106291094162_);}
	.st30{fill-rule:evenodd;clip-rule:evenodd;fill:#FFAFDB;}
	.st31{fill-rule:evenodd;clip-rule:evenodd;fill:#FFA5D1;}
	.st32{fill:#E4A374;}
	.st33{fill:#F2846B;}
	.st34{fill:#626262;}
	.st35{fill:#FF3D2B;}
	.st36{clip-path:url(#SVGID_00000072247754958669075860000003563604013372425393_);}
	.st37{fill-rule:evenodd;clip-rule:evenodd;fill:#FF8F71;}
	.st38{fill-rule:evenodd;clip-rule:evenodd;fill:#FF804E;}
	.st39{fill-rule:evenodd;clip-rule:evenodd;fill:#FFBCD3;}
	.st40{clip-path:url(#SVGID_00000044897576142351777560000005580061451103683720_);}
	.st41{fill-rule:evenodd;clip-rule:evenodd;fill:#FFC0DB;}
	.st42{fill:#FF5F49;}
	.st43{clip-path:url(#SVGID_00000037663531149197560620000016902674294341047205_);}
	.st44{fill-rule:evenodd;clip-rule:evenodd;fill:#EA6789;}
	.st45{fill-rule:evenodd;clip-rule:evenodd;fill:#FFDDD2;}
	.st46{fill-rule:evenodd;clip-rule:evenodd;fill:#463124;}
	.st47{clip-path:url(#SVGID_00000093876712289763696530000013491624063632452539_);}
	.st48{fill:#D9816D;}
	.st49{fill:#EEAC95;}
	.st50{fill-rule:evenodd;clip-rule:evenodd;fill:#ADECE4;}
	.st51{clip-path:url(#SVGID_00000060741536368871064450000000748190747862479003_);}
	.st52{fill-rule:evenodd;clip-rule:evenodd;fill:#FFE2D3;}
	.st53{fill:none;stroke:#000000;stroke-width:3.9615;stroke-linecap:round;stroke-linejoin:round;stroke-miterlimit:22.9256;}
	.st54{fill-rule:evenodd;clip-rule:evenodd;fill:#FFDECA;}
	.st55{fill:none;stroke:#985C3B;stroke-width:3.786;stroke-linecap:round;stroke-linejoin:round;stroke-miterlimit:22.9256;}
	.st56{fill-rule:evenodd;clip-rule:evenodd;fill:#454544;}

		.st57{clip-path:url(#SVGID_00000135690378772157544680000008592861349934607804_);fill-rule:evenodd;clip-rule:evenodd;fill:#212121;}
	.st58{fill-rule:evenodd;clip-rule:evenodd;fill:#676155;}
	.st59{fill:none;stroke:#000000;stroke-width:3.9615;stroke-miterlimit:22.9256;}

		.st60{clip-path:url(#SVGID_00000007392077890153935540000011798188029761511558_);fill-rule:evenodd;clip-rule:evenodd;fill:#212121;}
	.st61{fill-rule:evenodd;clip-rule:evenodd;fill:#ABABAB;}
	.st62{fill-rule:evenodd;clip-rule:evenodd;fill:#232323;}
	.st63{fill:none;stroke:#676155;stroke-width:3.9615;stroke-linecap:round;stroke-linejoin:round;stroke-miterlimit:22.9256;}
	.st64{fill:none;stroke:#000000;stroke-width:3.9615;stroke-linecap:round;stroke-miterlimit:22.9256;}
	.st65{fill:none;stroke:#49443B;stroke-width:3.4954;stroke-linecap:round;stroke-linejoin:round;stroke-miterlimit:22.9256;}
	.st66{fill-rule:evenodd;clip-rule:evenodd;fill:#A7F9FD;}
	.st67{fill:none;stroke:#000000;stroke-width:3.786;stroke-linecap:round;stroke-linejoin:round;stroke-miterlimit:22.9256;}
	.st68{fill:none;stroke:#49443B;stroke-width:2.3303;stroke-linecap:round;stroke-linejoin:round;stroke-miterlimit:22.9256;}
	.st69{fill:none;stroke:#25231E;stroke-width:5.126;stroke-linecap:round;stroke-linejoin:round;stroke-miterlimit:22.9256;}
	.st70{fill-rule:evenodd;clip-rule:evenodd;fill:#F9DDCB;}
	.st71{fill:none;stroke:#25231E;stroke-width:3.9376;stroke-linecap:round;stroke-miterlimit:22.9256;}
	.st72{fill:none;stroke:#25231E;stroke-width:3.9394;stroke-linecap:round;stroke-miterlimit:22.9256;}
	.st73{fill:none;stroke:#25231E;stroke-width:3.1379;stroke-linecap:round;stroke-linejoin:round;stroke-miterlimit:22.9256;}
	.st74{fill:none;stroke:#25231E;stroke-width:3.1391;stroke-linecap:round;stroke-linejoin:round;stroke-miterlimit:22.9256;}
	.st75{fill:none;stroke:#25231E;stroke-width:3.9365;stroke-linecap:round;stroke-miterlimit:22.9256;}
	.st76{fill:none;stroke:#25231E;stroke-width:3.9277;stroke-linecap:round;stroke-linejoin:round;stroke-miterlimit:22.9256;}
	.st77{fill:none;stroke:#25231E;stroke-width:3.9273;stroke-linecap:round;stroke-linejoin:round;stroke-miterlimit:22.9256;}
	.st78{fill:none;stroke:#000000;stroke-width:3.9502;stroke-linecap:round;stroke-linejoin:round;stroke-miterlimit:22.9256;}
	.st79{fill:none;stroke:#25231E;stroke-width:4.7033;stroke-linecap:round;stroke-linejoin:round;stroke-miterlimit:22.9256;}
	.st80{fill:none;stroke:#25231E;stroke-width:4.7034;stroke-linecap:round;stroke-linejoin:round;stroke-miterlimit:22.9256;}
	.st81{fill:none;stroke:#25231E;stroke-width:3.9205;stroke-linecap:round;stroke-linejoin:round;stroke-miterlimit:22.9256;}
	.st82{fill:none;stroke:#C77246;stroke-width:4.7435;stroke-linecap:round;stroke-linejoin:round;stroke-miterlimit:22.9256;}
	.st83{clip-path:url(#SVGID_00000016775293371546092900000002987567014225728181_);}

		.st84{clip-path:url(#SVGID_00000151530495823522347790000001813150801217652912_);fill-rule:evenodd;clip-rule:evenodd;fill:#212121;}

		.st85{clip-path:url(#SVGID_00000159471713327028222550000011061486234049569179_);fill-rule:evenodd;clip-rule:evenodd;fill:#212121;}
	.st86{clip-path:url(#SVGID_00000108992935789586809350000010601311867958218941_);}

		.st87{clip-path:url(#SVGID_00000143586364811497997400000014987830311737532333_);fill-rule:evenodd;clip-rule:evenodd;fill:#212121;}

		.st88{clip-path:url(#SVGID_00000070824730279333431960000001740627053997239684_);fill-rule:evenodd;clip-rule:evenodd;fill:#212121;}
	.st89{clip-path:url(#SVGID_00000074430970795564153050000002217589742953714849_);}

		.st90{clip-path:url(#SVGID_00000109741731289495235600000017975313795970905239_);fill-rule:evenodd;clip-rule:evenodd;fill:#212121;}

		.st91{clip-path:url(#SVGID_00000021090089985969369580000015298764592402587041_);fill-rule:evenodd;clip-rule:evenodd;fill:#212121;}
	.st92{clip-path:url(#SVGID_00000004526927032962449650000012296599214677944767_);}

		.st93{clip-path:url(#SVGID_00000181793784863840742230000000963403634937846207_);fill-rule:evenodd;clip-rule:evenodd;fill:#212121;}

		.st94{clip-path:url(#SVGID_00000088128435907882526810000008452392843776641214_);fill-rule:evenodd;clip-rule:evenodd;fill:#212121;}
	.st95{clip-path:url(#SVGID_00000070113327048708011590000008444599769837744828_);}

		.st96{clip-path:url(#SVGID_00000127043297344388553280000005896812187696379547_);fill-rule:evenodd;clip-rule:evenodd;fill:#212121;}

		.st97{clip-path:url(#SVGID_00000067205833948816596680000004138472364054595004_);fill-rule:evenodd;clip-rule:evenodd;fill:#212121;}
	.st98{opacity:0.3;fill:none;stroke:#000000;stroke-miterlimit:10;}
	.st99{fill:none;stroke:#707070;stroke-miterlimit:10;}
	.st100{clip-path:url(#SVGID_00000172441502015638981160000003839626173466597013_);}
	.st101{clip-path:url(#SVGID_00000103951293729007100510000007477648581370459803_);}
	.st102{clip-path:url(#SVGID_00000050657637020267698730000007794497233976850566_);}
	.st103{clip-path:url(#SVGID_00000174591829408416664060000005413568335083643807_);}
	.st104{clip-path:url(#SVGID_00000180338214505715203030000011210933480113110971_);}
	.st105{fill:#FDFEFF;}
	.st106{fill:#F3F3F3;}
	.st107{fill:none;stroke:#000000;stroke-width:5;stroke-miterlimit:10;}
	.st108{clip-path:url(#SVGID_00000093174670025935718900000004200262371505239719_);}
	.st109{clip-path:url(#SVGID_00000131345553559926493210000012372558883472805050_);}
	.st110{opacity:0.2;}
	.st111{fill:#C6C6C6;}
	.st112{fill:#7F7F7F;}
	.st113{opacity:0.8;fill:#939292;}
	.st114{clip-path:url(#SVGID_00000170275066756171548760000003794827903270323860_);}

		.st115{fill-rule:evenodd;clip-rule:evenodd;fill:none;stroke:#242424;stroke-width:5.5337;stroke-linecap:round;stroke-linejoin:round;stroke-miterlimit:10;}
	.st116{opacity:0.4;}
	.st117{fill:#FFFFFF;stroke:#3F3F3F;stroke-miterlimit:10;}
	.st118{fill:#FFFFFF;stroke:#3F3F3F;stroke-width:2;stroke-miterlimit:10;}
	.st119{fill:#FFFFFF;stroke:#3F3F3F;stroke-width:0.8;stroke-miterlimit:10;}
	.st120{fill:#D13655;}
	.st121{clip-path:url(#SVGID_00000001645614145499293370000011963422717575814543_);}
	.st122{fill:none;stroke:#A8A8A8;stroke-miterlimit:10;}
	.st123{fill:none;stroke:#000000;stroke-width:1.3778;stroke-miterlimit:10;}
	.st124{fill:none;stroke:#000000;stroke-width:1.439;stroke-miterlimit:10;}
	.st125{clip-path:url(#SVGID_00000072965451409974378020000000868710327948758701_);}
	.st126{opacity:0.7;}
	.st127{clip-path:url(#SVGID_00000085954280213685244220000014527844347993614238_);}
	.st128{clip-path:url(#SVGID_00000028309771471314923460000003696619814257554623_);}
	.st129{opacity:0.3;}
	.st130{clip-path:url(#SVGID_00000160170320589839325040000012754120665731856814_);}
	.st131{clip-path:url(#SVGID_00000145755904753650518990000005116092505799524540_);}
	.st132{clip-path:url(#SVGID_00000131331958205791536760000002127501862531401127_);}
	.st133{clip-path:url(#SVGID_00000065065577504918169420000013169645494663246519_);}
	.st134{clip-path:url(#SVGID_00000068647798024654570140000009357037845125757585_);}
	.st135{clip-path:url(#SVGID_00000069369026445231178910000016023766511731348900_);}
	.st136{fill:none;stroke:#EFEFEF;stroke-width:0.9914;stroke-miterlimit:10;}
	.st137{fill:none;stroke:#E51C52;stroke-miterlimit:10;}
	.st138{fill:none;stroke:#020202;stroke-miterlimit:10;}
	.st139{opacity:0.9;}
	.st140{fill:#DBDBDB;}
	.st141{opacity:0.6;fill:#FFFFFF;}
	.st142{fill:#FFFFFF;stroke:#646464;stroke-miterlimit:10;}
	.st143{fill:none;stroke:#1E1E1E;stroke-width:0.8107;stroke-miterlimit:10;}
	.st144{fill:none;stroke:#000000;stroke-width:0.8107;stroke-miterlimit:10;}
	.st145{clip-path:url(#SVGID_00000065779454238800097010000012198490344685555355_);}
	.st146{clip-path:url(#SVGID_00000106829392083777699210000004120409257141701305_);}
	.st147{fill:none;stroke:#000000;stroke-width:2.4522;stroke-linejoin:round;stroke-miterlimit:22.9256;}
	.st148{fill:none;stroke:#000000;stroke-width:2.4522;stroke-linecap:round;stroke-linejoin:round;stroke-miterlimit:22.9256;}
	.st149{fill-rule:evenodd;clip-rule:evenodd;fill:#8ECDDE;}
	.st150{fill:none;stroke:#25231E;stroke-width:2.4522;stroke-linecap:round;stroke-linejoin:round;stroke-miterlimit:22.9256;}
	.st151{fill:none;stroke:#000000;stroke-width:1.803;stroke-linejoin:round;stroke-miterlimit:22.9256;}
	.st152{fill:none;stroke:#25231E;stroke-width:2.0551;stroke-linecap:round;stroke-linejoin:round;stroke-miterlimit:22.9256;}
	.st153{fill:none;stroke:#49443B;stroke-width:2.4522;stroke-linecap:round;stroke-linejoin:round;stroke-miterlimit:22.9256;}
	.st154{fill:none;stroke:#25231E;stroke-width:1.803;stroke-linecap:round;stroke-linejoin:round;stroke-miterlimit:22.9256;}
	.st155{fill:none;stroke:#000000;stroke-width:2.1636;stroke-linecap:round;stroke-linejoin:round;stroke-miterlimit:22.9256;}
	.st156{fill-rule:evenodd;clip-rule:evenodd;fill:#F7CC36;}
	.st157{fill-rule:evenodd;clip-rule:evenodd;fill:#FFFBDE;}
	.st158{fill:none;stroke:#000000;stroke-width:1.6945;stroke-linecap:round;stroke-linejoin:round;stroke-miterlimit:22.9256;}
	.st159{fill:none;stroke:#000000;stroke-width:1.803;stroke-linecap:round;stroke-linejoin:round;stroke-miterlimit:22.9256;}
	.st160{fill:none;stroke:#FF74AC;stroke-width:2.5239;stroke-linecap:round;stroke-linejoin:round;stroke-miterlimit:22.9256;}
	.st161{fill:none;stroke:#000000;stroke-width:2.4522;stroke-linecap:round;stroke-miterlimit:22.9256;}
	.st162{fill-rule:evenodd;clip-rule:evenodd;fill:#FFB0DC;}
	.st163{fill:none;stroke:#000000;stroke-width:2.4522;stroke-miterlimit:22.9256;}
	.st164{fill-rule:evenodd;clip-rule:evenodd;fill:#FFA6D2;}
	.st165{fill:none;stroke:#E5A474;stroke-width:1.3151;stroke-linecap:round;stroke-linejoin:round;stroke-miterlimit:22.9256;}
	.st166{fill:none;stroke:#000000;stroke-width:2.7402;stroke-linecap:round;stroke-linejoin:round;stroke-miterlimit:22.9256;}
	.st167{fill:none;stroke:#F3846B;stroke-width:3.1729;stroke-linecap:round;stroke-linejoin:round;stroke-miterlimit:22.9256;}
	.st168{fill:none;stroke:#000000;stroke-width:0.5482;stroke-miterlimit:22.9256;}
	.st169{fill:none;stroke:#676155;stroke-width:1.803;stroke-linecap:round;stroke-linejoin:round;stroke-miterlimit:22.9256;}
	.st170{fill:none;stroke:#000000;stroke-width:5.4091;stroke-miterlimit:22.9256;}
	.st171{fill-rule:evenodd;clip-rule:evenodd;fill:#EB678A;}
	.st172{fill-rule:evenodd;clip-rule:evenodd;fill:#FFDED3;}
	.st173{fill:none;stroke:#000000;stroke-width:1.7309;stroke-linecap:round;stroke-linejoin:round;stroke-miterlimit:22.9256;}
	.st174{fill-rule:evenodd;clip-rule:evenodd;fill:#472F1D;}

		.st175{clip-path:url(#SVGID_00000087408993735930648840000006729897317083606933_);fill-rule:evenodd;clip-rule:evenodd;fill:#FFFBDE;}
	.st176{fill:none;stroke:#DB816D;stroke-width:1.803;stroke-linecap:round;stroke-linejoin:round;stroke-miterlimit:22.9256;}
	.st177{fill:none;stroke:#000000;stroke-width:3.1729;stroke-linecap:round;stroke-linejoin:round;stroke-miterlimit:22.9256;}
	.st178{fill:none;stroke:#EFAD96;stroke-width:1.803;stroke-linecap:round;stroke-linejoin:round;stroke-miterlimit:22.9256;}
	.st179{fill-rule:evenodd;clip-rule:evenodd;fill:#AEEDE5;}
	.st180{fill-rule:evenodd;clip-rule:evenodd;fill:#FF9071;}
	.st181{fill:none;stroke:#49443B;stroke-width:2.1636;stroke-linecap:round;stroke-linejoin:round;stroke-miterlimit:22.9256;}
	.st182{fill:none;stroke:#25231E;stroke-width:3.1729;stroke-linecap:round;stroke-linejoin:round;stroke-miterlimit:22.9256;}
	.st183{fill-rule:evenodd;clip-rule:evenodd;fill:#FFBCD4;}
	.st184{fill:none;stroke:#25231E;stroke-width:2.3435;stroke-linecap:round;stroke-linejoin:round;stroke-miterlimit:22.9256;}

		.st185{clip-path:url(#SVGID_00000078007515909940658280000001915293939782399913_);fill-rule:evenodd;clip-rule:evenodd;fill:#FFC1DC;}
	.st186{fill:none;stroke:#000000;stroke-width:2.8848;stroke-linecap:round;stroke-linejoin:round;stroke-miterlimit:22.9256;}
	.st187{fill:none;stroke:#FF5F49;stroke-width:3.606;stroke-linecap:round;stroke-miterlimit:22.9256;}
	.st188{fill:none;stroke:#985C3B;stroke-width:2.3435;stroke-linecap:round;stroke-linejoin:round;stroke-miterlimit:22.9256;}

		.st189{clip-path:url(#SVGID_00000085936699385710682180000004427463841377896081_);fill-rule:evenodd;clip-rule:evenodd;fill:#212121;}

		.st190{clip-path:url(#SVGID_00000023248465632559320100000013734132225464717230_);fill-rule:evenodd;clip-rule:evenodd;fill:#212121;}
	.st191{fill:none;stroke:#676155;stroke-width:2.4522;stroke-linecap:round;stroke-linejoin:round;stroke-miterlimit:22.9256;}
	.st192{fill:none;stroke:#000000;stroke-width:2.3435;stroke-linecap:round;stroke-linejoin:round;stroke-miterlimit:22.9256;}
	.st193{fill:none;stroke:#49443B;stroke-width:1.4425;stroke-linecap:round;stroke-linejoin:round;stroke-miterlimit:22.9256;}
	.st194{fill:none;stroke:#25231E;stroke-width:2.4374;stroke-linecap:round;stroke-miterlimit:22.9256;}
	.st195{fill:none;stroke:#25231E;stroke-width:2.4385;stroke-linecap:round;stroke-miterlimit:22.9256;}
	.st196{fill:none;stroke:#25231E;stroke-width:1.9423;stroke-linecap:round;stroke-linejoin:round;stroke-miterlimit:22.9256;}
	.st197{fill:none;stroke:#25231E;stroke-width:1.9431;stroke-linecap:round;stroke-linejoin:round;stroke-miterlimit:22.9256;}
	.st198{fill:none;stroke:#25231E;stroke-width:2.4367;stroke-linecap:round;stroke-miterlimit:22.9256;}
	.st199{fill:none;stroke:#25231E;stroke-width:2.4312;stroke-linecap:round;stroke-linejoin:round;stroke-miterlimit:22.9256;}
	.st200{fill:none;stroke:#25231E;stroke-width:2.431;stroke-linecap:round;stroke-linejoin:round;stroke-miterlimit:22.9256;}
	.st201{fill:none;stroke:#000000;stroke-width:2.4452;stroke-linecap:round;stroke-linejoin:round;stroke-miterlimit:22.9256;}
	.st202{fill:none;stroke:#25231E;stroke-width:2.9113;stroke-linecap:round;stroke-linejoin:round;stroke-miterlimit:22.9256;}
	.st203{fill:none;stroke:#25231E;stroke-width:2.4268;stroke-linecap:round;stroke-linejoin:round;stroke-miterlimit:22.9256;}
	.st204{fill:none;stroke:#C77246;stroke-width:2.9362;stroke-linecap:round;stroke-linejoin:round;stroke-miterlimit:22.9256;}
	.st205{opacity:0.3;fill:none;stroke:#000000;stroke-width:0.9807;stroke-miterlimit:10;}
	.st206{fill:none;stroke:#000000;stroke-width:0.9293;stroke-miterlimit:10;}
	.st207{fill:#C8C8C8;}
	.st208{fill:none;stroke:#E51C52;stroke-width:1.0718;stroke-miterlimit:10;}
	.st209{fill:none;stroke:#E51C52;stroke-width:6.6768;stroke-linecap:round;stroke-miterlimit:10;}
	.st210{clip-path:url(#SVGID_00000176738432661664411420000017872582413361927861_);}

		.st211{clip-path:url(#SVGID_00000075878649049108699950000012602750618253841328_);fill-rule:evenodd;clip-rule:evenodd;fill:#212121;}

		.st212{clip-path:url(#SVGID_00000001639441816106894070000017217587151309172115_);fill-rule:evenodd;clip-rule:evenodd;fill:#212121;}
	.st213{clip-path:url(#SVGID_00000147902277218530063270000009912045633415782530_);}
	.st214{clip-path:url(#SVGID_00000139258901773741113860000002812604289060177843_);}
	.st215{fill:none;stroke:#646464;stroke-miterlimit:10;}
	.st216{clip-path:url(#SVGID_00000057112469538511238290000003823846996822189465_);}
	.st217{font-family:'Roboto-Light';}
	.st218{font-size:25.7955px;}
	.st219{fill:none;stroke:#1E1E1E;stroke-width:0.7803;stroke-miterlimit:10;}
	.st220{fill:none;stroke:#FFFFFF;stroke-miterlimit:10;}
	.st221{clip-path:url(#SVGID_00000173147583925092145390000006073812267182479269_);}
	.st222{clip-path:url(#SVGID_00000125592778046165089470000002499948703258167462_);}
	.st223{clip-path:url(#SVGID_00000141432408200947437870000009064541348052305590_);}
	.st224{font-family:'Roboto-Medium';}
	.st225{font-size:27.4203px;}
	.st226{fill:#EBFF2C;}
	.st227{fill-rule:evenodd;clip-rule:evenodd;fill:#F9E2D3;}
	.st228{fill:#322C2B;}
	.st229{fill-rule:evenodd;clip-rule:evenodd;fill:#FDFDFD;}
	.st230{opacity:0.29;}
	.st231{fill-rule:evenodd;clip-rule:evenodd;fill:#322C2B;}
	.st232{fill-rule:evenodd;clip-rule:evenodd;fill:#F2AFDB;}
	.st233{fill-rule:evenodd;clip-rule:evenodd;fill:#F1A5D2;}
	.st234{fill:#E6A573;}
	.st235{fill:#ED836A;}
	.st236{fill:#757475;}
	.st237{fill-rule:evenodd;clip-rule:evenodd;fill:#E93323;}
	.st238{fill-rule:evenodd;clip-rule:evenodd;fill:#F6CD46;}
	.st239{fill-rule:evenodd;clip-rule:evenodd;fill:#AAABAB;}
	.st240{fill-rule:evenodd;clip-rule:evenodd;fill:#8ECEDF;}
	.st241{fill-rule:evenodd;clip-rule:evenodd;fill:#464443;}
	.st242{fill-rule:evenodd;clip-rule:evenodd;fill:#F8DDCB;}
	.st243{fill:#A1664E;}
	.st244{fill-rule:evenodd;clip-rule:evenodd;fill:#5F5D5D;}
	.st245{clip-path:url(#SVGID_00000049179723481740907140000011744995289819190691_);}
	.st246{fill:#8A8A8B;}
	.st247{fill-rule:evenodd;clip-rule:evenodd;fill:#757475;}
	.st248{clip-path:url(#SVGID_00000122708806388054160990000010699471242135169683_);}
	.st249{fill:#A0A0A0;}
	.st250{fill-rule:evenodd;clip-rule:evenodd;fill:#B5B5B6;}
	.st251{fill:#5F5D5D;}
	.st252{fill-rule:evenodd;clip-rule:evenodd;fill:#A8FAFD;}
	.st253{fill:#464443;}
	.st254{fill-rule:evenodd;clip-rule:evenodd;fill:#5878C4;}
	.st255{fill-rule:evenodd;clip-rule:evenodd;fill:#F9E0D1;}
	.st256{fill:#C77347;}
	.st257{fill-rule:evenodd;clip-rule:evenodd;fill:#ED7D4B;}
	.st258{fill-rule:evenodd;clip-rule:evenodd;fill:#EE8D6F;}
	.st259{fill-rule:evenodd;clip-rule:evenodd;fill:#F4BCD4;}
	.st260{fill-rule:evenodd;clip-rule:evenodd;fill:#F4C1DC;}
	.st261{fill:#EB5A45;}
	.st262{fill-rule:evenodd;clip-rule:evenodd;fill:#F2C68B;}
	.st263{fill-rule:evenodd;clip-rule:evenodd;fill:#FBEBCA;}
	.st264{fill-rule:evenodd;clip-rule:evenodd;fill:#EEE45D;}
	.st265{fill-rule:evenodd;clip-rule:evenodd;fill:#FDF9A6;}
	.st266{fill:#EC72AC;}
	.st267{fill-rule:evenodd;clip-rule:evenodd;fill:#EF9670;}
	.st268{fill-rule:evenodd;clip-rule:evenodd;fill:#F8DDD3;}
	.st269{fill-rule:evenodd;clip-rule:evenodd;fill:#583F33;}
	.st270{clip-path:url(#SVGID_00000005951215805644146780000001177475302150972544_);}
	.st271{fill:#DB816D;}
	.st272{fill:#F0AE96;}
	.st273{fill-rule:evenodd;clip-rule:evenodd;fill:#AEEEE6;}
	.st274{fill:none;stroke:#E51C52;stroke-width:7.7112;stroke-linecap:round;stroke-miterlimit:10;}
	.st275{clip-path:url(#SVGID_00000054950551246531324940000003710823615002347181_);}
	.st276{clip-path:url(#SVGID_00000093148265540407866360000012033833716041609620_);}
	.st277{clip-path:url(#SVGID_00000117668532859298909870000013058671757576250038_);}
	.st278{clip-path:url(#SVGID_00000007423921953304727460000012125114555699330481_);}
	.st279{clip-path:url(#SVGID_00000118376168651265113420000011280988601062696603_);}
	.st280{clip-path:url(#SVGID_00000039113208727272009860000018320019637984095410_);}
	.st281{clip-path:url(#SVGID_00000031165033760197733750000005611723197208037820_);}
	.st282{clip-path:url(#SVGID_00000109026055774964319360000000870413803839614628_);}
	.st283{fill:none;stroke:#E52C52;stroke-miterlimit:10;}
	.st284{fill:#2C88C6;}
</style>
  </defs>
  <clipPath id="SVGID_00000039131900013658465660000014387638036369565335_">
    <path d="M639.45,3554.53H246.39 c-18.09,0-32.89-14.8-32.89-32.89V3330.3c0-18.09,14.8-32.89,32.89-32.89h393.06c18.09,0,32.89,14.8,32.89,32.89v191.33 C672.35,3539.73,657.55,3554.53,639.45,3554.53z" style="overflow: visible;"/>
  </clipPath>
  <g style="clip-path:url(#SVGID_00000039131900013658465660000014387638036369565335_);">
    <g>
      <path class="st21" d="M549.55,3605.56c1.97,7.15,5.61,37.35,6.68,44.86c0.35,2.44-3.92,13.86,1.12,16.54 c7.35,2.36,29.49,5.45,32.38-1.15c3.1-7.09-5.02-9.92-8.96-16.03c-1.47-0.5-1.05-3.14-0.83-8.66 c1.47-37.72,7.87-76.15-14.98-73.5C555.18,3567.34,543.04,3571.61,549.55,3605.56z"/>
    </g>
    <g>
      <path d="M577.17,3671.87c-8.11,0-17.14-1.84-20.46-2.91l-0.34-0.14c-5.01-2.66-3.6-10.14-2.67-15.08 c0.21-1.1,0.49-2.62,0.46-3.04c-0.24-1.7-0.62-4.59-1.08-8.11c-1.52-11.63-4.06-31.08-5.55-36.46l-0.04-0.16 c-3.3-17.2-2.28-28.64,3.11-34.97c3.26-3.83,7.94-5.6,14.28-5.45c4.89-0.54,8.89,0.64,11.9,3.48 c8.91,8.41,7.64,29.96,6.16,54.9c-0.33,5.66-0.68,11.5-0.91,17.3c-0.04,0.92-0.08,1.75-0.11,2.51 c-0.08,1.7-0.17,3.45-0.05,4.21l0.27,0.09l0.4,0.61c1.15,1.78,2.78,3.32,4.35,4.81c3.49,3.31,7.45,7.07,4.77,13.19 C589.93,3670.62,583.86,3671.87,577.17,3671.87z M558.21,3665.03c8.5,2.66,27.68,4.33,29.61-0.06 c1.43-3.28-0.23-5.06-3.81-8.46c-1.54-1.46-3.27-3.1-4.65-5.08c-1.95-1.19-1.81-3.95-1.62-7.91c0.04-0.75,0.08-1.57,0.11-2.47 c0.23-5.83,0.57-11.7,0.91-17.38c1.35-22.9,2.63-44.53-4.86-51.6c-2.13-2.01-4.98-2.78-8.69-2.35l-0.15,0.02l-0.15-0.01 c-5.15-0.12-8.67,1.11-11.11,3.98c-4.44,5.22-5.18,15.77-2.2,31.38c1.57,5.76,4.02,24.52,5.64,36.95 c0.46,3.51,0.83,6.38,1.08,8.08c0.14,0.97-0.07,2.17-0.49,4.39C557.22,3657.72,556.1,3663.65,558.21,3665.03z"/>
    </g>
    <g>
      <path class="st22" d="M555.08,3651.21c-1.61,2.13-1.74,10.66,0.03,13.34c3.62,5.49,46.22,11.66,40.02-0.39 c-1.06-2.05-8.48-11.73-10.07-9.71c-4.7,5.99-15.17,3.55-20.04,3.25C557.97,3657.28,556.8,3651.43,555.08,3651.21z"/>
    </g>
    <g>
      <path d="M583.35,3673.13c-11.83,0-27.44-3.55-29.99-7.42c-2.21-3.37-2.18-12.79,0.05-15.76l0.73-0.98l1.21,0.16 c1.43,0.19,2.26,1.28,3.13,2.43c1.28,1.7,2.88,3.82,6.68,4.05c0.83,0.05,1.81,0.16,2.9,0.28c4.84,0.54,12.15,1.36,15.36-2.73 c0.61-0.77,1.54-1.15,2.55-1.07c4.05,0.39,10.67,10.39,11.04,11.11c1.65,3.21,0.84,6.16-2.15,7.91 C592.42,3672.53,588.2,3673.13,583.35,3673.13z M556.06,3655.29c-0.29,2.78-0.14,6.69,0.8,8.11 c2.34,3.42,29.05,8.16,35.9,4.07c0.81-0.48,1.25-0.88,0.5-2.35c-0.9-1.74-5.24-7.14-7.25-8.56 c-4.78,5.02-12.94,4.12-18.43,3.5c-1.01-0.11-1.92-0.21-2.69-0.26C560.24,3659.52,557.63,3657.17,556.06,3655.29z"/>
    </g>
    <g>
      <path class="st21" d="M548.57,3605.56c-1.97,7.15-5.61,37.35-6.68,44.86c-0.35,2.44,3.92,13.86-1.12,16.54 c-7.35,2.36-29.49,5.45-32.38-1.15c-3.1-7.09,5.02-9.92,8.96-16.03c1.47-0.5,1.05-3.14,0.83-8.66 c-1.47-37.72-7.87-76.15,14.98-73.5C542.94,3567.34,555.08,3571.61,548.57,3605.56z"/>
    </g>
    <g>
      <path d="M520.94,3671.87c-6.69,0-12.75-1.25-14.49-5.22c-2.68-6.12,1.28-9.88,4.77-13.19c1.57-1.49,3.2-3.03,4.35-4.81 l0.4-0.61l0.27-0.09c0.12-0.76,0.03-2.51-0.05-4.21c-0.04-0.76-0.08-1.6-0.11-2.52c-0.23-5.79-0.57-11.64-0.91-17.29 c-1.47-24.95-2.74-46.49,6.16-54.9c3.01-2.85,7.02-4.02,11.9-3.48c6.34-0.14,11.02,1.63,14.28,5.45 c5.39,6.33,6.41,17.77,3.11,34.97l-0.04,0.16c-1.49,5.38-4.03,24.84-5.55,36.47c-0.46,3.52-0.84,6.41-1.08,8.12 c-0.03,0.4,0.25,1.91,0.46,3.02c0.93,4.94,2.34,12.41-2.67,15.08l-0.34,0.14C538.09,3670.03,529.06,3671.87,520.94,3671.87z M518.76,3651.43c-1.38,1.98-3.11,3.62-4.65,5.08c-3.59,3.41-5.25,5.19-3.82,8.46c1.92,4.39,21.11,2.72,29.61,0.06 c2.11-1.38,0.99-7.3,0.38-10.52c-0.42-2.21-0.63-3.42-0.49-4.39c0.24-1.7,0.62-4.57,1.08-8.08 c1.62-12.44,4.08-31.2,5.64-36.96c2.98-15.6,2.24-26.16-2.2-31.38c-2.44-2.87-5.99-4.1-11.11-3.98l-0.15,0.01l-0.15-0.02 c-3.72-0.43-6.56,0.34-8.69,2.35c-7.48,7.07-6.21,28.7-4.85,51.6c0.34,5.68,0.68,11.55,0.91,17.38 c0.04,0.9,0.08,1.72,0.11,2.47C520.58,3647.48,520.71,3650.23,518.76,3651.43z M548.57,3605.56h0.02H548.57z"/>
    </g>
    <g>
      <path class="st22" d="M543.04,3651.21c1.61,2.13,1.74,10.66-0.03,13.34c-3.62,5.49-46.22,11.66-40.02-0.39 c1.06-2.05,8.48-11.73,10.07-9.71c4.7,5.99,15.17,3.55,20.04,3.25C540.15,3657.28,541.32,3651.43,543.04,3651.21z"/>
    </g>
    <g>
      <path d="M514.77,3673.13c-4.86,0-9.08-0.6-11.5-2.01c-2.99-1.75-3.8-4.71-2.15-7.91c0.37-0.72,6.99-10.72,11.04-11.11 c1.01-0.09,1.94,0.29,2.54,1.06c3.21,4.1,10.52,3.28,15.36,2.74c1.09-0.12,2.07-0.23,2.9-0.28c3.8-0.23,5.4-2.35,6.68-4.05 c0.87-1.16,1.69-2.25,3.13-2.43l1.21-0.16l0.73,0.98c2.23,2.97,2.26,12.39,0.05,15.76 C542.21,3669.59,526.6,3673.13,514.77,3673.13z M512.11,3656.57c-2.01,1.41-6.35,6.81-7.25,8.56 c-0.75,1.46-0.31,1.86,0.5,2.35c6.86,4.09,33.56-0.65,35.9-4.08c0.94-1.43,1.1-5.33,0.8-8.11c-1.57,1.88-4.18,4.24-8.84,4.52 c-0.77,0.05-1.68,0.15-2.69,0.26C525.05,3660.68,516.89,3661.59,512.11,3656.57z"/>
    </g>
    <g>
      <path class="st44" d="M510.92,3602.55c-0.02,1.83-0.96,44.09-0.24,44.81c5.47,5.43,30.05,4.16,34.91-0.29 c0.34-0.31,0.48-5.99,0.57-15.32c0.13-12.58,0.86-27.47,0.13-27.49C543.44,3604.18,514.97,3601.51,510.92,3602.55z"/>
    </g>
    <g>
      <path d="M526.86,3653.02c-7.48,0-14.76-1.28-17.67-4.18c-0.89-0.89-1.26-1.26-0.42-43.92l0.04-2.4 c0.01-0.95,0.66-1.77,1.58-2.01c2.81-0.72,13.5-0.07,29.85,1.2c3.04,0.24,5.44,0.42,6.1,0.44c2.58,0.07,2.57,0.39,2.17,16.93 c-0.1,4.06-0.21,8.5-0.25,12.68c-0.16,15.85-0.35,16.03-1.26,16.85C543.96,3651.4,535.28,3653.02,526.86,3653.02z M512.62,3646.26c5.26,3.87,26.07,2.98,31.08-0.38c0.24-2.37,0.33-10.81,0.36-14.16c0.04-4.2,0.15-8.66,0.25-12.74 c0.12-4.85,0.25-10.23,0.17-12.73c-1.11-0.08-2.66-0.2-4.57-0.35c-6.81-0.53-21.68-1.68-26.94-1.48l-0.01,0.59 C512.37,3635.52,512.47,3644.1,512.62,3646.26z"/>
    </g>
    <g>
      <path class="st44" d="M550.75,3603.14c0.16,1.83,1.42,44.81,2.29,45.4c4.57,3.07,28.34,4.16,32.75-1.77 c0-0.01,0.08-45.7-1.47-45.77C581.31,3600.87,554.7,3602.1,550.75,3603.14z"/>
    </g>
    <g>
      <path d="M568.57,3653.17c-7.17,0-14.13-1.17-16.69-2.89c-1.3-0.87-1.54-1.03-2.9-39.05c-0.14-4.01-0.27-7.48-0.31-7.91 c-0.09-1.02,0.57-1.96,1.56-2.22c4.46-1.17,31.44-2.35,34.19-2.21c0.84,0.04,1.57,0.54,1.96,1.36 c0.37,0.79,1.07,2.26,1.39,24.78c0.31,22.19,0.21,22.33-0.28,22.99C584.71,3651.73,576.51,3653.17,568.57,3653.17z M554.87,3647.15c5.27,2.39,24.55,2.7,28.83-1.19c0.03-7.76-0.13-36.28-0.95-42.86c-5.64,0.11-23.68,0.98-29.81,1.79 c0.05,1.33,0.13,3.36,0.23,6.19C553.51,3620.76,554.3,3642.66,554.87,3647.15z"/>
    </g>
    <g>
      <path class="st21" d="M614.81,3510.26c6.38,4.52,16.38,24.33,10.29,34.49c-5.97,9.98-25.14,21.59-30.11,18.91 c-5.47-2.95-10.72-13.24-3.77-20.43c2.91-3.01,3.34-5.27,3.41-6.4c0.16-2.57-2.44-14.2-1.94-17.61 c0.35-2.39,6.25-1.04,11.28-3.72C606.14,3514.34,613.47,3509.3,614.81,3510.26z"/>
    </g>
    <g>
      <path d="M596.73,3566.09c-1.06,0-1.98-0.19-2.73-0.59c-3.97-2.14-7.26-7.06-8.02-11.95c-0.48-3.11-0.22-7.68,3.74-11.78 c1.22-1.26,2.7-3.17,2.82-5.07c0.06-0.86-0.41-3.8-0.82-6.4c-0.84-5.33-1.41-9.27-1.1-11.38c0.41-2.8,3.35-3.2,5.94-3.56 c2.04-0.28,4.35-0.6,6.42-1.71c0.48-0.26,1.24-0.73,2.13-1.27c6.09-3.73,8.96-5.22,10.91-3.84l0,0 c6.57,4.65,17.8,25.72,10.88,37.28C621.61,3554.69,605.01,3566.09,596.73,3566.09z M594.74,3519.94 c-0.09,1.94,0.61,6.39,1.13,9.71c0.59,3.72,0.94,6.06,0.86,7.32c-0.16,2.55-1.51,5.15-3.99,7.72 c-2.77,2.86-2.95,6.05-2.61,8.22c0.64,4.11,3.43,7.59,5.87,8.9c3.15,1.69,21.21-7.95,27.31-18.14 c5.33-8.91-3.59-26.76-9.26-31.36c-1.47,0.43-5.1,2.66-6.73,3.65c-0.98,0.6-1.81,1.11-2.35,1.39 c-2.74,1.47-5.69,1.87-7.83,2.17C596.32,3519.63,595.27,3519.77,594.74,3519.94z"/>
    </g>
    <g>
      <path class="st45" d="M525.95,3481.56c0.91-0.07-4.76,7.23-7.56,12.27c-3.87,6.96-11.48,13.7-10.53,14.89 c3.42,4.93,12.35,10.32,17.76,9.06c14.52-3.39,45.1-7.39,54-20.74c-0.49-1.12-1.81-7.93-4.77-13.56 c-1.75-3.32-4.42-6.34-6.89-7.21C541.58,3483.17,555.94,3479.6,525.95,3481.56"/>
    </g>
    <g>
      <path class="st44" d="M525.82,3484.9c13,16.76,22.64,24.05,24.26,25.2c4.13-2.86,13.86-10.26,25.21-23.69 c13.16,0.31,37.93,14.13,41.51,22.69c-3.73,4.3-18.8,13.53-23.69,16.83c10.24,20.6,14.43,55.05,14.81,72.26 c-25.51,15.89-112.25,9.82-114.69,2.34c-4.21-39.18,11.76-65.72,10.9-68.4c-3.46-23.28-2.99-31.65,6.7-38.51 C515.55,3490.27,522.1,3486.89,525.82,3484.9"/>
    </g>
    <g>
      <defs>
        <path id="SVGID_00000168818982206411722000000002382264083583572126_" d="M525.82,3484.9c13,16.76,22.64,24.05,24.26,25.2 c4.13-2.86,13.86-10.26,25.21-23.69c13.16,0.31,37.93,14.13,41.51,22.69c-3.73,4.3-18.8,13.53-23.69,16.83 c10.24,20.6,14.43,55.05,14.81,72.26c-25.51,15.89-112.25,9.82-114.69,2.34c-4.21-39.18,11.76-65.72,10.9-68.4 c-3.46-23.28-2.99-31.65,6.7-38.51C515.55,3490.27,522.1,3486.89,525.82,3484.9"/>
      </defs>
    </g>
    <g>
      <path d="M547.73,3610.3c-22.16,0-43.18-2.36-51.62-5.44c-2.88-1.05-4.38-2.18-4.87-3.68c-0.04-0.14-0.08-0.28-0.09-0.43 c-3.26-30.32,5.52-53.58,9.27-63.51c0.76-2.02,1.55-4.1,1.65-4.79c0,0,0-0.01,0-0.01c-3.29-22.12-3.58-32.64,7.56-40.53 c4.3-3.05,10.05-6.1,13.85-8.12l1.37-0.73c0.9-0.49,2.02-0.24,2.65,0.56c11.03,14.21,19.53,21.46,22.64,23.89 c4.92-3.55,13.6-10.64,23.56-22.45c0.41-0.48,1.03-0.77,1.65-0.74c13.86,0.32,39.41,14.44,43.4,23.98 c0.31,0.74,0.17,1.58-0.35,2.18c-2.89,3.33-11.03,8.72-19.83,14.41c-1.02,0.66-1.95,1.26-2.76,1.79 c9.72,20.85,13.83,53.9,14.22,71.48c0.02,0.74-0.36,1.44-0.99,1.83C596.87,3607.55,571.64,3610.3,547.73,3610.3z M495.28,3599.94c4.89,5.31,84.91,11.51,110.51-2.93c-0.55-17.97-4.79-50.51-14.55-70.15c-0.47-0.94-0.17-2.08,0.71-2.67 c1.05-0.71,2.57-1.69,4.34-2.83c5.48-3.54,14.28-9.23,17.95-12.63c-4.73-7.31-25.73-19.28-38.01-20.17 c-10.89,12.74-20.27,20.03-24.94,23.27c-0.73,0.5-1.69,0.5-2.41-0.01c-1.07-0.76-10.61-7.76-23.61-24.23 c-3.71,1.97-9.2,4.9-13.21,7.74c-8.37,5.93-9.41,12.4-5.85,36.38c0.3,1.3-0.33,2.95-1.86,7.01 C500.41,3549.14,492.24,3570.79,495.28,3599.94z M502.13,3532.77C502.13,3532.77,502.13,3532.77,502.13,3532.77 C502.13,3532.77,502.13,3532.77,502.13,3532.77z"/>
    </g>
    <g>
      <path class="st21" d="M490.65,3440.68c-4.92-20.06-5.54-46.28,3.19-64.07c11.61-23.63,47.94-34.65,79.92-18.88 c24.45,12.06,34.57,38.01,38.72,64.59c3.21,20.58-4.81,39.5-19.33,52.98c-14.65,16.03-39.68,21.57-63.01,12.5 C506.9,3481.74,495.98,3462.41,490.65,3440.68"/>
    </g>
    <g>
      <defs>
        <path id="SVGID_00000130610099659329505570000010743308060708460680_" d="M490.65,3440.68c-4.92-20.06-5.54-46.28,3.19-64.07 c11.61-23.63,47.94-34.65,79.92-18.88c24.45,12.06,34.57,38.01,38.72,64.59c3.21,20.58-4.81,39.5-19.33,52.98 c-14.65,16.03-39.68,21.57-63.01,12.5C506.9,3481.74,495.98,3462.41,490.65,3440.68"/>
      </defs>
    </g>
    <g>
      <path d="M553,3494.22c-7.8,0-15.79-1.44-23.5-4.42c-20.84-5.48-34.21-21.39-40.89-48.63c-4.43-18.06-6.2-46.05,3.35-65.49 c5.35-10.89,15.67-19.39,29.06-23.95c17.06-5.8,36.62-4.3,53.68,4.11c21.54,10.63,34.58,32.26,39.87,66.15 c3.15,20.15-4.13,40.14-19.98,54.84C584.26,3488.15,569.03,3494.22,553,3494.22z M542.47,3352.45 c-6.88,0-13.68,1.08-20.09,3.26c-12.33,4.19-21.79,11.94-26.64,21.82c-9.06,18.43-7.3,45.26-3.04,62.64l0,0 c6.29,25.66,18.71,40.57,37.99,45.59l0.23,0.07c21.96,8.53,46.35,3.73,60.69-11.96c14.93-13.86,21.74-32.49,18.81-51.24 c-5.06-32.44-17.35-53.05-37.57-63.03C563.21,3354.87,552.75,3352.45,542.47,3352.45z"/>
    </g>
    <g>
      <path class="st27" d="M565.79,3397.91c3.06-0.46,5.85,1.48,6.24,4.33c0.39,2.86-1.78,5.55-4.83,6.01s-5.85-1.48-6.24-4.33 C560.57,3401.06,562.73,3398.37,565.79,3397.91"/>
    </g>
    <g>
      <path class="st27" d="M525.21,3405.66c3.06-0.46,5.85,1.48,6.24,4.33c0.39,2.86-1.78,5.55-4.83,6.01 c-3.06,0.46-5.85-1.48-6.24-4.33C519.99,3408.82,522.15,3406.12,525.21,3405.66"/>
    </g>
    <g>
      <path d="M557.4,3482.47c-2.3,0-4.42-0.26-6.19-0.69c-0.8-0.19-1.29-0.99-1.1-1.78c0.19-0.8,0.99-1.31,1.79-1.1 c5.39,1.29,13.56,0.67,19.67-3.61c0.67-0.47,1.59-0.31,2.06,0.36c0.47,0.67,0.31,1.6-0.36,2.06 C568.25,3481.23,562.39,3482.47,557.4,3482.47z"/>
    </g>
    <g>
      <path class="st46" d="M525.46,3450.3c2.55-4.35,22.17,8.21,59.65-12.85c0.97,1.81,1.04,9.15-3.42,16.26 c-3.81,6.07-11.14,12.01-21.74,13.95C540.01,3471.36,525.63,3458.17,525.46,3450.3"/>
    </g>
    <g>
      <defs>
        <path id="SVGID_00000122716552626330082460000013163141420995076509_" d="M525.46,3450.3c2.55-4.35,22.17,8.21,59.65-12.85 c0.97,1.81,1.04,9.15-3.42,16.26c-3.81,6.07-11.14,12.01-21.74,13.95C540.01,3471.36,525.63,3458.17,525.46,3450.3"/>
      </defs>
      <clipPath id="SVGID_00000098929152806681337280000015500980066647202482_">
        <path d="M525.46,3450.3c2.55-4.35,22.17,8.21,59.65-12.85 c0.97,1.81,1.04,9.15-3.42,16.26c-3.81,6.07-11.14,12.01-21.74,13.95C540.01,3471.36,525.63,3458.17,525.46,3450.3" style="overflow: visible;"/>
      </clipPath>
      <g style="clip-path:url(#SVGID_00000098929152806681337280000015500980066647202482_);">
        <path class="st22" d="M538.94,3466.11c-0.04-0.65,0.24-1.98,0.31-2.74c0.05-0.09,0.12-0.3,0.36-0.32 c1.71-0.15,3.41,0.14,5.1,0.08c0.57,0.05,0.56,0.48,0.82,0.99c0.05-0.17,0.12-0.5,0.15-0.62c0.05-0.18,0.09-0.33,0.21-0.42 c0.17-0.13,0.32-0.16,0.48-0.2c1.55-0.25,3.27,0.29,4.87,0.08c0.45,0.02,0.68,0.19,0.81,0.39c0.13,0.2,0.2,0.45,0.3,0.61 c0.04-0.17,0.06-0.63,0.08-0.75c0.03-0.18,0.06-0.32,0.18-0.42c0.05-0.04,0.1-0.08,0.16-0.11c1.77-0.32,3.61-0.67,5.48-1.04 c0.02,0,0.05,0,0.08-0.01c0.46,0,0.74,0.16,0.92,0.37c0.18,0.21,0.28,0.45,0.39,0.61c0.03-0.16-0.07-0.65-0.06-0.76 c0.02-0.17,0.05-0.31,0.15-0.4c0.09-0.07,0.17-0.12,0.27-0.16c2.05-0.49,4.09-1.01,6.03-1.53c0.36,0,0.58,0.17,0.74,0.37 c0.16,0.2,0.26,0.44,0.38,0.57c0.01-0.16,0.01-0.72,0.01-0.84c0.03-0.3,0.28-0.43,0.41-0.51c1.68-0.6,3.55-1.88,5.24-2.37 c0.54-0.05,0.62,0.54,1,0.89c0-0.15-0.02-0.63-0.02-0.73c-0.01-0.15-0.01-0.28,0.09-0.38c0.07-0.08,0.18-0.13,0.28-0.18 c1.16-0.45,3.45-1.45,4.67-1.89c0.29-0.11,0.55-0.1,0.75,0.07c0.19,0.16,0.32,0.45,0.48,0.85c0.14,0.35,0.73,1.78,0.71,1.8 c-3.63,5.75-15.48,9.83-20.72,10.83C550.14,3470.15,539.32,3467.04,538.94,3466.11"/>
      </g>
    </g>
    <g>
      <path class="st48" d="M553.02,3469.85c-11.12,0-18.63-4.98-21.67-7.45c-4.57-3.72-7.35-8.23-7.43-12.07 c-0.01-0.28,0.07-0.57,0.21-0.81c1.27-2.16,3.97-1.9,8.47-1.47c9.08,0.88,26.01,2.52,51.76-11.95 c0.36-0.2,0.79-0.25,1.19-0.14c0.4,0.12,0.73,0.39,0.93,0.76c1.27,2.38,1.2,10.36-3.47,17.81 c-4.72,7.52-13.02,12.86-22.77,14.64C557.68,3469.64,555.28,3469.85,553.02,3469.85z M527.06,3450.93 c0.39,2.77,2.76,6.25,6.24,9.07c3.32,2.7,12.54,8.7,26.37,6.13c12.65-2.31,18.7-10.04,20.72-13.25 c3.28-5.23,3.89-10.45,3.69-13.1c-25.6,13.88-42.57,12.24-51.78,11.34C530.5,3450.95,527.91,3450.69,527.06,3450.93z"/>
    </g>
    <g>
      <path d="M549.93,3424.72c-0.83,0.07-1.56-0.55-1.63-1.38c-0.07-0.83,0.55-1.56,1.38-1.63c1.26-0.11,2.58-0.25,3.75-0.61 c1.07-0.33,2.06-0.85,2.8-1.7c0.87-1,0.48-2.83,0.21-4.11c-0.09-0.4-0.16-0.77-0.2-0.99c-0.12-0.82,0.45-1.59,1.27-1.72 c0.82-0.12,1.59,0.45,1.72,1.27c0.05,0.3,0.1,0.54,0.15,0.81c0.4,1.88,0.98,4.58-0.89,6.71c-1.17,1.33-2.63,2.12-4.18,2.59 C552.86,3424.43,551.35,3424.6,549.93,3424.72"/>
    </g>
    <g>
      <path d="M498.64,3394.93c-0.44,0-0.89-0.11-1.31-0.34c-1.31-0.72-1.79-2.38-1.07-3.69c5.37-9.77,18.08-12.1,26.76-8.66 c1.39,0.55,2.08,2.13,1.52,3.52c-0.55,1.4-2.13,2.08-3.53,1.53c-5.7-2.26-15.83-1.35-20,6.23 C500.53,3394.42,499.6,3394.93,498.64,3394.93z"/>
    </g>
    <g>
      <path d="M556.91,3380.47c-0.65,0-1.29-0.23-1.81-0.69c-1.12-1-1.21-2.72-0.21-3.84c6.28-7,18.85-7.41,26.66-3.41 c1.33,0.69,1.86,2.32,1.18,3.66c-0.68,1.34-2.32,1.86-3.66,1.18c-6.51-3.34-16.11-2.29-20.14,2.21 C558.39,3380.17,557.65,3380.47,556.91,3380.47z"/>
    </g>
    <g>
      <path class="st49" d="M589.6,3438c-6.18,0-12.41-1.93-17.05-5.41c-0.68-0.51-0.82-1.48-0.31-2.16s1.48-0.82,2.16-0.31 c5.09,3.82,12.71,5.58,19.4,4.45c0.84-0.12,1.64,0.43,1.78,1.27c0.14,0.84-0.43,1.64-1.27,1.78 C592.77,3437.87,591.19,3438,589.6,3438z"/>
    </g>
    <g>
      <path class="st49" d="M516.59,3454.04c-0.66,0-1.27-0.43-1.48-1.1c-0.25-0.82,0.21-1.68,1.03-1.93 c10.31-3.13,11.19-3.82,15.74-12.34c0.4-0.75,1.34-1.03,2.09-0.63c0.75,0.4,1.04,1.34,0.64,2.09 c-4.96,9.3-6.44,10.46-17.56,13.84C516.89,3454.02,516.74,3454.04,516.59,3454.04z"/>
    </g>
    <g>
      <path d="M550.39,3526.14c-0.39,0-0.78-0.11-1.12-0.33c-14.25-9.01-22.77-18.76-32.63-30.04l-3.07-3.51 c-0.77-0.87-0.68-2.2,0.19-2.96c0.87-0.77,2.2-0.68,2.96,0.19l3.08,3.52c9.37,10.73,17.5,20.03,30.55,28.51 c9.99-6.95,24.28-18.9,35.74-32.58c0.74-0.89,2.07-1,2.96-0.26c0.89,0.74,1.01,2.07,0.26,2.96 c-12.18,14.54-27.48,27.17-37.74,34.14C551.22,3526.02,550.81,3526.14,550.39,3526.14z"/>
    </g>
    <g>
      <path class="st44" d="M495.8,3551.99c6.57,3.85,26.96,4.52,31.08,3.51c0.11,0.24-1.14,31.74-2.8,33.91 c-2.92,3.82-31.61,0.92-31.79-2.93C492.03,3580.96,494.18,3551.87,495.8,3551.99z"/>
    </g>
    <g>
      <path d="M514.72,3593.29c-7.23,0-15.83-1.36-19.39-2.47c-2.33-0.73-5.02-1.87-5.14-4.24c-0.11-2.39,1.22-33.31,3.99-36.02 c0.43-0.42,1.18-0.72,1.76-0.66c0.32,0.02,0.64,0.12,0.91,0.28c5.77,3.39,25.53,4.27,29.52,3.28 c0.97-0.24,1.99,0.25,2.41,1.16c0.72,1.57-1.1,33.52-3.05,36.06C524.27,3592.61,519.84,3593.29,514.72,3593.29z M494.37,3585.92c3.38,2.58,24.92,4.33,27.99,2.24c1.09-3.14,2.15-23.27,2.38-30.28c-6.42,0.42-20.46-0.24-27.79-3.04 C495.79,3560.84,494.23,3580.13,494.37,3585.92z M522.29,3588.32L522.29,3588.32L522.29,3588.32z"/>
    </g>
    <g>
      <path class="st44" d="M600.3,3549.36c-4.52,3.47-22.43,6.46-30.83,5.38c-0.1,0.24,2.93,31.61,4.71,33.68 c3.13,3.63,31.7-2.09,31.8-6.56C606.1,3576.34,601.9,3549.15,600.3,3549.36z"/>
    </g>
    <g>
      <path d="M579.67,3591.67c-3.26,0-5.91-0.52-7.08-1.88c-2.08-2.42-5.7-34.21-5.07-35.82c0.35-0.9,1.28-1.43,2.22-1.32 c8.04,1.03,25.29-1.89,29.29-4.96c0.29-0.22,0.64-0.37,1-0.41c0.61-0.09,1.39,0.18,1.85,0.59c2.89,2.59,6.27,30.77,6.2,34.03 c-0.05,2.26-2.29,4.06-7.26,5.85C596.51,3589.3,586.67,3591.67,579.67,3591.67z M575.83,3587.09 c1.03,0.56,6.2,0.74,14.26-0.83c8.09-1.57,12.88-3.68,13.79-4.71c0-5.22-2.86-23.47-4.47-29.24c-6.31,3-19.51,5.05-27.66,4.72 C572.38,3564.07,574.58,3584.09,575.83,3587.09z"/>
    </g>
    <g>
      <path class="st22" d="M501.71,3517.72c-1.59,4.37-10.81,41.78-11.25,58.51c7.49,4.01,36.56,7.6,47.83,6.52 c0.44-1.99,5.3-30.24,4.82-31.99c-4.14-15.07-6.5-41.72-21.21-57.26c-4.82-5.09-15.78-1.02-17.22,1.86 C502.27,3500.23,504.06,3511.26,501.71,3517.72z"/>
    </g>
    <g>
      <path d="M533.32,3585.05c-13.58,0-36.84-3.22-43.85-6.97c-0.7-0.37-1.13-1.11-1.11-1.91c0.44-16.84,9.73-54.65,11.38-59.17 c1.04-2.87,1.19-6.98,1.33-10.96c0.16-4.5,0.31-8.75,1.74-11.62c1.31-2.64,6.1-4.68,9.95-5.25c4.49-0.67,8.28,0.35,10.67,2.88 c11.83,12.5,15.85,31.46,19.08,46.7c0.89,4.19,1.73,8.15,2.63,11.46c0.72,2.62-4.73,32.71-4.79,32.99 c-0.19,0.89-0.94,1.56-1.85,1.64C537.02,3584.99,535.27,3585.05,533.32,3585.05z M492.61,3574.92 c8.29,3.45,32.8,6.44,43.92,5.85c1.11-6.14,4.59-26.97,4.51-29.6c-0.92-3.39-1.76-7.36-2.65-11.55 c-3.12-14.72-7-33.04-18.02-44.68c-1.86-1.96-5.02-1.87-6.75-1.65c-3.86,0.51-6.7,2.34-7.06,3c-1.02,2.06-1.16,6.04-1.3,9.9 c-0.15,4.3-0.31,8.75-1.58,12.24l0,0C502.12,3522.75,493.47,3557.88,492.61,3574.92z M501.72,3517.72h0.02H501.72z"/>
    </g>
    <g>
      <path class="st22" d="M521.61,3486.34c-4.97,0.18-20.75,6.94-20.13,7.76c0.5,0.65,15.57,13.58,19.19,15.94 c-0.12,1.31-8.66,9.17-7.39,9.98c6.25,4,29,30.76,30,32.76C544.24,3543.67,532.62,3494.47,521.61,3486.34z"/>
    </g>
    <g>
      <path d="M543.28,3554.88c-0.78,0-1.52-0.44-1.88-1.16c-1.57-2.7-23.56-28.28-29.26-31.93c-0.59-0.38-0.98-0.99-1.07-1.69 c-0.22-1.63,1.06-3.22,4.76-7.32c0.6-0.66,1.37-1.52,1.97-2.22c-5.27-4.01-17.31-14.3-17.98-15.17 c-0.48-0.62-0.57-1.58-0.23-2.29c1.26-2.68,17.8-8.7,21.95-8.85c0.49-0.03,0.94,0.13,1.32,0.41 c11.81,8.71,23.57,58.36,22.51,68.35c-0.1,0.93-0.8,1.68-1.71,1.84C543.53,3554.86,543.4,3554.88,543.28,3554.88z M515.78,3519.26c5.8,4.7,18.32,18.91,25,26.97c-2.14-15.51-11.35-50.21-19.83-57.72c-3.79,0.54-12.31,3.9-16.14,5.81 c4.1,3.58,14.3,12.2,17,13.96c0.65,0.42,1.01,1.17,0.95,1.94c-0.11,1.19-1.06,2.31-3.81,5.36 C518,3516.63,516.58,3518.2,515.78,3519.26z"/>
    </g>
    <g>
      <path class="st22" d="M600.78,3525c2.9,12.46,8.68,40.96,9,49.58c-7.27,4.92-39.76,8-48.98,7.81 c-1.21-2.04-2.62-28.9-2.52-31.47c1.49-6.71,1.97-13.23,6.9-25.51c1.73-4.32,15.41-36.87,20.43-33.09 c0.98,0.73,3.14,1.65,5.59,3.61c0.74-1.38,1.48-2.7,1.6-2.7c8.34,0.36,28.15,15.92,25.46,18.14 C616.78,3512.61,606.54,3520.91,600.78,3525z"/>
    </g>
    <g>
      <path d="M561.67,3584.5c-0.32,0-0.63,0-0.91-0.01c-0.73-0.02-1.39-0.41-1.76-1.03c-1.69-2.87-2.86-31.29-2.81-32.62 c0-0.13,0.02-0.25,0.05-0.38c0.33-1.48,0.61-2.96,0.9-4.49c1.03-5.45,2.2-11.63,6.1-21.35c2.18-5.43,13.41-32.61,20.41-34.56 c1.17-0.32,2.31-0.12,3.23,0.57c0.29,0.22,0.72,0.46,1.24,0.75c0.67,0.38,1.49,0.85,2.4,1.45c0.79-1.3,1.32-1.74,2.36-1.7 c8.38,0.36,25.87,13.54,27.53,18.5c0.44,1.32,0.14,2.57-0.81,3.35c-1.2,0.99-10.46,8.51-16.46,12.9 c3.06,13.37,8.42,40.21,8.74,48.62c0.03,0.72-0.32,1.41-0.92,1.82C603.32,3581.5,571.97,3584.5,561.67,3584.5z M560.38,3551.17c-0.05,3.38,1.13,23.67,2.04,29.13c10.68-0.1,37.32-2.92,45.19-6.88c-0.74-9.67-6.05-35.83-8.87-47.94 c-0.19-0.83,0.13-1.69,0.83-2.19c5.12-3.64,13.78-10.61,16.59-12.9c-2.21-3.55-15.43-13.59-22.3-14.93 c-0.19,0.34-0.45,0.81-0.79,1.45c-0.29,0.55-0.82,0.94-1.43,1.07c-0.61,0.12-1.25-0.03-1.73-0.42 c-1.45-1.16-2.78-1.92-3.86-2.53c-0.58-0.33-1.07-0.61-1.45-0.87c-3.24,1.29-11.71,17.69-17.46,32.03 c-3.75,9.33-4.88,15.3-5.87,20.56C560.97,3548.26,560.7,3549.71,560.38,3551.17z"/>
    </g>
    <g>
      <path class="st22" d="M578.72,3487.67c3.57,0.21,21.64,7.17,21.02,7.95c-0.49,0.63-16.44,9.38-20.02,11.57 c0.13,1.32,7.81,9.5,6.56,10.25c-6.18,3.72-26.39,34.4-27.57,34.97C557.66,3543.71,572.52,3494.67,578.72,3487.67z"/>
    </g>
    <g>
      <path d="M558.7,3554.52c-0.35,0-0.7-0.09-1.01-0.26c-0.59-0.33-0.99-0.92-1.07-1.59c-1.15-9.6,14.2-59.24,20.53-66.38 c0.43-0.48,1.04-0.74,1.7-0.7c1.86,0.11,21.53,6.26,22.81,9.09c0.32,0.71,0.22,1.63-0.26,2.25 c-0.44,0.57-0.96,0.93-11.86,7.08c-2.63,1.49-5.16,2.91-6.93,3.94c0.5,0.67,1.11,1.45,1.62,2.11 c3.38,4.33,4.54,5.99,4.24,7.59c-0.12,0.68-0.53,1.27-1.11,1.61c-3.83,2.3-15.02,18.01-21.04,26.45 c-5.66,7.94-5.93,8.25-6.72,8.62C559.32,3554.45,559.01,3554.52,558.7,3554.52z M579.63,3489.94 c-4.99,7.47-15.41,40-18.19,55.38c0.48-0.67,0.98-1.37,1.47-2.06c8.46-11.86,16.42-22.8,20.98-26.65 c-0.72-1.11-2.07-2.84-2.97-3.99c-2.36-3.02-3.19-4.13-3.29-5.22c-0.08-0.8,0.31-1.57,0.99-2c1.51-0.92,5.08-2.94,8.86-5.07 c2.66-1.5,5.94-3.35,8.21-4.67C591.35,3493.75,583.03,3490.7,579.63,3489.94z"/>
    </g>
    <g>
      <path d="M602.17,3531.29c-0.82,0-1.59-0.48-1.93-1.27l-0.27-0.64c-1.26-2.95-2.25-5.28-4.39-7.84 c-0.75-0.89-0.63-2.21,0.26-2.96c0.89-0.74,2.21-0.63,2.96,0.26c2.54,3.03,3.7,5.75,5.04,8.89l0.27,0.63 c0.46,1.07-0.04,2.3-1.11,2.76C602.72,3531.23,602.44,3531.29,602.17,3531.29z"/>
    </g>
    <g>
      <path class="st50" d="M487.86,3466.19c-4.6,2.33-42.68,25.54-45.72,28.43c6.46,8.71,49.49,70.54,50.74,70.64 c0.11,0.01,44.08-24.57,43.65-25.69C532.04,3527.89,490.36,3464.92,487.86,3466.19z"/>
    </g>
    <g>
      <path d="M492.86,3567.36c-0.05,0-0.1,0-0.14-0.01c-1.56-0.13-1.8-0.14-36.02-48.62c-7.54-10.69-14.05-19.91-16.24-22.86 c-0.63-0.85-0.53-2.04,0.24-2.77c3.42-3.25,42.49-26.9,46.21-28.79l0,0c0.59-0.3,1.28-0.33,1.94-0.07 c5.46,2.1,45.42,63.6,49.65,74.57c0.26,0.67,0.11,1.56-0.32,2.13c-0.45,0.6-1.29,1.72-23.01,14.17 C495.08,3566.61,493.56,3567.36,492.86,3567.36z M445.04,3495.03c2.9,4.01,8.62,12.11,15.09,21.28 c11.71,16.58,28.9,40.94,33.19,46.32c6.75-3.73,34.94-19.64,40.69-23.64c-6.23-13.6-40.02-64.15-46.23-70.39 C480.89,3472.45,452.19,3489.96,445.04,3495.03z"/>
    </g>
    <g>
      <path d="M469.43,3499.69c-0.72,0-1.42-0.37-1.81-1.04c-0.59-1-0.25-2.29,0.75-2.87c2.57-1.51,5.1-2.76,7.53-3.97 c2.77-1.37,5.63-2.79,8.71-4.64c0.99-0.6,2.28-0.28,2.88,0.72c0.6,0.99,0.28,2.28-0.72,2.88c-3.23,1.95-6.17,3.4-9.01,4.81 c-2.48,1.23-4.83,2.39-7.27,3.83C470.16,3499.6,469.8,3499.69,469.43,3499.69z"/>
    </g>
    <g>
      <path d="M478.09,3510.42c-0.84,0-1.63-0.5-1.95-1.33c-0.42-1.08,0.11-2.3,1.19-2.72c1.44-0.57,3.21-1.59,5.08-2.67 c1.96-1.14,4-2.31,6.08-3.23c1.06-0.46,2.3,0.02,2.77,1.08c0.47,1.06-0.02,2.3-1.08,2.77c-1.87,0.82-3.8,1.94-5.67,3.01 c-2.01,1.16-3.91,2.26-5.65,2.94C478.6,3510.37,478.34,3510.42,478.09,3510.42z"/>
    </g>
    <g>
      <path class="st21" d="M467.5,3526.44c-8.83,4.33-6.72,18.52,0.59,24.49c14.52,11.85,32.03-7.92,43.46-14.11 c8.45-0.66,11.12-2.09,17.2-4.81c1.24-0.55,5.21-5.78,0.63-6.56c-0.39-0.07,1.12-0.78,1.56-2.12 c0.53-1.61-0.28-4.48-3.43-5.02c-2.18-0.38,4.09-5.03-3.25-7.03c0.86-5.4-4.26-5.19-7.14-3.82c-2.75,1.3-4.07,4.34-4.66,3.58 c-2.12-2.73-5.78-9.18-10.36-5.16c-3.18,2.8-2.47,9.62-1.8,12.37C499.11,3518.45,472.48,3522.25,467.5,3526.44z"/>
    </g>
    <g>
      <path d="M478.04,3556.72c-3.83,0-7.64-1.18-11.28-4.16c-4.89-3.99-7.79-11.27-7.05-17.7c0.53-4.65,2.89-8.26,6.65-10.19 c4.36-3.36,19.13-6.25,31.51-8.17c-0.43-3.23-0.64-9.12,2.85-12.19c1.56-1.37,3.24-1.96,4.98-1.78 c3.17,0.35,5.48,3.22,7.21,5.58c0.8-0.85,1.88-1.86,3.32-2.54c2.46-1.16,5.94-1.58,8.19,0.11c0.93,0.7,1.94,1.96,2.03,4.14 c1.54,0.66,2.58,1.54,3.14,2.69c0.78,1.59,0.41,3.14-0.01,4.26c1.15,0.52,2.08,1.34,2.72,2.41c0.88,1.47,1.12,3.31,0.62,4.82 c-0.09,0.29-0.21,0.55-0.34,0.79c0.73,0.78,0.94,1.66,1,2.16c0.36,2.84-2.41,6.28-3.99,6.98l-1.16,0.52 c-5.19,2.33-8.36,3.76-16.28,4.43c-2.5,1.4-5.37,3.5-8.41,5.72C496.43,3549.96,487.18,3556.72,478.04,3556.72z M505.07,3506.69c-0.28,0-0.81,0.1-1.58,0.77c-2.06,1.81-1.9,7.21-1.14,10.29c0.14,0.57,0.04,1.17-0.29,1.66 c-0.32,0.49-0.84,0.82-1.42,0.91l-0.48,0.07c-16.7,2.52-28.7,5.45-31.31,7.65c-0.13,0.11-0.28,0.21-0.43,0.28 c-3.27,1.6-4.27,4.7-4.54,7.01c-0.58,5.01,1.75,10.88,5.53,13.96c9.83,8.02,21.53-0.54,31.87-8.09 c3.31-2.42,6.43-4.7,9.27-6.24c0.26-0.14,0.54-0.22,0.83-0.25c7.52-0.59,10.13-1.77,15.34-4.11l1.17-0.53 c0.48-0.34,1.45-1.79,1.53-2.47c-0.08-0.03-0.21-0.07-0.4-0.1c-0.8-0.14-1.51-0.75-1.73-1.53c-0.38-1.33,0.58-2.18,0.94-2.5 c0.23-0.2,0.62-0.55,0.71-0.81c0.08-0.24,0.08-0.81-0.24-1.34c-0.31-0.51-0.83-0.83-1.56-0.96c-1.15-0.2-1.69-0.9-1.91-1.3 c-0.65-1.17-0.16-2.36,0.19-3.22c0.18-0.44,0.51-1.25,0.39-1.5c-0.01-0.02-0.29-0.55-2.12-1.05c-1.03-0.28-1.69-1.3-1.52-2.36 c0.09-0.57,0.17-1.57-0.29-1.92c-0.66-0.49-2.47-0.34-3.88,0.33c-1.06,0.5-1.91,1.44-2.59,2.19c-0.81,0.9-1.59,1.75-2.84,1.71 c-0.7-0.03-1.35-0.37-1.79-0.93c-0.27-0.34-0.56-0.74-0.87-1.17c-1.24-1.7-3.1-4.27-4.7-4.45 C505.2,3506.7,505.14,3506.69,505.07,3506.69z M467.5,3526.45h0.02H467.5z"/>
    </g>
    <g>
      <path class="st27" d="M606.02,3456.71c39.16-19.83,25.91-66.71,4.67-91.66c-10.66-12.53-27.64-32.31-52.88-39.71 c-16.27-3.98-40.63-2.46-50.85,11.1c-33.13,6.94-52.82,80.68-39.1,106.8c15.26,29.06,38.81,29.18,38.4,28.77 c-12.07-14.46-19.38-57.4-13.25-84.59c25.99-20.19,91.47-20.88,93.8-19.01C608.02,3386,616.99,3426.22,606.02,3456.71"/>
    </g>
    <g>
      <path d="M580.27,3390.21c-1.8,0.26-11.18,1.82-17.77,3.85c-3.39,1.05-5.84,2.26-6.54,3.41c-0.54,0.83-0.86,1.88-0.99,3.06 c-0.14,1.29-0.06,2.73,0.21,4.22c0.84,4.62,3.37,9.34,6.26,11.22c1.77,1.15,8.16,0.66,14.72-0.54 c12.61-2.3,18-2.47,17.77-15.79c-0.07-4.03-0.92-7.85-2.68-9.37l-0.19-0.15C589.81,3389.22,585.41,3389.47,580.27,3390.21 M508.96,3405.3c-5.04,1.41-9.19,2.98-9.93,4.32l-0.08,0.13c-1.02,2.09-0.25,5.96,1.34,9.71 c5.15,12.18,10.59,10.14,22.64,7.24c6.47-1.56,12.51-3.7,13.66-5.47c1.89-2.9,2.29-8.24,1.19-12.8 c-0.35-1.46-0.86-2.81-1.51-3.93c-0.6-1.03-1.31-1.86-2.14-2.4C530.71,3399.87,511.57,3404.57,508.96,3405.3z M579.57,3385.44 c6.31-0.91,12.03-0.96,14.44,0.86l0.03,0.03l0-0.01l0.31,0.26c2.91,2.49,4.31,7.72,4.4,13c0.27,15.55-7,17.93-21.73,20.62 c-7.56,1.38-15.31,1.69-18.2-0.19c-3.96-2.58-7.35-8.61-8.4-14.39c-0.23-1.26-0.35-2.52-0.35-3.75 c-2.76,0.13-6.17,0.94-8.8,1.87c0.49,1.12,0.89,2.32,1.19,3.56c1.38,5.71,0.73,12.6-1.84,16.55 c-1.88,2.88-9.1,5.74-16.57,7.54c-14.71,3.55-22.02,4.63-28.22-10.06c-2.07-4.91-2.9-10.31-1.17-13.77l0.14-0.28 c1.46-2.64,6.71-4.91,12.86-6.63c5.91-1.66,23.43-6.27,29.09-2.59l0.26,0.17c5.08-1.01,9.9-2.26,14.85-3.29 C555.57,3389.15,573.43,3386.33,579.57,3385.44z"/>
    </g>
  </g>
</svg>
