<?xml version="1.0" encoding="utf-8"?>
<svg xmlns="http://www.w3.org/2000/svg" viewBox="288.4438 996.1812 178.559 235.7588" width="178.559px" height="235.759px">
  <defs>
    <clipPath id="clippath-4">
      <rect class="st48" x="28.85" y="974.82" width="458.85" height="257.12" rx="32.89" ry="32.89"/>
    </clipPath>
    <style>
      .st0, .st1, .st2, .st3, .st4, .st5, .st6, .st7, .st8, .st9, .st10, .st11, .st12, .st13, .st14, .st15, .st16, .st17, .st18, .st19, .st20, .st21, .st22 {
        fill: none;
      }

      .st0, .st1, .st2, .st3, .st18, .st22 {
        stroke: #000;
      }

      .st0, .st1, .st2, .st4, .st5, .st6, .st7, .st8, .st10, .st11, .st12, .st13, .st14, .st15, .st16, .st17 {
        stroke-linejoin: round;
      }

      .st0, .st1, .st2, .st4, .st5, .st6, .st7, .st8, .st10, .st11, .st12, .st13, .st14, .st15, .st16, .st17, .st19, .st20, .st21, .st22 {
        stroke-linecap: round;
      }

      .st0, .st8 {
        stroke-width: 3.79px;
      }

      .st1 {
        stroke-width: 3.95px;
      }

      .st2, .st7, .st18, .st22 {
        stroke-width: 3.96px;
      }

      .st3 {
        opacity: .3;
        stroke-miterlimit: 10;
      }

      .st4 {
        stroke-width: 2.33px;
      }

      .st4, .st6 {
        stroke: #49443b;
      }

      .st23, .st24, .st25, .st26, .st27, .st28, .st29, .st30, .st31, .st32, .st33, .st34, .st35, .st36, .st37, .st38, .st39, .st40, .st41, .st42, .st43, .st44, .st45, .st46 {
        fill-rule: evenodd;
      }

      .st23, .st47, .st48 {
        fill: #fff;
      }

      .st49 {
        fill: #d9816d;
      }

      .st24 {
        fill: #212121;
      }

      .st5 {
        stroke: #c77246;
        stroke-width: 4.74px;
      }

      .st25 {
        fill: #ffe2d3;
      }

      .st26 {
        fill: #ea6789;
      }

      .st50 {
        fill: #eeac95;
      }

      .st51 {
        fill: #ff3d2b;
      }

      .st27 {
        fill: #463124;
      }

      .st28 {
        fill: #f6cb36;
      }

      .st29 {
        fill: #ff8f71;
      }

      .st30 {
        fill: #ffc0db;
      }

      .st47 {
        opacity: .8;
      }

      .st6 {
        stroke-width: 3.5px;
      }

      .st31 {
        fill: #ffa5d1;
      }

      .st52 {
        fill: #f2846b;
      }

      .st7 {
        stroke: #676155;
      }

      .st32 {
        fill: #ffbcd3;
      }

      .st8 {
        stroke: #985c3b;
      }

      .st33 {
        fill: #a7f9fd;
      }

      .st53 {
        fill: #e4a374;
      }

      .st54 {
        clip-path: url(#clippath-17);
      }

      .st55 {
        clip-path: url(#clippath-11);
      }

      .st56 {
        clip-path: url(#clippath-16);
      }

      .st57 {
        clip-path: url(#clippath-10);
      }

      .st58 {
        clip-path: url(#clippath-15);
      }

      .st59 {
        clip-path: url(#clippath-14);
      }

      .st34 {
        fill: #ffafdb;
      }

      .st60 {
        clip-path: url(#clippath-4);
      }

      .st61 {
        clip-path: url(#clippath-8);
      }

      .st35 {
        fill: #ffddd2;
      }

      .st62 {
        fill: #464646;
      }

      .st37 {
        fill: #232323;
      }

      .st63 {
        fill: #ff5f49;
      }

      .st64 {
        fill: #242424;
      }

      .st9 {
        clip-rule: evenodd;
      }

      .st10 {
        stroke-width: 4.7px;
      }

      .st10, .st11, .st12, .st13, .st14, .st15, .st16, .st17, .st19, .st20, .st21 {
        stroke: #25231e;
      }

      .st11 {
        stroke-width: 4.7px;
      }

      .st12 {
        stroke-width: 3.93px;
      }

      .st13 {
        stroke-width: 3.93px;
      }

      .st14 {
        stroke-width: 3.92px;
      }

      .st15 {
        stroke-width: 3.14px;
      }

      .st16 {
        stroke-width: 3.14px;
      }

      .st17 {
        stroke-width: 5.13px;
      }

      .st38 {
        fill: #676155;
      }

      .st39 {
        fill: #ff804e;
      }

      .st65 {
        fill: #626262;
      }

      .st18, .st19, .st20, .st21, .st22 {
        stroke-miterlimit: 22.93;
      }

      .st40 {
        fill: #ffe1d2;
      }

      .st19 {
        stroke-width: 3.94px;
      }

      .st20 {
        stroke-width: 3.94px;
      }

      .st21 {
        stroke-width: 3.94px;
      }

      .st66 {
        fill: #ff74ab;
      }

      .st41 {
        fill: #f9ddcb;
      }

      .st42 {
        fill: #454544;
      }

      .st43 {
        fill: #ffdeca;
      }

      .st67 {
        clip-path: url(#clippath);
      }

      .st44 {
        fill: #ababab;
      }

      .st45 {
        fill: #adece4;
      }

      .st46 {
        fill: #8dccdd;
      }
    </style>
  </defs>
  <g class="st60" transform="matrix(1, 0, 0, 1, 7.105427357601002e-15, 0)">
    <g>
      <path class="st40" d="M304.9,1188.56c-5.43,9.93-7.86,39.01-.99,53.52,3.57,7.53,14.04,21.49,18.15,15.9,4.52-6.15,13.86-20.79,5.17-27.09-10.89-7.89.28-21.98-1.39-29.74-.84-3.88-20.45-13.5-20.94-12.59Z"/>
      <path d="M319.65,1261.38c-.17,0-.35,0-.53-.03-6.73-.65-14.91-13.7-17.12-18.38-7.24-15.29-4.46-45.37,1.05-55.44.18-.33.91-1.36,2.5-1.13,2.16.31,21.24,9.03,22.37,14.29.7,3.25-.38,7.03-1.52,11.03-2.28,7.97-3.36,13.49,2.08,17.44,2.39,1.73,3.83,4.09,4.29,7.01,1.15,7.36-4.26,16.59-9,23.04-1.03,1.4-2.48,2.15-4.12,2.15ZM306.08,1190.97c-4.63,10.51-6.49,37.03-.26,50.2,3.21,6.77,10.3,15.64,13.7,15.97.32.03.54-.02.83-.42,5.94-8.08,8.93-15.33,8.22-19.88-.28-1.79-1.13-3.18-2.59-4.24-8.26-5.98-5.71-14.88-3.67-22.03.99-3.48,1.93-6.76,1.45-8.98-.99-2.33-13.36-8.98-17.69-10.63ZM304.9,1188.56h.02-.02Z"/>
      <path class="st40" d="M393.89,1276.13c.84,5.68,5.66,35.87,7.32,41.46.54,1.82,11.1,11.6,8.07,15.33-.47,8.34-20.3,6.65-26.83,1.3-1-3.25-1.1-9.84-1.36-16.48-3.69-8.34-12.16-29.66-16.42-45.09-2.12-7.65.45-10.3,8.68-13.23,9.63-.34,17.51,1.11,20.55,16.71Z"/>
      <path d="M398.31,1340.82c-6.29,0-13.4-1.85-17.2-4.96-.32-.26-.56-.62-.68-1.01-.95-3.09-1.14-8.31-1.35-14.36l-.08-2.26c-3.57-8.15-11.99-29.18-16.36-45.01-2.59-9.35,1.52-12.76,10.01-15.79.21-.07.42-.11.64-.12,9.63-.35,19.28.81,22.7,18.42,0,.03.01.06.01.09.98,6.61,5.69,35.91,7.26,41.17.14.23,1.14,1.44,1.95,2.41,3.62,4.36,8.51,10.25,6.14,14.27-.37,2.5-2.06,4.52-4.82,5.73-2.2.97-5.1,1.42-8.2,1.42ZM384.31,1332.97c4.74,3.35,15.49,4.76,20.5,2.55,2.03-.89,2.32-1.98,2.36-2.72.02-.44.19-.87.47-1.22.4-.49.19-2.37-5.71-9.48-1.71-2.07-2.48-3.02-2.75-3.91-1.72-5.81-6.61-36.56-7.38-41.71-2.77-14.17-9.51-15.22-18.06-14.96-7.52,2.72-8.7,4.55-7.04,10.56,4.34,15.7,13.03,37.34,16.32,44.8.11.24.17.51.18.77l.1,2.68c.18,5.09.36,9.92,1,12.64Z"/>
      <path class="st34" d="M381.88,1325.94c7.27,10.93,32.71,10.34,24.94-1.04-1.73-2.54.89-.06,3.21,2.41,11.19,11.9,11.7,14.9-.46,16.53-2.48.33-17.9.92-22.18-2.01-5.5-3.77-7.01-10.62-6.63-15.52.07-.94.66-1.07,1.12-.38Z"/>
      <path d="M402.34,1346.25c-5.68,0-12.97-.49-16.14-2.67-6.23-4.27-7.99-11.81-7.55-17.43.13-1.63,1.12-2.46,2-2.69.88-.24,2.12-.01,3,1.3,0,0,0,0,0,0,3.31,4.98,11.16,7.24,16.91,6.87,2.77-.18,4.91-1.03,5.46-2.15.5-1.02-.37-2.56-.94-3.39-.48-.71-1.76-2.58-.12-3.9,1.81-1.46,3.42.26,6.63,3.67,6.99,7.43,10.1,11.6,8.84,15.16-1.09,3.05-5.01,4.17-10.56,4.92-.69.09-3.75.31-7.52.31ZM383.01,1330.34c.52,3.55,2.15,7.39,5.58,9.74,3.37,2.31,17.53,2.08,20.7,1.65,6.21-.83,7.03-1.84,7.13-2.14.37-1.04-1.74-4.09-6.28-9.06-.09.29-.2.56-.32.79-1.27,2.62-4.46,4.22-8.98,4.53-5.78.38-13.03-1.42-17.83-5.52Z"/>
      <path class="st40" d="M361.23,1318.77c-.06,1.59,1.75,8.28-2.5,11.54-6.36,3.82-26.48,7.97-29.77,4.91-3.54-3.28,5.05-5.93,9.52-8.66,3.43-3.64-5.68-54.27-3.59-66.42,0,0,24.53-2.63,26.02-.09,3.86,6.58.29,47.17.32,58.73Z"/>
      <path d="M334.17,1338.4c-3,0-5.42-.47-6.67-1.63-1.46-1.35-1.6-2.72-1.47-3.64.41-2.85,3.81-4.53,7.74-6.48,1.13-.56,2.2-1.09,3.11-1.61.92-3.06-.73-18.3-1.95-29.52-1.58-14.52-3.21-29.54-2.14-35.73.16-.9.88-1.61,1.79-1.74.25-.03,25.61-3.39,28.15.93,2.89,4.93,2.28,22.57,1.17,45.12-.3,6.2-.56,11.56-.56,14.68,0,.02,0,.06,0,.08,0,.23.05.59.1,1.03.32,2.83.99,8.72-3.42,12.11-.06.05-.13.09-.2.14-4.3,2.58-17.24,6.27-25.64,6.27ZM330.34,1333.62s.03.03.05.05c2.35,1.81,20.48-1.2,27.13-5.11,2.23-1.8,2.05-5.17,1.7-8.2-.08-.69-.13-1.25-.12-1.61,0-3.23.26-8.63.56-14.87.69-14.06,1.83-37.37-.42-42.42-2.75-.93-15.71-.09-22.48.6-.51,6.37,1.02,20.45,2.38,32.99,2.56,23.53,2.98,30.72.87,32.96-.13.14-.27.26-.44.35-1.17.71-2.57,1.41-3.92,2.08-1.64.81-4.59,2.28-5.32,3.17Z"/>
      <path class="st34" d="M362.14,1320.01c1.66.82,2.41,1.29,2.71,3.56.73,5.4-1.39,12.36-1.87,15.39-.54.83-2.17,1.1-3.11.57-.46-.26-.37-3.13-.66-2.93-3.05,2-7.56,4.21-11.01,4.91-11.41,2.33-32.44,2.54-29.96-3.79.73-1.56,11.74-7.98,13.32-8,2,4.91,13.33,3.69,17.67,2.07,6.3-2.35,13.76-10.64,12.9-11.78Z"/>
      <path d="M332.4,1345.11c-6.77,0-13.15-.92-15.44-3.63-1.09-1.29-1.33-2.91-.69-4.54,1.16-2.48,13-9.33,15.28-9.34h.01c.86,0,1.64.52,1.96,1.32,1.16,2.83,10.31,2.62,14.97.88,4.91-1.83,10.61-7.79,11.53-9.62-.04-.54.12-1.08.49-1.52.63-.75,1.69-.98,2.57-.54,1.99.99,3.44,1.94,3.87,5.17.6,4.48-.57,9.82-1.34,13.36-.23,1.05-.43,1.95-.54,2.64-.05.29-.15.58-.32.82-1.14,1.76-3.97,2.37-5.92,1.27-.59-.33-.93-.82-1.13-1.41-2.72,1.5-6.1,3.01-9.08,3.62-4.03.82-10.28,1.53-16.23,1.53ZM320.18,1338.66c1.07,2.14,15.2,3.29,27.6.76,3.25-.66,7.5-2.79,10.27-4.61.62-.41,1.46-.47,2.13-.14.7.34,1.03.89,1.2,1.51.03-.15.06-.3.1-.45.75-3.44,1.78-8.14,1.28-11.89,0-.05-.01-.09-.02-.13-2.6,3.49-8.03,8.28-12.76,10.05-4.41,1.64-15.28,3.14-19.34-1.57-2.69,1.25-9.12,5.14-10.45,6.46ZM362.98,1338.95h.02-.02ZM360.44,1321.28s0,0,0,0t0,0ZM360.44,1321.27h0Z"/>
      <path class="st40" d="M344.71,1154.88c.93-.07-1.52,7.43-3.41,11.62-2.31,5.11-14.77,4.69-13.81,5.89,3.5,4.97,33.95,19.56,39.48,18.28,14.84-3.43,25.11-5.63,34.21-19.11-1.34-2.99-11.96-5.29-10.74-21.27-26.96,6.97-27.27,3.37-45.72,4.58Z"/>
      <path d="M366.38,1192.84c-8.3,0-37.03-14.12-40.62-19.23l-.65-.92.36-1.23c.55-1.44,1.9-1.67,4.58-2.13,2.89-.49,8.28-1.41,9.32-3.7,1.77-3.91,3.43-9.28,3.43-10.3,0,.17.1.69.57,1.13l1.34-1.44-.15-2.26,1.2-.09h0c5.35-.29,9.18-.19,12.58-.11,7.54.2,13.49.35,31.55-4.32l2.87-.74-.23,2.95c-.82,10.75,4.14,14.53,7.43,17.03,1.38,1.05,2.57,1.96,3.14,3.22l.48,1.07-.66.97c-9.43,13.98-20.1,16.44-34.87,19.85l-.61.14c-.3.07-.66.1-1.06.1ZM331.69,1173.35c8.11,5.82,30.99,16.15,34.79,15.26l.61-.14c13.82-3.19,23.12-5.33,31.39-16.76-.34-.28-.74-.59-1.08-.85-3.25-2.47-9.08-6.91-9.19-17.81-16.53,4.11-22.51,3.96-29.98,3.76-3.15-.08-6.66-.17-11.44.07-.64,3.9-3.19,9.65-3.57,10.49-1.82,4.03-7.4,5.25-11.53,5.97Z"/>
      <path class="st31" d="M340.7,1158.12c12.94,17.04,20.56,24.4,23.01,25.31,4.06-2.72,11.81-10.41,22.29-25.33,10.4,1.96,35.85,15.14,39.18,23.77-3.46,4.34-18.38,17.15-22,16.98,1.81,5.09.76,19.68,2.53,25.07,6.39,19.46,13.76,47.95,15.31,60.69-23.69,16.03-102.67,12.7-104.94,5.14-.55-14.89,1.48-35.21,6.93-60.38-1-7.23-1.19-13.63-.77-19.2-6.56-.36-18.98-.41-22.04-1.9-1.83-.89,7.77-27.14,18.1-38.6,6.77-7.52,13.77-8.35,22.42-11.57"/>
      <path d="M357.82,1298.1c-17.08,0-32.29-1.59-38.91-3.95-2.85-1.01-4.39-2.21-4.86-3.77-.05-.17-.08-.35-.09-.53-.59-15.97,1.8-36.89,6.9-60.54-.82-6.04-1.11-11.78-.87-17.1-.97-.04-2.01-.08-3.09-.12-8.71-.32-15.07-.64-17.63-1.88-.41-.2-1.13-.7-1.35-1.84-.85-4.34,9.07-29.29,18.79-40.09,5.69-6.32,11.65-8.26,17.96-10.33,1.7-.55,3.45-1.13,5.29-1.81.88-.33,1.86-.04,2.43.7,12.22,16.08,18.75,22.32,21.18,24.08,2.89-2.23,9.8-8.51,20.69-24.03.48-.68,1.3-1.02,2.13-.87,10.47,1.97,37.03,15.39,40.77,25.09.27.7.15,1.49-.32,2.08-2.45,3.08-14.56,14.24-21.1,17.11.55,2.91.69,6.87.85,11.02.17,4.7.35,9.56,1.14,11.95,6.12,18.64,13.76,47.64,15.4,61.1.09.79-.26,1.57-.92,2.01-12.67,8.58-40.37,11.72-64.38,11.72ZM318.17,1289.24c4.71,5.05,76.12,9.29,100.56-5.68-1.91-13.72-9.18-41.12-15.04-58.97-.97-2.96-1.15-7.89-1.35-13.12-.18-4.74-.36-9.65-1.16-11.91-.24-.67-.13-1.4.29-1.97.42-.57,1.03-.93,1.8-.85,2.56-.21,14.76-10.09,19.38-15.19-4.39-7.26-25.34-18.52-35.74-21.08-8.47,11.91-16.65,21.11-22.03,24.71-.57.38-1.28.46-1.92.23-3.56-1.32-12.12-10.55-23.01-24.77-1.36.48-2.68.91-3.97,1.33-6.26,2.04-11.2,3.65-16.13,9.13-9.03,10.03-16.8,30.52-17.69,35.61,3.01.69,10.03.95,14.88,1.13,1.95.07,3.78.14,5.3.22.57.03,1.1.29,1.48.72.38.43.56.99.52,1.56-.43,5.72-.17,12.04.76,18.75.03.24.02.5-.03.74-5.04,23.23-7.42,43.76-6.9,59.41ZM302.09,1207.6h.02-.02Z"/>
      <path d="M359.84,1194.9c-.33,0-.65-.08-.94-.22-8.43-4.19-19.53-17.95-29.27-30.86-.7-.93-.52-2.26.41-2.97.93-.7,2.27-.52,2.97.41,5.62,7.44,18.64,24.69,27.31,29.38l10.6-.37c8.12-9.06,15.38-18.95,23.05-29.41l3.42,2.51c-7.93,10.81-15.41,21.01-23.92,30.41-.38.43-.93.68-1.5.7l-12.05.41s-.05,0-.07,0Z"/>
      <path class="st53" d="M364.11,1146.76c-5.26,0-10.12-2.06-13.09-4.2-.51-.37-.62-1.08-.26-1.59.37-.51,1.09-.62,1.59-.26,3.68,2.65,9.95,4.7,15.66,3.32.61-.15,1.22.23,1.37.84.15.61-.23,1.22-.84,1.37-1.49.36-2.97.52-4.43.52Z"/>
      <path class="st40" d="M420.19,1111.84c11.2-49.32-17.91-110.9-77.61-80.58-24.63,12.51-37.69,38.48-40.94,65.06-.63,17.14,6.38,39.2,21.72,52.23,21.45,20.61,39.24,21.17,64.7,8.66,24.39-11.85,27.28-24.05,32.12-45.36"/>
      <path d="M358.43,1167.68c-12.86,0-24.2-5.76-36.54-17.61-16.28-13.82-22.99-37.01-22.37-53.83,3.77-30.89,19.11-55.2,42.1-66.88,28.5-14.48,47.49-7.37,58.4,1.13,20.09,15.66,29.44,50.07,22.23,81.81h0c-4.88,21.47-7.82,34.44-33.27,46.8-11.55,5.68-21.43,8.57-30.56,8.57ZM372.42,1025.33c-8.9,0-18.61,2.6-28.88,7.82-21.71,11.02-36.21,34.15-39.79,63.43-.57,15.62,5.69,37.37,20.99,50.35,19.87,19.09,36.17,21.26,62.39,8.37,23.62-11.47,26.24-23.01,30.99-43.93h0c6.86-30.22-1.84-62.83-20.7-77.53-7.28-5.68-15.71-8.52-25-8.52Z"/>
      <path d="M326.15,1075.49c-.76,0-1.51-.37-1.97-1.05-.73-1.08-.44-2.56.65-3.29,6.86-4.61,21.66-3.64,27.32-.58,1.15.62,1.58,2.06.96,3.21-.62,1.15-2.05,1.58-3.21.96-4.46-2.41-17.23-3.15-22.43.35-.4.27-.86.4-1.32.4Z"/>
      <path d="M404.16,1089.03c-.59,0-1.19-.22-1.65-.67-8.43-8.16-18.88-8.96-22.96-8.87h-.03c-1.29,0-2.35-1.04-2.37-2.34-.01-1.31,1.03-2.38,2.34-2.4,4.78-.12,16.63.82,26.31,10.21.94.91.96,2.41.05,3.35-.46.48-1.08.72-1.7.72Z"/>
      <path class="st52" d="M360.13,1139.41c-1.09,0-2.19-.07-3.3-.2-8.78-1.07-17.04-6.46-20.56-13.41-.68-1.35-.14-3,1.21-3.68,1.35-.68,3-.14,3.68,1.21,2.69,5.3,9.4,9.59,16.33,10.44,6.67.82,12.73-1.51,17.09-6.56.99-1.14,2.72-1.27,3.87-.28,1.15.99,1.27,2.72.28,3.87-4.86,5.63-11.38,8.62-18.6,8.62Z"/>
      <path d="M362.09,1116.22c-3.06,0-6-.96-8.2-2.7-2.47-1.96-3.67-4.83-3.76-6.81-.05-1.03.75-1.9,1.78-1.95.94-.1,1.9.75,1.95,1.78.04.88.71,2.75,2.34,4.05,1.73,1.36,4.15,2.05,6.65,1.86,1-.06,1.92.7,2,1.73.07,1.03-.7,1.92-1.73,2-.35.02-.7.04-1.04.04Z"/>
      <path class="st36" d="M343.79,1001.1c-9.68,3.14-17.4,8.15-25.21,13.97-10.09,7.51-23.35,23.59-25.09,40.58-.18,1.79,3.04-3.1,4.9-5.98-2.31,5.53-4.15,11.39-5.63,17.6-1.76,10.72-2.02,26.12.94,34.46,1.32,3.71,5.65,10.25,6.5,13.6,1.71,6.82,3.41,11.51,7.03,17.24,4.07,6.43.74-.88-.14-11.08-1.16-13.29.56-30,3.95-42.74,18.77-37.23,66.37-32.96,89.64-37.97,14.12,14.78,17.36,24.01,16.42,41.32-1.11,20.25-1.46,51.8-12.04,66.23-1.58,1.42-.24,1.03,5.62-3.34,4.04-3.02,7.93-6.67,11.51-10.69.65,2.86,1.55,5.03,2.77,6.26.55.55.81-10.19,2.87-13.09,10.92-15.41,15.63-26.9,17.4-37.39,1.31-4.86,1.99-9.69,1.57-14.79-.32-3.88-.8-7.85-1.46-11.81-.1-1.1-.37-2.59-.8-4.38-2.02-10.08-5.25-20.02-10.03-28.55-4.67-6.83-9.62-11.46-15.12-14.63-.15-.11-.3-.22-.45-.33-.09-.02-.17-.04-.26-.06-2.79-1.53-5.72-2.69-8.82-3.59-6.13-10.58-20.31-15.03-34.12-15.29-7.4-.14-24.83,2.13-31.95,4.44Z"/>
      <path d="M404.43,1149.56c-.19,0-.27-.1-.35-.2-.37-.45.17-.94.65-1.37,9.31-12.72,10.61-39.54,11.55-59.13.11-2.36.22-4.64.34-6.78.96-17.47-2.66-26.66-16.1-40.78-4.88,1.03-10.88,1.67-17.23,2.36-24.11,2.6-57.13,6.15-71.83,35.31-3.46,13.07-5.01,29.78-3.9,42.49.35,4.04,1.1,7.68,1.59,10.08.61,2.94.75,3.64.14,3.89-.55.23-.96-.23-2.46-2.6-3.79-5.99-5.47-10.91-7.09-17.38-.44-1.77-1.94-4.54-3.38-7.22-1.22-2.27-2.48-4.61-3.1-6.34-2.99-8.41-2.74-23.82-.96-34.7,1.17-4.9,2.5-9.38,4.05-13.6-2.01,2.87-2.48,3.04-2.92,2.88-.22-.08-.46-.29-.4-.87,1.67-16.43,14.27-32.72,25.27-40.91,7.19-5.36,15.24-10.76,25.35-14.04h0c7.34-2.38,24.9-4.63,32.1-4.46,7.73.15,26.5,1.95,34.42,15.36,3.16.92,6.01,2.08,8.68,3.54l.36.12c.12.09.24.18.36.27,5.78,3.34,10.77,8.17,15.32,14.81,4.5,8.03,7.89,17.69,10.1,28.73.43,1.74.71,3.28.81,4.43.64,3.82,1.13,7.81,1.46,11.82.39,4.73-.11,9.48-1.58,14.95-1.97,11.68-7.36,23.27-17.47,37.54-1.22,1.71-1.8,6.54-2.18,9.74-.36,3-.43,3.39-.87,3.54l-.28.1-.26-.23c-1.12-1.13-2-2.97-2.68-5.61-3.54,3.89-7.23,7.28-10.98,10.08-4.61,3.44-6,4.17-6.52,4.17ZM400.84,1040.27l.18.19c13.81,14.46,17.52,23.8,16.54,41.67-.12,2.14-.23,4.41-.34,6.77-.93,19.24-2.19,45.41-11.13,58.76.94-.62,2.33-1.58,4.29-3.04,3.91-2.92,7.76-6.5,11.44-10.62l.61-.69.2.9c.56,2.44,1.28,4.27,2.15,5.45.09-.59.2-1.46.3-2.27.42-3.49.99-8.26,2.34-10.18,10.02-14.14,15.37-25.61,17.32-37.19,1.45-5.41,1.95-10.05,1.56-14.67-.33-3.99-.82-7.95-1.45-11.78-.1-1.14-.38-2.63-.79-4.34-2.2-10.96-5.55-20.52-9.98-28.43-4.44-6.48-9.33-11.22-14.94-14.45l-.7-.39c-2.68-1.47-5.54-2.63-8.73-3.55l-.18-.05-.1-.16c-5.29-9.12-17.89-14.75-33.72-15.05-7.19-.17-24.53,2.06-31.79,4.41-9.98,3.23-17.95,8.59-25.07,13.9-10.71,7.97-22.95,23.71-24.83,39.65.61-.7,1.77-2.29,3.97-5.69l2.88-4.44-2.04,4.88c-2.24,5.35-4.07,11.08-5.6,17.52-1.76,10.73-2.01,25.94.93,34.2.59,1.66,1.84,3.97,3.04,6.21,1.47,2.73,3,5.56,3.47,7.44,1.6,6.38,3.26,11.22,6.97,17.1.44.7.77,1.19,1,1.52-.1-.58-.26-1.35-.41-2.11-.5-2.43-1.25-6.1-1.61-10.19-1.12-12.8.44-29.64,3.96-42.9,14.97-29.71,48.28-33.3,72.61-35.91,6.44-.69,12.52-1.35,17.4-2.4l.26-.06Z"/>
      <path class="st36" d="M344.27,1081.64c-3.14-.37-5.92,1.69-6.22,4.61-.3,2.91,1.99,5.57,5.12,5.94,3.13.36,5.91-1.7,6.22-4.61.3-2.91-1.99-5.56-5.13-5.93"/>
      <path class="st36" d="M384.21,1087.96c-3.18-.39-6,1.66-6.29,4.56-.3,2.91,2.04,5.57,5.22,5.95,3.18.39,6-1.66,6.3-4.57.3-2.91-2.04-5.57-5.23-5.95"/>
      <path class="st65" d="M404.07,1037.1c-.28,0-.57-.08-.83-.24-.73-.46-.95-1.42-.49-2.15,2.1-3.35,4.32-9.68,4.24-17.41,0-.86.68-1.57,1.54-1.57h.01c.85,0,1.55.69,1.56,1.54.08,8.4-2.39,15.37-4.72,19.09-.29.47-.8.73-1.32.73Z"/>
      <path d="M371.25,1194.02c-.58,0-1.16-.24-1.57-.7-1.51-1.67-2.69-2.86-4.07-4.23-1.4-1.4-2.99-2.98-5.21-5.39-.8-.86-.74-2.2.12-2.99.86-.8,2.2-.75,2.99.12,2.18,2.35,3.71,3.89,5.1,5.27,1.36,1.35,2.64,2.64,4.22,4.39.78.87.72,2.21-.15,2.99-.4.36-.91.55-1.42.55Z"/>
      <path d="M322.06,1215.33c-1.05,0-1.97-.79-2.1-1.86-.46-3.72.9-12.73,2.02-16.64.32-1.13,1.5-1.78,2.62-1.45,1.13.32,1.77,1.5,1.45,2.62-1.08,3.75-2.24,12.11-1.89,14.94.14,1.16-.68,2.22-1.84,2.36-.09.01-.18.01-.26.01Z"/>
      <path class="st31" d="M318.83,1236.67c6.64,3.45,25.86,3.8,30.03,2.72.11.22-1.09,30.13-2.77,32.23-2.95,3.71-29.98,1.49-30.17-2.16-.27-5.22,1.29-32.85,2.91-32.79Z"/>
      <path d="M335.81,1275.68c-6.56,0-13.96-1.05-17.52-2.19-1.19-.38-4.36-1.39-4.49-3.92-.11-2.18.71-31.61,3.37-34.31.42-.43,1.22-.74,1.74-.71.31.01.62.09.9.24,5.99,3.11,24.69,3.54,28.52,2.55.97-.26,1.98.21,2.43,1.1.74,1.47-1.03,32.02-3,34.5-1.6,2.01-6.48,2.74-11.94,2.74ZM318.01,1268.85c3.47,2.4,23.42,3.57,26.35,1.5,1.05-2.97,2.08-21.69,2.33-28.5-6.39.56-19.58.05-26.67-2.38-1.06,5.75-2.17,23.85-2.01,29.39ZM344.3,1270.51h0Z"/>
      <path class="st31" d="M411.97,1234.55c-4.53,2.88-22,5.73-28.77,5.3-.1.23,2.12,29.35,3.92,31.34,3.18,3.5,31.3-1.46,31.39-5.7.1-5.23-4.92-31.11-6.54-30.94Z"/>
      <path d="M393.18,1274.48c-3.53,0-6.4-.52-7.63-1.88-2.29-2.53-4.84-32.28-4.32-33.57.35-.84,1.17-1.37,2.1-1.31,6.47.42,23.44-2.39,27.5-4.97.28-.17.59-.28.91-.32.59-.06,1.4.22,1.85.63,2.76,2.53,7.11,28.44,7.03,32.45-.05,2.6-3.14,4.09-5.83,5.1-4.6,1.72-14.47,3.86-21.62,3.86ZM388.78,1269.81c3.2,1.9,24.82-1.74,27.62-4.69-.08-4.84-3.49-22.46-5.27-27.78-6.07,2.54-18.7,4.52-25.69,4.66.46,6.6,2.19,24.97,3.35,27.81ZM388.84,1269.97h0Z"/>
      <path class="st23" d="M319.08,1165.99c-7.25,1.78-16.77,11.5-23.27,43.46-.42-.09-1.95,4.72-2.27,4.88-5.29,2.57-2.45,16.84.31,18.8,6.48,4.62,26.64-.96,25.84-2.91-.76-1.86-.39-5.74-.22-9.18,8.12-8.84,5.95-42.99,1.84-48.35-.92-1.2-2.05-6.76-2.23-6.71Z"/>
      <path d="M301.79,1237.02c-3.63,0-6.97-.59-9.17-2.16-2.84-2.03-4.54-9.65-4.11-14.85.35-4.22,1.96-6.25,3.46-7.23.14-.33.31-.78.5-1.26.49-1.26.9-2.31,1.37-3.04,6.9-33.48,17.25-42.71,24.73-44.55,0,0,0,0,.01,0,2.07-.52,2.57,1.37,3.05,3.18.27,1.02.99,3.73,1.37,4.33,4.66,6.08,6.73,40.07-1.46,50.44l-.05.86c-.14,2.47-.31,5.55.15,6.68.17.42.6,1.88-1.04,3.18-2.24,1.78-11.17,4.42-18.82,4.42ZM297.27,1210.98c-.22.46-.61,1.45-.85,2.08-.82,2.11-1.07,2.75-1.96,3.18-1.13.55-1.52,2.49-1.66,3.61-.6,4.87,1.35,10.78,2.3,11.57,4.44,3.17,18.64.11,22.25-1.74-.37-1.95-.23-4.51-.08-7.18l.08-1.55c.02-.5.22-.97.56-1.33,7.23-7.87,5.52-40.66,1.72-45.62-.68-.89-1.19-2.43-1.95-5.26-5.42,2.53-13.76,11.47-19.8,41.15-.09.43-.3.81-.61,1.11ZM292.61,1212.42s-.02,0-.02.01c0,0,.02,0,.02-.01ZM295.37,1211.52c.18.04.37.05.53.04-.17.01-.35,0-.53-.04Z"/>
      <path class="st23" d="M319.14,1194.99c-1.11,10.08-7.95,53.65-5.01,61.8,6.57,2.52,29.41,4.39,39.38,3.52.25-.02.75-44.8.48-46.29-2.21-12.56-15.48-49.74-20.21-51.44-5.65-2.03-16.46.91-16.18,3.6.62,5.92,2.17,23.1,1.54,28.81Z"/>
      <path d="M347.56,1262.64c-11.31,0-28.34-1.63-34.19-3.87-.57-.22-1.02-.68-1.23-1.26-2.34-6.48.54-29.95,3.69-53.43.54-4.06.99-7.34,1.2-9.32h0c.6-5.43-.91-22.31-1.54-28.36-.09-.87.13-2.16,1.71-3.39,3.33-2.61,12.14-4.27,17.3-2.42,6.58,2.36,19.73,42.54,21.58,53.06.07.38.26,46.45-.89,47.95-.36.47-.91.77-1.5.82-1.7.15-3.8.22-6.13.22ZM315.88,1255.14c6.73,2.03,25.4,3.69,35.62,3.18.26-8.17.59-41.98.39-44.03-2.46-13.94-15.2-47.48-18.92-49.76-4.21-1.5-11.76.52-13.22,1.84.31,3.09,2.21,22.39,1.5,28.84h0c-.22,2-.67,5.32-1.22,9.42-1.89,14.09-5.74,42.74-4.16,50.5Z"/>
      <path class="st23" d="M334.77,1159.31c-4.21.15-18.69,5.62-18.18,6.33.4.56,11.68,12.2,14.68,14.23-.14,1.13-7.6,7.87-6.55,8.57,5.17,3.44,27.15,26.8,28.15,27.33,2.51-8.22-10.47-48.87-18.09-56.45Z"/>
      <path d="M352.87,1217.88c-.34,0-.68-.08-1-.25-.55-.29-1.04-.75-7.31-7.15-6.65-6.78-17.78-18.13-21.01-20.28-.52-.34-.96-1.06-1.03-1.68-.18-1.54.9-2.86,4.3-6.54.47-.51,1.07-1.16,1.56-1.72-4.39-3.79-12.98-12.66-13.51-13.39-.46-.63-.53-1.55-.18-2.25,1.23-2.52,17.1-7.32,20.01-7.43.59-.07,1.16.2,1.57.61,8.12,8.08,21.35,49.68,18.63,58.57-.18.61-.63,1.09-1.22,1.34-.26.11-.53.16-.81.16ZM327.34,1187.76c4.04,3.3,11.87,11.21,20.25,19.75,1.2,1.22,2.42,2.47,3.47,3.53-.87-12.28-10.83-41.93-17.13-49.52-3.35.54-10.51,3.07-14,4.58,3.29,3.41,10.45,10.59,12.54,12,.66.44,1.01,1.22.92,2.01-.13,1.1-.93,2.02-3.44,4.74-.76.82-1.87,2.02-2.59,2.91Z"/>
      <path class="st23" d="M409.84,1186.9c2.63,7.38,8.1,60.49,9.36,68.93-5.77,2.9-31.16,4.53-41.24,4.25-3.64-4.49-3.69-42-2.78-44.72,1.03-3.07,5.43-14.95,9.82-25.22,1.54-3.61,13.71-28.26,18.11-25.09,1.59,1.15,6.83,2.83,10.56,9.79.65,1.21-3.99,11.3-3.84,12.06Z"/>
      <path d="M380.32,1262.23c-.89,0-1.7,0-2.41-.03-.62-.02-1.2-.3-1.59-.78-4.26-5.25-4.18-43.61-3.14-46.72,1-2.99,5.41-14.92,9.89-25.38.1-.24,11.12-24.57,18.08-26.5,1.16-.32,2.3-.14,3.21.52.25.18.62.37,1.06.61,2.38,1.3,6.82,3.71,10.13,9.9.75,1.41.21,3.24-2.33,9.78-.44,1.13-.97,2.49-1.19,3.16,1.81,6.08,4.5,28.4,7.33,52.73.88,7.61,1.58,13.63,1.94,16.01.14.91-.33,1.8-1.14,2.21-6.03,3.03-28.99,4.5-39.84,4.5ZM379.21,1257.99c9.85.12,30.69-1.29,37.66-3.51-.4-3.02-1-8.2-1.73-14.47-2.06-17.71-5.51-47.35-7.3-52.39-.03-.09-.06-.19-.08-.29-.18-.88.08-1.59,1.5-5.24.75-1.92,2.09-5.38,2.32-6.64-2.69-4.77-6.13-6.64-8.2-7.78-.5-.27-.93-.52-1.27-.73-3.3,1.11-12.26,17.28-15.16,24.04-4.43,10.35-8.78,22.12-9.76,25.06-1.03,4.1-.28,35.89,2.02,41.95ZM411.62,1175.18h0Z"/>
      <path class="st23" d="M393.81,1158.35c3.13.18,21.17,8.22,20.64,8.9-.43.54-13.2,8.29-16.33,10.17.12,1.14,6.92,8.16,5.82,8.81-5.4,3.2-27.82,29.31-28.86,29.79-1.45-8.3,13.33-51.66,18.73-57.67Z"/>
      <path d="M375.08,1218.14c-.34,0-.67-.08-.98-.24-.58-.3-.99-.87-1.11-1.51-1.59-9.1,13.38-52.93,19.24-59.45.43-.48,1.05-.73,1.7-.7,2.43.14,21.29,7.51,22.45,10.07.32.72.22,1.64-.27,2.26-.2.25-.72.92-15.03,9.55.39.5.84,1.06,1.22,1.54,3.06,3.8,4.11,5.27,3.83,6.79-.11.61-.59,1.31-1.12,1.62-3.35,1.98-15.35,15.23-21.79,22.35-6.28,6.94-6.6,7.24-7.25,7.54-.29.13-.59.2-.9.2ZM394.7,1160.67c-4.63,6.94-14.98,36.51-17.2,49.73.82-.9,1.7-1.88,2.58-2.84,8.82-9.74,17.07-18.73,21.34-22.13-.65-.93-1.7-2.23-2.42-3.12-2.14-2.66-2.89-3.63-3-4.66-.09-.82.31-1.61,1.01-2.04,3.72-2.23,10.06-6.1,13.56-8.31-4.23-2.13-12.63-5.71-15.88-6.62ZM402.86,1184.4s0,0,0,0c0,0,0,0,0,0Z"/>
      <path d="M342.73,1237.57c-8.63,0-12.79-.19-19.31-2.05-1.13-.32-1.78-1.5-1.45-2.62.32-1.13,1.5-1.77,2.62-1.45,6.03,1.73,9.77,1.89,18.14,1.89,1.17,0,2.12.95,2.12,2.12s-.95,2.12-2.12,2.12Z"/>
      <path d="M390.29,1237.43c-1.93,0-3.34-.1-3.92-.22-1.14-.24-1.87-1.35-1.63-2.5.23-1.14,1.35-1.88,2.5-1.65,1.01.21,9.98.5,18.26-1.76,1.12-.32,2.29.35,2.6,1.49.31,1.13-.36,2.3-1.49,2.6-5.86,1.6-12.25,2.04-16.33,2.04Z"/>
      <path d="M306.52,1212.9c-1.72,0-3.41-.34-5.1-1.02-.8-.32-1.19-1.23-.87-2.02.32-.8,1.23-1.19,2.02-.87,2.73,1.09,5.38,1.06,8.34-.11.79-.31,1.7.08,2.02.88.32.8-.08,1.7-.88,2.02-1.89.75-3.73,1.12-5.54,1.12Z"/>
      <path d="M301.86,1222.62c-1.29,0-2.57-.13-3.86-.4-.84-.17-1.38-1-1.21-1.84.17-.84,1.01-1.39,1.84-1.21,3.5.72,7.05.26,10.85-1.4.78-.34,1.71.02,2.05.81.34.79-.02,1.71-.81,2.05-3.05,1.33-5.98,1.99-8.87,1.99Z"/>
      <g>
        <path d="M399.45,1229.46c-1.37,0-2.77-.1-4.18-.31-3.78-.55-7.59-1.86-11.02-3.8-3.43-1.94-6.52-4.52-8.94-7.47-7.32-8.92-8.23-20.39-2.42-30.68l40.42-71.59c5.81-10.29,16.1-15.45,27.52-13.78,3.78.55,7.59,1.86,11.02,3.8,3.43,1.94,6.52,4.52,8.94,7.47,7.32,8.92,8.23,20.39,2.42,30.68l-40.42,71.59c-5.09,9.02-13.62,14.09-23.34,14.09ZM436.62,1110.01c-4.81,0-11.39,1.73-15.93,9.78l-40.42,71.59c-5.59,9.9-1.4,17.49,1.59,21.13,1.76,2.15,4.03,4.04,6.56,5.46,2.53,1.43,5.32,2.4,8.07,2.79,4.67.68,13.33.34,18.92-9.56l40.42-71.59c5.59-9.9,1.4-17.49-1.59-21.13-1.76-2.15-4.03-4.04-6.56-5.46-2.53-1.43-5.32-2.4-8.07-2.79-.87-.13-1.88-.22-2.99-.22Z"/>
        <path class="st48" d="M459.51,1141.7l-40.42,71.59c-5.52,9.78-14.59,12.93-23.22,11.67-3.32-.48-6.58-1.63-9.54-3.3-2.96-1.67-5.62-3.87-7.75-6.47-5.53-6.74-7.53-16.13-2-25.91l40.42-71.59c5.52-9.78,14.59-12.93,23.22-11.67,3.32.48,6.58,1.63,9.54,3.3,2.96,1.67,5.62,3.87,7.75,6.47,5.53,6.74,7.53,16.13,2,25.91"/>
        <path class="st51" d="M459.51,1141.7c-6.74,11.93-11.8,20.76-18.54,32.69-13.92,4.96-38.85-11.63-42.63-23.45l18.65-33.25c2.76-4.89,6.41-8.12,10.45-9.98,4.04-1.85,8.46-2.32,12.77-1.7,1.66.24,3.31.65,4.91,1.2,1.6.55,3.15,1.26,4.63,2.09,1.48.83,2.88,1.8,4.19,2.89,1.3,1.08,2.5,2.28,3.57,3.58,2.77,3.37,4.65,7.4,5.15,11.81.5,4.41-.38,9.2-3.14,14.09"/>
        <path class="st23" d="M449.03,1133.76c-1.1,4.51-.86,5.97-6.52,13.77-.99,1.37-.82,3.87,1.45,4.88,1.53.68,3.06-.23,4.23-1.76,2.46-3.22,5.5-8.92,6.06-11.37.59-2.55,1.36-5.11.05-7.1-.73-1.17-4.39-2.01-5.27,1.57"/>
        <path class="st23" d="M452.77,1122.41c-1.21.68-2.2,2.38-1.22,4.21,1.11,2.08,4.13,2.16,5.32.67,2.17-2.74-1.37-6.41-4.1-4.88"/>
      </g>
      <path class="st40" d="M446.89,1190.98c8.82,4.76,6.97,18.79-.77,24.47-15.36,11.3-33.54-9.46-42.01-15.51-8.32-2.43-11.97-.8-16.72-5.55-.8-.8-3.2-6.6,1.52-7.12.98-.11-6.09-5.89-.24-6.63,2.24-.29-3.95-5.25,3.64-6.94-.63-5.49,4.58-5.04,7.46-3.53,2.74,1.44,3.95,4.56,4.6,3.82,2.75-3.19,5.41-10.37,13.24-.49.7.88,1.36,5.48.73,8.31,2.71,1.2,23.68,4.71,28.57,9.17Z"/>
      <path d="M436.38,1220.88c-10.68,0-21.22-8.96-28.24-14.93-1.91-1.63-3.58-3.05-4.97-4.06-2.62-.74-4.75-1.06-6.64-1.34-3.94-.59-7.05-1.06-10.63-4.64-1.07-1.07-2.62-4.67-1.63-7.49.21-.61.65-1.46,1.52-2.15-1.07-1.49-2.09-3.4-1.31-5.26.39-.93,1.11-1.61,2.16-2.03-.36-1.15-.67-2.71.19-4.27.63-1.14,1.73-1.99,3.34-2.59.19-2.18,1.26-3.39,2.22-4.06,2.37-1.63,5.9-1.05,8.36.24,1.42.74,2.47,1.8,3.25,2.68,1.44-1.98,3.41-4.56,6.55-4.62,2.82-.06,5.53,1.8,8.72,5.83,1.09,1.38,1.59,5.16,1.4,8.13,1.15.3,2.76.67,4.34,1.04,10.07,2.34,19.41,4.72,23.13,7.89,3.98,2.25,6.36,6.24,6.71,11.27.44,6.36-2.55,13.06-7.45,16.66-3.59,2.64-7.3,3.71-11,3.71ZM388.6,1182.8c.32.63,1.02,1.53,1.32,1.93.81,1.05,1.57,2.03,1.02,3.33-.3.7-1.04,1.25-1.81,1.33-.73.08-.82.31-.86.38-.35.81.31,2.72.68,3.23,2.52,2.51,4.53,2.81,8.19,3.36,2,.3,4.5.68,7.55,1.57.23.07.44.17.64.31,1.58,1.13,3.42,2.69,5.54,4.49,9.05,7.69,22.72,19.31,33.98,11.03,3.72-2.73,6.07-8.06,5.74-12.95-.15-2.1-.95-5.92-4.72-7.96-.15-.08-.29-.18-.42-.3-3.05-2.78-15.01-5.57-21.43-7.07-3.67-.85-5.63-1.32-6.56-1.73-.93-.41-1.43-1.41-1.22-2.4.5-2.28-.04-5.94-.41-6.67-2.82-3.53-4.46-4.1-5.2-4.1h-.03c-1.14.03-2.31,1.64-3.35,3.07-.45.62-.88,1.21-1.32,1.72-.47.55-1.17.88-1.85.85-1.27-.01-2.01-.9-2.79-1.84-.66-.79-1.48-1.78-2.55-2.33-1.43-.75-3.3-.98-3.99-.5-.48.33-.44,1.34-.38,1.91.12,1.08-.59,2.08-1.64,2.31-1.91.43-2.22.96-2.23.98-.13.23.17,1.06.34,1.5.32.89.76,2.1.06,3.26-.24.39-.82,1.08-1.99,1.23-.13.02-.24.03-.33.05Z"/>
      <path class="st23" d="M435.1,1184.13c1.59,8.51-12.33,25.45-14.87,29.56-1.15,1.85,10.36,7.82,17.06,8.86,8.92,1.39,16.01-2.68,19-10.2,1.28-3.2,2.74-7.35,1.76-11.45-1.92-8.03-9.75-11.29-15.66-13.96-4.08-1.84-7.35-3.09-7.29-2.81Z"/>
      <path d="M440.66,1224.93c-1.2,0-2.44-.1-3.7-.29-5.66-.88-17.01-5.86-18.64-9.4-.42-.91-.38-1.88.11-2.66.51-.83,1.39-2.06,2.51-3.61,4.29-5.98,13.21-18.41,12.08-24.44,0,0,0,0,0,0-.14-.78.17-1.59.79-2.08.98-.76,1.38-1.08,9.47,2.57l.63.29c5.96,2.68,14.12,6.36,16.21,15.11,1.06,4.44-.27,8.74-1.86,12.73-2.98,7.49-9.55,11.8-17.59,11.8ZM422.61,1213.92c2.09,1.85,9.7,5.7,15,6.53,7.76,1.21,14.01-2.12,16.71-8.89,1.24-3.11,2.49-6.72,1.67-10.18-1.61-6.73-8.1-9.66-13.83-12.24l-.64-.29c-1.71-.77-3.16-1.38-4.26-1.83-.79,6.99-6.97,16.15-12.88,24.39-.7.98-1.31,1.82-1.77,2.5Z"/>
    </g>
  </g>
</svg>
