<?xml version="1.0" encoding="utf-8"?>
<svg xmlns="http://www.w3.org/2000/svg" viewBox="966.0848 3311.8833 147.8613 242.6467" width="147.861px" height="242.647px">
  <defs>
    <style type="text/css">
	.st0{opacity:0.8;fill:#F0F0F0;}
	.st1{fill:#FFFFFF;}
	.st2{fill:none;stroke:#E51C52;stroke-width:1.5969;stroke-miterlimit:10;}
	.st3{fill:none;stroke:#000000;stroke-width:2;stroke-miterlimit:10;}
	.st4{fill:#E51C52;}
	.st5{opacity:0.05;fill:#E51C52;}
	.st6{fill:#FFE54D;}
	.st7{fill:#6ADBC6;}
	.st8{fill:#FF73C0;}
	.st9{fill:#D0D0D0;}
	.st10{fill:#ED4C5C;}
	.st11{fill:#0071B8;}
	.st12{fill:#616466;}
	.st13{fill:#FFCE31;}
	.st14{fill:#C79127;}
	.st15{fill:#94989B;}
	.st16{fill:#66CAF2;}
	.st17{fill:#B0BDC6;}
	.st18{fill:#CAD5DD;}
	.st19{fill:#DFE9EF;}
	.st20{clip-path:url(#SVGID_00000003788647492567396620000012193650055540771981_);}
	.st21{fill-rule:evenodd;clip-rule:evenodd;fill:#FFE1D2;}
	.st22{fill-rule:evenodd;clip-rule:evenodd;fill:#FFFFFF;}
	.st23{fill-rule:evenodd;clip-rule:evenodd;fill:#8DCCDD;}
	.st24{fill:#242424;}
	.st25{fill:#464646;}
	.st26{fill-rule:evenodd;clip-rule:evenodd;fill:#F6CB36;}
	.st27{fill-rule:evenodd;clip-rule:evenodd;}
	.st28{fill:#FF74AB;}
	.st29{clip-path:url(#SVGID_00000089567955497710894950000004564939106291094162_);}
	.st30{fill-rule:evenodd;clip-rule:evenodd;fill:#FFAFDB;}
	.st31{fill-rule:evenodd;clip-rule:evenodd;fill:#FFA5D1;}
	.st32{fill:#E4A374;}
	.st33{fill:#F2846B;}
	.st34{fill:#626262;}
	.st35{fill:#FF3D2B;}
	.st36{clip-path:url(#SVGID_00000072247754958669075860000003563604013372425393_);}
	.st37{fill-rule:evenodd;clip-rule:evenodd;fill:#FF8F71;}
	.st38{fill-rule:evenodd;clip-rule:evenodd;fill:#FF804E;}
	.st39{fill-rule:evenodd;clip-rule:evenodd;fill:#FFBCD3;}
	.st40{clip-path:url(#SVGID_00000044897576142351777560000005580061451103683720_);}
	.st41{fill-rule:evenodd;clip-rule:evenodd;fill:#FFC0DB;}
	.st42{fill:#FF5F49;}
	.st43{clip-path:url(#SVGID_00000037663531149197560620000016902674294341047205_);}
	.st44{fill-rule:evenodd;clip-rule:evenodd;fill:#EA6789;}
	.st45{fill-rule:evenodd;clip-rule:evenodd;fill:#FFDDD2;}
	.st46{fill-rule:evenodd;clip-rule:evenodd;fill:#463124;}
	.st47{clip-path:url(#SVGID_00000093876712289763696530000013491624063632452539_);}
	.st48{fill:#D9816D;}
	.st49{fill:#EEAC95;}
	.st50{fill-rule:evenodd;clip-rule:evenodd;fill:#ADECE4;}
	.st51{clip-path:url(#SVGID_00000060741536368871064450000000748190747862479003_);}
	.st52{fill-rule:evenodd;clip-rule:evenodd;fill:#FFE2D3;}
	.st53{fill:none;stroke:#000000;stroke-width:3.9615;stroke-linecap:round;stroke-linejoin:round;stroke-miterlimit:22.9256;}
	.st54{fill-rule:evenodd;clip-rule:evenodd;fill:#FFDECA;}
	.st55{fill:none;stroke:#985C3B;stroke-width:3.786;stroke-linecap:round;stroke-linejoin:round;stroke-miterlimit:22.9256;}
	.st56{fill-rule:evenodd;clip-rule:evenodd;fill:#454544;}

		.st57{clip-path:url(#SVGID_00000135690378772157544680000008592861349934607804_);fill-rule:evenodd;clip-rule:evenodd;fill:#212121;}
	.st58{fill-rule:evenodd;clip-rule:evenodd;fill:#676155;}
	.st59{fill:none;stroke:#000000;stroke-width:3.9615;stroke-miterlimit:22.9256;}

		.st60{clip-path:url(#SVGID_00000007392077890153935540000011798188029761511558_);fill-rule:evenodd;clip-rule:evenodd;fill:#212121;}
	.st61{fill-rule:evenodd;clip-rule:evenodd;fill:#ABABAB;}
	.st62{fill-rule:evenodd;clip-rule:evenodd;fill:#232323;}
	.st63{fill:none;stroke:#676155;stroke-width:3.9615;stroke-linecap:round;stroke-linejoin:round;stroke-miterlimit:22.9256;}
	.st64{fill:none;stroke:#000000;stroke-width:3.9615;stroke-linecap:round;stroke-miterlimit:22.9256;}
	.st65{fill:none;stroke:#49443B;stroke-width:3.4954;stroke-linecap:round;stroke-linejoin:round;stroke-miterlimit:22.9256;}
	.st66{fill-rule:evenodd;clip-rule:evenodd;fill:#A7F9FD;}
	.st67{fill:none;stroke:#000000;stroke-width:3.786;stroke-linecap:round;stroke-linejoin:round;stroke-miterlimit:22.9256;}
	.st68{fill:none;stroke:#49443B;stroke-width:2.3303;stroke-linecap:round;stroke-linejoin:round;stroke-miterlimit:22.9256;}
	.st69{fill:none;stroke:#25231E;stroke-width:5.126;stroke-linecap:round;stroke-linejoin:round;stroke-miterlimit:22.9256;}
	.st70{fill-rule:evenodd;clip-rule:evenodd;fill:#F9DDCB;}
	.st71{fill:none;stroke:#25231E;stroke-width:3.9376;stroke-linecap:round;stroke-miterlimit:22.9256;}
	.st72{fill:none;stroke:#25231E;stroke-width:3.9394;stroke-linecap:round;stroke-miterlimit:22.9256;}
	.st73{fill:none;stroke:#25231E;stroke-width:3.1379;stroke-linecap:round;stroke-linejoin:round;stroke-miterlimit:22.9256;}
	.st74{fill:none;stroke:#25231E;stroke-width:3.1391;stroke-linecap:round;stroke-linejoin:round;stroke-miterlimit:22.9256;}
	.st75{fill:none;stroke:#25231E;stroke-width:3.9365;stroke-linecap:round;stroke-miterlimit:22.9256;}
	.st76{fill:none;stroke:#25231E;stroke-width:3.9277;stroke-linecap:round;stroke-linejoin:round;stroke-miterlimit:22.9256;}
	.st77{fill:none;stroke:#25231E;stroke-width:3.9273;stroke-linecap:round;stroke-linejoin:round;stroke-miterlimit:22.9256;}
	.st78{fill:none;stroke:#000000;stroke-width:3.9502;stroke-linecap:round;stroke-linejoin:round;stroke-miterlimit:22.9256;}
	.st79{fill:none;stroke:#25231E;stroke-width:4.7033;stroke-linecap:round;stroke-linejoin:round;stroke-miterlimit:22.9256;}
	.st80{fill:none;stroke:#25231E;stroke-width:4.7034;stroke-linecap:round;stroke-linejoin:round;stroke-miterlimit:22.9256;}
	.st81{fill:none;stroke:#25231E;stroke-width:3.9205;stroke-linecap:round;stroke-linejoin:round;stroke-miterlimit:22.9256;}
	.st82{fill:none;stroke:#C77246;stroke-width:4.7435;stroke-linecap:round;stroke-linejoin:round;stroke-miterlimit:22.9256;}
	.st83{clip-path:url(#SVGID_00000016775293371546092900000002987567014225728181_);}

		.st84{clip-path:url(#SVGID_00000151530495823522347790000001813150801217652912_);fill-rule:evenodd;clip-rule:evenodd;fill:#212121;}

		.st85{clip-path:url(#SVGID_00000159471713327028222550000011061486234049569179_);fill-rule:evenodd;clip-rule:evenodd;fill:#212121;}
	.st86{clip-path:url(#SVGID_00000108992935789586809350000010601311867958218941_);}

		.st87{clip-path:url(#SVGID_00000143586364811497997400000014987830311737532333_);fill-rule:evenodd;clip-rule:evenodd;fill:#212121;}

		.st88{clip-path:url(#SVGID_00000070824730279333431960000001740627053997239684_);fill-rule:evenodd;clip-rule:evenodd;fill:#212121;}
	.st89{clip-path:url(#SVGID_00000074430970795564153050000002217589742953714849_);}

		.st90{clip-path:url(#SVGID_00000109741731289495235600000017975313795970905239_);fill-rule:evenodd;clip-rule:evenodd;fill:#212121;}

		.st91{clip-path:url(#SVGID_00000021090089985969369580000015298764592402587041_);fill-rule:evenodd;clip-rule:evenodd;fill:#212121;}
	.st92{clip-path:url(#SVGID_00000004526927032962449650000012296599214677944767_);}

		.st93{clip-path:url(#SVGID_00000181793784863840742230000000963403634937846207_);fill-rule:evenodd;clip-rule:evenodd;fill:#212121;}

		.st94{clip-path:url(#SVGID_00000088128435907882526810000008452392843776641214_);fill-rule:evenodd;clip-rule:evenodd;fill:#212121;}
	.st95{clip-path:url(#SVGID_00000070113327048708011590000008444599769837744828_);}

		.st96{clip-path:url(#SVGID_00000127043297344388553280000005896812187696379547_);fill-rule:evenodd;clip-rule:evenodd;fill:#212121;}

		.st97{clip-path:url(#SVGID_00000067205833948816596680000004138472364054595004_);fill-rule:evenodd;clip-rule:evenodd;fill:#212121;}
	.st98{opacity:0.3;fill:none;stroke:#000000;stroke-miterlimit:10;}
	.st99{fill:none;stroke:#707070;stroke-miterlimit:10;}
	.st100{clip-path:url(#SVGID_00000172441502015638981160000003839626173466597013_);}
	.st101{clip-path:url(#SVGID_00000103951293729007100510000007477648581370459803_);}
	.st102{clip-path:url(#SVGID_00000050657637020267698730000007794497233976850566_);}
	.st103{clip-path:url(#SVGID_00000174591829408416664060000005413568335083643807_);}
	.st104{clip-path:url(#SVGID_00000180338214505715203030000011210933480113110971_);}
	.st105{fill:#FDFEFF;}
	.st106{fill:#F3F3F3;}
	.st107{fill:none;stroke:#000000;stroke-width:5;stroke-miterlimit:10;}
	.st108{clip-path:url(#SVGID_00000093174670025935718900000004200262371505239719_);}
	.st109{clip-path:url(#SVGID_00000131345553559926493210000012372558883472805050_);}
	.st110{opacity:0.2;}
	.st111{fill:#C6C6C6;}
	.st112{fill:#7F7F7F;}
	.st113{opacity:0.8;fill:#939292;}
	.st114{clip-path:url(#SVGID_00000170275066756171548760000003794827903270323860_);}

		.st115{fill-rule:evenodd;clip-rule:evenodd;fill:none;stroke:#242424;stroke-width:5.5337;stroke-linecap:round;stroke-linejoin:round;stroke-miterlimit:10;}
	.st116{opacity:0.4;}
	.st117{fill:#FFFFFF;stroke:#3F3F3F;stroke-miterlimit:10;}
	.st118{fill:#FFFFFF;stroke:#3F3F3F;stroke-width:2;stroke-miterlimit:10;}
	.st119{fill:#FFFFFF;stroke:#3F3F3F;stroke-width:0.8;stroke-miterlimit:10;}
	.st120{fill:#D13655;}
	.st121{clip-path:url(#SVGID_00000001645614145499293370000011963422717575814543_);}
	.st122{fill:none;stroke:#A8A8A8;stroke-miterlimit:10;}
	.st123{fill:none;stroke:#000000;stroke-width:1.3778;stroke-miterlimit:10;}
	.st124{fill:none;stroke:#000000;stroke-width:1.439;stroke-miterlimit:10;}
	.st125{clip-path:url(#SVGID_00000072965451409974378020000000868710327948758701_);}
	.st126{opacity:0.7;}
	.st127{clip-path:url(#SVGID_00000085954280213685244220000014527844347993614238_);}
	.st128{clip-path:url(#SVGID_00000028309771471314923460000003696619814257554623_);}
	.st129{opacity:0.3;}
	.st130{clip-path:url(#SVGID_00000160170320589839325040000012754120665731856814_);}
	.st131{clip-path:url(#SVGID_00000145755904753650518990000005116092505799524540_);}
	.st132{clip-path:url(#SVGID_00000131331958205791536760000002127501862531401127_);}
	.st133{clip-path:url(#SVGID_00000065065577504918169420000013169645494663246519_);}
	.st134{clip-path:url(#SVGID_00000068647798024654570140000009357037845125757585_);}
	.st135{clip-path:url(#SVGID_00000069369026445231178910000016023766511731348900_);}
	.st136{fill:none;stroke:#EFEFEF;stroke-width:0.9914;stroke-miterlimit:10;}
	.st137{fill:none;stroke:#E51C52;stroke-miterlimit:10;}
	.st138{fill:none;stroke:#020202;stroke-miterlimit:10;}
	.st139{opacity:0.9;}
	.st140{fill:#DBDBDB;}
	.st141{opacity:0.6;fill:#FFFFFF;}
	.st142{fill:#FFFFFF;stroke:#646464;stroke-miterlimit:10;}
	.st143{fill:none;stroke:#1E1E1E;stroke-width:0.8107;stroke-miterlimit:10;}
	.st144{fill:none;stroke:#000000;stroke-width:0.8107;stroke-miterlimit:10;}
	.st145{clip-path:url(#SVGID_00000065779454238800097010000012198490344685555355_);}
	.st146{clip-path:url(#SVGID_00000106829392083777699210000004120409257141701305_);}
	.st147{fill:none;stroke:#000000;stroke-width:2.4522;stroke-linejoin:round;stroke-miterlimit:22.9256;}
	.st148{fill:none;stroke:#000000;stroke-width:2.4522;stroke-linecap:round;stroke-linejoin:round;stroke-miterlimit:22.9256;}
	.st149{fill-rule:evenodd;clip-rule:evenodd;fill:#8ECDDE;}
	.st150{fill:none;stroke:#25231E;stroke-width:2.4522;stroke-linecap:round;stroke-linejoin:round;stroke-miterlimit:22.9256;}
	.st151{fill:none;stroke:#000000;stroke-width:1.803;stroke-linejoin:round;stroke-miterlimit:22.9256;}
	.st152{fill:none;stroke:#25231E;stroke-width:2.0551;stroke-linecap:round;stroke-linejoin:round;stroke-miterlimit:22.9256;}
	.st153{fill:none;stroke:#49443B;stroke-width:2.4522;stroke-linecap:round;stroke-linejoin:round;stroke-miterlimit:22.9256;}
	.st154{fill:none;stroke:#25231E;stroke-width:1.803;stroke-linecap:round;stroke-linejoin:round;stroke-miterlimit:22.9256;}
	.st155{fill:none;stroke:#000000;stroke-width:2.1636;stroke-linecap:round;stroke-linejoin:round;stroke-miterlimit:22.9256;}
	.st156{fill-rule:evenodd;clip-rule:evenodd;fill:#F7CC36;}
	.st157{fill-rule:evenodd;clip-rule:evenodd;fill:#FFFBDE;}
	.st158{fill:none;stroke:#000000;stroke-width:1.6945;stroke-linecap:round;stroke-linejoin:round;stroke-miterlimit:22.9256;}
	.st159{fill:none;stroke:#000000;stroke-width:1.803;stroke-linecap:round;stroke-linejoin:round;stroke-miterlimit:22.9256;}
	.st160{fill:none;stroke:#FF74AC;stroke-width:2.5239;stroke-linecap:round;stroke-linejoin:round;stroke-miterlimit:22.9256;}
	.st161{fill:none;stroke:#000000;stroke-width:2.4522;stroke-linecap:round;stroke-miterlimit:22.9256;}
	.st162{fill-rule:evenodd;clip-rule:evenodd;fill:#FFB0DC;}
	.st163{fill:none;stroke:#000000;stroke-width:2.4522;stroke-miterlimit:22.9256;}
	.st164{fill-rule:evenodd;clip-rule:evenodd;fill:#FFA6D2;}
	.st165{fill:none;stroke:#E5A474;stroke-width:1.3151;stroke-linecap:round;stroke-linejoin:round;stroke-miterlimit:22.9256;}
	.st166{fill:none;stroke:#000000;stroke-width:2.7402;stroke-linecap:round;stroke-linejoin:round;stroke-miterlimit:22.9256;}
	.st167{fill:none;stroke:#F3846B;stroke-width:3.1729;stroke-linecap:round;stroke-linejoin:round;stroke-miterlimit:22.9256;}
	.st168{fill:none;stroke:#000000;stroke-width:0.5482;stroke-miterlimit:22.9256;}
	.st169{fill:none;stroke:#676155;stroke-width:1.803;stroke-linecap:round;stroke-linejoin:round;stroke-miterlimit:22.9256;}
	.st170{fill:none;stroke:#000000;stroke-width:5.4091;stroke-miterlimit:22.9256;}
	.st171{fill-rule:evenodd;clip-rule:evenodd;fill:#EB678A;}
	.st172{fill-rule:evenodd;clip-rule:evenodd;fill:#FFDED3;}
	.st173{fill:none;stroke:#000000;stroke-width:1.7309;stroke-linecap:round;stroke-linejoin:round;stroke-miterlimit:22.9256;}
	.st174{fill-rule:evenodd;clip-rule:evenodd;fill:#472F1D;}

		.st175{clip-path:url(#SVGID_00000087408993735930648840000006729897317083606933_);fill-rule:evenodd;clip-rule:evenodd;fill:#FFFBDE;}
	.st176{fill:none;stroke:#DB816D;stroke-width:1.803;stroke-linecap:round;stroke-linejoin:round;stroke-miterlimit:22.9256;}
	.st177{fill:none;stroke:#000000;stroke-width:3.1729;stroke-linecap:round;stroke-linejoin:round;stroke-miterlimit:22.9256;}
	.st178{fill:none;stroke:#EFAD96;stroke-width:1.803;stroke-linecap:round;stroke-linejoin:round;stroke-miterlimit:22.9256;}
	.st179{fill-rule:evenodd;clip-rule:evenodd;fill:#AEEDE5;}
	.st180{fill-rule:evenodd;clip-rule:evenodd;fill:#FF9071;}
	.st181{fill:none;stroke:#49443B;stroke-width:2.1636;stroke-linecap:round;stroke-linejoin:round;stroke-miterlimit:22.9256;}
	.st182{fill:none;stroke:#25231E;stroke-width:3.1729;stroke-linecap:round;stroke-linejoin:round;stroke-miterlimit:22.9256;}
	.st183{fill-rule:evenodd;clip-rule:evenodd;fill:#FFBCD4;}
	.st184{fill:none;stroke:#25231E;stroke-width:2.3435;stroke-linecap:round;stroke-linejoin:round;stroke-miterlimit:22.9256;}

		.st185{clip-path:url(#SVGID_00000078007515909940658280000001915293939782399913_);fill-rule:evenodd;clip-rule:evenodd;fill:#FFC1DC;}
	.st186{fill:none;stroke:#000000;stroke-width:2.8848;stroke-linecap:round;stroke-linejoin:round;stroke-miterlimit:22.9256;}
	.st187{fill:none;stroke:#FF5F49;stroke-width:3.606;stroke-linecap:round;stroke-miterlimit:22.9256;}
	.st188{fill:none;stroke:#985C3B;stroke-width:2.3435;stroke-linecap:round;stroke-linejoin:round;stroke-miterlimit:22.9256;}

		.st189{clip-path:url(#SVGID_00000085936699385710682180000004427463841377896081_);fill-rule:evenodd;clip-rule:evenodd;fill:#212121;}

		.st190{clip-path:url(#SVGID_00000023248465632559320100000013734132225464717230_);fill-rule:evenodd;clip-rule:evenodd;fill:#212121;}
	.st191{fill:none;stroke:#676155;stroke-width:2.4522;stroke-linecap:round;stroke-linejoin:round;stroke-miterlimit:22.9256;}
	.st192{fill:none;stroke:#000000;stroke-width:2.3435;stroke-linecap:round;stroke-linejoin:round;stroke-miterlimit:22.9256;}
	.st193{fill:none;stroke:#49443B;stroke-width:1.4425;stroke-linecap:round;stroke-linejoin:round;stroke-miterlimit:22.9256;}
	.st194{fill:none;stroke:#25231E;stroke-width:2.4374;stroke-linecap:round;stroke-miterlimit:22.9256;}
	.st195{fill:none;stroke:#25231E;stroke-width:2.4385;stroke-linecap:round;stroke-miterlimit:22.9256;}
	.st196{fill:none;stroke:#25231E;stroke-width:1.9423;stroke-linecap:round;stroke-linejoin:round;stroke-miterlimit:22.9256;}
	.st197{fill:none;stroke:#25231E;stroke-width:1.9431;stroke-linecap:round;stroke-linejoin:round;stroke-miterlimit:22.9256;}
	.st198{fill:none;stroke:#25231E;stroke-width:2.4367;stroke-linecap:round;stroke-miterlimit:22.9256;}
	.st199{fill:none;stroke:#25231E;stroke-width:2.4312;stroke-linecap:round;stroke-linejoin:round;stroke-miterlimit:22.9256;}
	.st200{fill:none;stroke:#25231E;stroke-width:2.431;stroke-linecap:round;stroke-linejoin:round;stroke-miterlimit:22.9256;}
	.st201{fill:none;stroke:#000000;stroke-width:2.4452;stroke-linecap:round;stroke-linejoin:round;stroke-miterlimit:22.9256;}
	.st202{fill:none;stroke:#25231E;stroke-width:2.9113;stroke-linecap:round;stroke-linejoin:round;stroke-miterlimit:22.9256;}
	.st203{fill:none;stroke:#25231E;stroke-width:2.4268;stroke-linecap:round;stroke-linejoin:round;stroke-miterlimit:22.9256;}
	.st204{fill:none;stroke:#C77246;stroke-width:2.9362;stroke-linecap:round;stroke-linejoin:round;stroke-miterlimit:22.9256;}
	.st205{opacity:0.3;fill:none;stroke:#000000;stroke-width:0.9807;stroke-miterlimit:10;}
	.st206{fill:none;stroke:#000000;stroke-width:0.9293;stroke-miterlimit:10;}
	.st207{fill:#C8C8C8;}
	.st208{fill:none;stroke:#E51C52;stroke-width:1.0718;stroke-miterlimit:10;}
	.st209{fill:none;stroke:#E51C52;stroke-width:6.6768;stroke-linecap:round;stroke-miterlimit:10;}
	.st210{clip-path:url(#SVGID_00000176738432661664411420000017872582413361927861_);}

		.st211{clip-path:url(#SVGID_00000075878649049108699950000012602750618253841328_);fill-rule:evenodd;clip-rule:evenodd;fill:#212121;}

		.st212{clip-path:url(#SVGID_00000001639441816106894070000017217587151309172115_);fill-rule:evenodd;clip-rule:evenodd;fill:#212121;}
	.st213{clip-path:url(#SVGID_00000147902277218530063270000009912045633415782530_);}
	.st214{clip-path:url(#SVGID_00000139258901773741113860000002812604289060177843_);}
	.st215{fill:none;stroke:#646464;stroke-miterlimit:10;}
	.st216{clip-path:url(#SVGID_00000057112469538511238290000003823846996822189465_);}
	.st217{font-family:'Roboto-Light';}
	.st218{font-size:25.7955px;}
	.st219{fill:none;stroke:#1E1E1E;stroke-width:0.7803;stroke-miterlimit:10;}
	.st220{fill:none;stroke:#FFFFFF;stroke-miterlimit:10;}
	.st221{clip-path:url(#SVGID_00000173147583925092145390000006073812267182479269_);}
	.st222{clip-path:url(#SVGID_00000125592778046165089470000002499948703258167462_);}
	.st223{clip-path:url(#SVGID_00000141432408200947437870000009064541348052305590_);}
	.st224{font-family:'Roboto-Medium';}
	.st225{font-size:27.4203px;}
	.st226{fill:#EBFF2C;}
	.st227{fill-rule:evenodd;clip-rule:evenodd;fill:#F9E2D3;}
	.st228{fill:#322C2B;}
	.st229{fill-rule:evenodd;clip-rule:evenodd;fill:#FDFDFD;}
	.st230{opacity:0.29;}
	.st231{fill-rule:evenodd;clip-rule:evenodd;fill:#322C2B;}
	.st232{fill-rule:evenodd;clip-rule:evenodd;fill:#F2AFDB;}
	.st233{fill-rule:evenodd;clip-rule:evenodd;fill:#F1A5D2;}
	.st234{fill:#E6A573;}
	.st235{fill:#ED836A;}
	.st236{fill:#757475;}
	.st237{fill-rule:evenodd;clip-rule:evenodd;fill:#E93323;}
	.st238{fill-rule:evenodd;clip-rule:evenodd;fill:#F6CD46;}
	.st239{fill-rule:evenodd;clip-rule:evenodd;fill:#AAABAB;}
	.st240{fill-rule:evenodd;clip-rule:evenodd;fill:#8ECEDF;}
	.st241{fill-rule:evenodd;clip-rule:evenodd;fill:#464443;}
	.st242{fill-rule:evenodd;clip-rule:evenodd;fill:#F8DDCB;}
	.st243{fill:#A1664E;}
	.st244{fill-rule:evenodd;clip-rule:evenodd;fill:#5F5D5D;}
	.st245{clip-path:url(#SVGID_00000049179723481740907140000011744995289819190691_);}
	.st246{fill:#8A8A8B;}
	.st247{fill-rule:evenodd;clip-rule:evenodd;fill:#757475;}
	.st248{clip-path:url(#SVGID_00000122708806388054160990000010699471242135169683_);}
	.st249{fill:#A0A0A0;}
	.st250{fill-rule:evenodd;clip-rule:evenodd;fill:#B5B5B6;}
	.st251{fill:#5F5D5D;}
	.st252{fill-rule:evenodd;clip-rule:evenodd;fill:#A8FAFD;}
	.st253{fill:#464443;}
	.st254{fill-rule:evenodd;clip-rule:evenodd;fill:#5878C4;}
	.st255{fill-rule:evenodd;clip-rule:evenodd;fill:#F9E0D1;}
	.st256{fill:#C77347;}
	.st257{fill-rule:evenodd;clip-rule:evenodd;fill:#ED7D4B;}
	.st258{fill-rule:evenodd;clip-rule:evenodd;fill:#EE8D6F;}
	.st259{fill-rule:evenodd;clip-rule:evenodd;fill:#F4BCD4;}
	.st260{fill-rule:evenodd;clip-rule:evenodd;fill:#F4C1DC;}
	.st261{fill:#EB5A45;}
	.st262{fill-rule:evenodd;clip-rule:evenodd;fill:#F2C68B;}
	.st263{fill-rule:evenodd;clip-rule:evenodd;fill:#FBEBCA;}
	.st264{fill-rule:evenodd;clip-rule:evenodd;fill:#EEE45D;}
	.st265{fill-rule:evenodd;clip-rule:evenodd;fill:#FDF9A6;}
	.st266{fill:#EC72AC;}
	.st267{fill-rule:evenodd;clip-rule:evenodd;fill:#EF9670;}
	.st268{fill-rule:evenodd;clip-rule:evenodd;fill:#F8DDD3;}
	.st269{fill-rule:evenodd;clip-rule:evenodd;fill:#583F33;}
	.st270{clip-path:url(#SVGID_00000005951215805644146780000001177475302150972544_);}
	.st271{fill:#DB816D;}
	.st272{fill:#F0AE96;}
	.st273{fill-rule:evenodd;clip-rule:evenodd;fill:#AEEEE6;}
	.st274{fill:none;stroke:#E51C52;stroke-width:7.7112;stroke-linecap:round;stroke-miterlimit:10;}
	.st275{clip-path:url(#SVGID_00000054950551246531324940000003710823615002347181_);}
	.st276{clip-path:url(#SVGID_00000093148265540407866360000012033833716041609620_);}
	.st277{clip-path:url(#SVGID_00000117668532859298909870000013058671757576250038_);}
	.st278{clip-path:url(#SVGID_00000007423921953304727460000012125114555699330481_);}
	.st279{clip-path:url(#SVGID_00000118376168651265113420000011280988601062696603_);}
	.st280{clip-path:url(#SVGID_00000039113208727272009860000018320019637984095410_);}
	.st281{clip-path:url(#SVGID_00000031165033760197733750000005611723197208037820_);}
	.st282{clip-path:url(#SVGID_00000109026055774964319360000000870413803839614628_);}
	.st283{fill:none;stroke:#E52C52;stroke-miterlimit:10;}
	.st284{fill:#2C88C6;}
</style>
  </defs>
  <clipPath id="SVGID_00000042016813555736849050000010612707191533856660_">
    <path d="M1128.89,3554.53H735.83 c-18.09,0-32.89-14.8-32.89-32.89V3330.3c0-18.09,14.8-32.89,32.89-32.89h393.06c18.09,0,32.89,14.8,32.89,32.89v191.33 C1161.78,3539.73,1146.98,3554.53,1128.89,3554.53z" style="overflow: visible;"/>
  </clipPath>
  <g style="clip-path:url(#SVGID_00000042016813555736849050000010612707191533856660_);">
    <path class="st52" d="M1076.62,3666c-0.04,0.8,1.13,23.17,10.03,31.29c3.34,3.05-1.66,5.94-4.83,6.24 c-4.8,0.45-29.44,3.52-31.73-2.63c-1.18-3.15,1.27-7.05,1.49-13.02c0.21-5.61,3.17-17.68,3.1-24.76 C1054.64,3658.73,1076.65,3665.41,1076.62,3666z"/>
    <path class="st53" d="M1076.62,3666c-0.04,0.8,1.13,23.17,10.03,31.29c3.34,3.05-1.66,5.94-4.83,6.24 c-4.8,0.45-29.44,3.52-31.73-2.63c-1.18-3.15,1.27-7.05,1.49-13.02c0.21-5.61,3.17-17.68,3.1-24.76 C1054.64,3658.73,1076.65,3665.41,1076.62,3666z"/>
    <path class="st52" d="M1003.2,3663.58c-0.04,0.8-2.27,21.87-11.89,29.14c-3.61,2.73,1.11,6.07,4.24,6.66 c4.74,0.89,28.99,6.21,31.84,0.3c1.46-3.03,0-7.38,0.32-13.34c0.3-5.6,0.96-12.94,1.69-19.98 C1029.85,3661.99,1003.22,3662.99,1003.2,3663.58z"/>
    <path class="st53" d="M1003.2,3663.58c-0.04,0.8-2.27,21.87-11.89,29.14c-3.61,2.73,1.11,6.07,4.24,6.66 c4.74,0.89,28.99,6.21,31.84,0.3c1.46-3.03,0-7.38,0.32-13.34c0.3-5.6,0.96-12.94,1.69-19.98 C1029.85,3661.99,1003.22,3662.99,1003.2,3663.58z"/>
    <path class="st54" d="M1022.02,3473.17c-10.8,0.5,2.54,13.21,6.77,19.76c3.94,6.11,12.3,11.16,17.26,10.2 c6.29-1.21,11.66-6.45,14.74-9.36c6.38-6.03,12.59-18.18,9.4-20.86C1063.37,3467.2,1036.56,3470.08,1022.02,3473.17z"/>
    <path class="st55" d="M1022.02,3473.17c-10.8,0.5,2.54,13.21,6.77,19.76c3.94,6.11,12.3,11.16,17.26,10.2 c6.29-1.21,11.66-6.45,14.74-9.36c6.38-6.03,12.59-18.18,9.4-20.86C1063.37,3467.2,1036.56,3470.08,1022.02,3473.17z"/>
    <path class="st56" d="M1088.25,3698.66c2.15,2.95,4.88,4.44,6.96,5.79c5.57,3.59,9.57,7.66,4.31,12.51 c-3.57,3.3-23.46,5.16-33.46,2.05c-8.74-2.72-17.15-5.74-17.87-7.85c-1.25-3.66-1.12-21.57,0.98-19.15 c1.74,2,2.82,4.27,9.74,3.29c2.95-0.42,5.9-2.72,14.17-3.64C1084.97,3690.32,1086.24,3694.28,1088.25,3698.66"/>
    <g>
      <defs>
        <path id="SVGID_00000063618022822002825950000008373436188293951403_" d="M1088.25,3698.66c2.15,2.95,4.88,4.44,6.96,5.79 c5.57,3.59,9.57,7.66,4.31,12.51c-3.57,3.3-23.46,5.16-33.46,2.05c-8.74-2.72-17.15-5.74-17.87-7.85 c-1.25-3.66-1.12-21.57,0.98-19.15c1.74,2,2.82,4.27,9.74,3.29c2.95-0.42,5.9-2.72,14.17-3.64 C1084.97,3690.32,1086.24,3694.28,1088.25,3698.66"/>
      </defs>
      <clipPath id="SVGID_00000083807651590586878320000008261343941325568697_">
        <path d="M1088.25,3698.66c2.15,2.95,4.88,4.44,6.96,5.79 c5.57,3.59,9.57,7.66,4.31,12.51c-3.57,3.3-23.46,5.16-33.46,2.05c-8.74-2.72-17.15-5.74-17.87-7.85 c-1.25-3.66-1.12-21.57,0.98-19.15c1.74,2,2.82,4.27,9.74,3.29c2.95-0.42,5.9-2.72,14.17-3.64 C1084.97,3690.32,1086.24,3694.28,1088.25,3698.66" style="overflow: visible;"/>
      </clipPath>
      <path style="clip-path:url(#SVGID_00000083807651590586878320000008261343941325568697_);fill-rule:evenodd;clip-rule:evenodd;fill:#212121;" d=" M1048.17,3703.14c3.95-0.99,11.16,5.66,14.05,7.33c7.96,4.59,31.82,1.22,35.25-1.9c8.63-7.83,23.06,9.26-22,14.58 c-4.8,0.57-19.77-0.44-22.14-4.03c-2.24-3.41-2.24-5.52-6.39-8.47c-1.52-1.08-2.55-5.55,0.94-7.2 C1048.04,3703.37,1048.07,3703.17,1048.17,3703.14"/>
    </g>
    <path class="st53" d="M1088.25,3698.66c2.15,2.95,4.88,4.44,6.96,5.79c5.57,3.59,9.57,7.66,4.31,12.51 c-3.57,3.3-23.46,5.16-33.46,2.05c-8.74-2.72-17.15-5.74-17.87-7.85c-1.25-3.66-1.12-21.57,0.98-19.15 c1.74,2,2.82,4.27,9.74,3.29c2.95-0.42,5.9-2.72,14.17-3.64C1084.97,3690.32,1086.24,3694.28,1088.25,3698.66z"/>
    <path class="st58" d="M997.24,3710.24c2.4,0.09,32.35,1.73,32.43-2.29c0.18-9.16,7.05-11.91-13.92-9.66 c-3.04,0.33-10.74-0.93-18.65,0.88C983.26,3702.33,970.94,3709.25,997.24,3710.24z"/>
    <path class="st59" d="M997.24,3710.24c2.4,0.09,32.35,1.73,32.43-2.29c0.18-9.16,7.05-11.91-13.92-9.66 c-3.04,0.33-10.74-0.93-18.65,0.88C983.26,3702.33,970.94,3709.25,997.24,3710.24z"/>
    <path class="st56" d="M992.3,3689.12c-3.82,2.65-8.23,7.01-12.25,8.98c-3.85,1.89-7.46,3.3-10.7,5.31 c-4.52,2.86-4.53,9.06,1.12,11.03c15.37,3.74,33.89-1.37,43.79-2.01c5.46-0.09,11.96-0.38,15.42-2.24 c3.42-1.81,0.58-19.03-0.18-19.06c-3.85,2.36-23.12,6.61-24.6,3.35C1003.05,3690.39,997.56,3689.15,992.3,3689.12"/>
    <g>
      <defs>
        <path id="SVGID_00000063592445894842114660000003233046085064829105_" d="M992.3,3689.12c-3.82,2.65-8.23,7.01-12.25,8.98 c-3.85,1.89-7.46,3.3-10.7,5.31c-4.52,2.86-4.53,9.06,1.12,11.03c15.37,3.74,33.89-1.37,43.79-2.01 c5.46-0.09,11.96-0.38,15.42-2.24c3.42-1.81,0.58-19.03-0.18-19.06c-3.85,2.36-23.12,6.61-24.6,3.35 C1003.05,3690.39,997.56,3689.15,992.3,3689.12"/>
      </defs>
      <clipPath id="SVGID_00000057131223207347334470000009883102886396829835_">
        <path d="M992.3,3689.12c-3.82,2.65-8.23,7.01-12.25,8.98 c-3.85,1.89-7.46,3.3-10.7,5.31c-4.52,2.86-4.53,9.06,1.12,11.03c15.37,3.74,33.89-1.37,43.79-2.01 c5.46-0.09,11.96-0.38,15.42-2.24c3.42-1.81,0.58-19.03-0.18-19.06c-3.85,2.36-23.12,6.61-24.6,3.35 C1003.05,3690.39,997.56,3689.15,992.3,3689.12" style="overflow: visible;"/>
      </clipPath>
      <path style="clip-path:url(#SVGID_00000057131223207347334470000009883102886396829835_);fill-rule:evenodd;clip-rule:evenodd;fill:#212121;" d=" M967.17,3704.85c1.73-0.48,1.98-1.13,2.44-0.54c10.17,12.81,43.71,0.08,51.24-0.64c4.31-0.41,8.76-1.11,11.39-4.08 c4.45-5.02,6.84,8.9,4.48,14.34c-2.66,6.14-0.65,4.2-11.56,7.31c-5.84,1.67-33.62,5.13-38.95,2.98 c-17.39-7.01-21.71-2.16-19.47-19.13C966.76,3704.9,966.95,3704.91,967.17,3704.85"/>
    </g>
    <path class="st53" d="M992.3,3689.12c-3.82,2.65-8.23,7.01-12.25,8.98c-3.85,1.89-7.46,3.3-10.7,5.31 c-4.52,2.86-4.53,9.06,1.12,11.03c15.37,3.74,33.89-1.37,43.79-2.01c5.46-0.09,11.96-0.38,15.42-2.24 c3.42-1.81,0.58-19.03-0.18-19.06c-3.85,2.36-23.12,6.61-24.6,3.35C1003.05,3690.39,997.56,3689.15,992.3,3689.12z"/>
    <path class="st61" d="M1020.44,3482.49c0-6.28-22.06,73.62-12.48,93.47c2.09,4.32,79.6,2.13,80.4-1.25 c3.55-15.06-8.66-65.92-9.62-76.52c-0.02-0.26-5.01-26.78-12-13.37C1048.63,3519.51,1024.66,3490.42,1020.44,3482.49z"/>
    <path class="st59" d="M1020.44,3482.49c0-6.28-22.06,73.62-12.48,93.47c2.09,4.32,79.6,2.13,80.4-1.25 c3.55-15.06-8.66-65.92-9.62-76.52c-0.02-0.26-5.01-26.78-12-13.37C1048.63,3519.51,1024.66,3490.42,1020.44,3482.49z"/>
    <path class="st62" d="M1092.43,3697.6c-2.64,1.74-10.73-7.09-25.35-4.95c-16.75,2.45-19.2,16.62-22.02,12.92 c-0.28-6.26,3.49-75.55,3.58-98.89c-1.26-10.87-6.08-5.23-7.32-3.22c-3,12.37-9.24,91.43-8.75,99.94 c-4.89,3.47-17.95-4.05-30.01-7.06c-12.55-3.13-20.82,0.24-20.67-2.25c1.58-3.68,5.68-4.96,6.64-8.87 c5.97-24.33,15.57-82.9,18.67-111.63c6.27,0.45,31.66,4.75,50.03,3.41c11.64-0.85,21.66-4.72,32.01-7.11 c0.63-0.18-3.25,72.08-1.54,107C1088.22,3687.06,1092.63,3696.89,1092.43,3697.6z"/>
    <path class="st53" d="M1092.43,3697.6c-2.64,1.74-10.73-7.09-25.35-4.95c-16.75,2.45-19.2,16.62-22.02,12.92 c-0.28-6.26,3.49-75.55,3.58-98.89c-1.26-10.87-6.08-5.23-7.32-3.22c-3,12.37-9.24,91.43-8.75,99.94 c-4.89,3.47-17.95-4.05-30.01-7.06c-12.55-3.13-20.82,0.24-20.67-2.25c1.58-3.68,5.68-4.96,6.64-8.87 c5.97-24.33,15.57-82.9,18.67-111.63c6.27,0.45,31.66,4.75,50.03,3.41c11.64-0.85,21.66-4.72,32.01-7.11 c0.63-0.18-3.25,72.08-1.54,107C1088.22,3687.06,1092.63,3696.89,1092.43,3697.6z"/>
    <path class="st22" d="M1057.26,3645.98c0.04-32.15-6.14-91.12-4.25-125.25c0.84-14.23,12.68-27.16,17.51-43.1 c1.17-1.59,1.45-4.15,5.28-0.98c7.93,6.56,12.24,23.65,15.97,36.73c10.04,35.13,12.5,116.91,11.82,129.99 C1099.92,3645.37,1083.48,3645.55,1057.26,3645.98 M1023.06,3487.37c7.63,11.75,12.06,19.96,13.46,32.92 c-0.04,1.34-0.18,2.4-0.3,3.53l-12.86,122.21c-26.17,0.43-40.23-2.21-44.51-5.06c0.64-3.01,3.82-53.58,12.27-89.62 c6.19-26.43,9.75-56.96,17.37-67.63C1013.86,3476.22,1019.66,3480.14,1023.06,3487.37z"/>
    <g>
      <defs>
        <path id="SVGID_00000102519443242679524090000010486057323584054457_" d="M1057.26,3645.98 c0.04-32.15-6.14-91.12-4.25-125.25c0.84-14.23,12.68-27.16,17.51-43.1c1.17-1.59,1.45-4.15,5.28-0.98 c7.93,6.56,12.24,23.65,15.97,36.73c10.04,35.13,12.5,116.91,11.82,129.99C1099.92,3645.37,1083.48,3645.55,1057.26,3645.98 M1023.06,3487.37c7.63,11.75,12.06,19.96,13.46,32.92c-0.04,1.34-0.18,2.4-0.3,3.53l-12.86,122.21 c-26.17,0.43-40.23-2.21-44.51-5.06c0.64-3.01,3.82-53.58,12.27-89.62c6.19-26.43,9.75-56.96,17.37-67.63 C1013.86,3476.22,1019.66,3480.14,1023.06,3487.37z"/>
      </defs>
    </g>
    <path class="st53" d="M1057.26,3645.98c0.04-32.15-6.14-91.12-4.25-125.25c0.84-14.23,12.68-27.16,17.51-43.1 c1.17-1.59,1.45-4.15,5.28-0.98c7.93,6.56,12.24,23.65,15.97,36.73c10.04,35.13,12.5,116.91,11.82,129.99 C1099.92,3645.37,1083.48,3645.55,1057.26,3645.98z M1023.06,3487.37c7.63,11.75,12.06,19.96,13.46,32.92 c-0.04,1.34-0.18,2.4-0.3,3.53l-12.86,122.21c-26.17,0.43-40.23-2.21-44.51-5.06c0.64-3.01,3.82-53.58,12.27-89.62 c6.19-26.43,9.75-56.96,17.37-67.63C1013.86,3476.22,1019.66,3480.14,1023.06,3487.37z"/>
    <line class="st63" x1="1077.48" y1="3589.28" x2="1096.92" y2="3586.17"/>
    <line class="st63" x1="1010.79" y1="3589.31" x2="989.84" y2="3584.88"/>
    <path class="st54" d="M1058.23,3570.1c12.76,1.99,44.05-5.09,20.01-21.65c-7.19-4.95-20.01,2-20.01,6.2 C1058.23,3556.93,1056.63,3569.85,1058.23,3570.1z"/>
    <path class="st64" d="M1058.23,3570.1c12.76,1.99,44.05-5.09,20.01-21.65c-7.19-4.95-20.01,2-20.01,6.2 C1058.23,3556.93,1056.63,3569.85,1058.23,3570.1z"/>
    <path class="st54" d="M1026.96,3530.49c-12.76-1.99-44.05,5.09-20.01,21.65c7.19,4.95,20.01-2,20.01-6.2 C1026.96,3543.66,1028.57,3530.74,1026.96,3530.49z"/>
    <path class="st64" d="M1026.96,3530.49c-12.76-1.99-44.05,5.09-20.01,21.65c7.19,4.95,20.01-2,20.01-6.2 C1026.96,3543.66,1028.57,3530.74,1026.96,3530.49z"/>
    <path class="st22" d="M1023.97,3557.74c-0.91,1.86-0.52-30.24,3.16-29.98c11.39,0.82,58.81,6,59.78,3.29 c1.78-4.96,1.42-19.77-3.99-33.33c-3.5-8.77-6.88-15.55-6.1-16.52c11.78-6.25,32.16,30.33,36.4,55.51 c1.87,11.1-0.6,19.18-11.14,23.75C1084.43,3568.11,1041.04,3559.51,1023.97,3557.74"/>
    <path class="st22" d="M1060.62,3570.21c0.91,1.86,6.11-8.28,2.42-8.33c-12.04-0.16-61.43-21.7-62.93-24.17 c-2.99-4.96,1.83-25.82,7.24-39.38c3.5-8.77,7.58-15.04,6.81-16.01c-1.08-0.93-7.17-0.47-7.98-0.98 c-12.88,4.47-24.97,33.93-28.58,55.37c-1.87,11.1,0.6,19.18,11.14,23.75C1006.39,3568.11,1043.55,3571.97,1060.62,3570.21"/>
    <path class="st53" d="M1088.23,3484.47c10.21,10.62,22.25,35.46,25.16,52.76c1.87,11.1-0.75,18.72-11.32,23.22 c-8.43,3.59-22.45,3.6-36.69,2.42 M1023.6,3548.95c0.22-8.92,1.23-21.21,3.53-21.18c12.07,0.13,56.38,2.93,60.25,2.86 c0.8-3.44,0.01-5.91-1.41-17.23"/>
    <path class="st53" d="M1007.32,3480.63c-10.06,4.47-26.11,34.64-29.72,56.09c-1.87,11.1,0.61,19.18,11.14,23.75 c17.64,7.65,55.3,12.39,72.25,11.24c1.03-1.97,3.44-9.16,2.57-9.3c-6.39-1.01-22.17-5.23-35.39-10.48 c-14.84-5.9-27.29-12.89-28.06-14.21c-1.68-2.9-0.13-12.4,2.8-25.23"/>
    <path class="st65" d="M1013.43,3522.84c0.31-5.83-0.5-11.34,1.06-27.68"/>
    <path class="st66" d="M1006.73,3523.26c-7.55,5.52-0.04,21.76,12.94,13.36c3.89-2.52,4.38-9.68,0.22-13.17 C1016.83,3520.9,1010.11,3520.79,1006.73,3523.26z"/>
    <path class="st67" d="M1006.73,3523.26c-7.55,5.52-0.04,21.76,12.94,13.36c3.89-2.52,4.38-9.68,0.22-13.17 C1016.83,3520.9,1010.11,3520.79,1006.73,3523.26z"/>
    <path class="st68" d="M1013.12,3526.67c-5.66,0-3,8.82,2.42,5.31c1.87-1.21,1.5-5.46-2.19-5.31 C1013.19,3526.68,1013.33,3526.67,1013.12,3526.67z"/>
    <path class="st22" d="M1017.69,3475.06c-7.46,2.89-16.98,9.68-17.38,11.78c3.81,2.42,19.51,12.65,25.27,15.21 c-2.16,2.24-6.01,6.06-6.09,7.86c4.92,3.6,12.23,8.39,16.83,11.59c0.3-1.25,0.25-5.42-0.44-8.78 C1032.79,3497.6,1019.37,3479.43,1017.69,3475.06z"/>
    <path class="st53" d="M1017.69,3475.06c-7.46,2.89-16.98,9.68-17.38,11.78c3.81,2.42,19.51,12.65,25.27,15.21 c-2.16,2.24-6.01,6.06-6.09,7.86c4.92,3.6,12.23,8.39,16.83,11.59c0.3-1.25,0.25-5.42-0.44-8.78 C1032.79,3497.6,1019.37,3479.43,1017.69,3475.06z"/>
    <path class="st65" d="M1077.38,3521.46c-0.41-4.78,0.95-10.47,0.23-27.18"/>
    <path class="st69" d="M1066.69,3549.23c-1.74-0.08-2.79-0.1-3.32-0.5c-1.16-0.87-1.79-8.72-0.62-15.03 c0.85-4.61,2.61-7.86,6.15-9.56c5.32-2.54,11.87-2.05,15.23,0.76c5.9,4.93,5.33,15.32,5.16,21.37 c-0.06,2.25,0.06,1.67-4.14,1.83"/>
    <path class="st22" d="M1070.52,3474.28c3.68,0.23,18.45,9.27,18.17,10.29c-4.46,3.97-20.2,12.72-25.01,15.75 c2.02,1.76,3.99,3.94,5.73,5.84c-1.97,1.61-9.8,9.98-16.3,13.8c-0.1-1.27,0.32-3.74,1.15-6.79 C1057.87,3500.02,1069.15,3475.02,1070.52,3474.28z"/>
    <path class="st53" d="M1070.52,3474.28c3.68,0.23,18.45,9.27,18.17,10.29c-4.46,3.97-20.2,12.72-25.01,15.75 c2.02,1.76,3.99,3.94,5.73,5.84c-1.97,1.61-9.8,9.98-16.3,13.8c-0.1-1.27,0.32-3.74,1.15-6.79 C1057.87,3500.02,1069.15,3475.02,1070.52,3474.28z"/>
    <path class="st70" d="M1098.38,3393.23c3.78-1.32,6.65-0.74,8.77,1.1c3.89,3.36,4.46,10.99,5.15,18.83 c1.32,15.1-8.92,24.25-19.21,17.8C1085.43,3425.88,1088.2,3396.36,1098.38,3393.23z"/>
    <path class="st71" d="M1098.38,3393.23c3.78-1.32,6.65-0.74,8.77,1.1c3.89,3.36,4.46,10.99,5.15,18.83 c1.32,15.1-8.92,24.25-19.21,17.8C1085.43,3425.88,1088.2,3396.36,1098.38,3393.23z"/>
    <path class="st70" d="M983.2,3402.82c-3.96-0.63-6.71,0.35-8.51,2.39c-3.46,3.91-3.51,11.73-1.88,19.56 c1.03,4.98,1.75,12.1,5.49,15.41c4.2,3.7,11.65,3.09,16.43-1.03C1001.44,3432.88,993.77,3404.23,983.2,3402.82z"/>
    <path class="st72" d="M983.2,3402.82c-3.96-0.63-6.71,0.35-8.51,2.39c-3.46,3.91-3.51,11.73-1.88,19.56 c1.03,4.98,1.75,12.1,5.49,15.41c4.2,3.7,11.65,3.09,16.43-1.03C1001.44,3432.88,993.77,3404.23,983.2,3402.82z"/>
    <path class="st73" d="M1103.06,3405.59c1.9,1.56,2.92,9.74-0.48,12.04"/>
    <path class="st74" d="M979.54,3414.7c-1.65,1.82-1.4,10.06,2.3,11.84"/>
    <path class="st70" d="M996.39,3458.69c-7.86-10.92-7.86-21.81-10.17-36.26c-3.67-23.32-12.93-54.21,1.07-67.01 c12.56-11.48,34.82-9.54,49-10.57c14.15-1.34,39.32-11.11,53-1.17c15.21,11.05,8.71,46.07,9.27,69.38 c0.13,14.63,1.8,25.67-3.95,37.82C1076.08,3490,1021.4,3493.43,996.39,3458.69"/>
    <g>
      <defs>
        <path id="SVGID_00000096054139869210869620000016316682895401000361_" d="M996.39,3458.69 c-7.86-10.92-7.86-21.81-10.17-36.26c-3.67-23.32-12.93-54.21,1.07-67.01c12.56-11.48,34.82-9.54,49-10.57 c14.15-1.34,39.32-11.11,53-1.17c15.21,11.05,8.71,46.07,9.27,69.38c0.13,14.63,1.8,25.67-3.95,37.82 C1076.08,3490,1021.4,3493.43,996.39,3458.69"/>
      </defs>
    </g>
    <path class="st75" d="M996.39,3458.7c-7.86-10.92-7.86-21.81-10.17-36.26c-3.67-23.32-12.93-54.21,1.07-67.01 c12.56-11.48,34.82-9.54,49-10.57c14.15-1.34,39.32-11.11,53-1.17c15.21,11.05,8.71,46.07,9.27,69.38 c0.13,14.63,1.8,25.67-3.95,37.82C1076.07,3490.01,1021.4,3493.44,996.39,3458.7z"/>
    <path class="st27" d="M983.77,3406.43c-3.32-2.04-4.75-2.21-6.49-3.39c-4.35-5.55-9.5-24.16-7.12-36.73 c1.01-5.34,4.3-9.36,8.09-11.2c-3.9-0.51-8.2,2.79-9.86,5.26c-0.28-6.59,1.88-11.12,4.13-15.2c2.67-4.82,6.59-7.95,10.46-10.85 c3.05-2.28,6.51-3.56,8.4-3.95c3.03-0.63,2.24-3.27-8.25-1.61c6.67-8.14,15.49-7.28,18.55-7.15c1.93,0.08-3.8-0.56-5.71-7.72 c-1.32-4.97,5.15,5.84,23.37,0.56c8.66-2.51,32.37-5.39,43.98,3.17c4.92,3.63,5.44,3.85,6.25,8.35 c9.03,0.71,15.13,3.02,20.22,6.06c21.58,12.88,17.6,40.55,14.09,60.88c-0.48,0.78-4.7,1.21-5.55,4.06 c0.16-1.67,1.9-20.2-11.35-20.59c-2.32-6.44-5.84-27.32-9.57-32.53c-3.35,6.31-28.52,12.14-44.58,14.06 c-16.22,1.94-18.81-1.02-22.9-0.35c-13.02,2.17-14.33,23.62-7.36,27.58c-7.72,3.97-16.01-4.27-19.68-7.31 C978.2,3378.52,983.3,3403.28,983.77,3406.43z"/>
    <path class="st76" d="M983.77,3406.43c-3.32-2.04-4.75-2.21-6.49-3.39c-4.35-5.55-9.5-24.16-7.12-36.73 c1.01-5.34,4.3-9.36,8.09-11.2c-3.9-0.51-8.2,2.79-9.86,5.26c-0.28-6.59,1.88-11.12,4.13-15.2c2.67-4.82,6.59-7.95,10.46-10.85 c3.05-2.28,6.51-3.56,8.4-3.95c3.03-0.63,2.24-3.27-8.25-1.61c6.67-8.14,15.49-7.28,18.55-7.15c1.93,0.08-3.8-0.56-5.71-7.72 c-1.32-4.97,5.15,5.84,23.37,0.56c8.66-2.51,32.37-5.39,43.98,3.17c4.92,3.63,5.44,3.85,6.25,8.35 c9.03,0.71,15.13,3.02,20.22,6.06c21.58,12.88,17.6,40.55,14.09,60.88c-0.48,0.78-4.7,1.21-5.55,4.06 c0.16-1.67,1.9-20.2-11.36-20.59c-2.32-6.44-5.84-27.32-9.57-32.53c-3.35,6.31-28.52,12.14-44.58,14.06 c-16.22,1.94-18.81-1.02-22.9-0.35c-13.02,2.17-14.33,23.62-7.36,27.58c-7.72,3.97-16.01-4.27-19.68-7.31 C978.2,3378.52,983.3,3403.28,983.77,3406.43z"/>
    <path class="st77" d="M1014.38,3393.78c9.55-0.67,17.78,5.94,18.38,14.76c0.6,8.82-6.65,16.5-16.2,17.17 c-9.55,0.67-17.78-5.94-18.38-14.76C997.58,3402.14,1004.83,3394.45,1014.38,3393.78z"/>
    <path class="st77" d="M1065.5,3390.22c9.55-0.67,17.78,5.94,18.38,14.76c0.6,8.82-6.65,16.5-16.2,17.17 c-9.55,0.67-17.78-5.94-18.38-14.76C1048.7,3398.57,1055.95,3390.88,1065.5,3390.22z"/>
    <line class="st78" x1="1033.27" y1="3403.68" x2="1048.84" y2="3402.58"/>
    <path class="st79" d="M998.16,3392.38c4.76-5.99,16.02-7.54,22.49-6.53"/>
    <path class="st80" d="M1080.45,3386.74c-5.53-5.27-13.55-4.8-21.53-3.21"/>
    <path class="st27" d="M1014.78,3404.38c-0.55,1.01-0.44,2.19-0.12,3.48c0.6,2.44,3.59,3.93,6.28,3.23 c2.69-0.7,4.46-3.29,3.86-5.73c-0.21-0.86-0.45-1.91-1.06-2.41C1021.09,3400.77,1016.64,3400.96,1014.78,3404.38"/>
    <path class="st27" d="M1056.6,3401.48c-0.55,1.01-0.44,2.19-0.12,3.48c0.6,2.44,3.59,3.93,6.28,3.23 c2.69-0.7,4.46-3.29,3.86-5.73c-0.21-0.86-0.45-1.91-1.06-2.41C1062.91,3397.87,1058.46,3398.07,1056.6,3401.48"/>
    <path class="st81" d="M1035.56,3435.68c2.41,2.67,10.47,5.49,15.78-1.49"/>
    <path class="st82" d="M1022.78,3453.61c9.89,12.4,38.25,8.99,44.59-5"/>
  </g>
</svg>
