<?xml version="1.0" encoding="utf-8"?>
<svg xmlns="http://www.w3.org/2000/svg" viewBox="280.0047 1305.4436 180.6378 238.4963" width="180.638px" height="238.496px">
  <defs>
    <clipPath id="clippath">
      <rect class="st48" x="28.85" y="1286.82" width="458.85" height="257.12" rx="32.89" ry="32.89"/>
    </clipPath>
    <style>
      .st0, .st1, .st2, .st3, .st4, .st5, .st6, .st7, .st8, .st9, .st10, .st11, .st12, .st13, .st14, .st15, .st16, .st17, .st18, .st19, .st20, .st21, .st22 {
        fill: none;
      }

      .st0, .st1, .st2, .st3, .st18, .st22 {
        stroke: #000;
      }

      .st0, .st1, .st2, .st4, .st5, .st6, .st7, .st8, .st10, .st11, .st12, .st13, .st14, .st15, .st16, .st17 {
        stroke-linejoin: round;
      }

      .st0, .st1, .st2, .st4, .st5, .st6, .st7, .st8, .st10, .st11, .st12, .st13, .st14, .st15, .st16, .st17, .st19, .st20, .st21, .st22 {
        stroke-linecap: round;
      }

      .st0, .st8 {
        stroke-width: 3.79px;
      }

      .st1 {
        stroke-width: 3.95px;
      }

      .st2, .st7, .st18, .st22 {
        stroke-width: 3.96px;
      }

      .st3 {
        opacity: .3;
        stroke-miterlimit: 10;
      }

      .st4 {
        stroke-width: 2.33px;
      }

      .st4, .st6 {
        stroke: #49443b;
      }

      .st23, .st24, .st25, .st26, .st27, .st28, .st29, .st30, .st31, .st32, .st33, .st34, .st35, .st36, .st37, .st38, .st39, .st40, .st41, .st42, .st43, .st44, .st45, .st46 {
        fill-rule: evenodd;
      }

      .st23, .st47, .st48 {
        fill: #fff;
      }

      .st49 {
        fill: #d9816d;
      }

      .st24 {
        fill: #212121;
      }

      .st5 {
        stroke: #c77246;
        stroke-width: 4.74px;
      }

      .st25 {
        fill: #ffe2d3;
      }

      .st26 {
        fill: #ea6789;
      }

      .st50 {
        fill: #eeac95;
      }

      .st51 {
        fill: #ff3d2b;
      }

      .st27 {
        fill: #463124;
      }

      .st28 {
        fill: #f6cb36;
      }

      .st29 {
        fill: #ff8f71;
      }

      .st30 {
        fill: #ffc0db;
      }

      .st47 {
        opacity: .8;
      }

      .st6 {
        stroke-width: 3.5px;
      }

      .st31 {
        fill: #ffa5d1;
      }

      .st52 {
        fill: #f2846b;
      }

      .st7 {
        stroke: #676155;
      }

      .st32 {
        fill: #ffbcd3;
      }

      .st8 {
        stroke: #985c3b;
      }

      .st33 {
        fill: #a7f9fd;
      }

      .st53 {
        fill: #e4a374;
      }

      .st54 {
        clip-path: url(#clippath-17);
      }

      .st55 {
        clip-path: url(#clippath-11);
      }

      .st56 {
        clip-path: url(#clippath-16);
      }

      .st57 {
        clip-path: url(#clippath-10);
      }

      .st58 {
        clip-path: url(#clippath-15);
      }

      .st59 {
        clip-path: url(#clippath-14);
      }

      .st34 {
        fill: #ffafdb;
      }

      .st60 {
        clip-path: url(#clippath-4);
      }

      .st61 {
        clip-path: url(#clippath-8);
      }

      .st35 {
        fill: #ffddd2;
      }

      .st62 {
        fill: #464646;
      }

      .st37 {
        fill: #232323;
      }

      .st63 {
        fill: #ff5f49;
      }

      .st64 {
        fill: #242424;
      }

      .st9 {
        clip-rule: evenodd;
      }

      .st10 {
        stroke-width: 4.7px;
      }

      .st10, .st11, .st12, .st13, .st14, .st15, .st16, .st17, .st19, .st20, .st21 {
        stroke: #25231e;
      }

      .st11 {
        stroke-width: 4.7px;
      }

      .st12 {
        stroke-width: 3.93px;
      }

      .st13 {
        stroke-width: 3.93px;
      }

      .st14 {
        stroke-width: 3.92px;
      }

      .st15 {
        stroke-width: 3.14px;
      }

      .st16 {
        stroke-width: 3.14px;
      }

      .st17 {
        stroke-width: 5.13px;
      }

      .st38 {
        fill: #676155;
      }

      .st39 {
        fill: #ff804e;
      }

      .st65 {
        fill: #626262;
      }

      .st18, .st19, .st20, .st21, .st22 {
        stroke-miterlimit: 22.93;
      }

      .st40 {
        fill: #ffe1d2;
      }

      .st19 {
        stroke-width: 3.94px;
      }

      .st20 {
        stroke-width: 3.94px;
      }

      .st21 {
        stroke-width: 3.94px;
      }

      .st66 {
        fill: #ff74ab;
      }

      .st41 {
        fill: #f9ddcb;
      }

      .st42 {
        fill: #454544;
      }

      .st43 {
        fill: #ffdeca;
      }

      .st67 {
        clip-path: url(#clippath);
      }

      .st44 {
        fill: #ababab;
      }

      .st45 {
        fill: #adece4;
      }

      .st46 {
        fill: #8dccdd;
      }
    </style>
  </defs>
  <g class="st67" transform="matrix(1, 0, 0, 1, 7.105427357601002e-15, 0)">
    <g>
      <path class="st40" d="M406.73,1566.7c-.02,5.47-1.49,38.1-2.08,42.47.21,1.62,7.27,9.71,4.94,12.82-2.17,7.43-23.3,6.34-29.17,1.56-.5-5.55,3.68-8.82,3.12-13.35-1.26-6.85-2.48-33.35-3.3-46.29-.43-6.84-4.33-11.05,4.99-13.66,8.76-3.42,20.06-6.62,21.49,16.45Z"/>
      <path d="M396,1629.59c-6.64,0-13.66-1.6-16.98-4.3-.47-.38-.76-.93-.82-1.53-.31-3.45.84-6.06,1.86-8.37.82-1.86,1.46-3.32,1.27-4.9-.96-5.2-1.9-21.79-2.65-35.11-.24-4.25-.46-8.18-.66-11.31-.09-1.47-.37-2.82-.63-4.13-.88-4.35-1.87-9.27,7.25-11.83,3.73-1.47,11.05-4.33,16.69-.72,4.52,2.89,7.01,9.16,7.64,19.18,0,.05,0,.1,0,.15-.02,5.32-1.41,36.27-2.04,42.26.2.31.79,1.24,1.24,1.94,2.35,3.67,5.54,8.66,3.46,12.07-.64,1.79-2.34,4.07-6.72,5.44-2.57.8-5.69,1.18-8.9,1.18ZM382.62,1622.37c4.16,2.47,14.51,3.79,20.95,1.78,1.26-.39,3.44-1.28,3.88-2.78.08-.26.2-.5.36-.72.37-.76-.77-3.23-3.4-7.34-1.27-1.99-1.84-2.91-1.96-3.85-.03-.2-.03-.4,0-.59.56-4.18,2.03-36.63,2.06-42.11-.53-8.34-2.4-13.59-5.58-15.62-3.44-2.2-8.45-.54-12.87,1.19-5.33,1.51-5.13,2.51-4.28,6.71.28,1.39.6,2.96.71,4.73.2,3.14.42,7.08.66,11.35.74,13.2,1.67,29.64,2.6,34.69.37,2.93-.63,5.19-1.59,7.38-.75,1.7-1.46,3.32-1.53,5.19Z"/>
      <path class="st40" d="M342.69,1566.7c-.14,5.47.37,38.1.84,42.47-.26,1.62-7.56,9.71-5.32,12.82,1.95,7.43,23.11,6.34,29.12,1.56.66-5.55-3.42-8.82-2.73-13.35,2.47-7.43,5.2-33.35,6.4-46.29.63-6.84,4.85-11.05-4.4-13.66-8.66-3.42-21.82-6.62-23.92,16.45Z"/>
      <path d="M351.58,1629.57c-3.33,0-6.54-.4-9.11-1.25-4.15-1.39-5.74-3.63-6.32-5.39-1.99-3.43,1.34-8.4,3.79-12.06.47-.71,1.05-1.56,1.3-2.03-.46-6.15-.93-36.9-.8-42.2,0-.05,0-.1,0-.15.89-9.71,3.7-15.9,8.6-18.92,5.84-3.6,12.88-1.57,18.36.6,8.85,2.49,7.66,7.39,6.6,11.71-.33,1.34-.67,2.73-.8,4.24-.81,8.78-3.67,37.92-6.44,46.59-.18,1.51.41,2.94,1.14,4.72.95,2.32,2.03,4.94,1.62,8.39-.07.58-.37,1.12-.83,1.48-3.38,2.68-10.49,4.26-17.14,4.26ZM344.92,1566.83c-.13,5.48.38,37.92.83,42.11.02.2.02.4-.02.59-.15.93-.74,1.84-2.07,3.82-1.02,1.52-4.11,6.14-3.63,7.36.16.22.26.45.33.72.37,1.41,2.36,2.27,3.52,2.65,6.28,2.1,17.01.76,21.28-1.75,0-1.88-.67-3.5-1.37-5.2-.86-2.09-1.83-4.46-1.41-7.26.02-.12.05-.25.09-.37,2.1-6.32,4.63-27.8,6.3-45.8.17-1.84.57-3.45.91-4.88,1.02-4.17,1.23-5.04-3.69-6.43-4.73-1.86-10.45-3.58-14.6-1.02-3.56,2.19-5.74,7.39-6.49,15.44Z"/>
      <path class="st46" d="M339.8,1565.13c-.02,1.95-1.94,44.68-1.08,45.14,5.49,2.95,25.25,3.79,29.88-.94.32-.33.74-7.95,1.39-17.56.91-13.34,2.13-26.95.41-27.04-2.85-.14-26.75-.72-30.61.39Z"/>
      <path class="st64" d="M353.91,1614.93c-6.64,0-13.29-1.1-16.24-2.68-1.7-.91-1.92-1.03-.31-41.69.12-3.01.2-5.06.21-5.45.01-.99.67-1.85,1.62-2.12,4.65-1.33,31.08-.48,31.33-.47.7.03,1.34.35,1.82.89,1.55,1.75,1.46,6.3.24,23.44l-.77,11.25q-.78,11.96-1.61,12.8c-2.83,2.89-9.56,4.02-16.3,4.02ZM340.76,1608.75c5.82,2.2,21.53,2.62,25.83-.6.2-1.57.49-6.02.77-10.34l.77-11.28c.53-7.42,1.17-16.46.83-19.61-5.87-.2-21.51-.42-26.99.12-.04.95-.09,2.21-.15,3.7-.33,8.36-1.29,32.59-1.06,38.01ZM340.84,1609.64h.02-.02Z"/>
      <path class="st46" d="M376.91,1565.13c.16,1.95,2.11,44.68,3.03,45.14,5.76,2.95,25.59,3.79,29.8-.94.29-.33.01-7.95-.2-17.56-.3-13.34-.32-26.95-2.05-27.04-2.86-.14-26.81-.72-30.57.39Z"/>
      <path class="st64" d="M395.26,1614.91c-6.6,0-13.28-1.08-16.34-2.65-1.62-.83-1.87-.96-3.95-41.56-.15-2.98-.26-5.01-.29-5.39-.08-1.05.58-2.02,1.6-2.32,4.55-1.33,31.06-.49,31.31-.48,3.34.16,3.65,3.48,4.07,24.13l.26,11.21q.3,12.05-.52,12.97c-2.61,2.94-9.34,4.08-16.14,4.08ZM381.85,1608.68c6.09,2.33,21.87,2.48,25.77-.42.05-1.64-.06-6.03-.17-10.28l-.26-11.24c-.15-7.58-.33-16.83-.99-19.81-5.68-.2-21.31-.43-26.95.09.05.91.11,2.09.18,3.46.43,8.44,1.69,33.05,2.41,38.2Z"/>
      <path class="st40" d="M352.28,1467.21c-8.91,1.16,14.9,52.3,19.95,52.56,4.64.24,21.99-40.48,19.99-48.03-2.21-8.33-28.85-5.14-39.94-4.53Z"/>
      <path d="M372.28,1521.41s-.09,0-.13,0c-6.16-.31-23.01-38.3-23.47-49.82-.19-4.81,2.04-5.83,3.39-6,.04,0,.08,0,.12-.01,1.42-.08,3.1-.2,4.95-.33,18.12-1.32,34.56-1.84,36.66,6.08,1.98,7.45-11.43,39.66-17.93,47.68-1.35,1.66-2.46,2.41-3.6,2.41ZM372.07,1518.15h0ZM352.47,1468.84c-.28.08-.41.78-.45,1.08-1.34,9.58,15.75,45.21,20.27,48.11,4.39-2.79,20.21-38.88,18.35-45.89-1.58-5.94-22.97-4.39-33.25-3.65-1.83.13-3.5.25-4.92.33Z"/>
      <path class="st40" d="M418.91,1492.88c5.62,6.74,11.07,36.43,8.44,55.75-1.29,9.49-5.99,16.33-12.32,18.07-16.93,4.64-15.81-20.12-10.3-33.49,2.04-4.94-5.14-18.29-9.1-26.26-1.65-3.7-4.61-20.66-.81-25.26,9.04-6.95,18.87,4.79,24.09,11.19Z"/>
      <path d="M411.15,1569.5c-4.04,0-6.62-1.8-8.18-3.56-6.58-7.45-4.08-24.44-.31-33.58,1.45-3.53-4.59-15.57-7.84-22.04l-1.19-2.38c-1.67-3.75-5.23-21.98-.54-27.68.11-.13.23-.25.36-.35,10.92-8.39,22.31,5.57,27.18,11.54,6.02,7.25,11.64,37.55,8.93,57.47-1.41,10.32-6.75,17.95-13.94,19.92-1.66.45-3.14.65-4.47.65ZM396.4,1483.29c-2.62,3.77-.46,18.87,1.27,22.75l1.14,2.28c5.59,11.12,10.05,20.74,7.98,25.74-3.91,9.5-5.07,23.71-.47,28.92,1.81,2.05,4.47,2.57,8.12,1.57,5.44-1.49,9.54-7.7,10.7-16.22,2.63-19.34-3.11-48.23-7.94-54.02,0,0-.01-.01-.02-.02-6.95-8.51-14.27-15.72-20.78-11Z"/>
      <path class="st40" d="M324.23,1496.65c-5.83,7-10.87,31.18-8.14,49.11,1.48,9.72,5.64,18,12.3,19.83,16.93,4.64,15.54-19.02,10.02-32.39-2.03-4.94,5.14-18.29,9.1-26.26,1.65-3.7,4.61-20.66.81-25.26-9.04-6.95-18.87,8.57-24.09,14.96Z"/>
      <path d="M332.4,1568.42c-1.36,0-2.89-.2-4.6-.67-7.05-1.93-12.12-9.83-13.92-21.65-2.8-18.44,2.4-43.37,8.63-50.87.65-.8,1.37-1.74,2.15-2.75,2.86-3.73,6.43-8.37,10.46-11.45,6.64-5.07,11.58-3.4,14.56-1.11.13.1.25.22.36.35,4.69,5.69,1.14,23.93-.49,27.59l-1.23,2.47c-3.25,6.47-9.3,18.5-7.84,22.03,3.54,8.59,6.68,25.03.03,32.57-1.53,1.73-4.08,3.49-8.1,3.49ZM343.5,1482.16c-1.47,0-3.31.62-5.66,2.42-3.56,2.72-6.93,7.1-9.63,10.62-.81,1.06-1.57,2.04-2.24,2.86,0,0-.01.01-.02.02-5.54,6.65-10.25,30.27-7.65,47.35,1.5,9.85,5.49,16.59,10.68,18.01,3.72,1.02,6.4.54,8.17-1.47,4.36-4.94,3.11-18.42-.81-27.91-2.07-5.01,2.39-14.62,7.98-25.74l1.18-2.36c1.69-3.8,3.85-18.9,1.23-22.66-.85-.62-1.89-1.14-3.24-1.14Z"/>
      <path class="st46" d="M402.76,1478.8c9.63,4.65,21.67,20.35,25.37,31.66-3.25,2.63-21.29,8.5-22.31,7.94-10.92-5.99-14.45-34.42-11.14-40.05.73-1.24,7.9.36,8.08.44Z"/>
      <path class="st64" d="M405.86,1520.56c-.49,0-.87-.06-1.11-.2-6.01-3.3-9.36-11.59-11.12-17.97-2.46-8.93-3.46-20.78-.88-25.17,1.94-3.28,10.9-.47,10.98-.43h0c10.69,5.15,22.82,21.66,26.52,32.98.29.88,0,1.85-.72,2.43-2.34,1.9-18.69,8.36-23.68,8.36ZM406.04,1516.21h0ZM396.33,1480.11c-1.02,3.01-.93,11.87,1.61,21.09,2.03,7.39,5.11,12.79,8.49,14.96,2.94-.45,14.63-4.35,19-6.64-4.22-11.05-15.18-24.52-23.47-28.63-1.2-.31-4.31-.84-5.63-.79Z"/>
      <path class="st46" d="M316.36,1510.49c3.25,2.63,22.18,6.51,23.2,5.95,10.91-5.98,12.37-39.63,5.99-39.29-3.45-.27-13.02,5.67-20.42,14.13-5.14,5.87-7.03,12.88-8.78,19.21Z"/>
      <path class="st64" d="M338.98,1518.66c-5.59,0-21.44-4.34-24.03-6.43-.69-.56-.98-1.48-.75-2.33l.08-.29c1.77-6.39,3.77-13.63,9.17-19.8,7.19-8.22,17.06-14.9,21.9-14.9.1,0,.19,0,.29,0,1.4,0,3.71.73,4.96,5.13,2.73,9.61-.09,32.93-9.98,38.35-.32.18-.89.26-1.65.26ZM339.16,1514.27h0ZM318.97,1509.43c4.41,1.97,17.06,4.7,19.89,4.83,4.87-3.12,7.64-13.75,8.16-22.52.44-7.4-.75-11.58-1.54-12.36-.07,0-.14,0-.21,0-2.39,0-11.16,5.05-18.45,13.38-4.38,5-6.23,10.89-7.85,16.68Z"/>
      <path class="st46" d="M414.86,1569.91c-5.93,4.62-77.22,4.1-82.96.12-3.85-19.32,8.54-90.88,10.77-92.5.38-.28,5.55-3.14,7.82-2.45,5.89,9.31,18.74,22.34,21.56,23.95,3.75-1.41,15.85-16.46,21.2-25.08,1.78.58,7.55,3.4,7.85,4.03,8.72,18.54,13.96,69.63,13.77,91.93Z"/>
      <path class="st64" d="M376.66,1575.51c-20.95,0-42.86-1.45-46.02-3.64-.48-.33-.81-.83-.92-1.4-3.34-16.75,7.16-91.49,11.65-94.75.06-.04,6.22-3.87,9.79-2.78.51.16.95.49,1.23.94,5.32,8.41,16.09,19.44,19.81,22.49,3.86-2.9,14-15.29,19.16-23.61.54-.88,1.62-1.27,2.59-.95.08.03,8.21,3.17,9.17,5.2,9.01,19.17,14.17,71.05,13.98,92.9,0,.68-.32,1.32-.86,1.74-3.48,2.72-21.16,3.84-39.58,3.84ZM333.91,1568.53c9.09,3.26,69.51,3.25,78.72.02-.03-21.56-5.06-70.96-13.37-89.22-.86-.57-3.32-1.82-5.13-2.62-5.52,8.42-16.86,22.74-21.3,24.41-.63.23-1.32.18-1.9-.15-3.19-1.83-15.58-14.5-21.72-23.74-1.27.19-3.63,1.2-4.9,1.91-2.34,6.08-13.56,69.26-10.41,89.39ZM414.86,1569.91h.02-.02Z"/>
      <path class="st64" d="M368.39,1528.21c-.56,0-1.11-.25-1.47-.74-.7-.95-9.32-18.99-9.61-25.54-.05-1.03.75-1.91,1.79-1.95,1.01-.08,1.91.75,1.95,1.79.24,5.34,8.01,22.06,8.93,23.55.53.86.31,2.01-.52,2.57-.33.22-.7.33-1.07.33Z"/>
      <path class="st64" d="M377.11,1529.43c-.29,0-.6-.07-.88-.22-.91-.48-1.26-1.62-.78-2.53,2.9-5.46,7.67-19.6,8.99-25.78.22-1.01,1.21-1.65,2.22-1.44,1.01.22,1.66,1.21,1.44,2.22-1.39,6.53-6.27,20.95-9.34,26.76-.34.63-.98.99-1.66.99Z"/>
      <path class="st23" d="M359.35,1526.86c7.55-.31,18.97-1.17,26.93-.72,1.74.1.93,13.17.93,19.87-4.19,0-27.45,3.27-28.24.33-.46-1.71-1.53-19.4.38-19.48Z"/>
      <path class="st64" d="M364.86,1549.8c-5.63,0-7.51-.89-8.04-2.87-.32-1.17-1.88-18.06.42-21.18.5-.69,1.22-1.08,2.03-1.12h0c1.76-.07,3.74-.18,5.83-.29,7.08-.37,15.1-.79,21.32-.43,3.34.19,3.41,4.2,3.13,16.83-.04,1.93-.08,3.76-.08,5.27,0,1.23-1,2.23-2.23,2.23-1.01,0-3.5.23-6.39.5-7.27.68-12.38,1.05-15.97,1.05ZM361.02,1545.09c3.03.75,14.38-.32,19.4-.79,1.78-.17,3.34-.31,4.59-.41.02-1.02.04-2.12.07-3.25.09-3.83.22-9.93-.15-12.33-5.8-.23-13.1.16-19.6.49-1.62.08-3.16.17-4.59.23-.51,3.23-.14,12.91.29,16.05ZM359.35,1526.86h.02-.02Z"/>
      <path class="st62" d="M387.73,1520.29c-.93,0-1.76-.61-2.07-1.55-.38-1.17.33-2.45,1.5-2.84.68-.22,1.53-.23,3.2-.23,2.75,0,7.35-.01,11.57-1.27,1.19-.35,2.43.32,2.78,1.5.35,1.18-.32,2.43-1.5,2.78-4.84,1.44-9.84,1.45-12.83,1.45-.76,0-1.7,0-1.96.05-.23.07-.46.11-.68.11Z"/>
      <path class="st64" d="M372.01,1516.09c-.26,0-.54-.03-.84-.11-6.29-1.54-27.66-30.62-30.06-35.22-.57-1.09-.15-2.44.94-3.01,1.09-.58,2.44-.15,3.01.94,2.78,5.3,21.8,30,26.73,32.76,8.5-6.17,18.14-18.31,26.57-33.49.6-1.08,1.95-1.47,3.04-.87,1.08.6,1.47,1.96.87,3.04-9.1,16.38-19.25,28.97-28.58,35.45-.31.21-.88.51-1.68.51Z"/>
      <path class="st64" d="M367.1,1535.02c-.91,0-1.64-.74-1.64-1.64s.74-1.64,1.64-1.64c1.43,0,2.77-.13,4.19-.27,1.48-.14,3-.29,4.69-.29.91,0,1.64.74,1.64,1.64s-.74,1.64-1.64,1.64c-1.53,0-2.91.13-4.37.28-1.43.14-2.92.29-4.51.29Z"/>
      <path class="st64" d="M367.97,1541.76c-.7,0-1.36-.45-1.57-1.16-.26-.87.22-1.79,1.09-2.05,1.05-.32,2.67-.35,4.54-.38,1.46-.02,4.17-.06,4.77-.42.76-.45,1.79-.23,2.26.53.47.76.27,1.74-.49,2.23-1.25.8-3.38.89-6.49.94-1.42.02-3.02.05-3.63.23-.16.05-.32.07-.48.07Z"/>
      <path class="st40" d="M370.83,1338c22.52-.83,39.51,9.12,51.62,26.63,7.29,10.53,10.91,38.42,10.1,53.51-.31,13.38-2.37,26.49-11.84,38.24-22.04,27.35-61.35,28.66-87.04,13.41-16.14-9.58-27.13-26.01-27.18-48.47-.03-12.73-.22-42.29,6.16-52.76,11.51-18.9,35.45-30.51,58.18-30.56"/>
      <path d="M370.21,1481.74c-13.53,0-26.85-3.6-37.68-10.02-18.18-10.79-28.22-28.69-28.27-50.39v-.67c-.04-13.77-.11-42.42,6.49-53.25,11.48-18.85,35.61-31.56,60.04-31.63,22.32-.83,40.28,8.48,53.5,27.59,7.73,11.17,11.32,39.5,10.49,54.9-.29,12.3-1.98,26.68-12.33,39.52-13.46,16.71-33.06,23.96-52.25,23.96ZM373.41,1340.19c-.83,0-1.65.02-2.49.05-.03,0-.05,0-.08,0-22.95.05-45.57,11.9-56.27,29.48-5.94,9.76-5.87,38.6-5.84,50.92v.68c.05,20.07,9.31,36.6,26.09,46.56,24.53,14.56,62.73,13.72,84.16-12.89,9.51-11.81,11.07-25.28,11.34-36.89.78-14.48-2.61-41.94-9.7-52.18-11.81-17.07-27.68-25.72-47.21-25.72Z"/>
      <path d="M370.74,1420.71s-.03,0-.05,0c-4.66-.12-7.81-1.54-9.34-4.21-1.69-2.94-1.15-7,1.61-12.05.52-.95,1.72-1.31,2.67-.78.95.52,1.31,1.72.78,2.67-2,3.66-2.59,6.57-1.65,8.19,1,1.74,3.83,2.18,6.03,2.24,1.09.03,1.95.93,1.92,2.02-.03,1.07-.91,1.92-1.97,1.92Z"/>
      <path class="st28" d="M311.64,1446.02c-6.05-12.34-4.29-40.54.53-57.4,10.92-11.19,101.35-9.7,115.23-.61.15,2.26,8.75,27.58.75,53.94,3.99,2.93,23.63-1.46,27.41-12.63,10.98-32.49-10.35-82.04-42.81-98.54-32.64-16.59-82.52-15.57-105.54,14.86-26.15,34.57-28.49,71.22-21.8,86.66,4.58,10.58,22.56,15.31,26.25,13.73Z"/>
      <path d="M309.53,1448.54c-7.3,0-21.88-5.43-26.18-15.36-6.35-14.69-5.98-51.81,22.07-88.89,23.81-31.47,74.78-32.55,108.34-15.5,33.03,16.78,55.19,67.88,43.91,101.25-2.83,8.38-12.45,12.23-16.46,13.49-4.75,1.5-11.36,2.46-14.39.23-.76-.56-1.09-1.54-.81-2.45,6.68-22,1.45-43.4-.27-50.43-.15-.6-.26-1.07-.35-1.45-7.07-3.67-30.43-6.37-56.73-6.48-27.69-.14-49.38,2.64-54.52,6.89-4.73,17.1-5.96,44.08-.5,55.21.27.55.3,1.19.09,1.76-.21.57-.65,1.04-1.22,1.28-.73.31-1.76.47-2.99.47ZM366.35,1322.2c-22.35,0-44.27,7.48-57.36,24.78-25.48,33.67-27.93,69.64-21.54,84.43,3.39,7.84,15.53,12.09,20.98,12.66-4.7-13.63-3.14-39.47,1.59-56.06.1-.36.29-.68.55-.95,11.97-12.27,103.11-10.7,118.05-.92.59.38.96,1.02,1,1.72.04.29.21.96.45,1.94,1.74,7.11,6.92,28.31.8,50.73,1.77.2,4.94,0,8.99-1.27,6.99-2.2,12.06-6.19,13.57-10.66,10.66-31.55-10.38-79.92-41.71-95.83-13.3-6.76-29.45-10.57-45.39-10.57Z"/>
      <path class="st46" d="M348.94,1331.42c-1.86.43-4.58-15.67-4.34-21.16,14.63-3.7,39.46-3.52,46.79,1.1,1.76,1.11-.11,9.75-2.74,20.06-9.14-1.79-31.38-1.92-39.71,0Z"/>
      <path class="st64" d="M348.87,1333.66c-.62,0-1.23-.22-1.74-.65-3-2.5-4.96-18.52-4.77-22.85.04-.98.73-1.82,1.68-2.07,14.57-3.69,40.34-3.78,48.53,1.38,2.69,1.7,2.31,6.54-1.76,22.5-.29,1.15-1.44,1.87-2.59,1.64-9.21-1.81-30.96-1.82-38.78-.01h0c-.19.04-.38.06-.57.06ZM346.83,1312.02c.19,5.14,1.81,14.05,2.93,16.94,9.04-1.66,27.67-1.48,37.23-.1,2.2-8.84,3.15-14.16,2.83-15.85-6.72-3.72-28.6-4.19-42.99-1Z"/>
      <path d="M350.87,1366.85c-1.02,0-1.94-.7-2.17-1.73-.81-3.53.29-9.49,1.29-12.41.4-1.17,1.67-1.79,2.84-1.39,1.17.4,1.79,1.67,1.39,2.84-.95,2.79-1.67,7.75-1.16,9.96.28,1.2-.48,2.4-1.68,2.68-.17.04-.34.06-.5.06Z"/>
      <path d="M369.84,1364.24c-1.23,0-2.23-1-2.23-2.23v-7.25c0-1.23,1-2.23,2.23-2.23s2.23,1,2.23,2.23v7.25c0,1.23-1,2.23-2.23,2.23Z"/>
      <path d="M388.38,1365.87c-1.2,0-2.19-.95-2.23-2.16v-.36c-.13-3.5-.19-5.26-1.14-8.45-.35-1.18.33-2.43,1.51-2.77,1.19-.35,2.42.33,2.77,1.51,1.1,3.73,1.17,5.93,1.3,9.56v.36c.05,1.23-.91,2.27-2.14,2.31-.02,0-.05,0-.08,0Z"/>
      <path class="st23" d="M409.58,1398.49c.09,1.49-.52,2.81-1.63,3.84-3.25,3.01-10.65,3.99-17.17,3.27-10.85-1.21-12.17-8.05-8.76-11.07,2.02-1.79,7.62-1.44,12.7-1.47,7.54-.04,11.64.8,13.45,1.89,1.67,1,1.33,2.19,1.42,3.53"/>
      <path d="M394.85,1407.36c-1.45,0-2.89-.08-4.25-.23-8.68-.96-10.93-5.2-11.49-6.97-.78-2.47-.07-5.07,1.87-6.78,2.16-1.91,6.66-1.88,11.43-1.86.76,0,1.53.01,2.29,0,7.02-.06,11.86.67,14.25,2.11,2.12,1.28,2.14,3.02,2.15,4.17,0,.19,0,.39.02.6.12,1.89-.64,3.69-2.12,5.06-3,2.78-8.72,3.9-14.15,3.9ZM390.88,1394.6c-3.25,0-6.74.12-7.84,1.09-1.03.91-1.39,2.23-.98,3.54.79,2.5,4.11,4.31,8.89,4.84,6.76.75,13.32-.43,15.95-2.87.81-.76,1.2-1.63,1.14-2.61h0c-.02-.26-.02-.51-.02-.76,0-.98,0-1.16-.65-1.54-.86-.52-3.87-1.73-12.65-1.67-.78,0-1.55,0-2.32,0-.49,0-1,0-1.52,0Z"/>
      <path class="st36" d="M391.97,1394.27c2.7,0,4.89,2.17,4.89,4.87s-2.19,4.9-4.89,4.91c-2.7,0-4.89-2.17-4.89-4.87s2.19-4.9,4.89-4.91"/>
      <path d="M389.51,1393.58c-.05,0-.11,0-.16,0-.9-.09-1.56-.89-1.48-1.79l.42-4.39c.09-.9.86-1.6,1.79-1.48.9.09,1.56.89,1.48,1.79l-.42,4.39c-.08.85-.8,1.48-1.63,1.48Z"/>
      <path d="M397.26,1394.23c-.19,0-.39-.03-.58-.11-.85-.32-1.28-1.27-.95-2.12l1.56-4.1c.32-.85,1.28-1.27,2.12-.95.85.32,1.28,1.27.95,2.12l-1.56,4.1c-.25.66-.87,1.06-1.53,1.06Z"/>
      <path d="M405.82,1395.61c-.35,0-.7-.11-1-.34-.72-.55-.85-1.58-.3-2.3l2.83-3.68c.55-.72,1.58-.86,2.3-.3.72.55.85,1.58.3,2.3l-2.83,3.68c-.32.42-.81.64-1.3.64Z"/>
      <path class="st23" d="M327.92,1398.49c-.09,1.49.52,2.81,1.63,3.84,3.25,3.01,10.65,3.99,17.17,3.27,10.85-1.21,12.17-8.05,8.76-11.07-2.02-1.79-7.62-1.44-12.7-1.47-7.54-.04-11.64.8-13.45,1.89-1.67,1-1.33,2.19-1.42,3.53"/>
      <path d="M342.65,1407.36c-5.43,0-11.14-1.12-14.15-3.9-1.48-1.37-2.23-3.17-2.12-5.06h0c.01-.21.01-.41.02-.6.01-1.15.03-2.89,2.15-4.16,2.39-1.43,7.13-2.05,14.25-2.11.75,0,1.52,0,2.29,0,4.75-.01,9.27-.05,11.43,1.86,1.94,1.72,2.66,4.31,1.87,6.78-.56,1.77-2.81,6.01-11.49,6.97-1.36.15-2.79.23-4.25.23ZM329.47,1398.58c-.06.98.32,1.86,1.14,2.61,2.63,2.44,9.18,3.62,15.95,2.87,4.77-.53,8.1-2.34,8.89-4.84.41-1.31.05-2.63-.98-3.54-1.27-1.13-5.74-1.1-9.36-1.08-.77,0-1.55,0-2.32,0-8.74-.05-11.79,1.15-12.65,1.67-.64.38-.64.56-.65,1.54,0,.25,0,.5-.02.76Z"/>
      <path class="st36" d="M345.53,1394.27c-2.7,0-4.89,2.17-4.89,4.87s2.19,4.9,4.89,4.91c2.7,0,4.89-2.17,4.89-4.87s-2.19-4.9-4.89-4.91"/>
      <path d="M348,1393.58c-.84,0-1.55-.64-1.63-1.48l-.43-4.39c-.09-.9.57-1.71,1.48-1.79.89-.11,1.71.57,1.79,1.48l.43,4.39c.09.9-.57,1.71-1.48,1.79-.05,0-.11,0-.16,0Z"/>
      <path d="M340.24,1394.23c-.66,0-1.29-.4-1.53-1.06l-1.56-4.1c-.32-.85.1-1.8.95-2.12.85-.33,1.79.1,2.12.95l1.56,4.1c.32.85-.1,1.8-.95,2.12-.19.07-.39.11-.58.11Z"/>
      <path d="M331.68,1395.61c-.49,0-.98-.22-1.3-.64l-2.83-3.68c-.55-.72-.42-1.75.3-2.3.72-.55,1.75-.42,2.3.3l2.83,3.68c.55.72.42,1.75-.3,2.3-.3.23-.65.34-1,.34Z"/>
      <path class="st23" d="M346.69,1445.68c-.46-4.3,4.05-6.48,13.24-2.46,8.72,3.82,16.36.67,22.81-1.23,3.89-1.14,10.18-3.42,10.05,3.07-.11,5.91-10.44,10.93-21.19,11.43-11.44.53-24.78-4.32-24.92-10.81Z"/>
      <path class="st66" d="M369.88,1458.83c-8.78,0-17.97-2.81-22.4-6.95-1.94-1.82-3.01-3.91-3.08-6.05-.22-2.36.61-4.35,2.35-5.63,2.05-1.5,6.17-2.56,14.1.92,6.99,3.06,13.13,1.16,19.06-.67.74-.23,1.47-.45,2.18-.66l.67-.2c3.07-.92,7.28-2.18,10.09-.06,1.53,1.17,2.29,3.04,2.24,5.58-.15,7.79-12.25,13.17-23.38,13.68-.61.03-1.22.04-1.83.04ZM351.67,1443.39c-1.05,0-1.78.21-2.2.52-.17.12-.6.44-.49,1.53,0,.07.01.13.01.19.02.93.57,1.9,1.63,2.89,3.86,3.61,12.84,6.05,20.88,5.68,10.61-.49,18.92-5.33,18.99-9.17.02-.93-.14-1.62-.42-1.83-.94-.71-4.35.31-5.98.8l-.7.21c-.69.2-1.4.42-2.12.64-6.11,1.89-13.71,4.23-22.26.48-3.24-1.42-5.68-1.93-7.34-1.93Z"/>
    </g>
  </g>
</svg>
