<?xml version="1.0" encoding="utf-8"?>
<svg xmlns="http://www.w3.org/2000/svg" viewBox="274.7038 684.5244 197.4328 240.4156" width="197.433px" height="240.416px">
  <defs>
    <clipPath id="clippath-8">
      <rect class="st47" x="28.85" y="667.82" width="458.85" height="257.12" rx="32.89" ry="32.89"/>
    </clipPath>
    <clipPath id="clippath-10">
      <path class="st9" d="M375.66,851.89c23,2,46.51-14.32,55.56-31.79,7.44.7,12-1.83,15.23-5.16,8.76-9.02,3.22-26.28-8.19-25.49-.75-15.48-1.46-22.21-10.22-41.24-8.64-18.78-21.98-33.79-43.22-39.45-58.88-2.91-74.45,62.72-58.24,107.14,6.75,18.49,27.79,34.86,49.07,35.99"/>
    </clipPath>
    <style>
      .st0, .st1, .st2, .st3, .st4, .st5, .st6, .st7, .st8, .st9, .st10, .st11, .st12, .st13, .st14, .st15, .st16, .st17, .st18, .st19, .st20, .st21, .st22 {
        fill: none;
      }

      .st0, .st1, .st2, .st3, .st18, .st22 {
        stroke: #000;
      }

      .st0, .st1, .st2, .st4, .st5, .st6, .st7, .st8, .st10, .st11, .st12, .st13, .st14, .st15, .st16, .st17 {
        stroke-linejoin: round;
      }

      .st0, .st1, .st2, .st4, .st5, .st6, .st7, .st8, .st10, .st11, .st12, .st13, .st14, .st15, .st16, .st17, .st19, .st20, .st21, .st22 {
        stroke-linecap: round;
      }

      .st0, .st8 {
        stroke-width: 3.79px;
      }

      .st1 {
        stroke-width: 3.95px;
      }

      .st2, .st7, .st18, .st22 {
        stroke-width: 3.96px;
      }

      .st3 {
        opacity: .3;
        stroke-miterlimit: 10;
      }

      .st4 {
        stroke-width: 2.33px;
      }

      .st4, .st6 {
        stroke: #49443b;
      }

      .st23, .st24, .st25, .st26, .st27, .st28, .st29, .st30, .st31, .st32, .st33, .st34, .st35, .st36, .st37, .st38, .st39, .st40, .st41, .st42, .st43, .st44, .st45, .st46 {
        fill-rule: evenodd;
      }

      .st23, .st47, .st48 {
        fill: #fff;
      }

      .st49 {
        fill: #d9816d;
      }

      .st24 {
        fill: #212121;
      }

      .st5 {
        stroke: #c77246;
        stroke-width: 4.74px;
      }

      .st25 {
        fill: #ffe2d3;
      }

      .st26 {
        fill: #ea6789;
      }

      .st50 {
        fill: #eeac95;
      }

      .st51 {
        fill: #ff3d2b;
      }

      .st27 {
        fill: #463124;
      }

      .st28 {
        fill: #f6cb36;
      }

      .st29 {
        fill: #ff8f71;
      }

      .st30 {
        fill: #ffc0db;
      }

      .st47 {
        opacity: .8;
      }

      .st6 {
        stroke-width: 3.5px;
      }

      .st31 {
        fill: #ffa5d1;
      }

      .st52 {
        fill: #f2846b;
      }

      .st7 {
        stroke: #676155;
      }

      .st32 {
        fill: #ffbcd3;
      }

      .st8 {
        stroke: #985c3b;
      }

      .st33 {
        fill: #a7f9fd;
      }

      .st53 {
        fill: #e4a374;
      }

      .st54 {
        clip-path: url(#clippath-17);
      }

      .st55 {
        clip-path: url(#clippath-11);
      }

      .st56 {
        clip-path: url(#clippath-16);
      }

      .st57 {
        clip-path: url(#clippath-10);
      }

      .st58 {
        clip-path: url(#clippath-15);
      }

      .st59 {
        clip-path: url(#clippath-14);
      }

      .st34 {
        fill: #ffafdb;
      }

      .st60 {
        clip-path: url(#clippath-4);
      }

      .st61 {
        clip-path: url(#clippath-8);
      }

      .st35 {
        fill: #ffddd2;
      }

      .st62 {
        fill: #464646;
      }

      .st37 {
        fill: #232323;
      }

      .st63 {
        fill: #ff5f49;
      }

      .st64 {
        fill: #242424;
      }

      .st9 {
        clip-rule: evenodd;
      }

      .st10 {
        stroke-width: 4.7px;
      }

      .st10, .st11, .st12, .st13, .st14, .st15, .st16, .st17, .st19, .st20, .st21 {
        stroke: #25231e;
      }

      .st11 {
        stroke-width: 4.7px;
      }

      .st12 {
        stroke-width: 3.93px;
      }

      .st13 {
        stroke-width: 3.93px;
      }

      .st14 {
        stroke-width: 3.92px;
      }

      .st15 {
        stroke-width: 3.14px;
      }

      .st16 {
        stroke-width: 3.14px;
      }

      .st17 {
        stroke-width: 5.13px;
      }

      .st38 {
        fill: #676155;
      }

      .st39 {
        fill: #ff804e;
      }

      .st65 {
        fill: #626262;
      }

      .st18, .st19, .st20, .st21, .st22 {
        stroke-miterlimit: 22.93;
      }

      .st40 {
        fill: #ffe1d2;
      }

      .st19 {
        stroke-width: 3.94px;
      }

      .st20 {
        stroke-width: 3.94px;
      }

      .st21 {
        stroke-width: 3.94px;
      }

      .st66 {
        fill: #ff74ab;
      }

      .st41 {
        fill: #f9ddcb;
      }

      .st42 {
        fill: #454544;
      }

      .st43 {
        fill: #ffdeca;
      }

      .st67 {
        clip-path: url(#clippath);
      }

      .st44 {
        fill: #ababab;
      }

      .st45 {
        fill: #adece4;
      }

      .st46 {
        fill: #8dccdd;
      }
    </style>
  </defs>
  <g class="st61" transform="matrix(1, 0, 0, 1, 0, -1.4210854715202004e-14)">
    <g>
      <path class="st40" d="M410.64,970.3c.41,5.2,3.17,35.15,4.48,40.27.43,1.66,12.01,12.28,8.37,15.69-1.27,7.63-22.76,6.09-29.4,1.19-.8-2.98.89-12.01-.27-16.67-2.14-7.64-10.98-30.77-14.09-44.59-1.58-7.02-1.36-11.35,7.88-14.03,8.55-3.51,18.6-5.55,23.03,18.15Z"/>
      <path d="M410.94,1033.57c-6.72,0-14.19-1.66-18.05-4.5-.37-.27-.63-.66-.75-1.1-.45-1.66-.29-4.34-.12-7.43.19-3.29.4-7.02-.16-9.27-.72-2.57-2.31-7.19-4.15-12.53-3.53-10.26-7.91-23.03-9.96-32.1-1.52-6.76-1.97-13.11,9.18-16.38,4.69-1.92,10.13-3.48,15.08-.79,5.07,2.76,8.54,9.46,10.6,20.47.01.07.02.14.03.21.43,5.45,3.12,34.49,4.38,39.78.27.43,1.24,1.57,2.02,2.49,3.97,4.66,9.35,10.97,6.28,14.81-.44,1.6-1.69,3.55-4.94,4.86-2.5,1.02-5.88,1.49-9.46,1.49ZM395.93,1026.25c4.88,2.96,16.95,4.53,22.96,2.1,1.58-.64,2.46-1.45,2.62-2.42.07-.44.29-.84.61-1.14.37-.34.5-1.98-6.13-9.77-1.92-2.25-2.6-3.08-2.82-3.95-1.38-5.41-4.13-35.47-4.53-40.5-1.8-9.55-4.68-15.47-8.55-17.57-3.49-1.89-7.7-.63-11.72,1.02-.07.03-.13.05-.2.07-7.77,2.25-7.94,5.14-6.47,11.66,2,8.86,6.34,21.51,9.84,31.68,1.86,5.41,3.46,10.07,4.23,12.81.72,2.9.49,6.96.29,10.53-.11,1.99-.24,4.2-.12,5.49ZM417.07,1010.07h.02-.02Z"/>
      <path class="st29" d="M394.21,1019.87c6.94,10,30.17,7.55,27.79-.95-.74-2.64,1.58-.39,3.29,2.21,7.57,10.32,11.4,16.6-2.02,18.08-2.73.3-20.34-1.35-24.48-4.8-5.1-4.24-6.7-9.72-5.84-14.2.17-.86.82-.97,1.26-.34Z"/>
      <path d="M422.55,1041.25c-4.63,0-20.6-1.59-25.05-5.29-5.19-4.32-7.64-10.34-6.53-16.13.23-1.21,1.04-2.1,2.1-2.32,1.05-.22,2.12.24,2.79,1.21h0c4.3,6.2,16.12,6.82,21.68,4.2,2.04-.96,2.89-2.13,2.52-3.46-.65-2.34.42-3.22,1.11-3.54.71-.33,2.38-1.09,5.8,4.09,5.21,7.1,8.53,12.12,6.72,16.24-1.58,3.6-6.58,4.55-10.21,4.95-.22.02-.53.04-.94.04ZM394.78,1023.5c.29,3.39,2.15,6.75,5.3,9.36,3.47,2.88,20.4,4.64,22.97,4.35,5.34-.59,6.65-1.86,6.96-2.57,1.01-2.29-3.37-8.27-6.29-12.26-.72,1.68-2.24,3.14-4.46,4.18-6.08,2.87-17.91,2.74-24.48-3.06ZM392.56,1021.02h0s0,0,0,0Z"/>
      <path class="st40" d="M380.33,1013.69c.05,1.45,1.89,7.87-2.53,10.86-6.69,3.5-28.37,7.29-32.17,4.49-4.08-3,3.22-4.95,7.92-7.45,5.84-4.81-7.41-48.22-5.94-59.34,0,0,25.42-2.13,27.21.19,4.65,6.02,2.12,39.61,5.51,51.25Z"/>
      <path d="M351.36,1032.01c-3.12,0-5.63-.39-6.92-1.34-1.83-1.35-2.1-2.75-2-3.69.27-2.61,3.38-4.01,6.97-5.64,1.01-.46,2.04-.92,2.97-1.41,2.24-2.48-1.21-20.49-3.29-31.31-2.13-11.12-4.14-21.62-3.48-26.64.11-.82.7-1.49,1.51-1.69.24-.06,26.45-2.77,29.3.91,2.75,3.56,3.25,12.88,3.75,27.81.31,9.39.64,19.1,2.1,24.1.05.16.07.33.08.5,0,.18.05.45.1.79.38,2.57,1.26,8.58-3.52,11.8-.06.04-.13.08-.19.12-4.9,2.56-18.57,5.67-27.37,5.67ZM346.67,1027.31s.09.07.15.11c2.54,1.86,22.53-.81,29.94-4.6,2.27-1.61,2.16-4.7,1.7-7.82-.06-.38-.1-.7-.12-.96-1.55-5.52-1.86-14.93-2.2-24.89-.33-9.88-.74-22.11-2.77-25.28-2.57-.98-16.59-.35-23.88.23-.05,4.97,1.78,14.51,3.55,23.76,3.77,19.68,5.87,31.91,1.78,35.28-.1.08-.21.16-.33.22-1.07.57-2.26,1.11-3.43,1.64-1.38.62-3.56,1.61-4.39,2.3Z"/>
      <path class="st29" d="M380.83,1015.13c1.87.75,2.71,1.18,3.2,3.25,1.15,4.94-.14,11.45-.45,14.22-.53.76-2.85.87-3.91.39-.51-.23-.61-2.86-.92-2.69-6.7,3.84-14.17,7.19-28.2,6.04-10.59-.87-11.72-5.12-9.01-8.28,2.15-2.51,6.6-4.46,7.38-4.46,7.06,3.94,15.87,2.41,20.5.93,6.72-2.15,12.41-8.35,11.4-9.39Z"/>
      <path d="M355.96,1038.58c-1.74,0-3.6-.08-5.58-.24-6.52-.54-10.47-2.36-11.72-5.41-.81-1.98-.32-4.23,1.35-6.18,2.41-2.81,7.38-5.16,8.9-5.17h.01c.34,0,.68.09.98.26,7.19,4.02,16.29,1.6,18.91.77,5.12-1.64,9.23-5.71,10.03-7.13-.08-.5.02-1.02.31-1.46.53-.79,1.54-1.1,2.42-.74,2.21.89,3.71,1.7,4.41,4.66,1.05,4.48.27,9.99-.2,13.28-.09.63-.17,1.18-.22,1.62-.04.33-.16.65-.35.93-1.31,1.87-4.88,1.75-6.39,1.06-.7-.32-1.08-.87-1.32-1.53-5.33,2.85-11.65,5.29-21.55,5.29ZM348.63,1025.72c-1.06.42-4.07,1.92-5.56,3.65-.38.45-.98,1.31-.68,2.03.46,1.12,2.89,2.48,8.33,2.93,13.68,1.13,20.85-2.24,27.03-5.78.56-.32,1.3-.36,1.9-.09,1.06.49,1.25,1.51,1.44,2.49.02.1.04.2.05.3.19.01.4,0,.59-.01.03-.19.06-.39.08-.6.43-3.01,1.14-8.06.26-11.8-.07-.28-.12-.5-.19-.68-2.1,2.97-6.99,6.73-11.83,8.28-2.93.94-12.94,3.58-21.41-.72ZM383.58,1032.6h.02-.02ZM379.38,1016.53s0,0,0,0c0,0,0,0,0,0Z"/>
      <path class="st39" d="M396.6,702.07c6.85-.97,11.69-2.41,17.64,0,10.87-5.69,31.16,5.1,28.45,15.07,9.14,2.02,14.53,9.36,10.19,17.97,6.6,1.91,10.08,16.4,6.74,22.3,7.16,3.06,7.95,14.06,3.97,18.52,6.31,4.28,7.49,14.04,2.03,18.35,6.25,4.29,5.69,18.39.27,22.48,6.04,4.91,3.61,12.13-1.36,17.66,5.35,4.38-2.74,15.3-9.56,15.44,4.04,5.48,1.5,10.46-4.49,10.82.74,7.93-7.38,10.24-12.35,7.1-8.02,6.82-7.06,4.7-10.17-.25-7.04,4.91-13.6-1.12-14.29-6.46-3.64-2.09-5.71-6.67-6.81-13.04-1.1-6.37-1.23-14.54-.98-23.81.24-9.27.86-19.65,1.25-30.44.39-10.79.55-22-.12-32.93-.39-6.45-1.07-12.85-1.86-18.83-.79-5.98-1.7-11.54-2.56-16.31-.86-4.76-1.67-8.73-2.26-11.53-.6-2.8-.98-4.43-.98-4.52,0-.59-.26-1.35-.63-2.15-.36-.81-.84-1.66-1.26-2.45-.43-.79-.81-1.51-1-2.04-.19-.53-.19-.89.15-.93Z"/>
      <path d="M431.59,874.12c-.22,0-.44-.02-.66-.06-1.79-.33-2.6-1.81-3.55-3.52-.05-.09-.1-.18-.15-.27-2.85,1.36-5.85,1.44-8.64.21-3.33-1.48-5.94-4.69-6.74-8.19-3.49-2.44-5.78-7-6.97-13.92-.99-5.74-1.3-13.2-1.01-24.2.14-5.27.39-10.84.66-16.73.2-4.46.41-9.05.58-13.72.32-9.03.6-20.92-.12-32.73-.36-5.85-.98-12.14-1.85-18.69-.69-5.21-1.54-10.67-2.55-16.22-.71-3.92-1.46-7.78-2.25-11.47-.31-1.46-.56-2.61-.73-3.37-.28-1.28-.29-1.31-.29-1.57,0-.02-.02-.37-.45-1.33-.31-.69-.71-1.42-1.08-2.1l-.12-.22c-.49-.91-.89-1.66-1.13-2.32-.13-.37-.53-1.49.09-2.52.36-.59.96-.99,1.66-1.09h0c1.11-.16,2.17-.33,3.18-.49,5.09-.81,9.52-1.53,14.64.29,7.78-3.46,18.42-.14,24.73,4.93,4.08,3.28,6.21,7.13,6.07,10.84,4.8,1.48,8.49,4.4,10.29,8.18,1.51,3.18,1.6,6.7.28,10.28,2.18,1.38,4.07,3.87,5.44,7.24,1.77,4.35,2.76,10.6,1.25,15.17,2.66,1.78,4.58,4.71,5.39,8.31.86,3.84.36,7.81-1.26,10.7,2.85,2.63,4.64,6.48,4.79,10.47.11,3.14-.8,6.02-2.56,8.2,2.21,2.48,3.49,6.24,3.6,10.69.11,4.7-1.18,9.07-3.38,11.84,1.59,1.8,2.49,3.89,2.67,6.23.28,3.6-1.22,7.61-4.24,11.44,1.24,1.9,1.44,4.38.51,7.08-1.38,3.99-5.25,8.27-9.58,9.81,1.04,2.41,1.11,4.81.15,6.86-1.02,2.19-3.07,3.69-5.76,4.29-.21,3.12-1.7,5.7-4.23,7.25-2.9,1.78-6.71,1.94-9.89.52-3.33,2.78-5.13,3.93-6.79,3.93ZM427.96,865.51c.13,0,.27.01.4.04.54.11,1.01.44,1.3.9.5.79.9,1.52,1.24,2.15.28.51.61,1.11.84,1.42,1.13-.44,4.06-2.93,5.07-3.79.67-.57,1.63-.64,2.38-.17,2.1,1.33,4.97,1.39,6.97.17,1.73-1.06,2.53-2.93,2.3-5.38-.05-.54.12-1.09.48-1.5.36-.41.86-.67,1.41-.7,2.1-.12,3.66-.94,4.27-2.24.66-1.42.2-3.37-1.27-5.37-.45-.61-.52-1.41-.19-2.09.33-.68,1.01-1.11,1.76-1.12,3.26-.07,7.62-3.8,8.96-7.69.65-1.89.44-3.3-.64-4.18-.43-.35-.69-.86-.73-1.4-.04-.55.14-1.09.51-1.5,3.01-3.36,4.61-6.93,4.39-9.81-.15-1.92-1.07-3.54-2.8-4.94-.48-.39-.75-.98-.74-1.6.01-.62.31-1.2.8-1.57,2.12-1.6,3.54-5.78,3.44-10.17-.09-4.16-1.45-7.54-3.63-9.04-.53-.36-.85-.95-.87-1.59-.02-.64.26-1.25.77-1.65,1.82-1.43,2.81-3.82,2.71-6.55-.12-3.43-1.89-6.7-4.62-8.55-.48-.33-.8-.84-.87-1.42-.07-.58.11-1.15.49-1.59,1.67-1.87,2.31-5.53,1.56-8.88-.4-1.81-1.57-5.06-4.82-6.45-.53-.23-.93-.67-1.12-1.21-.18-.54-.13-1.14.16-1.64,1.59-2.8,1.3-8.75-.65-13.54-1.3-3.18-3.08-5.31-4.89-5.84-.58-.17-1.05-.58-1.29-1.13-.24-.55-.22-1.18.05-1.71,1.55-3.07,1.73-6.06.5-8.64-1.48-3.11-4.88-5.47-9.33-6.45-.54-.12-1-.46-1.29-.93-.29-.47-.36-1.04-.22-1.57,1.03-3.79-2.73-7.32-4.4-8.66-5.5-4.42-15.16-7.25-21.18-4.1-.52.27-1.14.3-1.69.08-4.45-1.8-8.18-1.2-13.35-.37-.36.06-.73.12-1.1.18.07.12.13.24.19.35l.12.22c.42.77.86,1.59,1.21,2.36.5,1.11.76,1.99.8,2.77.03.17.1.48.2.91.17.78.43,1.93.74,3.4.8,3.73,1.56,7.64,2.28,11.6,1.01,5.61,1.88,11.13,2.57,16.4.88,6.64,1.51,13.03,1.87,18.97.73,11.99.45,24,.13,33.12-.17,4.68-.38,9.29-.58,13.76-.27,5.87-.52,11.42-.66,16.65-.28,10.72.01,17.94.96,23.41,1.07,6.19,2.97,10,5.83,11.63.55.31.91.87.99,1.49.32,2.45,2.23,4.97,4.55,5.99,2.1.93,4.38.61,6.59-.93.34-.24.74-.36,1.15-.36Z"/>
      <path class="st23" d="M352.15,837.12c-22.79,8.32-25.81,130.08-24.9,133.27,12.19,8.44,97.77,6.75,107.23-.75.3-12.55-1.81-94.12-23.77-126.66-12.88-19.09-47.09-17.82-58.56-5.85"/>
      <path d="M376.45,978.04c-21.06,0-43.93-1.55-50.34-5.99-.38-.26-.66-.65-.79-1.1-.32-1.14.47-124.89,25.7-135.54,6.45-6.41,19.19-9.97,31.93-8.88,12.88,1.1,23.61,6.69,29.44,15.33,24.26,35.95,24.14,126.95,24.12,127.84-.01.6-.29,1.16-.76,1.53-5.78,4.58-32.6,6.52-53.82,6.79-1.8.02-3.63.03-5.47.03ZM329.16,969.19c14.31,7.78,91.91,5.45,103.33-.66.19-16.89-2.85-93.92-23.45-124.43-5.14-7.62-14.78-12.57-26.44-13.57-11.8-1.01-23.45,2.2-29,7.98-.21.22-.47.39-.76.5-20.1,7.34-24.19,118.79-23.68,130.19ZM352.15,837.12h.02-.02Z"/>
      <path class="st62" d="M406.54,890.31c-.91,0-1.68-.69-1.77-1.61-.18-1.95-.21-5.34-.24-10.04-.04-5.85-.1-13.14-.48-21.34-.04-.98.71-1.81,1.69-1.86.98-.1,1.81.71,1.86,1.69.38,8.26.44,15.9.48,21.47.03,4.44.06,7.94.23,9.74.09.98-.63,1.84-1.61,1.93-.06,0-.11,0-.17,0Z"/>
      <path class="st62" d="M349.81,885.53c-.95,0-1.73-.74-1.77-1.7l-.09-1.8c-.24-4.9-.57-11.61.07-26.92.04-.98.84-1.77,1.85-1.7.98.04,1.74.87,1.7,1.85-.64,15.15-.31,21.76-.07,26.59l.09,1.82c.04.98-.72,1.81-1.7,1.85-.03,0-.05,0-.08,0Z"/>
      <path d="M380.3,977.49c-1.09,0-1.98-.87-2.01-1.96-.14-5.49-.33-11.96-.53-18.97-.64-22.38-1.44-50.24-1.44-69.38,0-1.11.9-2.01,2.01-2.01s2.01.9,2.01,2.01c0,19.09.79,46.91,1.43,69.27.2,7.01.39,13.49.53,18.98.03,1.11-.85,2.04-1.96,2.06h-.05Z"/>
      <path d="M405.62,940.49c-1.08,0-1.97-.86-2.01-1.94-.04-1.11.83-2.04,1.94-2.08,1.49-.05,3-.09,4.52-.14,7.22-.2,14.69-.41,21.78-1.55,1.1-.18,2.13.57,2.31,1.67.18,1.1-.57,2.13-1.67,2.31-7.35,1.18-14.95,1.4-22.3,1.61-1.51.04-3.01.09-4.5.13-.02,0-.05,0-.07,0Z"/>
      <path d="M352.85,940.47h-.03c-7.97-.1-12.18-.38-18-.77-1.83-.12-3.83-.26-6.17-.4-1.11-.07-1.95-1.02-1.89-2.13.07-1.11,1.02-1.94,2.13-1.89,2.35.14,4.36.28,6.19.4,5.97.4,9.91.67,17.78.76,1.11.01,2,.93,1.99,2.04-.01,1.1-.91,1.99-2.01,1.99Z"/>
      <path class="st64" d="M413.89,917.42c-.57,0-1.17-.09-1.78-.21-.47-.09-1.06-.2-1.82-.32-1.42-.22-2.4-1.55-2.17-2.97.22-1.42,1.54-2.39,2.97-2.17.53.08.99.16,1.38.24,1.13-4.99,2.95-13.2-.59-17.55-1.76-2.16-6.53-3.74-11.2-2.54-2.49.64-4.16,2.47-5.6,6.12-1.7,4.3-2.35,9.21-2.31,11.16.31.08.69.18,1.02.26l.33.08c1.4.34,2.25,1.75,1.91,3.15-.34,1.4-1.75,2.25-3.15,1.91l-.33-.08c-1.76-.43-3.02-.74-3.95-1.75-2.46-2.7.13-12.86,1.62-16.65,1.3-3.29,3.66-7.84,9.14-9.25,6.25-1.62,13.21.2,16.55,4.3,5.16,6.35,2.93,16.22,1.59,22.11l-.15.68c-.62,2.78-1.93,3.48-3.48,3.48ZM392.85,909.85h0ZM392.16,908.98h0Z"/>
      <path class="st32" d="M350.82,884.71c-18.99-.01-10.07,29.58,8.13,17.82,6.27-4.05,5.05-18.3-7.35-17.82-.54.02-.08,0-.78,0Z"/>
      <path class="st64" d="M350.7,907.22c-2.67,0-5.15-.84-7.3-2.52-4.33-3.39-6.21-9.51-4.46-14.55,1.62-4.67,5.94-7.36,11.86-7.36.4-.04.52,0,.57.01h.14c6.15-.31,10.78,2.77,12.45,8.08,1.6,5.06-.11,10.77-3.98,13.27-3.17,2.05-6.34,3.07-9.29,3.07ZM350.8,886.64c-4.24,0-7.16,1.69-8.23,4.76-1.2,3.48.17,7.89,3.2,10.27,3.19,2.5,7.5,2.23,12.12-.76,2.42-1.57,3.48-5.46,2.4-8.87-1.14-3.6-4.3-5.59-8.63-5.4-.45.02-.46.01-.53,0h-.33s-.01,0-.02,0Z"/>
      <path class="st62" d="M351.17,900.04c-1.23,0-2.4-.39-3.39-1.16-1.96-1.54-2.8-4.32-2.01-6.61.76-2.18,2.79-3.49,5.44-3.49.02,0,.21,0,.24,0,2.71-.12,4.89,1.34,5.66,3.77.75,2.37-.07,4.98-1.95,6.19-1.33.86-2.7,1.29-4,1.29ZM351.21,892.81c-.9,0-1.45.26-1.63.78-.23.68.08,1.65.69,2.12.82.64,1.93.17,2.71-.34.27-.18.52-.88.29-1.6-.22-.69-.8-1.02-1.71-.97-.06,0-.23,0-.28,0l-.07-2.01v2.01h0Z"/>
      <path class="st23" d="M349.74,840.91c-.97-.29-3.54-5.54-5.3-3.77-11.69,11.76-26.58,38.06-30.87,55.78-4.95,20.44,6.04,33.51,14.57,44.12.29.36,18.95,1.51,22.09.95-2.25-5.03-13.65-29.93-13.88-36.85-.17-5.24,1.09-14.39,4.03-26.76,3.63-15.31,10.28-32.96,9.37-33.46"/>
      <path d="M347.53,939.99c-6.19,0-19.75-.2-20.96-1.7l-.54-.67c-8.69-10.79-19.5-24.21-14.41-45.18,4.17-17.21,17.54-42.39,29.2-55,.76-.82,2.03-.86,2.85-.11.82.75.87,2.03.11,2.85-11.27,12.19-24.21,36.56-28.25,53.21-4.61,19.04,5.08,31.08,13.64,41.71l.08.1c2.6.31,12.67.93,17.86.93h.08c-5.62-12.54-12.66-29-12.85-34.93-.19-5.8,1.17-10.86,3.12-17.38.32-1.07,1.43-1.67,2.51-1.35,1.07.32,1.67,1.44,1.35,2.51-2.12,7.12-3.11,11.34-2.95,16.1.09,2.78,2.45,11.1,13.18,34.93l.52,1.17c.25.57.23,1.22-.06,1.76-.29.55-.82.93-1.43,1.04-.04,0-1.23.02-3.05.02Z"/>
      <path class="st23" d="M406.93,844.13c.98-.29,6.93-8.5,8.68-6.73,11.65,11.76,25.66,37.8,29.9,55.51,4.89,20.44-6.14,33.51-14.7,44.12-.29.36-18.96,1.51-22.09.95,2.27-5.03,13.75-29.93,13.99-36.85.19-5.24-1.25-14.36-3.94-26.76-3.32-15.31-12.74-29.74-11.84-30.24"/>
      <path d="M410.63,939.98c-1.37,0-2.22-.01-2.26-.02-.61-.11-1.14-.49-1.43-1.04-.29-.55-.31-1.2-.06-1.77l.53-1.17c10.8-23.83,13.19-32.15,13.29-34.92l.03-.8c.17-4.42.24-6.25-3.4-17.64-.34-1.06.25-2.19,1.3-2.53,1.06-.34,2.19.24,2.53,1.31,3.86,12.07,3.77,14.25,3.59,19.02l-.03.79c-.21,5.93-7.29,22.38-12.95,34.91,5.37-.01,16.32-.65,19.12-1.01,7.51-9.31,17.37-22.03,12.66-41.72-3.93-16.44-17.93-42.72-29.36-55.13-.75-.82-.7-2.09.12-2.85.82-.76,2.09-.7,2.85.12,11.81,12.81,26.25,39.94,30.32,56.92,5.27,22.03-5.81,35.74-13.9,45.76-1.28,1.58-17,1.78-22.95,1.78ZM431.85,936.99h.02-.02Z"/>
      <path class="st40" d="M355.27,838.72c-10.1,2.51,6.53,19.27,10.78,29.93,3.96,9.94,7.46,17.62,12.44,16.06,6.33-1.98,14.05-15.39,17.15-20.13,20.1-30.71-24.19-18.26-40.37-25.87Z"/>
      <path d="M377.19,886.4c-5.66,0-9.29-9.09-12.52-17.2-1.33-3.33-4-7.42-6.59-11.37-4.69-7.17-8.74-13.35-7.14-17.43.61-1.56,1.95-2.6,3.97-3.11.33-.09.68-.04.99.1,4.85,2.28,12.71,2.68,20.31,3.06,11.27.57,21.92,1.1,25.14,7.43,2.06,4.05.6,9.79-4.47,17.53-.39.6-.86,1.34-1.39,2.19-3.93,6.23-10.52,16.66-16.55,18.55-.6.19-1.18.28-1.74.28ZM355.16,840.3c-1.16.4-1.38.97-1.46,1.18-1.04,2.66,3.16,9.07,6.86,14.73,2.67,4.08,5.43,8.29,6.87,11.9,3.46,8.68,6.86,16.36,10.63,15.2,5-1.56,11.71-12.19,14.93-17.3.54-.86,1.02-1.61,1.42-2.22,4.37-6.68,5.82-11.59,4.31-14.57-2.44-4.8-12.71-5.31-22.65-5.81-7.63-.38-15.52-.78-20.9-3.1Z"/>
      <path class="st23" d="M347.45,833.5c-5.51,2.55-11.48,10.74-11.3,11.71,4.52,3.16,19.67,14.98,24.27,19.01-.98,3.1-4.41,6.39-4.47,8.43,4.99,3.48,16.96,11.83,21.93,13.65.67-4.28-28.32-53.18-30.43-52.81Z"/>
      <path d="M377.88,888.32c-.23,0-.47-.04-.69-.12-5.19-1.91-17.21-10.28-22.34-13.85-.56-.39-.93-1.07-.91-1.75.05-1.64,1.12-3.22,2.36-5.06.62-.91,1.25-1.85,1.7-2.74-5.49-4.64-18.88-15.06-23-17.94-.43-.3-.73-.76-.82-1.28-.53-2.8,7.25-11.52,12.43-13.92.16-.07.33-.13.5-.16,1.2-.2,2.04.62,2.36.93,3.54,3.47,31.3,48.47,30.41,54.17-.09.6-.45,1.12-.97,1.42-.31.18-.67.28-1.02.28ZM358.32,871.86c4.01,2.79,11.16,7.7,16.25,10.59-4.97-10.85-22.54-41.06-27.36-46.54-3.51,2.12-7.15,6.48-8.55,8.63,5.7,4.16,18.77,14.39,23.08,18.18.6.53.83,1.36.59,2.12-.56,1.76-1.7,3.46-2.71,4.96-.41.61-.96,1.42-1.31,2.07ZM338.11,845.55h0Z"/>
      <path class="st23" d="M411.64,830.46c2.63-.82,9.52,12.03,9.79,12.99-3.82,4.51-22.09,15.92-26.23,19.37,1.74,2,2.9,4.47,4.4,6.63-4.76,5.33-15.18,13.32-20.86,17.1.42-3.3,5.43-16.47,13.92-31.35,7.59-13.3,18.27-24.25,18.97-24.75Z"/>
      <path d="M378.75,888.57c-.37,0-.74-.1-1.06-.3-.67-.42-1.04-1.18-.94-1.97.49-3.82,5.81-17.44,14.17-32.09,7.61-13.34,18.51-24.65,19.55-25.39.18-.13.37-.22.58-.29.56-.18,1.45-.25,2.55.34,3.89,2.1,9.54,13.21,9.78,14.02.19.65.04,1.35-.4,1.86-2.61,3.07-10.72,8.62-17.88,13.52-2.71,1.85-5.3,3.63-7.06,4.92.62.89,1.16,1.8,1.7,2.69.5.82.99,1.64,1.53,2.42.53.77.47,1.79-.15,2.49-4.91,5.51-15.58,13.66-21.25,17.44-.34.23-.73.34-1.12.34ZM412.17,832.74c-2.63,2.67-11.36,12.27-17.74,23.46-5.77,10.11-9.96,19.57-12.1,25.37,4.97-3.65,11.02-8.5,14.74-12.34-.26-.42-.52-.84-.77-1.27-.84-1.39-1.63-2.71-2.6-3.82-.35-.41-.53-.94-.49-1.48.04-.54.3-1.04.72-1.39,1.58-1.31,4.97-3.64,8.9-6.32,5.63-3.85,13.14-8.99,16.23-11.92-1.37-2.69-5.02-8.7-6.88-10.29Z"/>
      <path class="st40" d="M375.66,851.89c23,2,46.51-14.32,55.56-31.79,7.44.7,12-1.83,15.23-5.16,8.76-9.02,3.22-26.28-8.19-25.49-.75-15.48-1.46-22.21-10.22-41.24-8.64-18.78-21.98-33.79-43.22-39.45-58.88-2.91-74.45,62.72-58.24,107.14,6.75,18.49,27.79,34.86,49.07,35.99"/>
      <g class="st57">
        <path class="st30" d="M408.96,787.03c5.81.69,10.25,3.8,9.93,6.94-.32,3.14-5.29,5.14-11.1,4.45-5.81-.69-10.25-3.8-9.93-6.94.32-3.14,5.29-5.13,11.1-4.45"/>
        <path class="st30" d="M350.69,781.78c5.81.69,10.25,3.8,9.93,6.94-.32,3.14-5.29,5.13-11.1,4.45-5.81-.69-10.25-3.8-9.93-6.94.32-3.14,5.29-5.14,11.1-4.45"/>
      </g>
      <path d="M379.57,854.07c-1.35,0-2.7-.06-4.06-.17-21.28-1.15-43.6-17.54-50.82-37.32-10.73-29.4-7.06-65.08,8.92-86.77,11.91-16.16,29.65-24.14,51.32-23.07.14,0,.28.03.42.07,19.56,5.21,34.54,18.85,44.53,40.56,8.62,18.72,9.58,25.96,10.3,40.09,4.61.43,8.56,3.43,10.82,8.31,3.21,6.92,1.93,15.38-3.11,20.57-4.11,4.23-9.2,6.16-15.52,5.86-9.1,16.39-30.51,31.87-52.81,31.87ZM381.16,710.68c-18.62,0-33.88,7.4-44.3,21.53-15.23,20.66-18.67,54.79-8.38,83,6.71,18.39,27.48,33.62,47.28,34.67.02,0,.04,0,.07,0,22.57,1.96,44.98-14.07,53.6-30.71.38-.73,1.15-1.16,1.98-1.08,5.74.55,10.06-.91,13.6-4.56,4.56-4.69,4.41-11.62,2.35-16.07-.89-1.93-3.53-6.43-8.95-6.01-.54.02-1.07-.14-1.48-.51-.4-.36-.65-.87-.67-1.41-.75-15.52-1.45-21.84-10.03-40.49-9.56-20.77-23.21-33.3-41.7-38.29-1.13-.05-2.26-.08-3.37-.08Z"/>
      <path d="M414.41,765.19c-.28,0-.56-.05-.84-.16-5.14-1.95-10.35-2.51-16.61-2.75-1.31-.05-2.33-1.15-2.28-2.46.05-1.31,1.23-2.31,2.46-2.28,6.72.26,12.37.88,18.11,3.06,1.22.47,1.84,1.83,1.37,3.06-.36.94-1.26,1.53-2.21,1.53Z"/>
      <path d="M367.77,758.22c-.26,0-.52-.04-.78-.13-8.24-2.89-13.83-2.78-16.11-1.8-1.2.51-2.6-.04-3.11-1.25-.51-1.2.04-2.6,1.25-3.11,4.15-1.77,11.46-1.14,19.54,1.68,1.23.43,1.89,1.79,1.45,3.02-.34.98-1.26,1.59-2.24,1.59Z"/>
      <path class="st36" d="M361.61,768.3c-2.88-.21-5.34,1.86-5.51,4.62-.17,2.76,2.02,5.16,4.9,5.37,2.88.2,5.34-1.87,5.51-4.62.17-2.76-2.03-5.15-4.9-5.36"/>
      <path class="st36" d="M399.4,772.4c-2.92-.22-5.43,1.84-5.59,4.59-.16,2.76,2.08,5.17,5,5.39,2.93.22,5.43-1.84,5.59-4.6.16-2.76-2.08-5.17-5.01-5.38"/>
      <path class="st39" d="M297.08,755.8c-6.26,2.5-12.23,7.24-8.26,15.73-6.14,2.43-11.6,7.03-6.49,17.41-6.25,5.04-7.54,13.95-2.56,22.51-6.46,6.56-.97,20.54,6.37,20.73-5.67,4.26-2.46,13.89,6.45,15.45-4.46,7.59-1.27,13.71,4.32,13.41,1.32,5.85,5.37,10.56,12.07,6.51,2.44,3.49,7.08,3.86,9.59.11,7.98,2.29,14.77-3.79,13.18-10.53,4.87-2.47,11.91-14.09,3.07-17.18,5.65-5.35,5.14-10.17-.86-15.57,5.24-4.04,6.62-9.43.61-16.86,4.52-1.34,9.09-9.15,4.6-16.55,5.44-.95,9.59-9.07,5.92-14.93,5.3-2.44,10-10.72,7.99-17.33,5.31,1.68,13.14-5.26,13.04-10.55,7.04.66,11.87-6.07,8.42-12.53,7.21,1.68,14.39-4.22,13.72-10.16,6.26,1.97,12.47-2.63,13.61-7.98,6.58-3.03,12.17-13.29,9.91-16.97-.67-6.21-10.77-9.72-15.36-6.54-1.73-5.86-13.03-7.15-18.7-3.38-1.52-5.27-15.16-6.16-18.47,2.17-3.11-3.24-23.01-3.29-24.63,9.26-3.22-2.86-13.79-3.51-16.28,8.39-10.06,2.53-7.92,11.96-7.24,14.35-2.09.5-11.25,1.99-8.82,13.33-9.77,3.57-10.33,15.34-5.22,17.71Z"/>
      <path d="M313.93,872.33c-1.98,0-3.91-.82-5.42-2.26-3.22,1.47-5.7,1.06-7.29.38-2.64-1.12-4.73-3.81-5.87-7.47-2.36-.31-4.34-1.58-5.59-3.63-1.7-2.8-1.7-6.57-.08-10.44-4.09-1.5-7.15-4.72-8.1-8.68-.61-2.52-.26-4.96.92-6.98-2.6-1.31-4.85-3.93-6.28-7.45-2.14-5.29-1.68-10.85,1.11-14.61-4.27-8.32-3.27-17.15,2.54-22.78-1.76-4.15-2.05-7.81-.85-10.91,1.13-2.94,3.5-5.25,7.21-7.05-.95-2.85-.94-5.52.03-7.97,1.14-2.89,3.57-5.32,7.22-7.26-1.11-1.63-1.68-3.8-1.58-6.23.17-3.99,2.43-9.36,8.15-12.15-.7-5.18.57-11.09,8.67-13.56-.47-2.62-.56-6.2,1.27-9.37,1.39-2.41,3.63-4.13,6.69-5.13,1.81-6.75,6.08-9.11,8.55-9.93,2.89-.95,5.83-.73,8.08.1,1.46-4.03,4.89-7.09,9.92-8.75,5.19-1.71,11.54-1.72,15.24-.26,2.81-4.24,8.05-5.58,12.06-5.4,3.49.17,6.38,1.41,7.98,3.32,3.95-1.74,9.33-1.95,13.6-.39,2.34.85,4.14,2.16,5.26,3.8,2.8-.94,6.39-.64,9.73.88,3.68,1.68,6.14,4.54,6.65,7.7.76,1.57.77,3.68.02,6.14-1.33,4.37-5.28,10.17-10.16,12.85-.92,2.95-3.09,5.64-5.95,7.31-2.34,1.36-4.92,1.93-7.46,1.71-.42,2.36-1.75,4.63-3.83,6.48-2.5,2.23-5.66,3.47-8.86,3.56.53,2.67.03,5.38-1.47,7.64-1.82,2.74-4.77,4.38-8.12,4.62-.69,2.82-2.78,5.8-5.74,8.01-2.19,1.63-4.48,2.57-6.62,2.74.47,6.2-3.21,12.76-7.8,15.89,1.12,2.91,1,6.29-.38,9.4-1.18,2.64-3.12,4.73-5.36,5.87,1.35,3.31,1.39,6.87.09,10.23-.96,2.49-2.58,4.58-4.48,5.9,2.24,3.33,3.2,6.49,2.85,9.43-.29,2.46-1.48,4.74-3.53,6.78,2.56,2.72,3.83,5.37,3.86,8.06.03,2.34-.86,4.61-2.7,6.88,1.77,1.33,2.8,3.21,2.95,5.5.32,4.78-3.32,10.57-7.08,13.24.29,3.2-.9,6.35-3.33,8.67-2.93,2.79-7.06,3.91-11.28,3.1-1.44,1.54-3.33,2.4-5.35,2.42h-.07ZM308.98,865.53c.64,0,1.26.3,1.65.86.85,1.21,2.12,1.98,3.33,1.91,1.14-.01,2.19-.64,2.94-1.77.49-.73,1.39-1.05,2.23-.82,3.27.94,6.53.26,8.72-1.83,1.78-1.7,2.49-3.99,1.95-6.3-.21-.91.22-1.84,1.05-2.26,2.62-1.33,6.42-6.41,6.17-10.16-.07-1.02-.44-2.47-2.86-3.32-.66-.23-1.16-.79-1.3-1.48-.15-.69.07-1.4.58-1.88,2.26-2.14,3.35-4.08,3.32-5.92-.03-2.02-1.38-4.21-4.15-6.7-.44-.4-.69-.98-.67-1.58.02-.6.31-1.15.78-1.52,2.28-1.75,3.5-3.58,3.73-5.58.28-2.41-.88-5.24-3.46-8.42-.42-.52-.56-1.22-.36-1.86.2-.64.71-1.14,1.35-1.33,1.42-.42,3.31-2.03,4.33-4.7.65-1.69,1.41-5.1-.88-8.88-.34-.57-.39-1.27-.11-1.88.28-.61.83-1.04,1.49-1.15,1.91-.33,3.81-2.05,4.85-4.38,1.15-2.57,1.04-5.37-.29-7.49-.31-.49-.39-1.09-.22-1.64.17-.55.56-1.01,1.09-1.25,4.52-2.07,8.59-9.36,6.9-14.91-.22-.72-.02-1.49.51-2.02.53-.52,1.31-.72,2.02-.49,1.59.51,3.85-.17,6.05-1.81,2.61-1.95,4.41-4.74,4.37-6.78-.01-.57.22-1.12.64-1.51.42-.39.99-.58,1.56-.53,2.65.26,5.02-.8,6.35-2.81,1.31-1.97,1.35-4.44.1-6.77-.37-.7-.3-1.55.18-2.17.48-.63,1.28-.91,2.05-.73,2.97.7,6.29-.19,8.67-2.31,1.84-1.63,2.81-3.75,2.59-5.67-.08-.68.19-1.34.72-1.78.52-.43,1.23-.57,1.88-.37,2.22.7,4.62.4,6.74-.84,2.21-1.29,3.82-3.4,4.29-5.64.13-.62.55-1.14,1.13-1.41,4.06-1.87,7.7-6.97,8.87-10.81.53-1.76.44-2.85.17-3.29-.16-.25-.25-.54-.28-.83-.21-1.9-1.84-3.73-4.38-4.89-2.88-1.32-6.11-1.41-7.83-.21-.53.37-1.21.46-1.81.24-.61-.22-1.08-.71-1.26-1.33-.54-1.84-2.6-2.83-3.78-3.26-3.83-1.4-8.94-.97-11.88.98-.54.36-1.21.43-1.81.21-.6-.22-1.06-.71-1.24-1.33-.38-1.32-2.73-2.42-5.47-2.56-3.28-.13-7.65,1.03-9.19,4.91-.25.64-.81,1.1-1.48,1.23-.68.14-1.37-.08-1.84-.58-.95-.98-7.29-2.09-13.33-.1-3.24,1.07-7.23,3.36-7.85,8.22-.1.74-.59,1.37-1.29,1.63-.7.26-1.49.11-2.04-.38-1.01-.9-3.88-1.79-6.81-.82-3.13,1.04-5.26,3.84-6.16,8.12-.16.76-.73,1.35-1.48,1.54-2.57.64-4.38,1.85-5.38,3.58-1.68,2.91-.85,6.75-.42,8.26.15.53.08,1.1-.2,1.57-.28.47-.74.81-1.27.94l-.35.08c-4.13.93-8.65,3-6.97,10.87.21.98-.33,1.97-1.28,2.31-5,1.83-6.93,5.95-7.07,9.2-.1,2.3.69,4.18,2.01,4.79.73.34,1.19,1.08,1.16,1.88-.02.8-.52,1.52-1.27,1.81-2.88,1.15-6.58,3.18-7.82,6.31-.77,1.94-.56,4.13.64,6.69.24.5.25,1.08.05,1.6-.2.52-.61.92-1.13,1.13-3.68,1.45-5.9,3.27-6.78,5.56-.91,2.35-.45,5.41,1.36,9.09.42.84.19,1.86-.54,2.45-5.66,4.57-6.47,12.39-2.09,19.93.46.78.33,1.78-.31,2.43-3.07,3.11-2.59,8.11-1.24,11.44,1.39,3.45,3.89,5.8,6.22,5.86.86.02,1.61.58,1.87,1.4s-.02,1.71-.71,2.22c-1.71,1.28-2.38,3.29-1.85,5.51.58,2.43,2.88,5.54,7.44,6.34.65.11,1.2.54,1.48,1.14.28.6.24,1.3-.09,1.86-1.96,3.33-2.38,6.56-1.12,8.62.74,1.22,2.01,1.83,3.6,1.76.95-.05,1.86.61,2.07,1.57.7,3.11,2.16,5.41,3.92,6.16,1.4.6,3.13.29,5.14-.93.33-.2.68-.29,1.04-.29Z"/>
      <path d="M380.99,794.99s-.05,0-.08,0c-6.02-.27-8.38-2.89-9.3-5.03-1.48-3.45-.02-7.43,2.08-9.83.64-.74,1.76-.82,2.51-.17.74.64.82,1.77.17,2.51-1.37,1.56-2.32,4.16-1.49,6.1.94,2.2,3.89,2.78,6.19,2.88.98.04,1.74.87,1.7,1.85-.04.95-.83,1.7-1.77,1.7Z"/>
      <path d="M438.54,810.96c-.62,0-1.2-.39-1.41-1.02-.26-.78.16-1.61.94-1.87,2.42-.8,3.51-3.52,3.18-5.68-.13-.82-.57-2.2-2.1-2.21-.82-.01-1.47-.68-1.47-1.5,0-.81.67-1.47,1.48-1.47h.02c2.59.03,4.55,1.88,4.99,4.72.52,3.34-1.12,7.6-5.17,8.95-.15.05-.31.08-.47.08Z"/>
      <path d="M313.41,746.76c-.11,0-.22,0-.33-.03-1.1-.18-1.84-1.22-1.65-2.32.68-4.06,3.15-5.69,5.61-7.02.98-.52,2.2-.16,2.73.82.53.98.16,2.2-.82,2.73-2.46,1.32-3.23,2.21-3.55,4.14-.16.99-1.02,1.68-1.98,1.68Z"/>
      <path d="M327.05,750.45c-.53,0-1.05-.21-1.45-.61-.77-.8-.75-2.07.05-2.85,1.06-1.03,2.37-2.64,3.2-3.78.65-.9,1.91-1.1,2.81-.45.9.65,1.1,1.91.45,2.81-.86,1.19-2.34,3.04-3.66,4.32-.39.38-.9.57-1.4.57Z"/>
      <path d="M341.05,756.96c-.32,0-.64-.08-.94-.23-.98-.52-1.36-1.74-.84-2.72.36-.68.55-1.14.71-1.51.55-1.31.92-1.94,2.89-3.86.8-.77,2.07-.76,2.85.04.77.8.76,2.07-.04,2.85-1.56,1.51-1.65,1.75-1.98,2.52-.19.45-.42,1.01-.86,1.84-.36.68-1.06,1.08-1.78,1.08Z"/>
      <path d="M292.02,808.52h-.01c-1.11,0-2.01-.92-2-2.03.01-1.91.83-4.07,1.49-5.81l.34-.9c.38-1.05,1.54-1.58,2.58-1.21,1.05.38,1.58,1.54,1.2,2.58l-.35.95c-.54,1.44-1.22,3.23-1.23,4.41,0,1.11-.91,2-2.01,2Z"/>
      <path d="M301.14,810.44s-.09,0-.13,0c-1.11-.07-1.95-1.03-1.88-2.14l.05-.77c.12-1.89.15-2.06.74-3.73l.45-1.29c.36-1.05,1.5-1.62,2.56-1.25,1.05.36,1.61,1.5,1.25,2.56l-.46,1.33q-.43,1.21-.51,2.63l-.05.78c-.07,1.07-.95,1.89-2.01,1.89Z"/>
      <path d="M312.62,812.51c-.91,0-1.74-.62-1.96-1.55-.17-.73-.01-1.4.88-4.5.23-.81.45-1.55.52-1.88.22-1.09,1.29-1.8,2.37-1.57,1.09.22,1.8,1.28,1.58,2.37-.08.38-.32,1.24-.59,2.19-.24.85-.69,2.4-.78,2.9.01.92-.61,1.76-1.55,1.99-.16.04-.31.05-.47.05Z"/>
      <path d="M324.84,816.24s-.09,0-.13,0c-1.11-.07-1.95-1.03-1.88-2.14l.1-1.71c.11-2.05.16-2.9.83-5.77.25-1.08,1.34-1.76,2.42-1.5,1.08.25,1.76,1.34,1.5,2.42-.59,2.52-.63,3.17-.73,5.07l-.1,1.75c-.07,1.07-.96,1.89-2.01,1.89Z"/>
      <path class="st63" d="M377.59,829.15c-.88,0-1.78-.04-2.69-.12-8.37-.75-14.63-4.66-15.95-9.93-.4-1.59.57-3.2,2.16-3.59,1.58-.41,3.19.57,3.59,2.15.66,2.63,5.27,4.98,10.74,5.47,5.25.48,12.19-.78,14.5-5.87.67-1.49,2.43-2.15,3.92-1.48,1.49.67,2.15,2.43,1.48,3.92-2.66,5.89-9.47,9.45-17.74,9.45Z"/>
    </g>
  </g>
</svg>
