<?xml version="1.0" encoding="utf-8"?>
<svg xmlns="http://www.w3.org/2000/svg" viewBox="668.132 2270.8035 70.7656 89.7258" width="70.7656px" height="89.7258px">
  <defs>
    <style type="text/css">
	.st0{opacity:0.8;fill:#F0F0F0;}
	.st1{fill:#FFFFFF;}
	.st2{fill:none;stroke:#E51C52;stroke-width:1.5969;stroke-miterlimit:10;}
	.st3{fill:none;stroke:#000000;stroke-width:2;stroke-miterlimit:10;}
	.st4{fill:#E51C52;}
	.st5{opacity:0.05;fill:#E51C52;}
	.st6{fill:#FFE54D;}
	.st7{fill:#6ADBC6;}
	.st8{fill:#FF73C0;}
	.st9{fill:#D0D0D0;}
	.st10{fill:#ED4C5C;}
	.st11{fill:#0071B8;}
	.st12{fill:#616466;}
	.st13{fill:#FFCE31;}
	.st14{fill:#C79127;}
	.st15{fill:#94989B;}
	.st16{fill:#66CAF2;}
	.st17{fill:#B0BDC6;}
	.st18{fill:#CAD5DD;}
	.st19{fill:#DFE9EF;}
	.st20{clip-path:url(#SVGID_00000003788647492567396620000012193650055540771981_);}
	.st21{fill-rule:evenodd;clip-rule:evenodd;fill:#FFE1D2;}
	.st22{fill-rule:evenodd;clip-rule:evenodd;fill:#FFFFFF;}
	.st23{fill-rule:evenodd;clip-rule:evenodd;fill:#8DCCDD;}
	.st24{fill:#242424;}
	.st25{fill:#464646;}
	.st26{fill-rule:evenodd;clip-rule:evenodd;fill:#F6CB36;}
	.st27{fill-rule:evenodd;clip-rule:evenodd;}
	.st28{fill:#FF74AB;}
	.st29{clip-path:url(#SVGID_00000089567955497710894950000004564939106291094162_);}
	.st30{fill-rule:evenodd;clip-rule:evenodd;fill:#FFAFDB;}
	.st31{fill-rule:evenodd;clip-rule:evenodd;fill:#FFA5D1;}
	.st32{fill:#E4A374;}
	.st33{fill:#F2846B;}
	.st34{fill:#626262;}
	.st35{fill:#FF3D2B;}
	.st36{clip-path:url(#SVGID_00000072247754958669075860000003563604013372425393_);}
	.st37{fill-rule:evenodd;clip-rule:evenodd;fill:#FF8F71;}
	.st38{fill-rule:evenodd;clip-rule:evenodd;fill:#FF804E;}
	.st39{fill-rule:evenodd;clip-rule:evenodd;fill:#FFBCD3;}
	.st40{clip-path:url(#SVGID_00000044897576142351777560000005580061451103683720_);}
	.st41{fill-rule:evenodd;clip-rule:evenodd;fill:#FFC0DB;}
	.st42{fill:#FF5F49;}
	.st43{clip-path:url(#SVGID_00000037663531149197560620000016902674294341047205_);}
	.st44{fill-rule:evenodd;clip-rule:evenodd;fill:#EA6789;}
	.st45{fill-rule:evenodd;clip-rule:evenodd;fill:#FFDDD2;}
	.st46{fill-rule:evenodd;clip-rule:evenodd;fill:#463124;}
	.st47{clip-path:url(#SVGID_00000093876712289763696530000013491624063632452539_);}
	.st48{fill:#D9816D;}
	.st49{fill:#EEAC95;}
	.st50{fill-rule:evenodd;clip-rule:evenodd;fill:#ADECE4;}
	.st51{clip-path:url(#SVGID_00000060741536368871064450000000748190747862479003_);}
	.st52{fill-rule:evenodd;clip-rule:evenodd;fill:#FFE2D3;}
	.st53{fill:none;stroke:#000000;stroke-width:3.9615;stroke-linecap:round;stroke-linejoin:round;stroke-miterlimit:22.9256;}
	.st54{fill-rule:evenodd;clip-rule:evenodd;fill:#FFDECA;}
	.st55{fill:none;stroke:#985C3B;stroke-width:3.786;stroke-linecap:round;stroke-linejoin:round;stroke-miterlimit:22.9256;}
	.st56{fill-rule:evenodd;clip-rule:evenodd;fill:#454544;}

		.st57{clip-path:url(#SVGID_00000135690378772157544680000008592861349934607804_);fill-rule:evenodd;clip-rule:evenodd;fill:#212121;}
	.st58{fill-rule:evenodd;clip-rule:evenodd;fill:#676155;}
	.st59{fill:none;stroke:#000000;stroke-width:3.9615;stroke-miterlimit:22.9256;}

		.st60{clip-path:url(#SVGID_00000007392077890153935540000011798188029761511558_);fill-rule:evenodd;clip-rule:evenodd;fill:#212121;}
	.st61{fill-rule:evenodd;clip-rule:evenodd;fill:#ABABAB;}
	.st62{fill-rule:evenodd;clip-rule:evenodd;fill:#232323;}
	.st63{fill:none;stroke:#676155;stroke-width:3.9615;stroke-linecap:round;stroke-linejoin:round;stroke-miterlimit:22.9256;}
	.st64{fill:none;stroke:#000000;stroke-width:3.9615;stroke-linecap:round;stroke-miterlimit:22.9256;}
	.st65{fill:none;stroke:#49443B;stroke-width:3.4954;stroke-linecap:round;stroke-linejoin:round;stroke-miterlimit:22.9256;}
	.st66{fill-rule:evenodd;clip-rule:evenodd;fill:#A7F9FD;}
	.st67{fill:none;stroke:#000000;stroke-width:3.786;stroke-linecap:round;stroke-linejoin:round;stroke-miterlimit:22.9256;}
	.st68{fill:none;stroke:#49443B;stroke-width:2.3303;stroke-linecap:round;stroke-linejoin:round;stroke-miterlimit:22.9256;}
	.st69{fill:none;stroke:#25231E;stroke-width:5.126;stroke-linecap:round;stroke-linejoin:round;stroke-miterlimit:22.9256;}
	.st70{fill-rule:evenodd;clip-rule:evenodd;fill:#F9DDCB;}
	.st71{fill:none;stroke:#25231E;stroke-width:3.9376;stroke-linecap:round;stroke-miterlimit:22.9256;}
	.st72{fill:none;stroke:#25231E;stroke-width:3.9394;stroke-linecap:round;stroke-miterlimit:22.9256;}
	.st73{fill:none;stroke:#25231E;stroke-width:3.1379;stroke-linecap:round;stroke-linejoin:round;stroke-miterlimit:22.9256;}
	.st74{fill:none;stroke:#25231E;stroke-width:3.1391;stroke-linecap:round;stroke-linejoin:round;stroke-miterlimit:22.9256;}
	.st75{fill:none;stroke:#25231E;stroke-width:3.9365;stroke-linecap:round;stroke-miterlimit:22.9256;}
	.st76{fill:none;stroke:#25231E;stroke-width:3.9277;stroke-linecap:round;stroke-linejoin:round;stroke-miterlimit:22.9256;}
	.st77{fill:none;stroke:#25231E;stroke-width:3.9273;stroke-linecap:round;stroke-linejoin:round;stroke-miterlimit:22.9256;}
	.st78{fill:none;stroke:#000000;stroke-width:3.9502;stroke-linecap:round;stroke-linejoin:round;stroke-miterlimit:22.9256;}
	.st79{fill:none;stroke:#25231E;stroke-width:4.7033;stroke-linecap:round;stroke-linejoin:round;stroke-miterlimit:22.9256;}
	.st80{fill:none;stroke:#25231E;stroke-width:4.7034;stroke-linecap:round;stroke-linejoin:round;stroke-miterlimit:22.9256;}
	.st81{fill:none;stroke:#25231E;stroke-width:3.9205;stroke-linecap:round;stroke-linejoin:round;stroke-miterlimit:22.9256;}
	.st82{fill:none;stroke:#C77246;stroke-width:4.7435;stroke-linecap:round;stroke-linejoin:round;stroke-miterlimit:22.9256;}
	.st83{clip-path:url(#SVGID_00000016775293371546092900000002987567014225728181_);}

		.st84{clip-path:url(#SVGID_00000151530495823522347790000001813150801217652912_);fill-rule:evenodd;clip-rule:evenodd;fill:#212121;}

		.st85{clip-path:url(#SVGID_00000159471713327028222550000011061486234049569179_);fill-rule:evenodd;clip-rule:evenodd;fill:#212121;}
	.st86{clip-path:url(#SVGID_00000108992935789586809350000010601311867958218941_);}

		.st87{clip-path:url(#SVGID_00000143586364811497997400000014987830311737532333_);fill-rule:evenodd;clip-rule:evenodd;fill:#212121;}

		.st88{clip-path:url(#SVGID_00000070824730279333431960000001740627053997239684_);fill-rule:evenodd;clip-rule:evenodd;fill:#212121;}
	.st89{clip-path:url(#SVGID_00000074430970795564153050000002217589742953714849_);}

		.st90{clip-path:url(#SVGID_00000109741731289495235600000017975313795970905239_);fill-rule:evenodd;clip-rule:evenodd;fill:#212121;}

		.st91{clip-path:url(#SVGID_00000021090089985969369580000015298764592402587041_);fill-rule:evenodd;clip-rule:evenodd;fill:#212121;}
	.st92{clip-path:url(#SVGID_00000004526927032962449650000012296599214677944767_);}

		.st93{clip-path:url(#SVGID_00000181793784863840742230000000963403634937846207_);fill-rule:evenodd;clip-rule:evenodd;fill:#212121;}

		.st94{clip-path:url(#SVGID_00000088128435907882526810000008452392843776641214_);fill-rule:evenodd;clip-rule:evenodd;fill:#212121;}
	.st95{clip-path:url(#SVGID_00000070113327048708011590000008444599769837744828_);}

		.st96{clip-path:url(#SVGID_00000127043297344388553280000005896812187696379547_);fill-rule:evenodd;clip-rule:evenodd;fill:#212121;}

		.st97{clip-path:url(#SVGID_00000067205833948816596680000004138472364054595004_);fill-rule:evenodd;clip-rule:evenodd;fill:#212121;}
	.st98{opacity:0.3;fill:none;stroke:#000000;stroke-miterlimit:10;}
	.st99{fill:none;stroke:#707070;stroke-miterlimit:10;}
	.st100{clip-path:url(#SVGID_00000172441502015638981160000003839626173466597013_);}
	.st101{clip-path:url(#SVGID_00000103951293729007100510000007477648581370459803_);}
	.st102{clip-path:url(#SVGID_00000050657637020267698730000007794497233976850566_);}
	.st103{clip-path:url(#SVGID_00000174591829408416664060000005413568335083643807_);}
	.st104{clip-path:url(#SVGID_00000180338214505715203030000011210933480113110971_);}
	.st105{fill:#FDFEFF;}
	.st106{fill:#F3F3F3;}
	.st107{fill:none;stroke:#000000;stroke-width:5;stroke-miterlimit:10;}
	.st108{clip-path:url(#SVGID_00000093174670025935718900000004200262371505239719_);}
	.st109{clip-path:url(#SVGID_00000131345553559926493210000012372558883472805050_);}
	.st110{opacity:0.2;}
	.st111{fill:#C6C6C6;}
	.st112{fill:#7F7F7F;}
	.st113{opacity:0.8;fill:#939292;}
	.st114{clip-path:url(#SVGID_00000170275066756171548760000003794827903270323860_);}

		.st115{fill-rule:evenodd;clip-rule:evenodd;fill:none;stroke:#242424;stroke-width:5.5337;stroke-linecap:round;stroke-linejoin:round;stroke-miterlimit:10;}
	.st116{opacity:0.4;}
	.st117{fill:#FFFFFF;stroke:#3F3F3F;stroke-miterlimit:10;}
	.st118{fill:#FFFFFF;stroke:#3F3F3F;stroke-width:2;stroke-miterlimit:10;}
	.st119{fill:#FFFFFF;stroke:#3F3F3F;stroke-width:0.8;stroke-miterlimit:10;}
	.st120{fill:#D13655;}
	.st121{clip-path:url(#SVGID_00000001645614145499293370000011963422717575814543_);}
	.st122{fill:none;stroke:#A8A8A8;stroke-miterlimit:10;}
	.st123{fill:none;stroke:#000000;stroke-width:1.3778;stroke-miterlimit:10;}
	.st124{fill:none;stroke:#000000;stroke-width:1.439;stroke-miterlimit:10;}
	.st125{clip-path:url(#SVGID_00000072965451409974378020000000868710327948758701_);}
	.st126{opacity:0.7;}
	.st127{clip-path:url(#SVGID_00000085954280213685244220000014527844347993614238_);}
	.st128{clip-path:url(#SVGID_00000028309771471314923460000003696619814257554623_);}
	.st129{opacity:0.3;}
	.st130{clip-path:url(#SVGID_00000160170320589839325040000012754120665731856814_);}
	.st131{clip-path:url(#SVGID_00000145755904753650518990000005116092505799524540_);}
	.st132{clip-path:url(#SVGID_00000131331958205791536760000002127501862531401127_);}
	.st133{clip-path:url(#SVGID_00000065065577504918169420000013169645494663246519_);}
	.st134{clip-path:url(#SVGID_00000068647798024654570140000009357037845125757585_);}
	.st135{clip-path:url(#SVGID_00000069369026445231178910000016023766511731348900_);}
	.st136{fill:none;stroke:#EFEFEF;stroke-width:0.9914;stroke-miterlimit:10;}
	.st137{fill:none;stroke:#E51C52;stroke-miterlimit:10;}
	.st138{fill:none;stroke:#020202;stroke-miterlimit:10;}
	.st139{opacity:0.9;}
	.st140{fill:#DBDBDB;}
	.st141{opacity:0.6;fill:#FFFFFF;}
	.st142{fill:#FFFFFF;stroke:#646464;stroke-miterlimit:10;}
	.st143{fill:none;stroke:#1E1E1E;stroke-width:0.8107;stroke-miterlimit:10;}
	.st144{fill:none;stroke:#000000;stroke-width:0.8107;stroke-miterlimit:10;}
	.st145{clip-path:url(#SVGID_00000065779454238800097010000012198490344685555355_);}
	.st146{clip-path:url(#SVGID_00000106829392083777699210000004120409257141701305_);}
	.st147{fill:none;stroke:#000000;stroke-width:2.4522;stroke-linejoin:round;stroke-miterlimit:22.9256;}
	.st148{fill:none;stroke:#000000;stroke-width:2.4522;stroke-linecap:round;stroke-linejoin:round;stroke-miterlimit:22.9256;}
	.st149{fill-rule:evenodd;clip-rule:evenodd;fill:#8ECDDE;}
	.st150{fill:none;stroke:#25231E;stroke-width:2.4522;stroke-linecap:round;stroke-linejoin:round;stroke-miterlimit:22.9256;}
	.st151{fill:none;stroke:#000000;stroke-width:1.803;stroke-linejoin:round;stroke-miterlimit:22.9256;}
	.st152{fill:none;stroke:#25231E;stroke-width:2.0551;stroke-linecap:round;stroke-linejoin:round;stroke-miterlimit:22.9256;}
	.st153{fill:none;stroke:#49443B;stroke-width:2.4522;stroke-linecap:round;stroke-linejoin:round;stroke-miterlimit:22.9256;}
	.st154{fill:none;stroke:#25231E;stroke-width:1.803;stroke-linecap:round;stroke-linejoin:round;stroke-miterlimit:22.9256;}
	.st155{fill:none;stroke:#000000;stroke-width:2.1636;stroke-linecap:round;stroke-linejoin:round;stroke-miterlimit:22.9256;}
	.st156{fill-rule:evenodd;clip-rule:evenodd;fill:#F7CC36;}
	.st157{fill-rule:evenodd;clip-rule:evenodd;fill:#FFFBDE;}
	.st158{fill:none;stroke:#000000;stroke-width:1.6945;stroke-linecap:round;stroke-linejoin:round;stroke-miterlimit:22.9256;}
	.st159{fill:none;stroke:#000000;stroke-width:1.803;stroke-linecap:round;stroke-linejoin:round;stroke-miterlimit:22.9256;}
	.st160{fill:none;stroke:#FF74AC;stroke-width:2.5239;stroke-linecap:round;stroke-linejoin:round;stroke-miterlimit:22.9256;}
	.st161{fill:none;stroke:#000000;stroke-width:2.4522;stroke-linecap:round;stroke-miterlimit:22.9256;}
	.st162{fill-rule:evenodd;clip-rule:evenodd;fill:#FFB0DC;}
	.st163{fill:none;stroke:#000000;stroke-width:2.4522;stroke-miterlimit:22.9256;}
	.st164{fill-rule:evenodd;clip-rule:evenodd;fill:#FFA6D2;}
	.st165{fill:none;stroke:#E5A474;stroke-width:1.3151;stroke-linecap:round;stroke-linejoin:round;stroke-miterlimit:22.9256;}
	.st166{fill:none;stroke:#000000;stroke-width:2.7402;stroke-linecap:round;stroke-linejoin:round;stroke-miterlimit:22.9256;}
	.st167{fill:none;stroke:#F3846B;stroke-width:3.1729;stroke-linecap:round;stroke-linejoin:round;stroke-miterlimit:22.9256;}
	.st168{fill:none;stroke:#000000;stroke-width:0.5482;stroke-miterlimit:22.9256;}
	.st169{fill:none;stroke:#676155;stroke-width:1.803;stroke-linecap:round;stroke-linejoin:round;stroke-miterlimit:22.9256;}
	.st170{fill:none;stroke:#000000;stroke-width:5.4091;stroke-miterlimit:22.9256;}
	.st171{fill-rule:evenodd;clip-rule:evenodd;fill:#EB678A;}
	.st172{fill-rule:evenodd;clip-rule:evenodd;fill:#FFDED3;}
	.st173{fill:none;stroke:#000000;stroke-width:1.7309;stroke-linecap:round;stroke-linejoin:round;stroke-miterlimit:22.9256;}
	.st174{fill-rule:evenodd;clip-rule:evenodd;fill:#472F1D;}

		.st175{clip-path:url(#SVGID_00000087408993735930648840000006729897317083606933_);fill-rule:evenodd;clip-rule:evenodd;fill:#FFFBDE;}
	.st176{fill:none;stroke:#DB816D;stroke-width:1.803;stroke-linecap:round;stroke-linejoin:round;stroke-miterlimit:22.9256;}
	.st177{fill:none;stroke:#000000;stroke-width:3.1729;stroke-linecap:round;stroke-linejoin:round;stroke-miterlimit:22.9256;}
	.st178{fill:none;stroke:#EFAD96;stroke-width:1.803;stroke-linecap:round;stroke-linejoin:round;stroke-miterlimit:22.9256;}
	.st179{fill-rule:evenodd;clip-rule:evenodd;fill:#AEEDE5;}
	.st180{fill-rule:evenodd;clip-rule:evenodd;fill:#FF9071;}
	.st181{fill:none;stroke:#49443B;stroke-width:2.1636;stroke-linecap:round;stroke-linejoin:round;stroke-miterlimit:22.9256;}
	.st182{fill:none;stroke:#25231E;stroke-width:3.1729;stroke-linecap:round;stroke-linejoin:round;stroke-miterlimit:22.9256;}
	.st183{fill-rule:evenodd;clip-rule:evenodd;fill:#FFBCD4;}
	.st184{fill:none;stroke:#25231E;stroke-width:2.3435;stroke-linecap:round;stroke-linejoin:round;stroke-miterlimit:22.9256;}

		.st185{clip-path:url(#SVGID_00000078007515909940658280000001915293939782399913_);fill-rule:evenodd;clip-rule:evenodd;fill:#FFC1DC;}
	.st186{fill:none;stroke:#000000;stroke-width:2.8848;stroke-linecap:round;stroke-linejoin:round;stroke-miterlimit:22.9256;}
	.st187{fill:none;stroke:#FF5F49;stroke-width:3.606;stroke-linecap:round;stroke-miterlimit:22.9256;}
	.st188{fill:none;stroke:#985C3B;stroke-width:2.3435;stroke-linecap:round;stroke-linejoin:round;stroke-miterlimit:22.9256;}

		.st189{clip-path:url(#SVGID_00000085936699385710682180000004427463841377896081_);fill-rule:evenodd;clip-rule:evenodd;fill:#212121;}

		.st190{clip-path:url(#SVGID_00000023248465632559320100000013734132225464717230_);fill-rule:evenodd;clip-rule:evenodd;fill:#212121;}
	.st191{fill:none;stroke:#676155;stroke-width:2.4522;stroke-linecap:round;stroke-linejoin:round;stroke-miterlimit:22.9256;}
	.st192{fill:none;stroke:#000000;stroke-width:2.3435;stroke-linecap:round;stroke-linejoin:round;stroke-miterlimit:22.9256;}
	.st193{fill:none;stroke:#49443B;stroke-width:1.4425;stroke-linecap:round;stroke-linejoin:round;stroke-miterlimit:22.9256;}
	.st194{fill:none;stroke:#25231E;stroke-width:2.4374;stroke-linecap:round;stroke-miterlimit:22.9256;}
	.st195{fill:none;stroke:#25231E;stroke-width:2.4385;stroke-linecap:round;stroke-miterlimit:22.9256;}
	.st196{fill:none;stroke:#25231E;stroke-width:1.9423;stroke-linecap:round;stroke-linejoin:round;stroke-miterlimit:22.9256;}
	.st197{fill:none;stroke:#25231E;stroke-width:1.9431;stroke-linecap:round;stroke-linejoin:round;stroke-miterlimit:22.9256;}
	.st198{fill:none;stroke:#25231E;stroke-width:2.4367;stroke-linecap:round;stroke-miterlimit:22.9256;}
	.st199{fill:none;stroke:#25231E;stroke-width:2.4312;stroke-linecap:round;stroke-linejoin:round;stroke-miterlimit:22.9256;}
	.st200{fill:none;stroke:#25231E;stroke-width:2.431;stroke-linecap:round;stroke-linejoin:round;stroke-miterlimit:22.9256;}
	.st201{fill:none;stroke:#000000;stroke-width:2.4452;stroke-linecap:round;stroke-linejoin:round;stroke-miterlimit:22.9256;}
	.st202{fill:none;stroke:#25231E;stroke-width:2.9113;stroke-linecap:round;stroke-linejoin:round;stroke-miterlimit:22.9256;}
	.st203{fill:none;stroke:#25231E;stroke-width:2.4268;stroke-linecap:round;stroke-linejoin:round;stroke-miterlimit:22.9256;}
	.st204{fill:none;stroke:#C77246;stroke-width:2.9362;stroke-linecap:round;stroke-linejoin:round;stroke-miterlimit:22.9256;}
	.st205{opacity:0.3;fill:none;stroke:#000000;stroke-width:0.9807;stroke-miterlimit:10;}
	.st206{fill:none;stroke:#000000;stroke-width:0.9293;stroke-miterlimit:10;}
	.st207{fill:#C8C8C8;}
	.st208{fill:none;stroke:#E51C52;stroke-width:1.0718;stroke-miterlimit:10;}
	.st209{fill:none;stroke:#E51C52;stroke-width:6.6768;stroke-linecap:round;stroke-miterlimit:10;}
	.st210{clip-path:url(#SVGID_00000176738432661664411420000017872582413361927861_);}

		.st211{clip-path:url(#SVGID_00000075878649049108699950000012602750618253841328_);fill-rule:evenodd;clip-rule:evenodd;fill:#212121;}

		.st212{clip-path:url(#SVGID_00000001639441816106894070000017217587151309172115_);fill-rule:evenodd;clip-rule:evenodd;fill:#212121;}
	.st213{clip-path:url(#SVGID_00000147902277218530063270000009912045633415782530_);}
	.st214{clip-path:url(#SVGID_00000139258901773741113860000002812604289060177843_);}
	.st215{fill:none;stroke:#646464;stroke-miterlimit:10;}
	.st216{clip-path:url(#SVGID_00000057112469538511238290000003823846996822189465_);}
	.st217{font-family:'Roboto-Light';}
	.st218{font-size:25.7955px;}
	.st219{fill:none;stroke:#1E1E1E;stroke-width:0.7803;stroke-miterlimit:10;}
	.st220{fill:none;stroke:#FFFFFF;stroke-miterlimit:10;}
	.st221{clip-path:url(#SVGID_00000173147583925092145390000006073812267182479269_);}
	.st222{clip-path:url(#SVGID_00000125592778046165089470000002499948703258167462_);}
	.st223{clip-path:url(#SVGID_00000141432408200947437870000009064541348052305590_);}
	.st224{font-family:'Roboto-Medium';}
	.st225{font-size:27.4203px;}
	.st226{fill:#EBFF2C;}
	.st227{fill-rule:evenodd;clip-rule:evenodd;fill:#F9E2D3;}
	.st228{fill:#322C2B;}
	.st229{fill-rule:evenodd;clip-rule:evenodd;fill:#FDFDFD;}
	.st230{opacity:0.29;}
	.st231{fill-rule:evenodd;clip-rule:evenodd;fill:#322C2B;}
	.st232{fill-rule:evenodd;clip-rule:evenodd;fill:#F2AFDB;}
	.st233{fill-rule:evenodd;clip-rule:evenodd;fill:#F1A5D2;}
	.st234{fill:#E6A573;}
	.st235{fill:#ED836A;}
	.st236{fill:#757475;}
	.st237{fill-rule:evenodd;clip-rule:evenodd;fill:#E93323;}
	.st238{fill-rule:evenodd;clip-rule:evenodd;fill:#F6CD46;}
	.st239{fill-rule:evenodd;clip-rule:evenodd;fill:#AAABAB;}
	.st240{fill-rule:evenodd;clip-rule:evenodd;fill:#8ECEDF;}
	.st241{fill-rule:evenodd;clip-rule:evenodd;fill:#464443;}
	.st242{fill-rule:evenodd;clip-rule:evenodd;fill:#F8DDCB;}
	.st243{fill:#A1664E;}
	.st244{fill-rule:evenodd;clip-rule:evenodd;fill:#5F5D5D;}
	.st245{clip-path:url(#SVGID_00000049179723481740907140000011744995289819190691_);}
	.st246{fill:#8A8A8B;}
	.st247{fill-rule:evenodd;clip-rule:evenodd;fill:#757475;}
	.st248{clip-path:url(#SVGID_00000122708806388054160990000010699471242135169683_);}
	.st249{fill:#A0A0A0;}
	.st250{fill-rule:evenodd;clip-rule:evenodd;fill:#B5B5B6;}
	.st251{fill:#5F5D5D;}
	.st252{fill-rule:evenodd;clip-rule:evenodd;fill:#A8FAFD;}
	.st253{fill:#464443;}
	.st254{fill-rule:evenodd;clip-rule:evenodd;fill:#5878C4;}
	.st255{fill-rule:evenodd;clip-rule:evenodd;fill:#F9E0D1;}
	.st256{fill:#C77347;}
	.st257{fill-rule:evenodd;clip-rule:evenodd;fill:#ED7D4B;}
	.st258{fill-rule:evenodd;clip-rule:evenodd;fill:#EE8D6F;}
	.st259{fill-rule:evenodd;clip-rule:evenodd;fill:#F4BCD4;}
	.st260{fill-rule:evenodd;clip-rule:evenodd;fill:#F4C1DC;}
	.st261{fill:#EB5A45;}
	.st262{fill-rule:evenodd;clip-rule:evenodd;fill:#F2C68B;}
	.st263{fill-rule:evenodd;clip-rule:evenodd;fill:#FBEBCA;}
	.st264{fill-rule:evenodd;clip-rule:evenodd;fill:#EEE45D;}
	.st265{fill-rule:evenodd;clip-rule:evenodd;fill:#FDF9A6;}
	.st266{fill:#EC72AC;}
	.st267{fill-rule:evenodd;clip-rule:evenodd;fill:#EF9670;}
	.st268{fill-rule:evenodd;clip-rule:evenodd;fill:#F8DDD3;}
	.st269{fill-rule:evenodd;clip-rule:evenodd;fill:#583F33;}
	.st270{clip-path:url(#SVGID_00000005951215805644146780000001177475302150972544_);}
	.st271{fill:#DB816D;}
	.st272{fill:#F0AE96;}
	.st273{fill-rule:evenodd;clip-rule:evenodd;fill:#AEEEE6;}
	.st274{fill:none;stroke:#E51C52;stroke-width:7.7112;stroke-linecap:round;stroke-miterlimit:10;}
	.st275{clip-path:url(#SVGID_00000054950551246531324940000003710823615002347181_);}
	.st276{clip-path:url(#SVGID_00000093148265540407866360000012033833716041609620_);}
	.st277{clip-path:url(#SVGID_00000117668532859298909870000013058671757576250038_);}
	.st278{clip-path:url(#SVGID_00000007423921953304727460000012125114555699330481_);}
	.st279{clip-path:url(#SVGID_00000118376168651265113420000011280988601062696603_);}
	.st280{clip-path:url(#SVGID_00000039113208727272009860000018320019637984095410_);}
	.st281{clip-path:url(#SVGID_00000031165033760197733750000005611723197208037820_);}
	.st282{clip-path:url(#SVGID_00000109026055774964319360000000870413803839614628_);}
	.st283{fill:none;stroke:#E52C52;stroke-miterlimit:10;}
	.st284{fill:#2C88C6;}
</style>
  </defs>
  <g>
    <path class="st4" d="M701.89,2315.45c1.71,1.94,1.71,1.94,1.71,1.95c0,0,0,0,0,0c0,0,0,0,0,0c0,0,0,0-0.01,0.01 c0,0-0.01,0.01-0.01,0.01c0,0,0,0,0.01,0c0.01-0.01,0.04-0.03,0.09-0.07c0.09-0.07,0.25-0.18,0.47-0.31 c0.44-0.27,1.11-0.6,1.96-0.85c1.66-0.48,4.17-0.66,7.36,0.94l2.31-4.63c-4.45-2.23-8.31-2.08-11.11-1.28 c-1.37,0.39-2.45,0.94-3.21,1.39c-0.38,0.23-0.68,0.44-0.89,0.6c-0.11,0.08-0.19,0.15-0.26,0.2c-0.03,0.03-0.06,0.05-0.08,0.07 c-0.01,0.01-0.02,0.02-0.03,0.03c0,0-0.01,0.01-0.01,0.01c0,0,0,0-0.01,0c0,0,0,0,0,0 C700.19,2313.51,700.19,2313.51,701.89,2315.45z M696.81,2309.07c-2.55,0.43-2.55,0.43-2.55,0.44c0,0,0,0,0,0c0,0,0,0,0,0.01 c0,0,0,0.01,0,0.01c0,0.01,0,0.02,0.01,0.03c0,0.02,0.01,0.05,0.01,0.07c0.01,0.06,0.03,0.13,0.05,0.22 c0.04,0.17,0.1,0.4,0.19,0.67c0.18,0.54,0.46,1.25,0.91,2.06c0.91,1.62,2.49,3.58,5.17,5.13l2.59-4.48 c-1.76-1.02-2.72-2.25-3.24-3.18c-0.26-0.47-0.42-0.87-0.5-1.13c-0.04-0.13-0.07-0.22-0.08-0.27 c-0.01-0.02-0.01-0.04-0.01-0.04s0,0,0,0.01c0,0,0,0.01,0,0.01c0,0,0,0.01,0,0.01c0,0,0,0,0,0c0,0,0,0,0,0 C699.36,2308.64,699.36,2308.64,696.81,2309.07z M713.47,2317.12c1.28,0.64,2.83,0.12,3.47-1.16c0.64-1.28,0.12-2.83-1.16-3.47 L713.47,2317.12z M701.89,2315.45l-1.29,2.24c0.96,0.55,2.17,0.43,3-0.3L701.89,2315.45z M699.36,2308.64 c-0.24-1.41-1.58-2.36-2.98-2.12s-2.36,1.58-2.12,2.98L699.36,2308.64z"/>
    <path class="st4" d="M701.93,2315.42c-2.59,0-2.59,0-2.59,0c0,0,0,0,0,0c0,0,0,0.01,0,0.01c0,0.01,0,0.01,0,0.02 c0,0.02,0,0.03,0,0.05c0,0.04,0,0.1,0.01,0.17c0.01,0.13,0.02,0.32,0.04,0.54c0.04,0.45,0.12,1.08,0.26,1.85 c0.3,1.53,0.88,3.62,2.03,5.97c2.32,4.73,6.89,10.34,15.72,14.42l2.17-4.7c-7.72-3.57-11.43-8.3-13.25-12 c-0.92-1.87-1.37-3.52-1.59-4.67c-0.11-0.58-0.16-1.03-0.19-1.32c-0.01-0.15-0.02-0.25-0.02-0.31c0-0.03,0-0.05,0-0.06 c0,0,0,0,0,0c0,0,0,0,0,0.01c0,0,0,0,0,0c0,0,0,0,0,0C704.52,2315.42,704.52,2315.42,701.93,2315.42z M703.19,2337.4 c1.89-1.76,1.89-1.76,1.89-1.76c0,0,0,0,0,0c0,0,0,0,0,0c0,0,0,0,0,0c0,0,0,0,0,0c-0.01-0.01-0.02-0.02-0.04-0.05 c-0.04-0.05-0.11-0.13-0.2-0.25c-0.18-0.23-0.45-0.59-0.76-1.06c-0.62-0.94-1.38-2.32-1.93-4.02 c-1.07-3.33-1.39-8.02,1.98-13.5l-4.41-2.71c-4.28,6.95-3.96,13.25-2.49,17.8c0.72,2.24,1.71,4.03,2.53,5.27 c0.41,0.62,0.77,1.11,1.05,1.45c0.14,0.17,0.25,0.31,0.34,0.4c0.04,0.05,0.08,0.09,0.1,0.12c0.01,0.02,0.02,0.03,0.03,0.04 c0,0.01,0.01,0.01,0.01,0.01c0,0,0,0,0.01,0.01c0,0,0,0,0,0C701.3,2339.17,701.3,2339.17,703.19,2337.4z M708.72,2343.25 l-3.17-6.93l-4.71,2.16l3.17,6.93L708.72,2343.25z M717.4,2338.45c1.3,0.6,2.84,0.03,3.43-1.26c0.6-1.3,0.03-2.84-1.26-3.43 L717.4,2338.45z M701.93,2315.42h2.59c0-1.16-0.77-2.17-1.88-2.49c-1.11-0.32-2.3,0.15-2.91,1.13L701.93,2315.42z M703.19,2337.4l2.35-1.08c-0.12-0.25-0.27-0.48-0.46-0.69L703.19,2337.4z M704.01,2345.41c0.6,1.3,2.13,1.87,3.43,1.27 c1.3-0.6,1.87-2.13,1.28-3.43L704.01,2345.41z"/>
    <path class="st4" d="M716.64,2324.81l-6.72,4.95l3.07,4.17l6.72-4.95L716.64,2324.81z M709.92,2329.76 c-1.15,0.85-1.4,2.47-0.55,3.62c0.85,1.15,2.47,1.4,3.62,0.55L709.92,2329.76z M719.71,2328.97c1.15-0.85,1.4-2.47,0.55-3.62 c-0.85-1.15-2.47-1.4-3.62-0.55L719.71,2328.97z"/>
    <path d="M712.07,2299.69h0.03v-6.9h-0.03V2299.69z M733.19,2353.08c2.41-5.22,6.54-16.09,5.56-27.75 c-0.5-5.89-2.31-12.03-6.33-17.71c-4.03-5.68-10.14-10.7-18.96-14.55l-2.76,6.32c7.85,3.43,12.9,7.72,16.1,12.22 c3.2,4.51,4.67,9.42,5.08,14.29c0.83,9.88-2.71,19.43-4.95,24.28L733.19,2353.08z M725.93,2359.16 c3.33-0.78,5.95-3.18,7.27-6.11l-6.29-2.83c-0.52,1.16-1.52,1.98-2.56,2.22L725.93,2359.16z M680.57,2341.61 c6.64,9.43,21.07,23.35,45.37,17.55l-1.6-6.71c-20.35,4.85-32.27-6.49-38.12-14.81L680.57,2341.61z M675.04,2326.06 c0.42,5.55,2.3,10.93,5.53,15.54l5.65-3.96c-2.5-3.58-3.97-7.76-4.3-12.11L675.04,2326.06z M674.73,2321.85l0.31,4.2l6.88-0.5 l-0.31-4.2L674.73,2321.85z M685.04,2299.85c-7.06,5.04-10.95,13.37-10.31,22.01l6.88-0.51c-0.46-6.25,2.35-12.25,7.44-15.88 L685.04,2299.85z M691.19,2295.47l-6.14,4.37l4,5.62l6.14-4.37L691.19,2295.47z M697.82,2292.24 c-2.36,0.69-4.58,1.79-6.62,3.22l3.98,5.64c1.45-1.02,2.98-1.77,4.58-2.24L697.82,2292.24z M697.41,2284.07l-2.01,10.85 l6.79,1.26l2.01-10.85L697.41,2284.07z M705.47,2276.99c-4.04,0.17-7.44,3.14-8.08,7.18l6.82,1.07 c0.12-0.74,0.74-1.32,1.55-1.35L705.47,2276.99z M711.1,2275.71c0.57-0.57-0.9,1.1-5.61,1.28l0.26,6.9 c6.28-0.23,9.46-2.52,10.23-3.3L711.1,2275.71z M723.04,2275.78c-3.29-3.29-8.57-3.39-11.92-0.09l4.84,4.92 c0.6-0.59,1.54-0.62,2.21,0.05L723.04,2275.78z M722.97,2287.82c3.28-3.28,3.41-8.71,0.07-12.05l-4.88,4.88 c0.55,0.55,0.61,1.61-0.07,2.29L722.97,2287.82z M710.8,2293.46c7.55-1.35,11.4-4.86,12.18-5.63l-4.88-4.88 c-0.05,0.05-2.68,2.68-8.51,3.72L710.8,2293.46z M710.64,2292.2c1.22,0.34,1.81,1.21,2.02,1.61c0.22,0.4,0.28,0.74,0.29,0.82 c0.04,0.2,0.02,0.26,0.02,0.07c0.01-0.32,0.07-0.84,0.16-1.48c0.09-0.61,0.2-1.23,0.29-1.7c0.04-0.23,0.08-0.43,0.11-0.56 c0.01-0.07,0.02-0.12,0.03-0.15c0-0.02,0.01-0.03,0.01-0.04c0,0,0-0.01,0-0.01c0,0,0,0,0,0l0,0l0,0c0,0,0,0-3.38-0.7 s-3.38-0.7-3.38-0.7c0,0,0,0,0,0c0,0,0,0,0,0c0,0,0,0,0,0c0,0,0,0.01,0,0.01c0,0.01-0.01,0.03-0.01,0.05 c-0.01,0.04-0.02,0.11-0.04,0.18c-0.03,0.16-0.07,0.38-0.12,0.64c-0.1,0.52-0.22,1.24-0.33,1.97c-0.1,0.7-0.21,1.54-0.23,2.26 c-0.01,0.33-0.01,0.84,0.08,1.36c0.04,0.25,0.15,0.71,0.41,1.21c0.26,0.49,0.92,1.43,2.21,1.79L710.64,2292.2z M713.09,2292.93 l-2.39-0.72l-1.98,6.61l2.39,0.72L713.09,2292.93z M712.07,2296.24v-3.45c-1.63,0-3.04,1.15-3.38,2.74 c-0.33,1.6,0.5,3.21,2,3.87L712.07,2296.24z M730.06,2351.64l-3.13-1.44l-0.01,0.03L730.06,2351.64z M725.14,2355.8l-0.79-3.36 l-0.01,0L725.14,2355.8z M683.39,2339.62l-2.83,1.98l0.01,0.01L683.39,2339.62z M678.48,2325.8l-3.44,0.25l0,0.01 L678.48,2325.8z M678.17,2321.6l3.44-0.25v0L678.17,2321.6z M687.05,2302.66l-2-2.81l0,0L687.05,2302.66z M693.19,2298.29 l-1.99-2.82l-0.01,0.01L693.19,2298.29z M698.79,2295.56l0.97,3.31c1.25-0.37,2.18-1.4,2.42-2.68L698.79,2295.56z M700.8,2284.7l3.39,0.63c0.01-0.03,0.01-0.06,0.02-0.09L700.8,2284.7z M705.62,2280.43l-0.13-3.45l-0.02,0L705.62,2280.43z M713.54,2278.15l-2.42-2.46l-0.02,0.02L713.54,2278.15z M710.19,2290.06l-0.61-3.4c-1.39,0.25-2.49,1.32-2.77,2.7 L710.19,2290.06z M709.71,2295.52l0.99-3.3c-0.02-0.01-0.05-0.01-0.07-0.02L709.71,2295.52z M712.1,2296.24v3.45 c1.71,0,3.17-1.26,3.41-2.95c0.25-1.69-0.78-3.31-2.42-3.81L712.1,2296.24z"/>
    <path d="M689.09,2289.82l8.4,1.26l1.03-6.82l-8.4-1.26L689.09,2289.82z M677.64,2276.34l9.22,12.15l5.5-4.17l-9.22-12.15 L677.64,2276.34z M673.59,2283.35l8.81-6.28l-4.01-5.62l-8.81,6.28L673.59,2283.35z M683.12,2289.75l-8.81-11.33l-5.45,4.23 l8.81,11.33L683.12,2289.75z M679.54,2312.83c2.79-2.03,2.79-2.03,2.79-2.02c0,0,0,0,0,0c0,0,0,0,0,0.01c0,0,0,0.01,0.01,0.01 c0,0,0,0.01,0,0.01c0,0-0.01-0.01-0.02-0.03c-0.02-0.03-0.06-0.1-0.12-0.19c-0.12-0.19-0.29-0.5-0.5-0.91 c-0.4-0.83-0.89-2.06-1.19-3.6c-0.58-3-0.47-7.32,2.77-12.36l-5.81-3.73c-4.3,6.7-4.62,12.86-3.74,17.4 c0.43,2.24,1.15,4.04,1.76,5.31c0.31,0.63,0.59,1.14,0.81,1.5c0.11,0.18,0.2,0.32,0.28,0.43c0.04,0.05,0.07,0.1,0.09,0.13 c0.01,0.02,0.02,0.03,0.03,0.05c0,0.01,0.01,0.01,0.01,0.02c0,0,0,0.01,0.01,0.01c0,0,0,0,0,0 C676.74,2314.85,676.74,2314.85,679.54,2312.83z M697.49,2291.08c1.88,0.28,3.64-1.01,3.93-2.9c0.28-1.88-1.01-3.64-2.9-3.93 L697.49,2291.08z M689.61,2286.41l-2.75,2.09c0.54,0.72,1.35,1.19,2.24,1.33L689.61,2286.41z M680.39,2274.26l2.75-2.09 c-1.13-1.49-3.23-1.81-4.75-0.72L680.39,2274.26z M671.58,2280.54l-2-2.81c-0.77,0.55-1.27,1.38-1.41,2.31s0.11,1.88,0.69,2.62 L671.58,2280.54z M680.39,2291.87l2.9,1.87c0.79-1.23,0.72-2.83-0.18-3.98L680.39,2291.87z M676.74,2314.85 c1.12,1.54,3.28,1.88,4.82,0.77c1.54-1.12,1.88-3.28,0.77-4.82L676.74,2314.85z"/>
  </g>
</svg>
