<?xml version="1.0" encoding="utf-8"?>
<svg xmlns="http://www.w3.org/2000/svg" viewBox="438.4125 2262.6799 96.2663 97.3801" width="96.2663px" height="97.3801px">
  <defs>
    <style type="text/css">
	.st0{opacity:0.8;fill:#F0F0F0;}
	.st1{fill:#FFFFFF;}
	.st2{fill:none;stroke:#E51C52;stroke-width:1.5969;stroke-miterlimit:10;}
	.st3{fill:none;stroke:#000000;stroke-width:2;stroke-miterlimit:10;}
	.st4{fill:#E51C52;}
	.st5{opacity:0.05;fill:#E51C52;}
	.st6{fill:#FFE54D;}
	.st7{fill:#6ADBC6;}
	.st8{fill:#FF73C0;}
	.st9{fill:#D0D0D0;}
	.st10{fill:#ED4C5C;}
	.st11{fill:#0071B8;}
	.st12{fill:#616466;}
	.st13{fill:#FFCE31;}
	.st14{fill:#C79127;}
	.st15{fill:#94989B;}
	.st16{fill:#66CAF2;}
	.st17{fill:#B0BDC6;}
	.st18{fill:#CAD5DD;}
	.st19{fill:#DFE9EF;}
	.st20{clip-path:url(#SVGID_00000003788647492567396620000012193650055540771981_);}
	.st21{fill-rule:evenodd;clip-rule:evenodd;fill:#FFE1D2;}
	.st22{fill-rule:evenodd;clip-rule:evenodd;fill:#FFFFFF;}
	.st23{fill-rule:evenodd;clip-rule:evenodd;fill:#8DCCDD;}
	.st24{fill:#242424;}
	.st25{fill:#464646;}
	.st26{fill-rule:evenodd;clip-rule:evenodd;fill:#F6CB36;}
	.st27{fill-rule:evenodd;clip-rule:evenodd;}
	.st28{fill:#FF74AB;}
	.st29{clip-path:url(#SVGID_00000089567955497710894950000004564939106291094162_);}
	.st30{fill-rule:evenodd;clip-rule:evenodd;fill:#FFAFDB;}
	.st31{fill-rule:evenodd;clip-rule:evenodd;fill:#FFA5D1;}
	.st32{fill:#E4A374;}
	.st33{fill:#F2846B;}
	.st34{fill:#626262;}
	.st35{fill:#FF3D2B;}
	.st36{clip-path:url(#SVGID_00000072247754958669075860000003563604013372425393_);}
	.st37{fill-rule:evenodd;clip-rule:evenodd;fill:#FF8F71;}
	.st38{fill-rule:evenodd;clip-rule:evenodd;fill:#FF804E;}
	.st39{fill-rule:evenodd;clip-rule:evenodd;fill:#FFBCD3;}
	.st40{clip-path:url(#SVGID_00000044897576142351777560000005580061451103683720_);}
	.st41{fill-rule:evenodd;clip-rule:evenodd;fill:#FFC0DB;}
	.st42{fill:#FF5F49;}
	.st43{clip-path:url(#SVGID_00000037663531149197560620000016902674294341047205_);}
	.st44{fill-rule:evenodd;clip-rule:evenodd;fill:#EA6789;}
	.st45{fill-rule:evenodd;clip-rule:evenodd;fill:#FFDDD2;}
	.st46{fill-rule:evenodd;clip-rule:evenodd;fill:#463124;}
	.st47{clip-path:url(#SVGID_00000093876712289763696530000013491624063632452539_);}
	.st48{fill:#D9816D;}
	.st49{fill:#EEAC95;}
	.st50{fill-rule:evenodd;clip-rule:evenodd;fill:#ADECE4;}
	.st51{clip-path:url(#SVGID_00000060741536368871064450000000748190747862479003_);}
	.st52{fill-rule:evenodd;clip-rule:evenodd;fill:#FFE2D3;}
	.st53{fill:none;stroke:#000000;stroke-width:3.9615;stroke-linecap:round;stroke-linejoin:round;stroke-miterlimit:22.9256;}
	.st54{fill-rule:evenodd;clip-rule:evenodd;fill:#FFDECA;}
	.st55{fill:none;stroke:#985C3B;stroke-width:3.786;stroke-linecap:round;stroke-linejoin:round;stroke-miterlimit:22.9256;}
	.st56{fill-rule:evenodd;clip-rule:evenodd;fill:#454544;}

		.st57{clip-path:url(#SVGID_00000135690378772157544680000008592861349934607804_);fill-rule:evenodd;clip-rule:evenodd;fill:#212121;}
	.st58{fill-rule:evenodd;clip-rule:evenodd;fill:#676155;}
	.st59{fill:none;stroke:#000000;stroke-width:3.9615;stroke-miterlimit:22.9256;}

		.st60{clip-path:url(#SVGID_00000007392077890153935540000011798188029761511558_);fill-rule:evenodd;clip-rule:evenodd;fill:#212121;}
	.st61{fill-rule:evenodd;clip-rule:evenodd;fill:#ABABAB;}
	.st62{fill-rule:evenodd;clip-rule:evenodd;fill:#232323;}
	.st63{fill:none;stroke:#676155;stroke-width:3.9615;stroke-linecap:round;stroke-linejoin:round;stroke-miterlimit:22.9256;}
	.st64{fill:none;stroke:#000000;stroke-width:3.9615;stroke-linecap:round;stroke-miterlimit:22.9256;}
	.st65{fill:none;stroke:#49443B;stroke-width:3.4954;stroke-linecap:round;stroke-linejoin:round;stroke-miterlimit:22.9256;}
	.st66{fill-rule:evenodd;clip-rule:evenodd;fill:#A7F9FD;}
	.st67{fill:none;stroke:#000000;stroke-width:3.786;stroke-linecap:round;stroke-linejoin:round;stroke-miterlimit:22.9256;}
	.st68{fill:none;stroke:#49443B;stroke-width:2.3303;stroke-linecap:round;stroke-linejoin:round;stroke-miterlimit:22.9256;}
	.st69{fill:none;stroke:#25231E;stroke-width:5.126;stroke-linecap:round;stroke-linejoin:round;stroke-miterlimit:22.9256;}
	.st70{fill-rule:evenodd;clip-rule:evenodd;fill:#F9DDCB;}
	.st71{fill:none;stroke:#25231E;stroke-width:3.9376;stroke-linecap:round;stroke-miterlimit:22.9256;}
	.st72{fill:none;stroke:#25231E;stroke-width:3.9394;stroke-linecap:round;stroke-miterlimit:22.9256;}
	.st73{fill:none;stroke:#25231E;stroke-width:3.1379;stroke-linecap:round;stroke-linejoin:round;stroke-miterlimit:22.9256;}
	.st74{fill:none;stroke:#25231E;stroke-width:3.1391;stroke-linecap:round;stroke-linejoin:round;stroke-miterlimit:22.9256;}
	.st75{fill:none;stroke:#25231E;stroke-width:3.9365;stroke-linecap:round;stroke-miterlimit:22.9256;}
	.st76{fill:none;stroke:#25231E;stroke-width:3.9277;stroke-linecap:round;stroke-linejoin:round;stroke-miterlimit:22.9256;}
	.st77{fill:none;stroke:#25231E;stroke-width:3.9273;stroke-linecap:round;stroke-linejoin:round;stroke-miterlimit:22.9256;}
	.st78{fill:none;stroke:#000000;stroke-width:3.9502;stroke-linecap:round;stroke-linejoin:round;stroke-miterlimit:22.9256;}
	.st79{fill:none;stroke:#25231E;stroke-width:4.7033;stroke-linecap:round;stroke-linejoin:round;stroke-miterlimit:22.9256;}
	.st80{fill:none;stroke:#25231E;stroke-width:4.7034;stroke-linecap:round;stroke-linejoin:round;stroke-miterlimit:22.9256;}
	.st81{fill:none;stroke:#25231E;stroke-width:3.9205;stroke-linecap:round;stroke-linejoin:round;stroke-miterlimit:22.9256;}
	.st82{fill:none;stroke:#C77246;stroke-width:4.7435;stroke-linecap:round;stroke-linejoin:round;stroke-miterlimit:22.9256;}
	.st83{clip-path:url(#SVGID_00000016775293371546092900000002987567014225728181_);}

		.st84{clip-path:url(#SVGID_00000151530495823522347790000001813150801217652912_);fill-rule:evenodd;clip-rule:evenodd;fill:#212121;}

		.st85{clip-path:url(#SVGID_00000159471713327028222550000011061486234049569179_);fill-rule:evenodd;clip-rule:evenodd;fill:#212121;}
	.st86{clip-path:url(#SVGID_00000108992935789586809350000010601311867958218941_);}

		.st87{clip-path:url(#SVGID_00000143586364811497997400000014987830311737532333_);fill-rule:evenodd;clip-rule:evenodd;fill:#212121;}

		.st88{clip-path:url(#SVGID_00000070824730279333431960000001740627053997239684_);fill-rule:evenodd;clip-rule:evenodd;fill:#212121;}
	.st89{clip-path:url(#SVGID_00000074430970795564153050000002217589742953714849_);}

		.st90{clip-path:url(#SVGID_00000109741731289495235600000017975313795970905239_);fill-rule:evenodd;clip-rule:evenodd;fill:#212121;}

		.st91{clip-path:url(#SVGID_00000021090089985969369580000015298764592402587041_);fill-rule:evenodd;clip-rule:evenodd;fill:#212121;}
	.st92{clip-path:url(#SVGID_00000004526927032962449650000012296599214677944767_);}

		.st93{clip-path:url(#SVGID_00000181793784863840742230000000963403634937846207_);fill-rule:evenodd;clip-rule:evenodd;fill:#212121;}

		.st94{clip-path:url(#SVGID_00000088128435907882526810000008452392843776641214_);fill-rule:evenodd;clip-rule:evenodd;fill:#212121;}
	.st95{clip-path:url(#SVGID_00000070113327048708011590000008444599769837744828_);}

		.st96{clip-path:url(#SVGID_00000127043297344388553280000005896812187696379547_);fill-rule:evenodd;clip-rule:evenodd;fill:#212121;}

		.st97{clip-path:url(#SVGID_00000067205833948816596680000004138472364054595004_);fill-rule:evenodd;clip-rule:evenodd;fill:#212121;}
	.st98{opacity:0.3;fill:none;stroke:#000000;stroke-miterlimit:10;}
	.st99{fill:none;stroke:#707070;stroke-miterlimit:10;}
	.st100{clip-path:url(#SVGID_00000172441502015638981160000003839626173466597013_);}
	.st101{clip-path:url(#SVGID_00000103951293729007100510000007477648581370459803_);}
	.st102{clip-path:url(#SVGID_00000050657637020267698730000007794497233976850566_);}
	.st103{clip-path:url(#SVGID_00000174591829408416664060000005413568335083643807_);}
	.st104{clip-path:url(#SVGID_00000180338214505715203030000011210933480113110971_);}
	.st105{fill:#FDFEFF;}
	.st106{fill:#F3F3F3;}
	.st107{fill:none;stroke:#000000;stroke-width:5;stroke-miterlimit:10;}
	.st108{clip-path:url(#SVGID_00000093174670025935718900000004200262371505239719_);}
	.st109{clip-path:url(#SVGID_00000131345553559926493210000012372558883472805050_);}
	.st110{opacity:0.2;}
	.st111{fill:#C6C6C6;}
	.st112{fill:#7F7F7F;}
	.st113{opacity:0.8;fill:#939292;}
	.st114{clip-path:url(#SVGID_00000170275066756171548760000003794827903270323860_);}

		.st115{fill-rule:evenodd;clip-rule:evenodd;fill:none;stroke:#242424;stroke-width:5.5337;stroke-linecap:round;stroke-linejoin:round;stroke-miterlimit:10;}
	.st116{opacity:0.4;}
	.st117{fill:#FFFFFF;stroke:#3F3F3F;stroke-miterlimit:10;}
	.st118{fill:#FFFFFF;stroke:#3F3F3F;stroke-width:2;stroke-miterlimit:10;}
	.st119{fill:#FFFFFF;stroke:#3F3F3F;stroke-width:0.8;stroke-miterlimit:10;}
	.st120{fill:#D13655;}
	.st121{clip-path:url(#SVGID_00000001645614145499293370000011963422717575814543_);}
	.st122{fill:none;stroke:#A8A8A8;stroke-miterlimit:10;}
	.st123{fill:none;stroke:#000000;stroke-width:1.3778;stroke-miterlimit:10;}
	.st124{fill:none;stroke:#000000;stroke-width:1.439;stroke-miterlimit:10;}
	.st125{clip-path:url(#SVGID_00000072965451409974378020000000868710327948758701_);}
	.st126{opacity:0.7;}
	.st127{clip-path:url(#SVGID_00000085954280213685244220000014527844347993614238_);}
	.st128{clip-path:url(#SVGID_00000028309771471314923460000003696619814257554623_);}
	.st129{opacity:0.3;}
	.st130{clip-path:url(#SVGID_00000160170320589839325040000012754120665731856814_);}
	.st131{clip-path:url(#SVGID_00000145755904753650518990000005116092505799524540_);}
	.st132{clip-path:url(#SVGID_00000131331958205791536760000002127501862531401127_);}
	.st133{clip-path:url(#SVGID_00000065065577504918169420000013169645494663246519_);}
	.st134{clip-path:url(#SVGID_00000068647798024654570140000009357037845125757585_);}
	.st135{clip-path:url(#SVGID_00000069369026445231178910000016023766511731348900_);}
	.st136{fill:none;stroke:#EFEFEF;stroke-width:0.9914;stroke-miterlimit:10;}
	.st137{fill:none;stroke:#E51C52;stroke-miterlimit:10;}
	.st138{fill:none;stroke:#020202;stroke-miterlimit:10;}
	.st139{opacity:0.9;}
	.st140{fill:#DBDBDB;}
	.st141{opacity:0.6;fill:#FFFFFF;}
	.st142{fill:#FFFFFF;stroke:#646464;stroke-miterlimit:10;}
	.st143{fill:none;stroke:#1E1E1E;stroke-width:0.8107;stroke-miterlimit:10;}
	.st144{fill:none;stroke:#000000;stroke-width:0.8107;stroke-miterlimit:10;}
	.st145{clip-path:url(#SVGID_00000065779454238800097010000012198490344685555355_);}
	.st146{clip-path:url(#SVGID_00000106829392083777699210000004120409257141701305_);}
	.st147{fill:none;stroke:#000000;stroke-width:2.4522;stroke-linejoin:round;stroke-miterlimit:22.9256;}
	.st148{fill:none;stroke:#000000;stroke-width:2.4522;stroke-linecap:round;stroke-linejoin:round;stroke-miterlimit:22.9256;}
	.st149{fill-rule:evenodd;clip-rule:evenodd;fill:#8ECDDE;}
	.st150{fill:none;stroke:#25231E;stroke-width:2.4522;stroke-linecap:round;stroke-linejoin:round;stroke-miterlimit:22.9256;}
	.st151{fill:none;stroke:#000000;stroke-width:1.803;stroke-linejoin:round;stroke-miterlimit:22.9256;}
	.st152{fill:none;stroke:#25231E;stroke-width:2.0551;stroke-linecap:round;stroke-linejoin:round;stroke-miterlimit:22.9256;}
	.st153{fill:none;stroke:#49443B;stroke-width:2.4522;stroke-linecap:round;stroke-linejoin:round;stroke-miterlimit:22.9256;}
	.st154{fill:none;stroke:#25231E;stroke-width:1.803;stroke-linecap:round;stroke-linejoin:round;stroke-miterlimit:22.9256;}
	.st155{fill:none;stroke:#000000;stroke-width:2.1636;stroke-linecap:round;stroke-linejoin:round;stroke-miterlimit:22.9256;}
	.st156{fill-rule:evenodd;clip-rule:evenodd;fill:#F7CC36;}
	.st157{fill-rule:evenodd;clip-rule:evenodd;fill:#FFFBDE;}
	.st158{fill:none;stroke:#000000;stroke-width:1.6945;stroke-linecap:round;stroke-linejoin:round;stroke-miterlimit:22.9256;}
	.st159{fill:none;stroke:#000000;stroke-width:1.803;stroke-linecap:round;stroke-linejoin:round;stroke-miterlimit:22.9256;}
	.st160{fill:none;stroke:#FF74AC;stroke-width:2.5239;stroke-linecap:round;stroke-linejoin:round;stroke-miterlimit:22.9256;}
	.st161{fill:none;stroke:#000000;stroke-width:2.4522;stroke-linecap:round;stroke-miterlimit:22.9256;}
	.st162{fill-rule:evenodd;clip-rule:evenodd;fill:#FFB0DC;}
	.st163{fill:none;stroke:#000000;stroke-width:2.4522;stroke-miterlimit:22.9256;}
	.st164{fill-rule:evenodd;clip-rule:evenodd;fill:#FFA6D2;}
	.st165{fill:none;stroke:#E5A474;stroke-width:1.3151;stroke-linecap:round;stroke-linejoin:round;stroke-miterlimit:22.9256;}
	.st166{fill:none;stroke:#000000;stroke-width:2.7402;stroke-linecap:round;stroke-linejoin:round;stroke-miterlimit:22.9256;}
	.st167{fill:none;stroke:#F3846B;stroke-width:3.1729;stroke-linecap:round;stroke-linejoin:round;stroke-miterlimit:22.9256;}
	.st168{fill:none;stroke:#000000;stroke-width:0.5482;stroke-miterlimit:22.9256;}
	.st169{fill:none;stroke:#676155;stroke-width:1.803;stroke-linecap:round;stroke-linejoin:round;stroke-miterlimit:22.9256;}
	.st170{fill:none;stroke:#000000;stroke-width:5.4091;stroke-miterlimit:22.9256;}
	.st171{fill-rule:evenodd;clip-rule:evenodd;fill:#EB678A;}
	.st172{fill-rule:evenodd;clip-rule:evenodd;fill:#FFDED3;}
	.st173{fill:none;stroke:#000000;stroke-width:1.7309;stroke-linecap:round;stroke-linejoin:round;stroke-miterlimit:22.9256;}
	.st174{fill-rule:evenodd;clip-rule:evenodd;fill:#472F1D;}

		.st175{clip-path:url(#SVGID_00000087408993735930648840000006729897317083606933_);fill-rule:evenodd;clip-rule:evenodd;fill:#FFFBDE;}
	.st176{fill:none;stroke:#DB816D;stroke-width:1.803;stroke-linecap:round;stroke-linejoin:round;stroke-miterlimit:22.9256;}
	.st177{fill:none;stroke:#000000;stroke-width:3.1729;stroke-linecap:round;stroke-linejoin:round;stroke-miterlimit:22.9256;}
	.st178{fill:none;stroke:#EFAD96;stroke-width:1.803;stroke-linecap:round;stroke-linejoin:round;stroke-miterlimit:22.9256;}
	.st179{fill-rule:evenodd;clip-rule:evenodd;fill:#AEEDE5;}
	.st180{fill-rule:evenodd;clip-rule:evenodd;fill:#FF9071;}
	.st181{fill:none;stroke:#49443B;stroke-width:2.1636;stroke-linecap:round;stroke-linejoin:round;stroke-miterlimit:22.9256;}
	.st182{fill:none;stroke:#25231E;stroke-width:3.1729;stroke-linecap:round;stroke-linejoin:round;stroke-miterlimit:22.9256;}
	.st183{fill-rule:evenodd;clip-rule:evenodd;fill:#FFBCD4;}
	.st184{fill:none;stroke:#25231E;stroke-width:2.3435;stroke-linecap:round;stroke-linejoin:round;stroke-miterlimit:22.9256;}

		.st185{clip-path:url(#SVGID_00000078007515909940658280000001915293939782399913_);fill-rule:evenodd;clip-rule:evenodd;fill:#FFC1DC;}
	.st186{fill:none;stroke:#000000;stroke-width:2.8848;stroke-linecap:round;stroke-linejoin:round;stroke-miterlimit:22.9256;}
	.st187{fill:none;stroke:#FF5F49;stroke-width:3.606;stroke-linecap:round;stroke-miterlimit:22.9256;}
	.st188{fill:none;stroke:#985C3B;stroke-width:2.3435;stroke-linecap:round;stroke-linejoin:round;stroke-miterlimit:22.9256;}

		.st189{clip-path:url(#SVGID_00000085936699385710682180000004427463841377896081_);fill-rule:evenodd;clip-rule:evenodd;fill:#212121;}

		.st190{clip-path:url(#SVGID_00000023248465632559320100000013734132225464717230_);fill-rule:evenodd;clip-rule:evenodd;fill:#212121;}
	.st191{fill:none;stroke:#676155;stroke-width:2.4522;stroke-linecap:round;stroke-linejoin:round;stroke-miterlimit:22.9256;}
	.st192{fill:none;stroke:#000000;stroke-width:2.3435;stroke-linecap:round;stroke-linejoin:round;stroke-miterlimit:22.9256;}
	.st193{fill:none;stroke:#49443B;stroke-width:1.4425;stroke-linecap:round;stroke-linejoin:round;stroke-miterlimit:22.9256;}
	.st194{fill:none;stroke:#25231E;stroke-width:2.4374;stroke-linecap:round;stroke-miterlimit:22.9256;}
	.st195{fill:none;stroke:#25231E;stroke-width:2.4385;stroke-linecap:round;stroke-miterlimit:22.9256;}
	.st196{fill:none;stroke:#25231E;stroke-width:1.9423;stroke-linecap:round;stroke-linejoin:round;stroke-miterlimit:22.9256;}
	.st197{fill:none;stroke:#25231E;stroke-width:1.9431;stroke-linecap:round;stroke-linejoin:round;stroke-miterlimit:22.9256;}
	.st198{fill:none;stroke:#25231E;stroke-width:2.4367;stroke-linecap:round;stroke-miterlimit:22.9256;}
	.st199{fill:none;stroke:#25231E;stroke-width:2.4312;stroke-linecap:round;stroke-linejoin:round;stroke-miterlimit:22.9256;}
	.st200{fill:none;stroke:#25231E;stroke-width:2.431;stroke-linecap:round;stroke-linejoin:round;stroke-miterlimit:22.9256;}
	.st201{fill:none;stroke:#000000;stroke-width:2.4452;stroke-linecap:round;stroke-linejoin:round;stroke-miterlimit:22.9256;}
	.st202{fill:none;stroke:#25231E;stroke-width:2.9113;stroke-linecap:round;stroke-linejoin:round;stroke-miterlimit:22.9256;}
	.st203{fill:none;stroke:#25231E;stroke-width:2.4268;stroke-linecap:round;stroke-linejoin:round;stroke-miterlimit:22.9256;}
	.st204{fill:none;stroke:#C77246;stroke-width:2.9362;stroke-linecap:round;stroke-linejoin:round;stroke-miterlimit:22.9256;}
	.st205{opacity:0.3;fill:none;stroke:#000000;stroke-width:0.9807;stroke-miterlimit:10;}
	.st206{fill:none;stroke:#000000;stroke-width:0.9293;stroke-miterlimit:10;}
	.st207{fill:#C8C8C8;}
	.st208{fill:none;stroke:#E51C52;stroke-width:1.0718;stroke-miterlimit:10;}
	.st209{fill:none;stroke:#E51C52;stroke-width:6.6768;stroke-linecap:round;stroke-miterlimit:10;}
	.st210{clip-path:url(#SVGID_00000176738432661664411420000017872582413361927861_);}

		.st211{clip-path:url(#SVGID_00000075878649049108699950000012602750618253841328_);fill-rule:evenodd;clip-rule:evenodd;fill:#212121;}

		.st212{clip-path:url(#SVGID_00000001639441816106894070000017217587151309172115_);fill-rule:evenodd;clip-rule:evenodd;fill:#212121;}
	.st213{clip-path:url(#SVGID_00000147902277218530063270000009912045633415782530_);}
	.st214{clip-path:url(#SVGID_00000139258901773741113860000002812604289060177843_);}
	.st215{fill:none;stroke:#646464;stroke-miterlimit:10;}
	.st216{clip-path:url(#SVGID_00000057112469538511238290000003823846996822189465_);}
	.st217{font-family:'Roboto-Light';}
	.st218{font-size:25.7955px;}
	.st219{fill:none;stroke:#1E1E1E;stroke-width:0.7803;stroke-miterlimit:10;}
	.st220{fill:none;stroke:#FFFFFF;stroke-miterlimit:10;}
	.st221{clip-path:url(#SVGID_00000173147583925092145390000006073812267182479269_);}
	.st222{clip-path:url(#SVGID_00000125592778046165089470000002499948703258167462_);}
	.st223{clip-path:url(#SVGID_00000141432408200947437870000009064541348052305590_);}
	.st224{font-family:'Roboto-Medium';}
	.st225{font-size:27.4203px;}
	.st226{fill:#EBFF2C;}
	.st227{fill-rule:evenodd;clip-rule:evenodd;fill:#F9E2D3;}
	.st228{fill:#322C2B;}
	.st229{fill-rule:evenodd;clip-rule:evenodd;fill:#FDFDFD;}
	.st230{opacity:0.29;}
	.st231{fill-rule:evenodd;clip-rule:evenodd;fill:#322C2B;}
	.st232{fill-rule:evenodd;clip-rule:evenodd;fill:#F2AFDB;}
	.st233{fill-rule:evenodd;clip-rule:evenodd;fill:#F1A5D2;}
	.st234{fill:#E6A573;}
	.st235{fill:#ED836A;}
	.st236{fill:#757475;}
	.st237{fill-rule:evenodd;clip-rule:evenodd;fill:#E93323;}
	.st238{fill-rule:evenodd;clip-rule:evenodd;fill:#F6CD46;}
	.st239{fill-rule:evenodd;clip-rule:evenodd;fill:#AAABAB;}
	.st240{fill-rule:evenodd;clip-rule:evenodd;fill:#8ECEDF;}
	.st241{fill-rule:evenodd;clip-rule:evenodd;fill:#464443;}
	.st242{fill-rule:evenodd;clip-rule:evenodd;fill:#F8DDCB;}
	.st243{fill:#A1664E;}
	.st244{fill-rule:evenodd;clip-rule:evenodd;fill:#5F5D5D;}
	.st245{clip-path:url(#SVGID_00000049179723481740907140000011744995289819190691_);}
	.st246{fill:#8A8A8B;}
	.st247{fill-rule:evenodd;clip-rule:evenodd;fill:#757475;}
	.st248{clip-path:url(#SVGID_00000122708806388054160990000010699471242135169683_);}
	.st249{fill:#A0A0A0;}
	.st250{fill-rule:evenodd;clip-rule:evenodd;fill:#B5B5B6;}
	.st251{fill:#5F5D5D;}
	.st252{fill-rule:evenodd;clip-rule:evenodd;fill:#A8FAFD;}
	.st253{fill:#464443;}
	.st254{fill-rule:evenodd;clip-rule:evenodd;fill:#5878C4;}
	.st255{fill-rule:evenodd;clip-rule:evenodd;fill:#F9E0D1;}
	.st256{fill:#C77347;}
	.st257{fill-rule:evenodd;clip-rule:evenodd;fill:#ED7D4B;}
	.st258{fill-rule:evenodd;clip-rule:evenodd;fill:#EE8D6F;}
	.st259{fill-rule:evenodd;clip-rule:evenodd;fill:#F4BCD4;}
	.st260{fill-rule:evenodd;clip-rule:evenodd;fill:#F4C1DC;}
	.st261{fill:#EB5A45;}
	.st262{fill-rule:evenodd;clip-rule:evenodd;fill:#F2C68B;}
	.st263{fill-rule:evenodd;clip-rule:evenodd;fill:#FBEBCA;}
	.st264{fill-rule:evenodd;clip-rule:evenodd;fill:#EEE45D;}
	.st265{fill-rule:evenodd;clip-rule:evenodd;fill:#FDF9A6;}
	.st266{fill:#EC72AC;}
	.st267{fill-rule:evenodd;clip-rule:evenodd;fill:#EF9670;}
	.st268{fill-rule:evenodd;clip-rule:evenodd;fill:#F8DDD3;}
	.st269{fill-rule:evenodd;clip-rule:evenodd;fill:#583F33;}
	.st270{clip-path:url(#SVGID_00000005951215805644146780000001177475302150972544_);}
	.st271{fill:#DB816D;}
	.st272{fill:#F0AE96;}
	.st273{fill-rule:evenodd;clip-rule:evenodd;fill:#AEEEE6;}
	.st274{fill:none;stroke:#E51C52;stroke-width:7.7112;stroke-linecap:round;stroke-miterlimit:10;}
	.st275{clip-path:url(#SVGID_00000054950551246531324940000003710823615002347181_);}
	.st276{clip-path:url(#SVGID_00000093148265540407866360000012033833716041609620_);}
	.st277{clip-path:url(#SVGID_00000117668532859298909870000013058671757576250038_);}
	.st278{clip-path:url(#SVGID_00000007423921953304727460000012125114555699330481_);}
	.st279{clip-path:url(#SVGID_00000118376168651265113420000011280988601062696603_);}
	.st280{clip-path:url(#SVGID_00000039113208727272009860000018320019637984095410_);}
	.st281{clip-path:url(#SVGID_00000031165033760197733750000005611723197208037820_);}
	.st282{clip-path:url(#SVGID_00000109026055774964319360000000870413803839614628_);}
	.st283{fill:none;stroke:#E52C52;stroke-miterlimit:10;}
	.st284{fill:#2C88C6;}
</style>
  </defs>
  <g>
    <path d="M457.87,2290.52l9.17-1.45l-1.16-7.33l-9.17,1.45L457.87,2290.52z M454.25,2292.52c0.89-1.05,2.17-1.77,3.63-2.01 l-1.18-7.33c-3.15,0.51-6.03,2.09-8.1,4.53L454.25,2292.52z M451.78,2295.37l2.45-2.82l-5.61-4.87l-2.45,2.82L451.78,2295.37z M467.04,2289.07c2.03-0.32,3.41-2.22,3.09-4.25c-0.32-2.03-2.22-3.41-4.25-3.09L467.04,2289.07z M457.29,2286.85l-0.58-3.67 l-0.01,0L457.29,2286.85z M451.42,2290.12l2.8,2.43l0.02-0.03L451.42,2290.12z M446.17,2290.5c-1.34,1.55-1.18,3.89,0.37,5.24 c1.55,1.34,3.89,1.18,5.24-0.37L446.17,2290.5z"/>
    <path class="st4" d="M451.11,2330.62l-7.94-7.94l-3.94,3.94l7.94,7.94L451.11,2330.62z M455.16,2322.67l-7.98,7.94l3.93,3.95 l7.98-7.94L455.16,2322.67z M443.17,2322.67c-1.09-1.09-2.85-1.09-3.94,0c-1.09,1.09-1.09,2.85,0,3.94L443.17,2322.67z M449.15,2332.59l-1.97,1.97c1.09,1.09,2.84,1.09,3.93,0L449.15,2332.59z M459.09,2326.62c1.09-1.08,1.09-2.85,0.01-3.94 s-2.85-1.09-3.94-0.01L459.09,2326.62z"/>
    <path class="st4" d="M468.75,2310.34c5.77,0,10.84,2.86,13.95,7.25l4.54-3.22c-4.09-5.78-10.83-9.6-18.5-9.6V2310.34z M451.71,2327.38c0-9.41,7.63-17.04,17.04-17.04v-5.57c-12.49,0-22.61,10.12-22.61,22.61H451.71z M482.7,2317.6 c0.89,1.25,2.63,1.55,3.88,0.66c1.25-0.89,1.55-2.63,0.66-3.88L482.7,2317.6z M446.14,2327.38c0,1.54,1.25,2.78,2.78,2.78 s2.78-1.25,2.78-2.78H446.14z"/>
    <path class="st4" d="M485.08,2328.81l7.98,7.94l3.93-3.95l-7.98-7.94L485.08,2328.81z M481.07,2336.75l7.94-7.94l-3.94-3.94 l-7.94,7.94L481.07,2336.75z M493.07,2336.75c1.09,1.08,2.85,1.08,3.94-0.01c1.08-1.09,1.08-2.85-0.01-3.94L493.07,2336.75z M487.05,2326.83l1.96-1.97c-1.09-1.08-2.85-1.08-3.93,0L487.05,2326.83z M477.14,2332.81c-1.09,1.09-1.09,2.85,0,3.94 c1.09,1.09,2.85,1.09,3.94,0L477.14,2332.81z"/>
    <path class="st4" d="M467.45,2349.06c-5.77,0-10.84-2.86-13.95-7.25l-4.54,3.22c4.09,5.78,10.83,9.6,18.5,9.6V2349.06z M484.49,2332.02c0,9.41-7.63,17.04-17.04,17.04v5.57c12.49,0,22.61-10.12,22.61-22.61H484.49z M453.5,2341.81 c-0.89-1.25-2.63-1.55-3.88-0.66c-1.25,0.89-1.55,2.63-0.66,3.88L453.5,2341.81z M490.06,2332.02c0-1.54-1.25-2.78-2.78-2.78 c-1.54,0-2.78,1.25-2.78,2.78H490.06z"/>
    <path d="M526.21,2311.57c-3.71-0.09-3.71-0.09-3.71-0.09c0,0,0,0,0,0c0,0,0,0,0,0.01c0,0,0,0.01,0,0.02c0,0.02,0,0.04,0,0.08 c0,0.07,0,0.16-0.01,0.29c0,0.25-0.01,0.62-0.02,1.09c-0.01,0.94-0.02,2.29-0.01,3.94c0.01,3.3,0.09,7.82,0.34,12.7 c0.25,4.87,0.68,10.16,1.41,14.97c0.72,4.72,1.77,9.34,3.42,12.66l6.65-3.31c-1.11-2.23-2.04-5.89-2.73-10.46 c-0.68-4.48-1.09-9.5-1.34-14.24c-0.24-4.73-0.32-9.13-0.33-12.34c-0.01-1.61,0-2.92,0.01-3.82c0.01-0.45,0.01-0.8,0.01-1.04 c0-0.12,0-0.21,0.01-0.27c0-0.03,0-0.05,0-0.07c0-0.01,0-0.01,0-0.02c0,0,0,0,0,0c0,0,0,0,0,0 C529.93,2311.66,529.93,2311.66,526.21,2311.57z M503.22,2287.47c6.31,1.38,10.67,2.9,13.71,6.01 c2.95,3.02,5.21,8.18,5.58,18.23l7.42-0.28c-0.41-10.93-2.9-18.24-7.68-23.14c-4.7-4.82-11.04-6.68-17.43-8.08L503.22,2287.47z M486.57,2276.3c-2.63,2.63-2.62,2.63-2.62,2.63c0,0,0,0,0,0c0,0,0,0,0.01,0.01c0,0,0.01,0.01,0.01,0.01 c0.01,0.01,0.02,0.02,0.03,0.03c0.02,0.02,0.05,0.05,0.09,0.08c0.07,0.06,0.16,0.14,0.27,0.24c0.22,0.19,0.52,0.44,0.91,0.74 c0.78,0.59,1.92,1.37,3.47,2.23c3.1,1.71,7.8,3.72,14.49,5.19l1.59-7.25c-6.01-1.32-10.03-3.08-12.48-4.43 c-1.23-0.68-2.07-1.26-2.57-1.65c-0.25-0.19-0.42-0.33-0.51-0.41c-0.05-0.04-0.07-0.06-0.08-0.07c0,0,0,0,0,0 c0,0,0.01,0.01,0.01,0.01c0,0,0.01,0.01,0.01,0.01c0,0,0,0,0,0c0,0,0,0,0,0C489.19,2273.68,489.19,2273.68,486.57,2276.3z M482.85,2266.39v9.91h7.42v-9.91H482.85z M527.64,2357.22c0.91,1.83,3.14,2.58,4.98,1.67c1.84-0.91,2.58-3.14,1.67-4.98 L527.64,2357.22z M526.21,2311.57l3.71,0.09c0-0.08,0-0.15,0-0.23L526.21,2311.57z M486.57,2276.3h-3.71 c0,0.98,0.39,1.93,1.09,2.63L486.57,2276.3z M490.28,2266.39c0-2.05-1.66-3.71-3.71-3.71c-2.05,0-3.71,1.66-3.71,3.71H490.28z"/>
    <path d="M499.52,2350.33v6.01h7.42v-6.01H499.52z M502.08,2341.89c-1.67,2.51-2.55,5.45-2.55,8.44h7.42 c0-1.54,0.45-3.05,1.31-4.33L502.08,2341.89z M504.09,2338.9l-2,2.97l6.15,4.15l2-2.97L504.09,2338.9z M505.17,2335.45 c-0.05,1.26-0.44,2.47-1.11,3.5l6.22,4.05c1.41-2.16,2.21-4.67,2.31-7.27L505.17,2335.45z M505.87,2315.82l-0.71,19.64 l7.42,0.27l0.71-19.64L505.87,2315.82z M499.52,2356.35c0,2.05,1.66,3.71,3.71,3.71s3.71-1.66,3.71-3.71H499.52z M505.17,2343.95l-3.08-2.08l-0.01,0.02L505.17,2343.95z M507.17,2340.98l3.08,2.08c0.01-0.02,0.02-0.03,0.03-0.05 L507.17,2340.98z M508.88,2335.6l3.71,0.14l0-0.01L508.88,2335.6z M513.29,2316.09c0.07-2.05-1.53-3.77-3.58-3.84 s-3.77,1.53-3.84,3.58L513.29,2316.09z"/>
  </g>
</svg>
